<?xml version="1.0" standalone="no"?>
<!DOCTYPE svg PUBLIC "-//W3C//DTD SVG 20010904//EN"
 "http://www.w3.org/TR/2001/REC-SVG-20010904/DTD/svg10.dtd">
<svg version="1.0" xmlns="http://www.w3.org/2000/svg"
 width="477.000000pt" height="519.000000pt" viewBox="0 0 477.000000 519.000000"
 preserveAspectRatio="xMidYMid meet">
<metadata>
Created by potrace 1.16, written by Peter Selinger 2001-2019
</metadata>
<g transform="translate(0.000000,519.000000) scale(0.100000,-0.100000)"
fill="#3C4A56" stroke="none">
<path d="M2325 4783 c-5 -6 -26 -16 -45 -23 -19 -8 -37 -17 -40 -20 -3 -4 -18
-13 -35 -22 -16 -8 -79 -45 -139 -81 -60 -37 -112 -67 -116 -67 -4 0 -13 -7
-20 -15 -7 -8 -16 -13 -20 -10 -5 3 -10 1 -12 -3 -4 -11 -106 -77 -143 -93
-16 -8 -32 -17 -35 -20 -3 -4 -43 -29 -90 -57 -87 -51 -216 -129 -330 -200
-168 -105 -551 -332 -560 -332 -6 0 -10 -4 -10 -8 0 -5 -24 -21 -54 -36 -113
-57 -167 -126 -200 -254 -15 -54 -16 -169 -14 -1014 l3 -953 27 -57 c34 -73
72 -121 123 -156 22 -15 42 -29 45 -33 3 -3 20 -11 38 -18 17 -8 32 -17 32
-22 0 -5 4 -9 9 -9 5 0 58 -30 118 -66 59 -37 124 -76 143 -87 19 -12 37 -24
40 -27 3 -3 17 -12 32 -20 59 -32 213 -124 218 -129 3 -3 57 -37 120 -75 63
-38 117 -72 120 -75 3 -4 22 -15 43 -26 21 -11 46 -27 55 -35 9 -9 32 -22 50
-29 17 -7 32 -17 32 -22 0 -5 4 -9 10 -9 12 0 164 -92 168 -102 2 -4 7 -8 12
-8 11 0 114 -63 118 -72 2 -5 9 -8 15 -8 6 0 56 -29 111 -63 171 -108 173
-109 240 -114 48 -4 73 -1 107 14 24 11 48 20 53 20 5 1 12 6 15 11 7 12 152
102 164 102 4 0 17 8 28 18 11 11 60 43 109 72 50 29 93 57 96 61 3 5 10 7 15
4 5 -4 9 -2 9 2 0 5 14 17 30 26 17 10 30 15 30 12 0 -3 9 3 20 13 12 11 37
28 58 38 20 11 44 26 54 34 9 8 34 24 55 35 21 11 40 22 43 25 11 11 112 70
120 70 5 0 10 4 12 8 4 10 155 102 168 102 4 0 10 4 12 8 3 7 156 102 165 102
2 0 9 5 16 10 12 11 102 67 302 188 176 107 241 185 266 316 6 37 9 379 7
1009 l-3 952 -34 69 c-41 85 -80 116 -334 268 -503 302 -1249 754 -1302 788
-130 84 -154 93 -245 98 -47 2 -89 0 -95 -5z m112 -134 c34 -13 266 -151 828
-495 39 -23 126 -76 195 -117 660 -393 679 -406 714 -472 21 -40 21 -49 24
-992 2 -693 0 -964 -9 -995 -12 -47 -67 -106 -118 -129 -17 -8 -31 -17 -31
-20 0 -4 -15 -12 -32 -20 -18 -7 -35 -16 -38 -20 -5 -6 -80 -51 -148 -89 -15
-8 -29 -17 -32 -21 -10 -11 -111 -69 -120 -69 -6 0 -10 -3 -10 -7 0 -5 -24
-21 -53 -37 -28 -16 -54 -33 -57 -36 -3 -4 -30 -22 -60 -39 -30 -18 -86 -52
-125 -77 -38 -25 -79 -49 -90 -55 -11 -5 -50 -29 -87 -52 -37 -23 -129 -80
-205 -126 -76 -46 -146 -91 -155 -99 -10 -8 -18 -12 -18 -8 0 4 -9 -1 -19 -11
-11 -10 -37 -27 -58 -38 -21 -11 -40 -22 -43 -25 -4 -5 -43 -30 -105 -67 -11
-7 -31 -18 -45 -25 -14 -7 -27 -16 -30 -19 -17 -23 -94 -51 -125 -46 -27 4
-154 77 -200 114 -5 4 -27 17 -48 28 -21 11 -47 28 -58 38 -10 10 -19 15 -19
11 0 -4 -8 0 -17 8 -10 9 -23 17 -28 19 -6 2 -42 23 -80 47 -39 23 -133 81
-210 128 -77 47 -143 90 -146 96 -3 5 -10 9 -15 9 -5 -1 -40 19 -79 43 -38 24
-82 50 -97 57 -16 7 -28 16 -28 21 0 4 -5 8 -10 8 -12 0 -86 47 -114 72 -11
10 -25 18 -31 18 -6 0 -21 9 -33 20 -12 11 -24 20 -27 20 -3 0 -9 0 -13 0 -5
0 -18 9 -30 20 -12 12 -22 18 -22 15 0 -3 -14 2 -30 12 -17 9 -30 21 -30 25 0
4 -4 8 -9 8 -5 0 -37 17 -71 38 -33 20 -69 42 -78 47 -174 102 -215 134 -238
187 -18 41 -19 93 -22 1006 -2 926 -2 965 16 1006 17 38 67 86 127 123 64 39
145 84 147 81 2 -2 14 7 28 20 13 12 27 22 32 22 16 0 23 3 33 16 6 7 98 65
205 130 107 64 207 124 221 133 32 19 223 131 259 152 14 8 27 16 30 19 12 13
91 60 99 60 5 0 11 4 13 8 2 4 35 26 73 49 134 78 330 196 380 229 75 48 125
61 172 43z"/>
<path d="M2370 4501 c0 -4 -19 -18 -42 -31 -24 -13 -49 -30 -56 -37 -7 -7 -24
-16 -38 -19 -13 -3 -24 -10 -24 -14 0 -4 -15 -14 -32 -21 -18 -7 -42 -21 -52
-31 -11 -10 -26 -18 -33 -18 -7 0 -13 -4 -13 -8 0 -8 -51 -36 -59 -32 -2 1 -7
-2 -10 -7 -3 -6 -39 -30 -79 -54 -40 -24 -101 -61 -135 -82 -34 -21 -71 -42
-82 -47 -23 -11 -58 -33 -65 -40 -11 -11 -182 -110 -191 -110 -5 0 -9 -4 -9
-10 0 -5 -4 -10 -9 -10 -6 0 -30 -13 -54 -30 -25 -16 -50 -30 -56 -30 -7 0
-24 -11 -38 -24 -15 -14 -29 -23 -33 -21 -3 2 -19 -7 -34 -20 -16 -14 -33 -22
-37 -19 -5 3 -9 0 -9 -5 0 -6 -6 -11 -14 -11 -8 0 -16 -4 -18 -8 -3 -9 -125
-84 -206 -127 -20 -11 -40 -24 -44 -30 -4 -5 -8 -6 -8 -2 0 4 -10 -1 -22 -13
-12 -11 -25 -20 -30 -20 -17 0 -24 -5 -55 -43 l-33 -39 -1 -191 c0 -106 -3
-230 -6 -277 -2 -47 -2 -374 2 -728 l7 -643 53 -42 c29 -23 79 -58 110 -77 32
-19 63 -40 69 -45 12 -12 85 -55 92 -55 2 0 4 219 4 488 0 534 3 569 59 688
16 35 44 85 62 111 43 62 128 153 144 153 7 0 15 6 18 14 7 18 118 91 220 144
110 58 222 101 329 126 l93 23 3 66 3 67 -33 0 c-27 0 -37 -7 -55 -35 -13 -19
-42 -47 -65 -62 -40 -27 -46 -28 -171 -28 -95 0 -131 3 -134 13 -3 6 -9 12
-14 12 -20 0 -69 55 -85 95 -13 34 -15 71 -12 186 4 160 13 190 70 231 30 21
42 23 163 22 170 0 178 -2 213 -34 45 -40 52 -62 52 -150 0 -87 7 -98 55 -86
20 5 24 12 23 39 -5 86 2 116 33 152 54 61 75 65 325 65 264 0 310 -8 363 -58
31 -30 39 -46 45 -89 4 -29 4 -63 1 -76 l-7 -25 229 -4 c243 -5 262 -9 310
-60 38 -40 43 -73 43 -269 0 -104 4 -189 8 -189 5 0 18 -8 30 -17 11 -10 31
-25 43 -33 23 -14 161 -150 186 -182 22 -29 61 -114 80 -173 16 -55 18 -104
18 -592 0 -501 1 -533 18 -533 9 0 17 3 17 8 0 8 63 46 68 40 2 -1 8 5 13 15
6 9 15 17 20 17 6 0 16 6 23 12 8 7 24 20 36 28 13 8 49 37 82 63 l58 48 0
925 0 926 -32 30 c-17 16 -45 36 -62 43 -17 8 -47 25 -67 37 -20 13 -103 63
-185 111 -82 48 -210 124 -284 169 -74 44 -148 88 -165 98 -16 9 -93 55 -170
102 -204 123 -550 329 -620 369 -58 32 -105 46 -105 30z"/>
<path d="M1600 3470 l0 -120 90 0 90 0 0 120 0 120 -90 0 -90 0 0 -120z"/>
<path d="M2170 3525 l0 -45 113 -1 c61 0 166 -1 232 -2 l120 -2 0 45 0 45
-232 3 -233 2 0 -45z"/>
<path d="M2784 3296 c-3 -7 -4 -35 -2 -62 l3 -49 50 -8 c54 -8 238 -66 311
-98 25 -10 48 -19 50 -19 3 0 3 55 2 123 l-3 122 -203 3 c-166 2 -203 0 -208
-12z"/>
</g>
</svg>
