<?xml version="1.0" standalone="no"?>
<!DOCTYPE svg PUBLIC "-//W3C//DTD SVG 20010904//EN"
 "http://www.w3.org/TR/2001/REC-SVG-20010904/DTD/svg10.dtd">
<svg version="1.0" xmlns="http://www.w3.org/2000/svg"
 width="1400.000000pt" height="1600.000000pt" viewBox="0 0 1400.000000 1600.000000"
 preserveAspectRatio="xMidYMid meet">

<g transform="translate(0.000000,1600.000000) scale(0.100000,-0.100000)"
fill="#3C4A56" stroke="none">
<path d="M6895 14973 c-16 -3 -34 -8 -40 -13 -5 -4 -28 -11 -50 -14 -41 -8
-201 -84 -277 -133 -24 -15 -56 -34 -73 -43 -16 -9 -91 -51 -165 -95 -74 -43
-175 -101 -224 -129 -48 -28 -105 -60 -125 -72 -20 -11 -106 -61 -191 -110
-85 -49 -156 -92 -158 -96 -2 -5 -8 -8 -14 -8 -5 0 -35 -15 -66 -34 -51 -30
-166 -97 -302 -174 -25 -14 -62 -36 -83 -49 -43 -27 -74 -45 -174 -99 -37 -21
-79 -46 -92 -56 -13 -10 -28 -18 -32 -18 -5 0 -32 -15 -61 -33 -29 -19 -60
-37 -68 -40 -8 -4 -28 -16 -45 -26 -49 -30 -208 -121 -211 -121 -2 0 -28 -16
-58 -35 -30 -19 -57 -35 -60 -35 -3 0 -35 -18 -71 -40 -36 -22 -67 -40 -70
-40 -3 0 -29 -16 -59 -35 -30 -19 -58 -35 -61 -35 -3 0 -24 -12 -48 -27 -23
-15 -89 -54 -147 -86 -155 -88 -168 -96 -292 -168 -62 -37 -135 -79 -163 -94
-27 -15 -62 -36 -77 -46 -14 -11 -28 -19 -31 -19 -4 0 -215 -119 -247 -140 -8
-5 -44 -26 -80 -46 -91 -52 -302 -174 -445 -258 -66 -39 -133 -77 -150 -86
-41 -22 -343 -197 -490 -283 -66 -39 -133 -79 -150 -87 -33 -18 -240 -137
-413 -239 -63 -36 -126 -72 -140 -80 -36 -19 -189 -173 -202 -203 -6 -13 -23
-44 -39 -70 -16 -25 -37 -73 -46 -105 -10 -32 -23 -69 -29 -82 -16 -34 -16
-6522 0 -6542 6 -8 15 -31 18 -53 8 -45 56 -153 89 -199 94 -135 199 -222 377
-310 25 -12 47 -25 50 -28 3 -3 25 -17 50 -31 25 -14 144 -83 265 -153 225
-130 234 -136 358 -206 40 -23 86 -50 102 -60 17 -10 37 -22 45 -26 8 -3 39
-21 68 -40 29 -18 55 -33 59 -33 3 0 34 -18 69 -40 35 -22 66 -40 68 -40 2 0
49 -26 103 -58 54 -32 105 -61 113 -65 8 -4 33 -18 55 -32 22 -14 49 -30 60
-36 11 -5 29 -15 40 -22 95 -57 124 -73 148 -87 32 -17 314 -180 339 -195 9
-5 29 -17 45 -26 34 -19 222 -128 483 -279 107 -62 213 -123 235 -135 22 -12
81 -46 130 -75 50 -29 110 -64 135 -78 25 -13 50 -27 55 -32 10 -8 506 -295
580 -335 22 -12 65 -37 95 -55 30 -18 174 -101 320 -185 146 -84 306 -176 355
-205 50 -29 110 -64 135 -78 87 -49 328 -189 418 -243 15 -9 52 -30 82 -46 30
-17 84 -48 120 -69 141 -81 174 -97 263 -125 79 -25 108 -29 203 -29 61 0 124
4 140 9 16 5 56 17 88 26 58 17 148 62 230 113 22 13 58 34 80 46 23 13 82 46
131 75 50 29 110 65 135 79 25 14 62 36 82 49 21 12 40 23 44 23 3 0 18 8 32
19 15 10 54 33 87 51 33 18 74 42 90 52 17 10 37 21 45 25 8 3 26 14 40 23 14
10 57 34 95 55 39 21 77 43 85 50 8 6 42 27 75 45 33 18 74 41 90 50 17 10 68
40 115 66 47 27 94 54 105 61 11 7 27 15 35 19 8 4 26 15 40 24 14 10 52 32
85 50 33 18 80 44 105 58 25 14 56 32 70 42 14 9 57 34 95 56 39 21 78 43 87
49 9 5 56 33 105 61 48 28 128 74 177 102 49 29 91 52 93 52 2 0 22 12 46 27
38 24 230 135 469 272 18 10 74 42 123 71 50 29 178 103 285 165 107 62 251
145 320 185 69 40 138 80 154 88 15 8 56 32 90 53 33 22 70 43 81 48 11 5 115
64 230 131 116 67 230 134 255 148 25 14 83 48 130 75 47 27 108 62 135 77 28
15 86 49 130 75 44 26 105 61 135 78 30 16 62 35 70 42 8 7 29 19 45 27 32 16
279 158 330 189 17 10 37 22 45 25 39 18 141 98 191 150 30 33 74 91 96 129
38 65 50 96 85 215 20 69 19 6494 -1 6560 -46 149 -77 214 -139 288 -103 123
-128 141 -432 314 -19 11 -75 44 -125 73 -94 55 -121 70 -220 125 -33 18 -67
39 -75 45 -8 7 -46 29 -85 50 -38 21 -81 45 -95 55 -14 9 -29 19 -35 21 -9 4
-209 117 -253 144 -9 6 -48 28 -87 50 -38 21 -93 54 -122 72 -29 18 -55 33
-58 33 -3 0 -24 12 -47 26 -23 14 -60 36 -82 49 -39 21 -191 108 -228 130 -38
23 -135 79 -165 96 -17 10 -50 29 -72 43 -22 15 -42 26 -44 26 -2 0 -44 23
-93 52 -49 28 -102 58 -119 66 -16 8 -37 20 -45 27 -8 7 -40 26 -70 42 -30 17
-95 54 -145 83 -49 30 -108 63 -130 76 -22 12 -80 46 -130 75 -49 29 -107 62
-127 73 -20 12 -78 45 -130 75 -51 30 -113 65 -138 79 -25 14 -49 28 -55 32
-10 8 -73 43 -135 76 -19 11 -37 21 -40 25 -4 4 -65 39 -145 83 -11 6 -65 38
-120 70 -55 32 -158 92 -230 133 -71 41 -137 78 -145 83 -8 5 -53 31 -100 58
-47 27 -173 100 -280 162 -107 62 -251 145 -320 185 -69 40 -165 96 -215 125
-49 29 -108 62 -130 74 -22 13 -114 66 -205 118 -187 108 -261 145 -311 154
-19 4 -40 11 -47 17 -13 10 -218 19 -267 10z m213 -541 c47 -24 128 -70 232
-132 39 -23 163 -95 260 -150 36 -21 121 -70 190 -110 69 -39 143 -82 165 -95
22 -13 110 -63 195 -113 289 -167 425 -245 462 -266 21 -12 93 -53 160 -92
261 -152 435 -253 753 -436 182 -105 416 -240 520 -300 105 -61 210 -122 235
-136 25 -14 62 -36 82 -49 21 -12 40 -23 43 -23 3 0 31 -16 61 -35 30 -19 57
-35 61 -35 3 0 34 -18 69 -40 35 -22 66 -40 69 -40 3 0 31 -16 61 -35 30 -19
57 -35 60 -35 3 0 30 -16 60 -35 30 -19 56 -35 58 -35 3 0 283 -160 348 -200
18 -11 40 -23 48 -27 8 -3 39 -21 68 -40 29 -18 54 -33 56 -33 2 0 70 -39 152
-86 82 -47 174 -100 204 -116 30 -17 78 -46 107 -64 28 -19 54 -34 56 -34 2 0
44 -23 93 -51 49 -29 105 -61 124 -72 363 -205 415 -241 445 -301 l25 -50 0
-3167 c0 -3081 -1 -3169 -19 -3211 -28 -65 -51 -82 -251 -196 -49 -27 -99 -56
-220 -127 -58 -34 -127 -74 -155 -90 -27 -15 -149 -85 -270 -155 -121 -70
-240 -139 -265 -153 -25 -14 -112 -64 -195 -112 -207 -121 -442 -257 -555
-322 -52 -29 -102 -58 -110 -63 -41 -25 -152 -90 -154 -90 -3 0 -148 -84 -456
-262 -85 -50 -173 -100 -195 -112 -22 -13 -58 -33 -80 -46 -22 -13 -64 -37
-94 -54 -29 -17 -68 -40 -87 -51 -32 -20 -124 -72 -194 -112 -39 -22 -138 -80
-178 -104 -15 -9 -48 -27 -74 -42 -25 -14 -64 -37 -87 -51 -22 -14 -43 -26
-46 -26 -3 0 -35 -18 -71 -40 -36 -22 -68 -40 -70 -40 -2 0 -27 -15 -56 -33
-29 -19 -60 -37 -68 -40 -8 -4 -22 -11 -30 -17 -24 -16 -221 -130 -225 -130
-2 0 -60 -34 -130 -75 -69 -41 -128 -75 -130 -75 -2 0 -47 -26 -102 -58 -54
-32 -118 -70 -143 -84 -25 -14 -96 -55 -159 -92 -62 -36 -115 -66 -117 -66 -3
0 -23 -12 -47 -27 -23 -14 -118 -70 -212 -124 -93 -53 -186 -106 -205 -118
-63 -38 -140 -71 -167 -71 -32 0 -108 27 -143 50 -14 10 -45 28 -70 42 -25 14
-74 43 -110 63 -36 21 -83 48 -105 60 -22 12 -91 52 -153 89 -62 36 -115 66
-117 66 -2 0 -32 17 -67 39 -58 35 -403 235 -818 473 -91 53 -226 130 -300
173 -74 43 -157 91 -185 107 -27 16 -57 33 -65 38 -8 5 -40 24 -70 41 -392
224 -597 343 -605 349 -5 4 -30 18 -55 32 -25 14 -71 40 -103 59 -32 19 -80
46 -105 60 -106 59 -444 256 -537 314 -55 34 -134 80 -175 102 -81 43 -157 85
-205 115 -16 10 -37 21 -45 25 -8 4 -38 22 -67 40 -29 18 -55 33 -58 33 -3 0
-24 12 -47 26 -23 14 -60 36 -82 48 -23 13 -81 46 -130 74 -49 29 -91 52 -93
52 -2 0 -27 15 -56 33 -29 18 -59 36 -67 40 -8 4 -31 17 -50 29 -19 12 -64 38
-100 58 -36 20 -81 46 -100 57 -144 84 -263 153 -267 153 -2 0 -32 17 -66 38
-34 21 -96 58 -137 82 -204 118 -214 126 -245 175 l-30 48 -3 3174 -2 3173 24
48 c33 65 50 78 231 183 88 50 309 177 490 281 182 105 347 201 367 214 21 13
40 24 43 24 3 0 31 16 61 35 30 19 57 35 61 35 3 0 27 13 52 29 25 15 111 66
191 111 80 46 205 119 279 162 73 43 135 78 136 78 2 0 61 34 130 75 70 41
129 75 131 75 2 0 28 16 58 35 30 19 57 35 60 35 2 0 51 27 108 61 57 34 122
72 145 84 88 50 303 174 342 199 22 14 42 26 44 26 2 0 44 23 93 52 82 47 139
80 269 153 28 15 61 35 75 45 14 9 32 20 40 23 8 4 29 15 45 25 17 10 53 31
80 46 28 16 55 32 60 36 6 4 62 37 125 72 63 36 183 105 265 153 83 48 168 98
190 110 49 27 124 71 274 158 62 37 115 67 117 67 3 0 21 11 42 23 32 21 127
76 537 312 50 29 135 78 190 110 202 118 217 125 268 125 33 0 66 -9 105 -28z"/>
<path d="M6959 13909 c-24 -16 -47 -29 -51 -29 -4 0 -32 -16 -62 -35 -30 -19
-57 -35 -60 -35 -3 0 -35 -18 -71 -40 -36 -22 -67 -40 -70 -40 -3 0 -29 -16
-59 -35 -30 -19 -58 -35 -61 -35 -4 0 -19 -8 -33 -19 -15 -10 -81 -49 -147
-86 -127 -72 -159 -90 -252 -144 -32 -19 -71 -42 -88 -51 -16 -10 -57 -33 -90
-52 -33 -19 -123 -71 -200 -115 -77 -45 -156 -90 -175 -101 -19 -12 -73 -43
-120 -70 -47 -27 -129 -74 -182 -105 -168 -97 -286 -166 -493 -285 -207 -119
-223 -128 -442 -255 -72 -42 -149 -86 -170 -98 -21 -12 -139 -80 -263 -152
-264 -153 -329 -191 -390 -225 -25 -14 -57 -33 -72 -43 -14 -11 -29 -19 -33
-19 -5 0 -36 -18 -71 -40 -35 -22 -65 -40 -67 -40 -3 0 -56 -30 -118 -66 -63
-37 -129 -75 -147 -86 -48 -27 -283 -163 -382 -221 -47 -27 -103 -59 -125 -71
-39 -22 -241 -139 -375 -218 -36 -21 -113 -65 -172 -99 l-108 -61 0 -2939 0
-2939 37 -24 c21 -13 99 -59 173 -102 125 -72 331 -190 408 -235 18 -11 63
-37 100 -58 67 -38 260 -149 422 -244 47 -27 105 -61 130 -75 25 -13 56 -33
70 -42 32 -22 336 -197 460 -265 52 -29 146 -82 209 -118 62 -37 115 -67 118
-67 2 0 29 -16 59 -35 30 -19 57 -35 60 -35 3 0 29 -15 58 -33 28 -17 61 -37
72 -44 10 -7 46 -26 79 -44 33 -18 87 -49 120 -69 33 -21 107 -64 164 -96 57
-33 116 -66 130 -74 14 -9 58 -33 96 -55 39 -21 93 -54 122 -72 29 -18 54 -33
56 -33 5 0 160 -89 214 -123 24 -15 45 -27 48 -27 3 0 34 -17 68 -38 34 -22
82 -50 107 -64 108 -62 282 -161 305 -175 11 -7 27 -15 35 -19 8 -5 38 -23 67
-41 29 -18 55 -33 58 -33 3 0 22 -11 43 -23 20 -13 57 -35 82 -49 63 -36 212
-121 232 -133 31 -18 133 -78 163 -95 17 -10 70 -40 119 -69 49 -28 91 -51 93
-51 2 0 32 -17 66 -39 115 -71 344 -201 356 -201 6 0 28 10 49 23 53 33 61 37
232 136 200 114 178 102 505 291 154 89 298 172 320 185 42 24 350 202 520
300 55 32 172 100 260 150 88 51 204 118 258 149 53 31 139 80 191 110 51 30
112 66 134 80 23 14 43 26 45 26 2 0 43 23 91 50 48 28 89 50 93 50 3 0 58 31
122 68 64 38 139 82 166 98 28 16 59 34 70 41 11 7 26 15 34 19 7 4 52 30 100
57 47 27 106 61 131 75 25 14 63 37 85 52 22 15 74 46 115 70 41 24 120 69
175 100 55 32 141 81 190 110 50 29 104 60 120 68 17 9 53 31 82 49 29 18 54
33 57 33 3 0 35 18 71 40 36 22 68 40 71 40 3 0 18 8 32 19 15 10 47 30 72 43
25 14 83 48 130 75 47 27 105 61 130 75 25 14 96 55 159 92 62 36 115 66 117
66 2 0 28 16 58 35 30 19 57 35 60 35 3 0 29 15 58 33 29 19 61 36 71 40 16 6
17 153 15 2953 l-3 2946 -65 38 c-36 20 -153 88 -260 150 -107 62 -267 154
-355 205 -88 51 -205 118 -260 150 -55 32 -167 97 -248 144 -82 47 -168 97
-192 111 -23 14 -80 46 -126 73 -46 26 -91 52 -99 56 -8 5 -69 41 -135 79 -66
38 -165 95 -220 127 -55 32 -113 65 -130 75 -16 9 -56 32 -88 51 -33 19 -75
43 -95 55 -21 12 -66 38 -102 59 -36 20 -90 51 -120 67 -30 17 -67 39 -82 49
-14 11 -29 19 -33 19 -3 0 -31 16 -61 35 -30 19 -56 35 -58 35 -2 0 -55 30
-117 66 -63 37 -127 74 -144 82 -16 9 -53 31 -82 49 -29 18 -55 33 -58 33 -3
0 -31 16 -61 35 -30 19 -57 35 -59 35 -3 0 -34 17 -68 38 -70 44 -100 61 -282
162 -32 18 -83 48 -112 66 -28 19 -55 34 -58 34 -3 0 -24 12 -48 27 -23 15
-87 52 -142 83 -55 31 -140 80 -189 108 -49 29 -91 52 -93 52 -2 0 -32 17 -66
38 -34 22 -82 50 -107 64 -67 38 -106 60 -200 115 -292 170 -442 257 -526 303
l-51 29 -44 -30z m103 -874 c20 -14 39 -25 42 -25 3 0 35 -18 71 -40 36 -22
68 -40 71 -40 3 0 18 -8 32 -19 15 -10 47 -29 72 -43 43 -24 131 -75 188 -109
15 -9 54 -31 87 -49 33 -18 76 -44 95 -57 19 -12 38 -23 42 -23 4 0 32 -16 62
-35 30 -19 58 -35 61 -35 3 0 34 -17 68 -38 34 -22 82 -50 107 -64 75 -43 110
-63 229 -132 62 -36 115 -66 117 -66 2 0 28 -16 58 -35 30 -19 58 -35 61 -35
3 0 34 -17 68 -38 34 -22 82 -50 107 -64 25 -14 63 -36 85 -49 22 -12 55 -30
73 -40 18 -10 38 -22 45 -27 7 -5 46 -27 87 -49 41 -22 248 -140 460 -263 212
-122 400 -231 418 -241 114 -66 178 -102 267 -154 146 -85 327 -189 520 -300
94 -54 175 -101 180 -105 6 -5 30 -19 55 -32 25 -14 104 -59 177 -101 72 -42
149 -86 170 -98 21 -11 65 -38 98 -58 33 -21 87 -53 120 -72 l60 -35 3 -2466
2 -2467 -72 -41 c-40 -22 -113 -65 -162 -95 -49 -30 -90 -55 -91 -55 -3 0
-221 -125 -245 -140 -8 -5 -54 -32 -102 -60 -136 -77 -268 -154 -286 -165 -9
-6 -63 -36 -118 -68 -98 -55 -105 -57 -173 -57 l-71 0 0 315 c0 173 -4 315 -9
315 -4 0 -39 -27 -77 -61 -94 -84 -268 -213 -389 -290 -55 -35 -103 -68 -107
-74 -4 -5 -8 -54 -8 -107 l0 -98 -660 0 -659 0 -3 438 c-3 500 -1 488 -94 577
-55 52 -117 75 -203 75 -110 0 -221 -79 -261 -186 -19 -52 -20 -76 -20 -479
l0 -425 -665 0 -665 0 0 108 -1 107 -97 60 c-114 70 -275 190 -386 286 -44 38
-82 69 -85 69 -3 0 -5 -142 -3 -315 l3 -315 -521 0 -520 0 2 2783 3 2782 640
5 640 5 145 97 c188 125 395 238 570 309 44 18 5 18 -1575 16 l-1620 -2 -64
-23 c-146 -53 -258 -163 -314 -310 l-22 -57 -3 -2652 c-2 -1964 -5 -2653 -13
-2653 -7 0 -34 14 -61 30 -26 16 -50 30 -52 30 -3 0 -40 21 -83 46 -86 52
-249 146 -303 177 -19 10 -65 37 -102 59 l-68 39 0 2463 c0 1959 3 2466 13
2474 10 8 323 189 457 265 19 10 73 42 120 70 47 27 103 60 125 72 22 12 81
46 130 75 155 91 209 122 240 138 17 9 53 31 82 49 29 18 55 33 58 33 3 0 24
12 47 26 23 14 60 36 82 48 23 13 82 47 131 76 50 29 110 64 135 77 25 14 50
28 55 33 6 4 30 19 55 32 25 14 86 49 135 78 50 29 108 63 130 75 96 54 311
178 320 185 6 4 33 20 60 35 183 101 273 152 290 162 11 7 27 15 35 19 8 4 31
17 50 29 29 18 360 210 475 275 17 10 75 43 130 75 55 32 156 90 225 130 69
40 170 98 225 130 55 32 140 81 188 109 49 28 96 56 105 61 9 6 60 34 112 64
125 71 142 81 225 130 38 22 77 41 85 41 8 0 32 -11 52 -25z m-2727 -2985 l0
-365 -365 0 -365 0 -3 334 c-2 361 -1 370 51 391 12 5 171 8 352 7 l330 -2 0
-365z m5 -1175 l0 -365 -370 0 -370 0 0 365 0 365 370 0 370 0 0 -365z m0
-1170 l0 -365 -370 0 -370 0 0 365 0 365 370 0 370 0 0 -365z m-2 -1172 l-3
-368 -365 0 -365 0 -3 355 c-1 195 0 361 3 367 3 10 86 13 370 13 l365 0 -2
-367z m-3 -1173 l0 -365 -365 0 -365 0 -3 355 c-1 195 0 361 3 368 3 10 82 12
367 10 l363 -3 0 -365z"/>
<path d="M7193 11780 c-67 -40 -68 -45 -71 -452 -2 -203 0 -368 4 -368 4 0 77
16 163 35 208 46 339 64 542 75 320 17 647 -14 953 -91 48 -12 82 -17 88 -11
5 5 8 160 6 368 -3 398 -4 404 -71 444 -31 19 -56 20 -807 20 -751 0 -776 -1
-807 -20z"/>
<path d="M7718 10619 c-91 -9 -273 -43 -383 -70 -472 -117 -894 -351 -1258
-699 l-105 -100 -184 0 c-174 0 -187 -1 -229 -23 -160 -85 -154 -315 10 -386
l50 -21 2393 2 2393 3 39 21 c80 42 126 134 112 226 -9 58 -39 103 -94 143
l-44 30 -196 3 -196 3 -101 97 c-451 435 -997 692 -1625 768 -124 14 -456 17
-582 3z"/>
<path d="M5362 8718 c-105 -317 -147 -599 -139 -933 8 -302 54 -560 149 -834
l51 -145 -24 -15 c-78 -51 -120 -146 -99 -229 17 -71 52 -116 111 -146 l53
-26 2536 0 2536 0 51 25 c59 30 97 80 112 145 18 83 -21 183 -89 223 -16 10
-30 22 -30 26 0 4 18 59 41 122 50 140 110 384 135 544 26 167 26 577 1 750
-22 150 -75 362 -129 523 l-42 122 -2586 0 -2587 0 -51 -152z m3138 -134 c20
-20 20 -22 5 -95 -8 -40 -28 -112 -44 -159 -41 -119 -78 -248 -85 -295 -4 -22
-20 -78 -35 -125 -58 -171 -80 -247 -100 -342 -11 -53 -26 -109 -34 -125 -19
-36 -76 -229 -92 -311 -7 -34 -26 -101 -43 -150 -17 -48 -36 -107 -42 -131 -6
-24 -23 -54 -36 -68 -24 -24 -26 -24 -44 -8 -27 25 -59 105 -81 208 -20 91
-39 157 -85 292 -13 39 -31 102 -40 140 -21 95 -72 269 -96 330 -11 27 -24 74
-29 105 -11 57 -48 185 -104 355 -18 55 -36 120 -40 145 -4 25 -18 81 -32 126
-15 45 -23 88 -20 97 3 9 21 21 39 26 20 6 231 9 525 8 482 -2 493 -2 513 -23z
m-1263 -252 c29 -16 57 -71 82 -159 23 -86 87 -266 111 -313 10 -19 23 -60 29
-89 11 -53 58 -186 99 -281 10 -25 31 -88 46 -140 15 -52 48 -143 72 -202 24
-59 44 -113 44 -121 0 -8 16 -63 36 -122 35 -106 40 -155 17 -162 -6 -2 -16 2
-22 9 -13 17 -98 115 -176 203 -33 38 -85 98 -115 135 -30 37 -99 119 -153
181 -54 63 -128 149 -165 192 -37 44 -94 109 -127 147 -33 37 -91 104 -130
150 -38 45 -95 110 -125 145 -30 34 -89 102 -130 150 -41 48 -106 121 -143
163 -75 85 -83 112 -32 124 17 3 194 6 395 5 276 -2 370 -5 387 -15z m2256 7
c20 -5 37 -15 37 -20 0 -11 -63 -87 -165 -200 -48 -53 -95 -108 -270 -314 -42
-49 -101 -118 -131 -152 -30 -34 -65 -74 -76 -90 -12 -15 -42 -51 -67 -79 -25
-28 -80 -91 -121 -139 -41 -48 -100 -116 -130 -150 -30 -34 -86 -99 -125 -145
-38 -46 -95 -111 -125 -145 -30 -34 -63 -76 -72 -93 -20 -38 -60 -57 -89 -42
-29 16 -30 13 61 245 11 28 29 84 41 125 11 41 31 100 44 130 25 60 68 181
108 300 13 41 43 123 65 182 22 59 43 122 47 140 4 18 32 95 61 171 30 76 59
159 65 186 12 55 33 80 81 91 51 12 717 12 761 -1z m-3090 -283 c31 -13 211
-196 545 -553 83 -88 177 -187 209 -220 32 -32 119 -123 193 -203 74 -80 158
-167 186 -195 28 -28 63 -70 78 -93 l27 -44 -23 7 c-60 18 -281 148 -668 395
-41 26 -178 112 -305 191 -126 78 -277 173 -335 209 -58 37 -249 156 -425 265
-176 109 -328 205 -338 214 -17 15 -17 16 -1 28 27 20 811 19 857 -1z m3997 4
c13 -8 12 -12 -5 -28 -11 -10 -297 -191 -635 -402 -338 -211 -723 -451 -855
-533 -369 -232 -476 -297 -527 -323 -45 -23 -79 -30 -90 -19 -3 3 42 55 101
114 58 60 169 176 246 258 77 81 194 204 261 273 67 69 226 238 354 375 243
261 255 272 298 285 39 12 834 12 852 0z"/>
<path d="M6035 5889 c189 -195 495 -413 750 -535 161 -76 420 -174 463 -174 6
0 11 115 15 293 4 250 8 302 25 362 11 39 23 78 27 88 7 16 -29 17 -661 17
l-668 0 49 -51z"/>
<path d="M8685 5923 c43 -114 48 -154 52 -451 l5 -294 37 7 c54 10 291 101
416 160 268 126 559 330 755 529 l64 66 -668 0 c-632 0 -668 -1 -661 -17z"/>
</g>
</svg>
