<?xml version="1.0" standalone="no"?>
<!DOCTYPE svg PUBLIC "-//W3C//DTD SVG 20010904//EN"
 "http://www.w3.org/TR/2001/REC-SVG-20010904/DTD/svg10.dtd">
<svg version="1.0" xmlns="http://www.w3.org/2000/svg"
 width="333.000000pt" height="362.000000pt" viewBox="0 0 333.000000 362.000000"
 preserveAspectRatio="xMidYMid meet">

<g transform="translate(0.000000,362.000000) scale(0.100000,-0.100000)"
fill="#3C4A56" stroke="none">
<path d="M1565 3436 c-22 -7 -125 -61 -230 -121 -104 -59 -374 -211 -600 -337
-226 -126 -423 -241 -438 -256 -15 -15 -42 -56 -60 -92 l-32 -65 0 -696 1
-696 33 -67 c18 -36 47 -78 66 -93 18 -15 111 -70 207 -123 95 -53 292 -163
438 -244 146 -82 344 -192 440 -245 l175 -96 80 0 80 0 285 159 c267 149 356
198 785 439 177 99 217 132 256 207 l24 45 0 710 0 710 -30 59 c-16 32 -46 73
-67 90 -20 18 -126 81 -235 141 -109 60 -376 210 -593 334 -217 123 -411 230
-430 237 -44 16 -103 16 -155 0z m324 -175 c829 -462 1029 -575 1048 -593 13
-12 32 -40 43 -63 19 -40 20 -61 20 -731 0 -650 -1 -691 -19 -729 -27 -58 -71
-94 -206 -167 -129 -70 -389 -216 -793 -444 -138 -79 -271 -148 -294 -154 -22
-7 -57 -9 -77 -5 -19 4 -148 70 -286 147 -281 159 -776 433 -875 486 -85 45
-117 76 -146 137 l-24 50 0 666 c0 735 -1 721 63 793 20 21 108 77 227 144
107 60 362 203 565 317 490 275 450 255 508 255 45 0 70 -11 246 -109z"/>
<path d="M1570 3277 c-42 -22 -449 -251 -915 -513 -263 -148 -256 -143 -282
-189 l-23 -40 0 -650 c0 -426 4 -663 11 -688 5 -21 22 -51 37 -66 15 -16 200
-125 412 -241 212 -117 477 -265 589 -328 169 -96 210 -115 245 -115 33 0 68
15 181 80 162 92 591 332 810 453 234 128 251 140 274 180 21 37 21 46 21 704
0 716 1 706 -51 752 -13 11 -235 139 -494 284 -258 145 -519 293 -580 328
-131 77 -169 85 -235 49z m625 -543 c14 -9 29 -33 35 -54 6 -24 10 -181 10
-400 l-1 -361 68 -73 c76 -81 148 -208 182 -320 43 -141 45 -302 5 -472 l-17
-71 -136 -75 c-75 -42 -261 -146 -415 -231 l-278 -156 -87 44 c-47 25 -234
127 -416 228 l-329 184 -13 49 c-41 155 -46 343 -13 469 71 276 280 505 543
594 l52 18 0 74 0 74 -62 3 -63 3 0 59 0 60 34 0 c68 0 96 11 96 36 0 17 8 28
28 37 26 11 25 12 -25 15 l-53 3 0 68 c0 67 0 68 35 87 32 17 37 17 77 3 42
-16 43 -17 46 -67 2 -39 8 -54 22 -62 15 -8 21 -6 31 11 13 24 26 15 31 -21 3
-23 8 -25 56 -28 l52 -3 0 65 c0 39 5 70 13 78 7 7 21 34 31 60 32 85 41 88
253 88 152 0 188 -3 208 -16z"/>
<path d="M1799 2710 c-27 -15 -43 -65 -29 -89 6 -12 15 -21 20 -21 5 0 10 -30
12 -67 l3 -68 42 -3 c45 -3 73 -28 73 -64 0 -26 28 -22 32 5 3 21 8 22 83 22
l80 0 3 -82 3 -83 -101 0 -100 0 0 -76 0 -75 33 -11 c51 -18 154 -74 196 -107
l38 -30 6 354 c4 195 4 361 1 370 -4 9 -18 21 -31 26 -32 12 -343 11 -364 -1z"/>
<path d="M1430 2013 c-256 -43 -498 -289 -554 -565 -17 -80 -20 -218 -7 -253
7 -18 11 -15 30 23 12 24 38 89 57 145 67 193 143 318 262 428 87 80 206 152
311 189 51 17 75 30 65 34 -17 6 -123 6 -164 -1z"/>
</g>
</svg>
