<?xml version="1.0" standalone="no"?>
<!DOCTYPE svg PUBLIC "-//W3C//DTD SVG 20010904//EN"
 "http://www.w3.org/TR/2001/REC-SVG-20010904/DTD/svg10.dtd">
<svg version="1.0" xmlns="http://www.w3.org/2000/svg"
 width="501.000000pt" height="501.000000pt" viewBox="0 0 501.000000 501.000000"
 preserveAspectRatio="xMidYMid meet">

<g transform="translate(0.000000,501.000000) scale(0.100000,-0.100000)"
fill="#d4d4d4" stroke="none">
<path d="M2590 4763 c0 -4 5 -26 10 -48 14 -62 60 -392 59 -423 -1 -19 -4 -14
-10 18 -59 287 -103 450 -123 450 -21 0 -24 -9 -14 -58 14 -77 48 -345 44
-349 -2 -2 -11 36 -20 84 -9 49 -29 137 -43 196 -21 85 -30 107 -42 105 -21
-5 -20 -16 22 -203 44 -200 52 -248 26 -165 -61 195 -100 317 -108 329 -7 10
-13 11 -30 2 -21 -12 -21 -12 -2 -49 19 -38 53 -153 47 -160 -2 -1 -15 16 -30
40 -14 24 -43 62 -63 85 -37 41 -38 42 -61 25 l-23 -18 31 -69 c36 -79 130
-321 130 -332 0 -5 -27 46 -59 112 -32 67 -75 151 -96 189 -35 62 -39 66 -54
52 -15 -15 -14 -20 12 -64 28 -48 156 -293 169 -324 15 -36 -2 -16 -33 40 -57
102 -193 302 -203 299 -5 -2 -14 -10 -20 -19 -7 -13 1 -27 37 -68 43 -47 157
-211 157 -224 0 -3 -18 14 -40 38 -44 47 -141 115 -202 140 l-37 16 -52 -63
c-29 -34 -68 -86 -87 -116 -33 -52 -82 -153 -82 -170 0 -5 38 -6 84 -4 152 10
280 -33 363 -121 l31 -34 55 13 c93 22 188 27 279 15 48 -6 98 -14 110 -19 22
-9 22 -9 -7 -15 -107 -22 -199 -48 -255 -73 l-64 -29 90 -59 c144 -96 370
-304 419 -384 10 -17 16 -21 -149 87 -139 90 -156 99 -156 85 0 -5 -34 -60
-75 -122 -66 -98 -101 -145 -212 -281 l-22 -27 72 -13 c239 -42 466 -165 659
-356 l77 -76 25 18 c45 34 125 144 166 227 115 240 104 510 -31 738 l-42 70
13 62 c7 34 14 63 16 65 1 2 33 -12 70 -31 98 -49 157 -105 196 -185 32 -65
33 -70 33 -192 0 -139 -7 -169 -95 -405 -96 -257 -122 -385 -101 -500 17 -91
61 -174 132 -250 l64 -67 0 154 c1 141 3 160 29 238 15 47 60 155 98 240 157
346 188 455 195 692 4 130 2 189 -12 270 -29 175 -100 365 -183 490 l-25 39
-116 -113 c-133 -130 -193 -181 -110 -93 78 83 199 226 199 235 0 4 -6 12 -13
18 -10 8 -39 -21 -127 -124 -63 -75 -119 -138 -125 -142 -6 -3 -6 0 1 9 67 88
139 186 174 238 l42 63 -23 24 -24 23 -82 -132 c-99 -157 -141 -212 -83 -107
72 132 130 249 130 264 0 7 -11 21 -24 29 -24 16 -24 16 -46 -36 -36 -85 -143
-307 -146 -304 -2 1 17 52 40 112 24 61 55 147 69 192 l25 82 -46 30 c-90 56
-182 97 -191 83 -4 -7 -25 -85 -45 -173 -21 -88 -40 -158 -42 -156 -3 2 7 73
21 158 14 84 25 163 25 175 0 18 -17 34 -35 34 -1 0 -6 -30 -10 -67 -11 -106
-45 -327 -52 -333 -3 -3 -3 20 1 50 4 30 9 125 13 211 l6 155 -54 12 c-30 7
-81 16 -114 20 l-60 8 -2 -246 c-2 -327 -16 -414 -26 -166 -7 173 -29 357 -48
400 -9 21 -8 -26 7 -309 4 -66 3 -117 -1 -113 -4 4 -13 68 -21 142 -14 135
-39 284 -49 294 -11 11 -12 -6 -5 -83 5 -44 10 -154 13 -245 5 -174 2 -164
-28 85 -22 178 -36 239 -58 243 -9 2 -17 0 -17 -5z"/>
<path d="M1605 4621 c-163 -67 -176 -73 -314 -155 -294 -174 -567 -434 -757
-723 -366 -553 -482 -1225 -323 -1865 140 -562 487 -1059 969 -1385 78 -53
292 -175 297 -170 2 2 -1 37 -7 78 -17 132 -13 211 16 286 25 68 30 116 16
183 -6 28 -13 36 -34 38 -51 6 -88 151 -88 346 0 108 -3 131 -31 213 l-31 93
32 82 c18 46 46 109 62 141 34 63 97 127 126 127 10 0 21 2 24 6 7 7 -30 147
-247 914 -24 85 -74 261 -110 390 -36 129 -84 297 -106 373 -21 77 -39 146
-39 155 0 8 -3 13 -6 9 -3 -3 -21 -135 -40 -294 -18 -158 -47 -405 -64 -548
-17 -143 -46 -395 -65 -560 -19 -165 -42 -349 -50 -408 -8 -59 -15 -110 -15
-112 0 -3 15 -5 33 -5 90 0 161 -51 262 -188 l61 -82 -13 -122 c-13 -117 -12
-125 7 -173 46 -115 55 -158 54 -277 0 -113 1 -117 24 -127 36 -17 103 -13
150 9 57 26 51 4 -7 -29 -45 -25 -147 -34 -204 -18 -27 7 -27 7 -21 -33 4 -22
3 -40 -2 -40 -5 0 -56 42 -114 93 -409 363 -672 865 -745 1420 -17 135 -20
390 -5 522 58 507 278 974 629 1338 221 228 482 407 766 523 44 18 73 33 65
33 -8 0 -78 -26 -155 -58z m-470 -1801 c25 -256 54 -558 66 -671 19 -194 19
-213 5 -331 -9 -70 -16 -131 -16 -137 0 -24 -18 -8 -66 56 -68 94 -120 142
-183 171 l-53 24 6 42 c4 22 18 136 31 251 14 116 47 401 75 635 28 234 53
450 56 480 3 30 8 62 12 70 7 18 10 -12 67 -590z m135 -1401 c17 -163 30 -309
30 -325 l-1 -29 -13 30 c-8 17 -34 77 -59 134 l-46 103 20 212 c21 215 30 270
36 206 2 -19 17 -168 33 -331z"/>
<path d="M3759 4394 c224 -244 333 -525 318 -818 -11 -217 -62 -394 -217 -755
-180 -420 -222 -548 -224 -687 -1 -79 2 -95 19 -114 l20 -23 -35 6 c-96 17
-169 18 -250 2 -47 -9 -91 -17 -99 -18 -7 -1 -18 6 -24 15 -9 13 -7 21 6 36
39 43 8 106 -59 123 -25 6 -47 16 -50 21 -4 5 2 25 12 43 15 29 16 37 4 66 -8
19 -33 52 -57 75 -44 41 -50 56 -37 107 8 33 -18 67 -51 67 -11 0 -30 6 -41
14 -17 13 -17 18 -6 37 12 19 10 27 -22 74 -53 77 -136 138 -281 209 -234 115
-438 161 -605 139 l-75 -10 85 -2 c141 -2 261 -20 297 -44 18 -12 33 -26 33
-31 0 -16 -135 2 -211 27 -41 14 -75 24 -77 22 -2 -2 13 -15 33 -31 39 -29
220 -94 265 -94 69 0 160 -46 160 -81 0 -4 -30 4 -67 17 -69 24 -141 30 -178
14 -15 -7 -9 -9 25 -10 47 0 102 -23 157 -64 26 -19 48 -24 125 -28 57 -3 105
-11 124 -21 30 -15 89 -76 81 -83 -1 -2 -25 3 -52 11 -81 25 -85 23 -78 -35
10 -83 -33 -166 -96 -185 l-24 -7 21 27 c26 32 36 82 27 125 -8 38 -87 99
-128 100 -53 0 -113 -88 -103 -151 5 -34 4 -37 -14 -32 -27 7 -38 30 -51 100
-25 137 -110 231 -239 268 -23 6 -22 5 5 -13 56 -36 70 -60 68 -116 -8 -261
-6 -277 27 -366 26 -71 31 -96 28 -148 -4 -61 -6 -66 -50 -107 -58 -54 -80
-95 -76 -143 l3 -37 55 3 c134 8 255 55 343 132 39 35 58 44 96 48 110 10 178
-78 227 -293 10 -44 18 -81 19 -82 1 -2 61 29 134 67 174 91 171 90 171 46 0
-26 -5 -36 -20 -41 -66 -21 -105 -95 -75 -141 16 -25 13 -44 -9 -44 -18 0
-178 -83 -233 -122 -165 -114 -362 -317 -528 -543 -16 -22 49 39 145 136 219
220 380 348 536 427 113 57 114 49 8 -54 -111 -110 -220 -238 -310 -365 -110
-154 -98 -146 57 41 57 69 170 192 251 275 135 137 147 147 140 115 -4 -19 -7
-151 -7 -292 0 -184 -3 -259 -11 -262 -8 -3 -14 21 -19 72 l-7 77 -23 -60
c-48 -129 -68 -156 -161 -226 -118 -88 -266 -237 -358 -359 -41 -54 -79 -106
-85 -117 -10 -16 -17 -12 -75 48 -125 131 -178 269 -178 469 0 261 100 503
279 670 l67 63 -100 -51 c-55 -28 -126 -74 -159 -101 -33 -28 -82 -62 -108
-76 -145 -78 -250 -250 -316 -517 -34 -137 -51 -273 -51 -403 0 -89 17 -224
29 -238 8 -9 266 -67 298 -67 22 0 22 1 -8 44 -39 58 -74 140 -102 234 -19 68
-22 99 -21 262 0 172 2 191 27 273 24 79 62 167 71 167 2 0 -8 -37 -21 -83
-83 -284 6 -533 249 -704 43 -30 78 -58 76 -62 -2 -3 -20 -39 -41 -78 l-37
-73 40 0 c39 0 41 2 70 60 l30 60 74 -40 c40 -22 77 -40 82 -39 10 0 94 128
95 143 0 5 -17 19 -38 32 l-39 23 -37 -49 c-20 -27 -37 -52 -37 -54 0 -3 9
-10 21 -16 23 -13 43 -1 60 34 7 15 3 13 -15 -7 -25 -27 -46 -29 -46 -4 1 7
14 27 29 45 29 33 29 33 60 18 17 -9 31 -18 31 -21 0 -4 -77 -125 -84 -133 -5
-5 -134 66 -141 78 -10 16 135 217 226 314 l93 98 63 -66 63 -66 55 44 c30 25
64 50 76 57 21 11 20 12 -16 49 l-38 39 -53 -37 c-49 -34 -52 -38 -37 -54 9
-10 22 -18 28 -18 15 0 65 39 51 40 -5 0 -18 -7 -28 -16 -14 -14 -20 -14 -33
-4 -13 11 -10 16 22 41 47 35 52 35 81 -1 l22 -28 -33 -21 c-18 -11 -43 -31
-56 -45 -14 -14 -30 -26 -37 -26 -12 0 -114 108 -114 121 0 10 126 110 210
166 85 56 218 129 223 122 2 -2 21 -41 42 -86 37 -80 47 -93 60 -74 3 5 36 19
73 32 37 12 70 24 74 26 6 3 -24 76 -37 91 -2 2 -28 -4 -59 -14 -55 -17 -67
-32 -48 -62 7 -10 16 -9 48 2 l39 15 -39 -2 c-56 -3 -55 16 3 35 l49 15 16
-35 c9 -19 16 -35 14 -36 -9 -7 -125 -48 -138 -49 -17 -2 -84 128 -76 148 10
27 246 107 421 142 122 24 514 25 620 1 l70 -16 22 26 c42 51 86 134 100 185
8 29 17 99 20 157 13 238 -80 475 -299 768 -25 33 -33 54 -36 100 -4 63 23
184 64 290 29 72 76 250 100 384 22 119 25 438 5 548 -33 186 -124 396 -232
540 -99 131 -285 301 -411 374 -27 17 -22 8 31 -50z m-855 -1939 c19 -8 58
-15 86 -15 59 0 59 -14 1 -24 -93 -15 -181 30 -181 91 l0 25 29 -31 c16 -17
45 -38 65 -46z m42 -137 c17 -22 44 -48 60 -59 l29 -19 -25 0 c-58 0 -121 66
-119 127 0 25 1 26 12 9 7 -10 26 -36 43 -58z m79 -189 c22 -41 98 -87 158
-95 45 -6 48 -8 32 -20 -28 -21 -105 -17 -142 6 -39 24 -59 54 -68 103 -9 45
-1 48 20 6z m1024 -153 c36 -19 126 -117 173 -188 50 -75 102 -196 128 -296
24 -95 50 -259 50 -316 l0 -38 -57 7 c-31 4 -61 9 -67 11 -6 2 -26 52 -44 110
-37 120 -137 359 -187 450 -32 57 -153 184 -175 184 -19 0 -10 41 15 65 20 21
34 25 80 25 31 0 69 -6 84 -14z m-756 -123 l-6 -57 32 36 c18 20 49 43 69 50
45 16 266 16 302 0 24 -10 23 -11 -15 -12 -100 -2 -245 -52 -315 -108 -21 -17
-14 -16 59 8 234 79 433 26 582 -155 22 -26 38 -50 35 -52 -2 -2 -38 18 -79
45 -117 77 -195 104 -302 108 l-90 3 60 -14 c216 -49 329 -155 464 -430 55
-112 67 -102 -131 -108 -198 -6 -306 -23 -485 -77 -71 -21 -130 -37 -132 -34
-5 5 -80 452 -81 481 0 13 8 24 20 28 33 10 80 64 80 92 0 60 -64 113 -135
113 -40 0 -44 13 -20 59 14 29 69 81 85 81 5 0 6 -26 3 -57z m-74 -673 c18
-91 31 -168 31 -171 0 -4 -9 -9 -19 -12 -17 -4 -21 3 -30 57 -26 153 -43 401
-21 321 5 -16 22 -104 39 -195z"/>
<path d="M2340 3621 c0 -5 13 -11 30 -14 16 -4 48 -25 70 -47 39 -39 87 -66
98 -55 3 3 0 5 -6 5 -7 0 -23 18 -37 40 -14 23 -40 50 -58 60 -32 20 -97 27
-97 11z"/>
<path d="M4525 3376 c0 -252 -9 -347 -51 -551 -21 -103 -72 -269 -112 -360
-18 -44 -38 -90 -43 -103 l-9 -23 31 18 c47 27 133 125 180 204 23 39 62 122
86 186 43 112 113 377 113 426 0 44 -107 302 -171 413 l-24 41 0 -251z"/>
<path d="M2231 3485 c-36 -11 -74 -44 -200 -169 -157 -156 -163 -166 -102
-166 30 0 118 84 213 204 50 63 62 72 144 107 l89 38 -50 0 c-27 0 -70 -7 -94
-14z"/>
<path d="M1665 2959 c-51 -71 -145 -241 -139 -250 9 -15 103 -38 181 -45 l76
-7 -27 45 c-27 46 -33 86 -17 104 5 5 23 35 39 66 l29 57 -56 -29 c-31 -16
-71 -39 -90 -51 l-33 -23 7 25 c4 13 23 54 41 92 19 37 32 67 30 67 -2 0 -21
-23 -41 -51z"/>
<path d="M4776 2863 c-53 -168 -164 -350 -324 -530 -35 -40 -60 -73 -55 -73
15 1 193 99 266 147 40 26 96 71 125 99 l53 52 -6 73 c-7 78 -35 282 -39 286
-1 2 -10 -23 -20 -54z"/>
<path d="M1975 2713 c-11 -3 -44 -19 -72 -36 -48 -29 -53 -35 -53 -67 0 -48
-25 -162 -52 -239 l-22 -63 27 -24 c35 -30 73 -32 80 -4 3 11 21 27 41 35 50
21 51 59 1 75 -44 14 -44 30 -1 77 48 55 59 79 46 103 -13 23 -3 25 24 5 11
-8 29 -14 40 -14 17 1 18 2 4 6 -40 10 -10 55 32 47 16 -4 31 0 38 9 20 23 -9
38 -77 40 -34 1 -61 5 -61 9 0 9 65 27 100 29 l25 1 -25 8 c-28 9 -65 10 -95
3z"/>
<path d="M4770 2275 c-49 -26 -232 -89 -293 -100 -52 -10 -54 -20 -6 -39 99
-40 219 -55 311 -40 l37 6 6 67 c3 36 8 81 11 99 6 39 -4 40 -66 7z"/>
<path d="M2030 2222 c0 -6 -17 -13 -38 -17 -20 -3 -44 -10 -52 -15 -13 -9 -13
-11 0 -19 9 -6 19 -6 27 1 7 5 31 15 53 22 36 11 40 14 26 25 -9 8 -16 9 -16
3z"/>
<path d="M2001 2161 c-12 -12 -21 -27 -21 -33 0 -7 12 0 27 14 15 15 24 30 21
34 -4 3 -16 -4 -27 -15z"/>
<path d="M4470 2030 c0 -36 257 -256 276 -237 4 4 51 172 54 193 0 1 -35 5
-77 9 -81 7 -205 28 -235 40 -11 5 -18 3 -18 -5z"/>
<path d="M4550 1825 c0 -3 6 -20 14 -38 29 -70 47 -172 47 -260 1 -107 4 -105
65 51 l36 92 -23 20 c-13 11 -27 19 -31 20 -4 0 -30 27 -58 61 -27 33 -50 57
-50 54z"/>
<path d="M3792 1018 c15 -113 17 -120 41 -114 12 3 52 6 90 6 66 0 67 0 67 28
0 66 -7 72 -77 72 -62 0 -64 -1 -57 -22 8 -28 3 -24 41 -32 18 -4 34 -3 38 3
4 7 -7 11 -29 11 -25 0 -36 4 -36 15 0 11 12 15 49 15 42 0 49 -3 55 -22 14
-54 11 -56 -74 -60 -54 -2 -81 1 -84 8 -3 7 -8 44 -12 83 -3 39 -10 71 -14 71
-4 0 -3 -28 2 -62z"/>
<path d="M4020 1008 c0 -7 3 -30 6 -50 l7 -38 63 0 c62 0 64 1 64 25 0 23 -3
25 -47 23 -44 -1 -45 -2 -10 -5 24 -3 37 -9 37 -19 0 -10 -13 -14 -49 -14 -46
0 -49 1 -55 31 -3 17 -6 35 -6 40 0 5 40 9 89 9 103 0 101 2 101 -97 l0 -66
-57 9 c-32 4 -136 8 -232 9 l-174 0 -22 65 c-19 58 -25 65 -50 68 -27 4 -151
-32 -168 -48 -9 -8 28 -90 40 -90 3 0 30 8 60 17 46 14 52 19 47 37 -4 12 -8
23 -10 25 -6 7 -74 -10 -74 -19 0 -4 14 -3 30 3 25 10 33 9 40 -3 10 -16 -13
-30 -72 -44 -23 -5 -27 -2 -37 26 -6 17 -11 35 -11 39 0 9 123 49 152 49 20 0
46 -48 55 -106 5 -31 4 -32 -41 -38 -72 -11 -213 -54 -304 -93 -45 -20 -84
-34 -85 -32 -26 38 -89 119 -94 119 -8 0 -115 -67 -140 -89 -30 -25 -29 -31
10 -68 l32 -32 48 35 c48 35 54 49 26 67 -11 7 -24 4 -43 -8 -14 -10 -25 -20
-22 -22 3 -3 15 2 27 11 17 11 26 13 36 4 10 -8 5 -16 -24 -39 -21 -16 -42
-28 -48 -28 -5 0 -20 13 -33 29 l-23 29 72 51 c82 57 79 57 137 -24 l32 -44
-62 -38 c-88 -53 -173 -117 -241 -183 -42 -41 -61 -53 -71 -46 -7 6 -38 28
-70 49 -56 39 -56 39 -78 20 -35 -32 -109 -137 -101 -144 4 -4 24 -17 45 -29
l36 -21 38 51 c36 49 37 52 19 65 -26 19 -31 18 -55 -16 -26 -37 -17 -40 13
-4 19 22 25 24 34 12 9 -11 5 -22 -21 -52 l-32 -39 -32 17 c-18 9 -32 19 -32
22 0 9 89 132 100 139 11 7 130 -73 130 -86 0 -5 -28 -45 -62 -88 -61 -76
-148 -212 -148 -230 0 -4 10 -7 23 -5 375 51 648 140 932 304 174 100 277 177
458 343 l107 99 0 78 c0 62 -3 79 -16 84 -9 3 -56 6 -105 6 -65 0 -89 -3 -89
-12z"/>
<path d="M1695 509 c-20 -33 -68 -91 -106 -129 -38 -38 -69 -71 -69 -73 0 -5
197 -84 231 -92 l26 -6 -20 73 c-13 49 -20 109 -21 180 0 60 -1 108 -2 108 -1
0 -18 -27 -39 -61z"/>
</g>
</svg>
