<?xml version="1.0" standalone="no"?>
<!DOCTYPE svg PUBLIC "-//W3C//DTD SVG 20010904//EN"
 "http://www.w3.org/TR/2001/REC-SVG-20010904/DTD/svg10.dtd">
<svg version="1.0" xmlns="http://www.w3.org/2000/svg"
 width="429.000000pt" height="424.000000pt" viewBox="0 0 429.000000 424.000000"
 preserveAspectRatio="xMidYMid meet">

<g transform="translate(0.000000,424.000000) scale(0.100000,-0.100000)"
fill="#ffffff" stroke="none">
<path d="M1886 4009 c-200 -26 -411 -88 -591 -173 -869 -413 -1296 -1392
-1009 -2315 134 -433 448 -829 841 -1065 499 -298 1093 -356 1643 -159 781
280 1303 1052 1266 1878 -23 548 -267 1045 -681 1393 -355 298 -785 454 -1245
451 -85 -1 -186 -6 -224 -10z m258 -266 c3 -115 7 -264 9 -333 l2 -125 -59 -7
c-33 -4 -86 -15 -118 -23 -33 -8 -63 -15 -67 -15 -5 0 -27 55 -50 123 -23 67
-74 213 -113 325 -38 112 -69 205 -66 207 13 13 297 50 414 54 l42 1 6 -207z
m301 173 c120 -21 246 -57 252 -72 6 -16 -185 -594 -197 -594 -5 0 -39 6 -77
14 -37 8 -95 17 -129 21 l-61 7 -6 216 c-4 119 -7 266 -7 326 l0 109 73 -6
c39 -4 108 -13 152 -21z m-733 -353 c131 -379 126 -359 96 -366 -13 -4 -59
-27 -102 -52 -44 -25 -82 -45 -85 -44 -3 0 -27 33 -53 72 -25 40 -114 175
-197 300 -83 126 -151 232 -151 237 0 18 321 157 370 159 11 1 44 -81 122
-306z m1156 223 c95 -41 231 -119 318 -182 l66 -47 -237 -237 -238 -238 -56
43 c-31 23 -75 52 -98 64 -24 12 -43 25 -43 29 0 6 178 546 195 590 6 17 7 16
93 -22z m558 -388 c60 -62 124 -132 142 -155 l32 -41 -217 -118 c-120 -65
-265 -143 -323 -175 l-104 -56 -49 71 c-27 39 -55 78 -62 86 -11 13 21 50 223
257 131 133 240 242 243 243 3 0 55 -51 115 -112z m-1052 -202 c311 -60 527
-296 625 -684 34 -135 46 -241 61 -537 10 -205 31 -336 68 -432 12 -32 15 -50
8 -45 -7 4 -119 78 -250 165 -193 128 -236 162 -230 175 35 82 46 131 42 197
-6 91 -34 153 -97 214 -57 56 -137 91 -205 91 -34 0 -61 11 -135 56 -119 71
-218 117 -360 165 -114 39 -307 83 -411 94 -30 3 -69 8 -87 11 l-32 5 19 44
c31 72 92 155 166 225 224 210 539 309 818 256z m1307 -113 c45 -70 158 -304
161 -333 3 -24 -2 -26 -222 -82 -124 -32 -286 -74 -360 -93 -74 -19 -146 -37
-160 -40 -24 -6 -26 -2 -44 62 -10 37 -30 94 -43 127 -13 32 -23 60 -21 61 11
12 636 345 646 345 7 0 26 -21 43 -47z m-2291 -498 c115 -10 323 -51 445 -89
132 -41 189 -63 317 -123 l98 -46 -43 -27 c-51 -32 -112 -98 -134 -146 -12
-24 -22 -33 -32 -29 -39 15 -226 56 -326 71 -60 9 -186 17 -280 19 l-170 3
-41 184 c-23 101 -39 187 -37 191 3 5 33 6 67 3 33 -3 95 -8 136 -11z m1075
-322 c97 -33 175 -143 175 -248 0 -97 -67 -202 -155 -245 -60 -29 -168 -29
-224 0 -105 53 -156 134 -155 245 0 83 23 135 86 195 67 66 175 87 273 53z
m-803 -138 c135 -16 178 -24 299 -56 l76 -20 6 -64 c7 -71 39 -144 88 -199 32
-37 138 -96 173 -96 36 0 41 -13 42 -110 2 -169 58 -300 249 -575 131 -189
152 -227 166 -306 22 -122 -24 -243 -129 -341 -46 -43 -52 -46 -167 -68 -165
-32 -444 -39 -606 -15 -63 9 -117 20 -121 24 -5 4 23 12 60 19 124 21 300 103
480 224 111 75 227 126 351 156 111 27 124 36 103 70 -7 10 -33 6 -123 -17
-140 -35 -231 -76 -375 -168 -202 -130 -373 -200 -513 -210 l-76 -6 77 53
c152 103 273 243 315 363 24 69 24 195 0 264 -10 28 -35 78 -57 111 l-38 59
45 38 c45 38 103 117 103 142 0 7 -33 -14 -72 -48 -152 -127 -299 -199 -406
-199 -82 0 -98 14 -104 93 -3 35 -15 85 -27 113 l-22 49 30 26 31 25 -36 13
-36 13 5 52 c3 28 2 71 -1 96 -7 41 -9 45 -37 46 -66 3 -74 5 -89 20 -15 14
-14 19 14 54 54 68 102 204 116 328 l7 62 36 0 c20 0 93 -7 163 -15z m1090
-457 c73 -51 160 -115 193 -143 33 -28 96 -72 140 -99 205 -126 291 -199 348
-297 30 -50 57 -158 57 -225 0 -39 -5 -46 -88 -125 -48 -46 -106 -99 -129
-117 l-42 -33 6 88 c4 74 2 98 -17 153 -41 121 -109 201 -326 378 -120 97
-225 206 -283 291 -44 65 -81 142 -81 169 0 19 59 63 77 57 6 -2 72 -46 145
-97z m-242 8 c0 -39 38 -137 82 -210 42 -72 142 -177 339 -358 123 -113 171
-189 191 -305 13 -80 -1 -220 -27 -259 -13 -20 -294 -169 -302 -160 -2 2 9 30
24 62 39 84 44 205 13 306 -27 89 -65 155 -210 363 -161 231 -209 342 -213
498 l-2 70 45 12 c53 13 60 11 60 -19z"/>
</g>
</svg>
