<?xml version="1.0" standalone="no"?>
<!DOCTYPE svg PUBLIC "-//W3C//DTD SVG 20010904//EN"
 "http://www.w3.org/TR/2001/REC-SVG-20010904/DTD/svg10.dtd">
<svg version="1.0" xmlns="http://www.w3.org/2000/svg"
 width="4267.000000pt" height="2667.000000pt" viewBox="0 0 4267.000000 2667.000000"
 preserveAspectRatio="xMidYMid meet">

<g transform="translate(0.000000,2667.000000) scale(0.100000,-0.100000)"
fill="#014e87" stroke="#014e87">
<path d="M22058 25380 c-147 -43 -379 -145 -748 -331 -588 -296 -1080 -597
-1472 -901 -203 -158 -274 -206 -320 -215 -26 -5 -37 1 -91 54 -72 70 -129
105 -211 128 -133 39 -243 -16 -376 -184 -77 -98 -121 -169 -180 -296 -83
-176 -127 -333 -150 -530 -14 -123 -32 -189 -65 -238 -14 -21 -79 -79 -143
-130 -155 -124 -230 -194 -304 -286 -145 -181 -288 -453 -322 -617 -25 -116
-35 -322 -46 -934 -7 -322 -13 -590 -15 -597 -2 -7 -37 -29 -77 -49 -104 -52
-182 -110 -266 -199 -178 -187 -268 -399 -307 -727 l-18 -146 -101 -6 c-56 -3
-855 -10 -1777 -15 l-1677 -11 -175 -83 c-190 -92 -283 -148 -394 -238 -163
-134 -289 -307 -423 -585 l-88 -180 -16 -945 c-31 -1818 -38 -3247 -32 -6309
3 -1642 9 -3075 14 -3185 17 -361 83 -580 246 -820 78 -115 333 -373 433 -439
202 -132 407 -168 1118 -196 642 -26 1193 -32 3331 -37 l2281 -5 -4 -52 c-29
-368 -183 -1575 -229 -1799 l-6 -27 -1456 0 c-861 0 -1513 -4 -1594 -10 -244
-18 -253 -28 -252 -285 1 -247 37 -470 98 -609 42 -94 130 -219 217 -306 89
-91 194 -163 347 -239 l104 -52 4211 4 c4185 4 4471 6 4665 37 201 33 438 195
567 390 103 156 154 310 183 563 10 86 22 160 26 164 10 10 2984 24 3576 17
427 -5 457 -4 489 13 50 26 73 62 73 116 0 53 -32 131 -60 146 -40 21 -118 31
-315 41 -298 15 -4665 31 -5802 22 -879 -7 -1377 -4 -1389 9 -6 5 -139 1328
-161 1597 -8 101 -15 208 -15 238 l0 54 278 1 c152 0 1611 6 3242 13 l2965 12
130 66 c297 150 525 346 689 593 68 102 92 150 160 320 l56 139 0 5363 0 5363
-93 188 c-106 213 -183 332 -291 448 -143 155 -290 258 -558 394 l-177 90
-1815 13 c-998 7 -1817 15 -1820 18 -3 3 -15 80 -26 170 -33 267 -69 391 -158
541 -67 113 -152 201 -310 317 l-140 104 -5 746 c-6 752 -12 889 -47 1095 -51
301 -227 689 -440 970 -182 242 -450 491 -740 689 -258 175 -472 282 -805 402
-104 38 -191 70 -193 71 -1 1 -12 83 -23 183 -11 100 -31 224 -44 276 -80 308
-268 554 -481 632 -79 28 -162 29 -256 3z m-1843 -4570 c323 -200 623 -344
915 -438 654 -211 1422 -287 1897 -186 65 14 181 39 258 55 169 36 294 42 342
16 72 -38 89 -104 103 -397 12 -242 31 -391 61 -477 32 -94 42 -293 36 -733
-8 -535 -34 -974 -72 -1207 -28 -172 -126 -402 -254 -594 -310 -465 -816 -832
-1411 -1023 -341 -110 -629 -136 -1018 -90 -586 69 -1149 328 -1561 720 -359
342 -577 798 -611 1279 -36 507 -16 1904 31 2198 18 114 55 142 294 227 158
56 259 109 375 196 184 139 328 302 411 467 22 42 44 77 49 77 5 0 75 -41 155
-90z m-2575 -956 c41 -48 28 -200 -31 -377 -50 -150 -66 -247 -79 -461 -11
-194 0 -448 25 -567 28 -135 96 -241 249 -387 159 -153 262 -204 514 -256 133
-27 205 -59 210 -92 8 -56 -103 -83 -267 -65 -160 17 -264 45 -386 105 -216
106 -376 260 -475 457 -75 147 -88 248 -96 749 -9 474 7 591 94 726 41 62 123
148 164 170 31 18 63 17 78 -2z m7541 -33 c31 -32 67 -89 104 -163 84 -169 88
-203 81 -638 -9 -531 -24 -668 -91 -809 -155 -325 -530 -560 -925 -578 -179
-8 -236 12 -215 76 8 25 50 38 145 45 269 20 630 272 785 550 85 152 125 479
94 764 -5 53 -25 162 -44 242 -51 218 -58 265 -59 390 -1 95 2 121 17 143 26
40 54 34 108 -22z m-547 -535 c147 -72 196 -191 196 -476 0 -250 -46 -395
-158 -502 -129 -124 -403 -217 -461 -159 -66 66 -81 481 -27 712 52 226 122
380 196 438 42 31 48 33 111 29 52 -3 83 -12 143 -42z m-6351 1 c84 -38 149
-108 170 -182 25 -91 39 -357 35 -676 -2 -224 -6 -290 -17 -302 -51 -63 -346
45 -491 180 -107 99 -126 164 -137 458 -7 202 5 294 47 380 43 86 92 137 157
161 58 22 167 13 236 -19z m-1306 -637 c12 -96 32 -215 44 -265 111 -458 391
-813 754 -954 226 -89 427 -131 660 -138 88 -3 164 -8 168 -13 4 -4 57 -108
117 -232 124 -257 207 -402 312 -540 170 -225 341 -384 634 -587 212 -148 264
-196 264 -244 0 -61 -31 -92 -155 -152 -147 -72 -369 -151 -1465 -522 -931
-315 -1412 -489 -1551 -558 -138 -70 -310 -206 -518 -409 -231 -227 -392 -421
-477 -573 -122 -218 -278 -662 -339 -966 -78 -392 -180 -1571 -221 -2562 -9
-225 -17 -411 -18 -411 -1 -2 -2600 -22 -2602 -20 -1 1 4 1899 11 4218 l13
4218 77 142 c124 230 230 364 407 513 128 107 211 149 343 174 258 50 586 58
2240 57 l1279 -1 23 -175z m11225 170 l1076 -8 149 -76 c246 -124 355 -205
474 -349 125 -152 168 -243 199 -421 57 -340 61 -603 67 -4735 l5 -3734 -1098
6 c-985 6 -1475 16 -1526 33 -9 3 -19 13 -22 22 -14 48 -45 425 -86 1062 -79
1223 -134 1788 -206 2108 -104 464 -359 918 -719 1277 -305 306 -607 489
-1055 641 -437 148 -1601 544 -2064 703 -470 161 -470 161 -519 208 -59 58
-77 90 -77 138 0 47 58 110 141 155 104 55 257 178 418 335 325 318 601 685
682 907 17 46 38 92 47 102 30 33 93 53 252 81 187 32 274 53 410 101 215 74
395 182 548 328 113 108 192 210 254 332 88 170 117 278 159 584 12 85 25 160
30 166 6 7 26 15 47 19 118 24 846 28 2414 15z m-7669 -3300 c128 -33 288 -68
357 -79 432 -69 848 -49 1270 60 158 41 276 57 325 45 34 -9 55 -58 55 -133 1
-32 7 -71 13 -87 11 -25 21 -31 74 -42 125 -25 418 -161 447 -206 15 -25 -5
-55 -110 -166 -423 -448 -953 -699 -1539 -728 -497 -25 -1042 159 -1420 478
-95 81 -422 405 -415 411 3 2 95 41 205 87 110 46 231 98 268 117 87 43 154
104 167 152 38 142 41 151 56 151 9 0 120 -27 247 -60z m9614 -7182 c-6 -874
-11 -989 -48 -1095 -40 -118 -158 -301 -268 -415 -93 -98 -189 -163 -397 -266
l-160 -80 -5880 9 c-5814 9 -8567 20 -9169 39 -710 22 -993 54 -1127 127 -47
26 -142 124 -295 306 -95 112 -154 261 -182 457 -24 165 -31 405 -31 1063 l0
687 728 1 c5090 11 8446 15 12261 17 l4574 2 -6 -852z m-7537 -2187 c0 -5 16
-157 35 -337 29 -276 121 -1204 140 -1409 3 -33 8 -82 11 -109 l6 -49 -1268 6
c-1234 6 -1707 16 -1728 37 -12 12 10 195 130 1095 69 526 97 716 110 758 5
16 75 17 1285 17 732 0 1279 -4 1279 -9z m3080 -2210 c388 -11 528 -22 542
-43 13 -19 -1 -130 -28 -238 -33 -126 -99 -259 -171 -345 -66 -79 -185 -169
-243 -185 -105 -28 -642 -33 -4708 -37 l-4144 -4 -93 61 c-139 92 -223 186
-298 335 -60 120 -78 195 -84 344 l-6 134 4429 -6 c2562 -4 4587 -11 4804 -16z"/>
<path d="M20193 18994 c-27 -10 -61 -36 -93 -70 -175 -192 -75 -525 157 -524
77 1 128 25 186 89 54 61 77 124 77 212 0 192 -175 349 -327 293z"/>
<path d="M22336 18974 c-27 -15 -71 -48 -97 -75 -62 -64 -77 -121 -60 -235 22
-152 63 -234 133 -270 37 -19 126 -21 170 -4 143 57 221 237 172 400 -27 89
-96 176 -161 201 -43 16 -106 9 -157 -17z"/>
<path d="M21227 18689 c-50 -12 -85 -30 -136 -73 -205 -171 -303 -512 -205
-713 77 -159 353 -293 542 -264 195 30 295 109 359 281 25 66 28 88 27 190 -1
241 -92 447 -232 523 -101 55 -256 79 -355 56z m180 -366 c110 -108 111 -218
3 -291 -87 -59 -230 20 -230 127 1 49 30 111 81 165 56 62 82 61 146 -1z"/>
<path d="M20330 17642 c-23 -23 -29 -40 -35 -99 -8 -83 0 -199 22 -296 31
-141 237 -388 413 -495 317 -194 730 -220 1082 -67 310 134 557 453 561 725 1
96 -15 142 -71 202 -65 70 -77 67 -188 -47 -120 -124 -168 -147 -360 -177
-118 -18 -184 -22 -439 -22 -306 -1 -465 10 -565 40 -52 15 -73 33 -190 161
-93 102 -176 129 -230 75z m1360 -612 c0 -22 -125 -110 -157 -110 -38 0 15 58
87 96 49 25 70 30 70 14z m-545 -10 c35 -13 27 -34 -14 -38 -36 -4 -84 12
-102 34 -10 12 -3 14 39 14 28 0 63 -5 77 -10z"/>
<path d="M15261 17936 c-121 -46 -177 -101 -207 -203 -34 -117 33 -264 146
-323 75 -38 190 -43 273 -11 117 45 179 192 147 345 -15 74 -64 130 -153 175
-86 44 -127 47 -206 17z"/>
<path d="M16142 17939 c-106 -41 -222 -181 -222 -269 0 -87 126 -240 226 -274
71 -24 168 -21 229 8 173 80 224 326 98 466 -78 86 -212 114 -331 69z"/>
<path d="M14345 17917 c-56 -19 -81 -33 -127 -75 -73 -66 -91 -138 -62 -243
15 -54 27 -73 79 -126 50 -50 72 -65 120 -78 73 -22 164 -16 221 13 92 47 174
171 174 262 0 94 -67 192 -158 233 -58 26 -189 33 -247 14z"/>
<path d="M21248 8430 c-125 -21 -231 -84 -308 -181 -99 -126 -146 -296 -120
-439 36 -203 194 -366 406 -420 98 -25 180 -25 280 0 99 26 170 68 244 146 67
72 92 120 120 228 35 137 21 285 -36 399 -94 185 -358 305 -586 267z"/>
<path d="M12175 4271 c-53 -24 -111 -90 -126 -143 -27 -102 36 -214 137 -244
95 -27 203 5 245 72 33 53 35 187 4 249 -39 77 -165 109 -260 66z"/>
<path d="M12975 4240 c-124 -9 -186 -23 -206 -46 -24 -29 -9 -205 23 -267 8
-16 75 -17 1251 -15 l1242 3 12 75 c13 83 16 180 7 204 -10 25 -69 35 -270 46
-215 11 -1891 11 -2059 0z"/>
</g>
</svg>
