<?xml version="1.0" standalone="no"?>
<!DOCTYPE svg PUBLIC "-//W3C//DTD SVG 20010904//EN"
 "http://www.w3.org/TR/2001/REC-SVG-20010904/DTD/svg10.dtd">
<svg version="1.0" xmlns="http://www.w3.org/2000/svg"
 width="1993.000000pt" height="1394.000000pt" viewBox="0 0 1993.000000 1394.000000"
 preserveAspectRatio="xMidYMid meet">

<g transform="translate(0.000000,1394.000000) scale(0.100000,-0.100000)"
fill="#daeefd" stroke="none">
<path d="M10005 12671 c-71 -24 -114 -53 -169 -111 -68 -73 -99 -146 -106
-249 -4 -61 -9 -86 -20 -91 -8 -5 -51 -25 -95 -46 -44 -20 -122 -66 -174 -101
-51 -34 -98 -63 -102 -63 -5 0 -39 15 -76 34 -132 66 -217 67 -350 4 -81 -38
-142 -99 -184 -184 -31 -63 -34 -76 -34 -164 0 -78 4 -104 23 -144 35 -77 91
-143 160 -189 l64 -42 -8 -90 c-5 -49 -8 -110 -8 -135 0 -25 3 -85 8 -135 l8
-90 -66 -44 c-76 -50 -115 -95 -154 -178 -24 -51 -27 -70 -27 -158 0 -89 3
-106 27 -150 45 -86 111 -151 197 -192 70 -35 83 -38 162 -37 77 0 92 3 163
37 92 43 105 45 143 14 74 -62 278 -177 312 -177 18 0 26 -25 31 -105 21 -301
343 -474 589 -316 119 77 191 204 191 339 l1 67 127 62 c70 34 154 83 187 108
33 25 68 45 78 45 10 0 44 -13 75 -30 173 -90 374 -43 491 113 142 188 89 433
-122 569 l-49 31 8 106 c4 58 7 113 7 121 0 8 -3 63 -7 121 l-8 106 50 32 c70
44 138 121 170 189 23 49 26 71 27 152 0 88 -3 101 -33 162 -57 116 -158 194
-295 227 -65 16 -150 -1 -240 -45 -37 -19 -71 -34 -76 -34 -4 0 -51 29 -102
63 -52 35 -130 81 -174 101 -44 21 -87 41 -95 46 -11 5 -17 31 -21 86 -7 86
-27 147 -70 209 -99 145 -278 210 -434 156z m301 -926 c28 -18 54 -71 54 -110
0 -29 -205 -1064 -221 -1111 -13 -41 -45 -69 -95 -84 -34 -10 -46 -9 -79 7
-47 22 -85 74 -85 117 0 17 50 276 110 575 77 384 115 552 128 570 43 59 128
75 188 36z m-602 -269 c36 -15 69 -56 79 -97 13 -52 -11 -96 -103 -192 l-89
-93 90 -90 c107 -106 121 -138 94 -210 -22 -58 -62 -84 -129 -84 -49 0 -49 0
-158 108 -145 141 -163 173 -163 277 0 106 16 132 152 267 132 130 157 143
227 114z m929 0 c18 -7 82 -65 144 -128 99 -102 113 -121 128 -173 20 -67 15
-135 -16 -200 -11 -24 -66 -88 -133 -153 l-113 -112 -50 0 c-66 0 -113 31
-131 85 -23 70 -10 100 89 200 49 50 89 95 89 100 0 4 -40 50 -89 100 -67 70
-91 102 -96 128 -12 65 24 131 85 156 35 14 56 13 93 -3z"/>
<path d="M10075 9401 c-11 -5 -31 -21 -45 -36 l-25 -27 -3 -804 -2 -804 -1735
-2 -1735 -3 -32 -33 c-28 -28 -33 -39 -33 -82 0 -43 5 -54 33 -82 l32 -33
3300 0 3300 0 32 33 c28 28 33 39 33 82 0 43 -5 54 -33 82 l-32 33 -1445 3
-1445 2 -2 805 -3 805 -31 31 c-33 33 -92 46 -129 30z"/>
<path d="M5313 8362 c-110 -39 -189 -123 -218 -233 -22 -83 -22 -1050 0 -1134
30 -112 98 -191 206 -237 53 -22 61 -23 394 -23 309 0 345 2 390 19 110 42
192 131 220 243 14 54 16 135 13 590 l-3 528 -28 61 c-34 74 -104 145 -172
176 -49 22 -59 23 -400 25 -317 3 -355 1 -402 -15z m487 -1295 c56 -28 48
-105 -13 -127 -43 -15 -142 -12 -182 4 -56 24 -58 103 -3 126 34 13 169 12
198 -3z"/>
<path d="M13607 8340 c-150 -26 -268 -144 -297 -299 -13 -70 -13 -632 0 -701
9 -49 44 -133 69 -170 8 -12 63 38 293 267 313 312 327 323 438 323 81 0 129
-21 204 -89 61 -55 93 -64 144 -37 15 8 144 132 287 275 l260 261 -15 27 c-24
42 -114 110 -172 130 -48 16 -106 18 -608 19 -305 1 -577 -2 -603 -6z m175
-318 c59 -58 37 -149 -43 -180 -31 -12 -41 -11 -72 1 -94 40 -95 167 -2 208
34 15 87 2 117 -29z"/>
<path d="M14800 7745 c-238 -236 -259 -254 -309 -269 -110 -32 -182 -13 -277
73 -56 51 -95 67 -131 54 -29 -11 -556 -531 -549 -542 14 -22 107 -31 335 -31
l241 0 5 -23 c4 -13 5 -48 3 -78 l-3 -54 -168 -5 c-152 -5 -170 -7 -183 -24
-20 -29 -17 -70 7 -92 20 -18 42 -19 414 -19 372 0 394 1 414 19 27 24 27 70
1 96 -18 18 -33 20 -179 20 -136 0 -160 2 -165 16 -8 22 -7 117 2 131 5 8 82
13 272 15 l265 3 57 28 c112 55 188 158 208 283 12 70 14 641 2 648 -4 2 -122
-109 -262 -249z"/>
<path d="M1772 7713 c-18 -9 -45 -32 -60 -51 l-27 -35 -3 -2589 c-2 -2851 -7
-2637 60 -2678 32 -20 48 -20 906 -20 958 0 915 -3 947 60 29 56 11 135 -38
162 -17 10 -199 14 -827 18 l-805 5 -3 2452 -2 2453 1450 2 1450 3 32 33 c28
28 33 39 33 82 0 43 -5 54 -33 82 l-32 33 -1508 2 c-1380 2 -1510 1 -1540 -14z"/>
<path d="M15235 7721 c-44 -19 -70 -60 -70 -112 0 -42 5 -53 33 -81 l32 -33
1450 -3 1450 -2 -2 -2453 -3 -2452 -805 -5 c-628 -4 -810 -8 -827 -18 -49 -27
-67 -106 -38 -162 32 -63 -11 -60 947 -60 858 0 874 0 906 20 67 41 62 -170
62 2666 0 2869 6 2615 -68 2672 l-35 27 -1506 2 c-828 1 -1515 -2 -1526 -6z"/>
<path d="M4450 4380 c-186 -27 -354 -173 -420 -365 -19 -56 -20 -84 -20 -744
0 -643 1 -690 19 -748 43 -142 146 -265 275 -328 125 -62 162 -65 953 -65 386
0 708 3 717 6 14 6 16 94 16 898 0 977 2 936 -61 1066 -40 80 -143 186 -218
225 -120 60 -100 59 -676 61 -291 1 -555 -2 -585 -6z m612 -332 c39 -15 68
-66 68 -119 0 -40 -14 -65 -135 -248 -74 -113 -132 -208 -129 -213 3 -4 102
-8 220 -8 229 0 261 -5 312 -53 58 -53 84 -174 53 -237 -7 -14 -90 -141 -184
-283 -152 -229 -175 -259 -213 -278 -38 -18 -47 -19 -84 -8 -23 7 -54 27 -70
46 -25 28 -30 43 -30 84 0 47 6 59 135 250 75 111 133 204 130 208 -4 3 -109
8 -233 11 -216 5 -229 6 -265 28 -87 55 -128 162 -93 245 10 26 363 567 369
567 1 0 20 7 42 15 40 14 56 13 107 -7z"/>
<path d="M8990 4380 c-186 -27 -354 -173 -420 -365 -19 -56 -20 -84 -20 -744
0 -643 1 -690 19 -748 43 -142 146 -265 275 -328 125 -62 162 -65 953 -65 386
0 708 3 717 6 14 6 16 94 16 898 0 977 2 936 -61 1066 -40 80 -143 186 -218
225 -120 60 -100 59 -676 61 -291 1 -555 -2 -585 -6z m612 -332 c39 -15 68
-66 68 -119 0 -40 -14 -65 -135 -248 -74 -113 -132 -208 -129 -213 3 -4 102
-8 220 -8 229 0 261 -5 312 -53 58 -53 84 -174 53 -237 -7 -14 -90 -141 -184
-283 -152 -229 -175 -259 -213 -278 -38 -18 -47 -19 -84 -8 -23 7 -54 27 -70
46 -25 28 -30 43 -30 84 0 47 6 59 135 250 75 111 133 204 130 208 -4 3 -109
8 -233 11 -216 5 -229 6 -265 28 -87 55 -128 162 -93 245 10 26 363 567 369
567 1 0 20 7 42 15 40 14 56 13 107 -7z"/>
<path d="M13280 4380 c-186 -27 -354 -173 -420 -365 -19 -56 -20 -84 -20 -744
0 -643 1 -690 19 -748 43 -142 146 -265 275 -328 125 -62 162 -65 953 -65 386
0 708 3 717 6 14 6 16 94 16 898 0 977 2 936 -61 1066 -40 80 -143 186 -218
225 -120 60 -100 59 -676 61 -291 1 -555 -2 -585 -6z m612 -332 c39 -15 68
-66 68 -119 0 -40 -14 -65 -135 -248 -74 -113 -132 -208 -129 -213 3 -4 102
-8 220 -8 229 0 261 -5 312 -53 58 -53 84 -174 53 -237 -7 -14 -90 -141 -184
-283 -152 -229 -175 -259 -213 -278 -38 -18 -47 -19 -84 -8 -23 7 -54 27 -70
46 -25 28 -30 43 -30 84 0 47 6 59 135 250 75 111 133 204 130 208 -4 3 -109
8 -233 11 -216 5 -229 6 -265 28 -87 55 -128 162 -93 245 10 26 363 567 369
567 1 0 20 7 42 15 40 14 56 13 107 -7z"/>
<path d="M6282 3848 c-9 -12 -12 -102 -10 -394 l3 -379 459 -3 458 -2 -4 122
c-4 98 -10 138 -31 199 -37 108 -90 194 -166 268 -149 146 -264 188 -531 198
-140 5 -167 4 -178 -9z"/>
<path d="M10822 3848 c-9 -12 -12 -102 -10 -394 l3 -379 459 -3 458 -2 -4 122
c-4 98 -10 138 -31 199 -37 108 -90 194 -166 268 -149 146 -264 188 -531 198
-140 5 -167 4 -178 -9z"/>
<path d="M15112 3848 c-9 -12 -12 -102 -10 -394 l3 -379 459 -3 458 -2 -4 122
c-4 98 -10 138 -31 199 -37 108 -90 194 -166 268 -149 146 -264 188 -531 198
-140 5 -167 4 -178 -9z"/>
<path d="M6277 2783 c-4 -3 -7 -146 -7 -318 0 -228 3 -314 12 -323 18 -18 339
-16 453 3 127 20 215 66 302 158 111 117 153 222 153 385 l0 102 -453 0 c-250
0 -457 -3 -460 -7z"/>
<path d="M10817 2783 c-4 -3 -7 -146 -7 -318 0 -228 3 -314 12 -323 18 -18
339 -16 453 3 127 20 215 66 302 158 111 117 153 222 153 385 l0 102 -453 0
c-250 0 -457 -3 -460 -7z"/>
<path d="M15107 2783 c-4 -3 -7 -146 -7 -318 0 -228 3 -314 12 -323 18 -18
339 -16 453 3 127 20 215 66 302 158 111 117 153 222 153 385 l0 102 -453 0
c-250 0 -457 -3 -460 -7z"/>
<path d="M4558 1849 c-25 -14 -23 -79 4 -159 17 -49 36 -78 75 -118 71 -72
127 -95 228 -96 69 0 88 4 138 29 75 37 138 106 166 178 26 70 29 162 5 171
-28 11 -598 6 -616 -5z"/>
<path d="M6021 1851 c-23 -15 -9 -135 22 -196 33 -64 98 -128 162 -157 39 -18
67 -23 130 -23 72 1 87 4 144 35 41 22 78 52 102 82 70 90 104 234 60 258 -24
12 -600 14 -620 1z"/>
<path d="M9098 1849 c-25 -14 -23 -79 4 -159 17 -49 36 -78 75 -118 71 -72
127 -95 228 -96 69 0 88 4 138 29 75 37 138 106 166 178 26 70 29 162 5 171
-28 11 -598 6 -616 -5z"/>
<path d="M10561 1851 c-23 -15 -9 -135 22 -196 33 -64 98 -128 162 -157 39
-18 67 -23 130 -23 72 1 87 4 144 35 41 22 78 52 102 82 70 90 104 234 60 258
-24 12 -600 14 -620 1z"/>
<path d="M13388 1849 c-25 -14 -23 -79 4 -159 17 -49 36 -78 75 -118 71 -72
127 -95 228 -96 69 0 88 4 138 29 75 37 138 106 166 178 26 70 29 162 5 171
-28 11 -598 6 -616 -5z"/>
<path d="M14851 1851 c-23 -15 -9 -135 22 -196 33 -64 98 -128 162 -157 39
-18 67 -23 130 -23 72 1 87 4 144 35 41 22 78 52 102 82 70 90 104 234 60 258
-24 12 -600 14 -620 1z"/>
</g>
</svg>
