<?xml version="1.0" standalone="no"?>
<!DOCTYPE svg PUBLIC "-//W3C//DTD SVG 20010904//EN"
 "http://www.w3.org/TR/2001/REC-SVG-20010904/DTD/svg10.dtd">
<svg version="1.0" xmlns="http://www.w3.org/2000/svg"
 width="1347.000000pt" height="1487.000000pt" viewBox="0 0 1347.000000 1487.000000"
 preserveAspectRatio="xMidYMid meet">

<g transform="translate(0.000000,1487.000000) scale(0.100000,-0.100000)"
fill="#3C4A56" stroke="none">
<path d="M7958 13695 c-126 -27 -213 -72 -306 -159 -115 -107 -184 -235 -211
-390 -15 -80 -15 -1128 0 -1233 14 -104 31 -160 74 -242 83 -158 230 -274 415
-329 46 -13 133 -17 510 -21 l455 -6 3 -129 c2 -97 -1 -131 -10 -138 -7 -4
-140 -8 -295 -8 l-282 0 -35 -34 c-31 -29 -36 -39 -36 -80 0 -26 7 -60 15 -76
32 -63 4 -61 782 -58 690 3 709 4 735 23 67 50 64 163 -6 209 -22 14 -62 16
-303 16 -153 0 -284 4 -291 8 -9 7 -12 41 -10 138 l3 129 450 6 c472 6 486 7
605 56 162 66 294 204 361 377 45 118 51 212 46 821 -4 619 -5 625 -78 775
-58 118 -170 230 -290 289 -150 73 -109 71 -1237 70 -767 -1 -1021 -4 -1064
-14z m731 -515 c69 -19 109 -87 96 -158 -5 -31 -38 -69 -200 -232 -106 -107
-198 -205 -204 -217 -14 -27 -14 -73 0 -110 6 -15 97 -116 204 -223 217 -219
224 -230 187 -312 -30 -69 -114 -98 -180 -64 -15 8 -118 106 -229 218 -179
180 -206 211 -233 272 -54 119 -43 267 29 375 42 62 428 449 454 454 38 7 41
7 76 -3z m764 -4 c38 -16 405 -382 447 -447 48 -72 62 -128 58 -232 -5 -146
-22 -172 -262 -415 -111 -112 -213 -210 -228 -218 -39 -20 -95 -17 -135 8 -54
33 -78 110 -52 161 7 12 99 110 205 218 272 277 273 252 -6 534 -124 125 -201
210 -205 228 -17 66 27 148 88 166 45 13 54 13 90 -3z"/>
<path d="M3099 12295 c-15 -8 -34 -32 -43 -55 -15 -37 -16 -230 -16 -2172 l0
-2131 21 -34 c41 -66 -1 -63 841 -63 690 0 766 2 787 16 49 35 51 53 51 494
l0 412 -29 29 c-39 38 -97 40 -138 5 l-28 -24 -5 -364 -5 -363 -645 0 -645 0
0 2030 0 2030 1892 5 1893 5 27 27 c41 41 39 100 -5 139 l-32 29 -1948 0
c-1668 -1 -1951 -3 -1973 -15z"/>
<path d="M4060 10748 c-143 -152 -159 -399 -37 -579 49 -73 69 -89 95 -73 29
18 25 38 -18 90 -119 144 -115 366 10 507 35 40 38 62 11 77 -27 14 -26 14
-61 -22z"/>
<path d="M4698 10769 c-26 -15 -22 -37 12 -76 124 -141 129 -363 10 -507 -43
-52 -47 -72 -17 -90 25 -16 45 0 94 73 123 181 107 424 -39 580 -32 34 -35 35
-60 20z"/>
<path d="M4191 10599 c-43 -59 -54 -101 -49 -184 8 -118 80 -217 126 -172 16
17 16 19 0 45 -75 118 -75 176 -1 294 14 22 15 29 4 42 -22 27 -49 18 -80 -25z"/>
<path d="M4549 10624 c-11 -13 -10 -20 4 -42 74 -118 74 -176 -1 -294 -16 -25
-16 -29 -1 -44 23 -23 52 -11 81 34 35 53 48 97 48 161 -1 66 -18 118 -54 166
-29 38 -56 44 -77 19z"/>
<path d="M4345 10528 c-63 -50 -65 -131 -4 -182 l29 -25 0 -255 0 -256 -39
-16 c-64 -25 -75 -51 -79 -187 -6 -166 2 -217 44 -278 l34 -51 0 -149 0 -149
315 0 315 0 0 149 c0 145 1 150 25 179 48 57 55 90 55 254 0 134 -3 157 -20
185 -10 17 -28 36 -39 42 -11 7 -120 12 -275 13 l-256 3 0 258 0 258 29 25
c42 35 56 83 38 126 -20 48 -62 78 -107 78 -23 0 -48 -8 -65 -22z m545 -998
l0 -120 -240 0 -240 0 0 120 0 120 240 0 240 0 0 -120z"/>
<path d="M4490 9530 l0 -40 155 0 155 0 0 40 0 40 -155 0 -155 0 0 -40z"/>
<path d="M6960 8724 c-182 -19 -254 -31 -370 -60 -74 -18 -160 -43 -190 -54
-30 -12 -71 -26 -90 -32 -54 -15 -270 -118 -300 -142 -8 -7 -37 -25 -65 -41
-90 -51 -254 -180 -365 -286 -82 -78 -99 -144 -60 -232 25 -56 57 -83 125
-102 45 -13 57 -14 92 -1 55 19 111 56 153 101 41 43 217 180 275 213 52 31
237 119 299 143 56 23 195 60 311 83 194 39 468 39 650 0 111 -24 198 -45 220
-54 11 -4 45 -15 75 -25 30 -10 64 -23 75 -29 11 -7 40 -20 65 -30 105 -42
303 -170 405 -265 140 -128 196 -157 276 -140 90 19 149 93 149 184 0 58 -22
106 -68 148 -20 18 -61 55 -91 83 -97 87 -330 254 -356 254 -5 0 -16 7 -25 15
-70 63 -600 245 -717 245 -21 0 -56 5 -78 9 -44 10 -339 21 -395 15z"/>
<path d="M6885 7918 c-228 -37 -452 -137 -649 -290 -122 -95 -147 -125 -167
-200 -11 -39 -10 -52 5 -91 9 -25 26 -57 38 -72 60 -77 223 -73 294 7 77 86
247 186 393 232 199 62 428 59 626 -8 116 -39 306 -152 355 -211 8 -9 34 -30
58 -47 39 -27 53 -31 105 -29 88 3 139 36 172 113 24 59 20 118 -13 167 -61
91 -242 226 -414 309 -114 55 -185 76 -401 122 -53 11 -329 10 -402 -2z"/>
<path d="M6994 7125 c-49 -8 -105 -25 -143 -44 -85 -42 -179 -118 -202 -163
-39 -76 -15 -191 48 -236 76 -53 152 -51 236 5 84 56 109 66 167 66 55 0 124
-27 151 -59 22 -27 100 -54 144 -50 105 10 183 100 172 197 -8 69 -28 100
-103 162 -130 108 -290 150 -470 122z"/>
<path d="M1866 5789 c-15 -17 -26 -43 -26 -59 0 -16 11 -42 26 -59 l26 -31
279 0 279 0 0 -1230 0 -1229 33 7 c41 9 83 9 124 0 l33 -7 2 1227 3 1227 290
5 c160 3 296 9 304 14 7 5 19 24 27 42 12 29 12 39 0 68 -8 19 -23 39 -34 45
-14 8 -227 11 -680 11 l-660 0 -26 -31z"/>
<path d="M4806 5789 c-15 -17 -26 -43 -26 -59 0 -16 11 -42 26 -59 l26 -31
279 0 279 0 0 -1230 0 -1229 33 7 c41 9 83 9 124 0 l33 -7 2 1227 3 1227 290
5 c160 3 296 9 304 14 7 5 19 24 27 42 12 29 12 39 0 68 -8 19 -23 39 -34 45
-14 8 -227 11 -680 11 l-660 0 -26 -31z"/>
<path d="M7746 5789 c-15 -17 -26 -43 -26 -59 0 -16 11 -42 26 -59 l26 -31
279 0 279 0 0 -1230 0 -1229 33 7 c41 9 83 9 124 0 l33 -7 2 1227 3 1227 290
5 c160 3 296 9 304 14 7 5 19 24 27 42 12 29 12 39 0 68 -8 19 -23 39 -34 45
-14 8 -227 11 -680 11 l-660 0 -26 -31z"/>
<path d="M10686 5789 c-15 -17 -26 -43 -26 -59 0 -16 11 -42 26 -59 l26 -31
279 0 279 0 0 -1230 0 -1229 33 7 c41 9 83 9 124 0 l33 -7 2 1227 3 1227 290
5 c160 3 296 9 304 14 7 5 19 24 27 42 12 29 12 39 0 68 -8 19 -23 39 -34 45
-14 8 -227 11 -680 11 l-660 0 -26 -31z"/>
<path d="M2453 3095 c-164 -36 -287 -167 -314 -335 -12 -75 -5 -114 28 -158
33 -44 72 -62 137 -62 l56 0 95 143 c102 155 117 172 155 181 36 9 86 -25 95
-62 7 -35 -8 -69 -84 -182 l-51 -75 127 -3 c142 -3 168 4 212 53 36 42 46 95
31 176 -30 165 -151 289 -317 324 -81 17 -90 17 -170 0z"/>
<path d="M5393 3095 c-164 -36 -287 -167 -314 -335 -12 -75 -5 -114 28 -158
33 -44 72 -62 137 -62 l56 0 95 143 c102 155 117 172 155 181 36 9 86 -25 95
-62 7 -35 -8 -69 -84 -182 l-51 -75 127 -3 c142 -3 168 4 212 53 36 42 46 95
31 176 -30 165 -151 289 -317 324 -81 17 -90 17 -170 0z"/>
<path d="M8333 3095 c-164 -36 -287 -167 -314 -335 -12 -75 -5 -114 28 -158
33 -44 72 -62 137 -62 l56 0 95 143 c102 155 117 172 155 181 36 9 86 -25 95
-62 7 -35 -8 -69 -84 -182 l-51 -75 127 -3 c142 -3 168 4 212 53 36 42 46 95
31 176 -30 165 -151 289 -317 324 -81 17 -90 17 -170 0z"/>
<path d="M11273 3095 c-164 -36 -287 -167 -314 -335 -12 -75 -5 -114 28 -158
33 -44 72 -62 137 -62 l56 0 95 143 c102 155 117 172 155 181 36 9 86 -25 95
-62 7 -35 -8 -69 -84 -182 l-51 -75 127 -3 c142 -3 168 4 212 53 36 42 46 95
31 176 -30 165 -151 289 -317 324 -81 17 -90 17 -170 0z"/>
<path d="M1850 2924 c-99 -27 -203 -113 -252 -208 -44 -85 -48 -142 -48 -676
0 -545 4 -589 54 -687 51 -102 174 -190 295 -213 75 -14 1209 -13 1287 1 108
20 220 95 277 186 62 99 61 88 65 676 2 346 -1 558 -8 595 -16 89 -62 172
-130 235 -71 66 -143 96 -247 104 l-73 6 22 -59 c16 -45 21 -83 22 -164 1 -94
-2 -111 -25 -160 -31 -65 -92 -128 -154 -159 -71 -35 -155 -43 -452 -39 -277
3 -278 3 -333 29 -67 33 -123 86 -158 153 -25 46 -27 61 -26 156 0 81 6 118
22 164 12 33 22 63 22 68 0 13 -100 8 -160 -8z"/>
<path d="M4790 2924 c-99 -27 -203 -113 -252 -208 -44 -85 -48 -142 -48 -676
0 -545 4 -589 54 -687 51 -102 174 -190 295 -213 75 -14 1209 -13 1287 1 108
20 220 95 277 186 62 99 61 88 65 676 2 346 -1 558 -8 595 -16 89 -62 172
-130 235 -71 66 -143 96 -247 104 l-73 6 22 -59 c16 -45 21 -83 22 -164 1 -94
-2 -111 -25 -160 -31 -65 -92 -128 -154 -159 -71 -35 -155 -43 -452 -39 -277
3 -278 3 -333 29 -67 33 -123 86 -158 153 -25 46 -27 61 -26 156 0 81 6 118
22 164 12 33 22 63 22 68 0 13 -100 8 -160 -8z"/>
<path d="M7730 2924 c-99 -27 -203 -113 -252 -208 -44 -85 -48 -142 -48 -676
0 -545 4 -589 54 -687 51 -102 174 -190 295 -213 75 -14 1209 -13 1287 1 108
20 220 95 277 186 62 99 61 88 65 676 2 346 -1 558 -8 595 -16 89 -62 172
-130 235 -71 66 -143 96 -247 104 l-73 6 22 -59 c16 -45 21 -83 22 -164 1 -94
-2 -111 -25 -160 -31 -65 -92 -128 -154 -159 -71 -35 -155 -43 -452 -39 -277
3 -278 3 -333 29 -67 33 -123 86 -158 153 -25 46 -27 61 -26 156 0 81 6 118
22 164 12 33 22 63 22 68 0 13 -100 8 -160 -8z"/>
<path d="M10670 2924 c-99 -27 -203 -113 -252 -208 -44 -85 -48 -142 -48 -676
0 -545 4 -589 54 -687 51 -102 174 -190 295 -213 75 -14 1209 -13 1287 1 108
20 220 95 277 186 62 99 61 88 65 676 2 346 -1 558 -8 595 -16 89 -62 172
-130 235 -71 66 -143 96 -247 104 l-73 6 22 -59 c16 -45 21 -83 22 -164 1 -94
-2 -111 -25 -160 -31 -65 -92 -128 -154 -159 -71 -35 -155 -43 -452 -39 -277
3 -278 3 -333 29 -67 33 -123 86 -158 153 -25 46 -27 61 -26 156 0 81 6 118
22 164 12 33 22 63 22 68 0 13 -100 8 -160 -8z"/>
</g>
</svg>
