<?xml version="1.0" standalone="no"?>
<!DOCTYPE svg PUBLIC "-//W3C//DTD SVG 20010904//EN"
 "http://www.w3.org/TR/2001/REC-SVG-20010904/DTD/svg10.dtd">
<svg version="1.0" xmlns="http://www.w3.org/2000/svg"
 width="4023.000000pt" height="3845.000000pt" viewBox="0 0 4023.000000 3845.000000"
 preserveAspectRatio="xMidYMid meet">

<g transform="translate(0.000000,3845.000000) scale(0.100000,-0.100000)"
fill="#014e87" stroke="none">
<path d="M16290 37267 c-3 -3 -163 -7 -355 -8 -193 -2 -406 -6 -475 -10 -524
-27 -1058 -413 -1320 -954 -70 -146 -106 -254 -120 -360 -20 -147 -29 -858
-29 -2175 0 -1342 9 -2047 30 -2205 20 -157 105 -381 209 -550 180 -293 426
-514 733 -660 240 -113 384 -140 897 -167 276 -14 3964 -18 4193 -4 109 7 129
11 137 27 30 54 34 414 35 2764 0 2449 -3 2683 -41 2959 -42 304 -200 590
-480 871 -156 156 -288 250 -466 333 -184 86 -301 108 -663 122 -282 10 -2277
26 -2285 17z"/>
<path d="M21212 35601 c-23 -4 -50 -14 -58 -23 -37 -36 -39 -120 -36 -1292 1
-627 5 -1142 8 -1145 7 -7 2874 -25 2881 -17 8 8 -14 559 -27 666 -42 349
-220 747 -463 1037 -143 170 -380 378 -549 481 -251 154 -526 234 -934 272
-251 23 -731 35 -822 21z"/>
<path d="M9237 32380 c-16 -5 -45 -21 -65 -36 -49 -37 -331 -285 -359 -315
-40 -44 -94 -143 -113 -209 -16 -54 -96 -546 -166 -1021 -23 -154 0 -221 94
-272 l51 -28 363 1 c710 1 782 4 872 34 102 34 150 68 337 230 196 169 219
195 219 246 0 58 -14 85 -57 105 -42 20 7 19 -767 16 -343 -2 -380 0 -397 15
-25 22 -24 33 15 279 18 116 55 352 82 526 47 314 47 317 30 362 -12 33 -26
49 -50 61 -37 18 -48 18 -89 6z"/>
<path d="M21332 32231 c-149 -5 -195 -9 -201 -20 -16 -26 -23 -495 -18 -1201
5 -659 10 -787 33 -810 5 -5 43 -15 84 -22 116 -20 881 -16 1120 6 512 46 803
166 1100 453 297 286 452 548 519 878 25 125 43 385 39 575 l-3 145 -1240 1
c-682 0 -1327 -2 -1433 -5z"/>
<path d="M8234 31521 c-17 -10 -200 -165 -407 -344 -207 -179 -390 -333 -408
-342 -17 -9 -41 -14 -54 -11 -14 4 -122 120 -271 293 -137 159 -260 299 -274
312 -30 27 -89 57 -110 55 -8 -1 -24 -2 -35 -3 -32 -2 -82 -54 -94 -97 -6 -22
-24 -142 -40 -269 -27 -205 -86 -665 -226 -1735 -24 -184 -53 -410 -66 -503
-25 -193 -20 -230 38 -292 69 -73 66 -73 584 -80 255 -3 574 -8 709 -10 233
-4 1103 -16 1370 -19 146 -2 190 6 230 44 25 24 30 36 30 77 0 74 5 67 -334
457 -114 133 -213 251 -219 263 -7 16 -6 30 2 50 7 16 165 159 377 343 389
335 449 392 460 436 10 41 -7 94 -39 118 -28 21 -36 21 -597 21 -478 1 -570 3
-585 15 -21 17 -18 60 14 265 129 824 132 848 125 885 -4 17 -19 44 -34 60
-23 24 -36 30 -72 30 -24 0 -56 -8 -74 -19z"/>
<path d="M28466 31026 c-47 -18 -103 -70 -122 -115 -20 -49 -18 -92 26 -477
21 -192 67 -594 100 -894 33 -300 81 -725 106 -945 25 -231 51 -418 60 -443
22 -58 77 -96 129 -88 65 11 90 35 424 408 117 130 220 238 229 240 9 2 26 2
38 0 12 -2 192 -157 400 -344 208 -187 397 -351 420 -364 100 -59 184 -10 184
108 0 40 -85 693 -135 1039 -3 27 0 43 13 59 18 22 23 23 188 20 93 -1 198 -3
234 -5 36 -1 211 -6 390 -9 302 -7 327 -6 360 11 60 31 77 99 40 160 -10 17
-194 189 -408 382 -214 192 -392 357 -396 366 -18 48 -6 64 258 358 146 162
274 312 285 333 45 83 13 172 -67 193 -23 6 -559 12 -1377 16 -1145 4 -1346 3
-1379 -9z"/>
<path d="M15968 29299 c-236 -10 -256 -14 -283 -60 -48 -82 -6 -363 84 -555
52 -111 89 -162 195 -272 145 -151 268 -230 417 -272 168 -46 451 -50 587 -8
217 67 445 240 577 438 110 165 157 325 159 532 1 124 -1 139 -20 165 -17 23
-31 29 -75 35 -76 9 -1403 7 -1641 -3z"/>
<path d="M20500 29303 c-30 -1 -84 -5 -118 -9 -61 -5 -64 -7 -78 -40 -43 -102
6 -419 91 -589 65 -130 202 -288 338 -391 75 -57 218 -127 307 -151 96 -26
450 -26 534 0 227 70 479 267 594 462 165 283 223 636 113 695 -37 19 -425 30
-1071 28 -360 -1 -680 -3 -710 -5z"/>
<path d="M30742 29010 c-51 -12 -110 -56 -133 -103 -28 -53 -28 -112 0 -307
11 -80 34 -246 51 -370 77 -570 77 -568 145 -680 35 -58 224 -240 388 -375
118 -98 227 -61 227 77 0 24 -11 124 -25 223 -13 99 -45 330 -70 514 -42 307
-44 336 -30 357 8 13 25 24 38 25 38 2 341 -2 428 -6 46 -2 215 -6 375 -10
265 -6 295 -5 328 10 69 33 85 104 38 173 -28 43 -271 267 -357 330 -143 106
-198 119 -530 127 -346 8 -657 16 -750 19 -49 2 -105 0 -123 -4z"/>
<path d="M2513 25770 c-218 -13 -347 -47 -528 -138 -337 -169 -581 -449 -699
-804 -39 -117 -51 -205 -66 -503 -40 -805 -40 -3084 0 -3895 15 -300 26 -388
65 -507 122 -372 359 -656 696 -832 214 -112 309 -136 603 -152 275 -14 2379
-6 2526 10 135 15 236 41 347 90 397 175 701 509 822 907 36 119 47 176 62
314 16 152 21 1576 11 3120 l-8 1305 -76 162 c-41 89 -97 197 -123 239 -144
230 -368 444 -583 556 -169 88 -249 104 -597 118 -312 12 -2287 20 -2452 10z
m1599 -5434 c115 -26 172 -70 216 -165 45 -98 19 -223 -63 -306 -92 -91 -224
-120 -515 -112 -332 10 -440 50 -509 189 -62 122 -33 269 67 345 79 60 170 73
492 68 171 -2 265 -8 312 -19z"/>
<path d="M18745 25524 c-170 -28 -405 -112 -542 -192 -116 -68 -230 -159 -348
-278 -225 -225 -353 -433 -430 -699 -35 -122 -52 -227 -70 -439 -9 -98 -20
-199 -26 -225 -19 -91 -28 -98 -245 -200 -385 -181 -572 -286 -964 -541 -124
-81 -262 -168 -307 -195 -98 -56 -57 -65 -365 82 -372 178 -563 229 -818 220
-169 -6 -300 -35 -490 -110 -465 -181 -743 -430 -955 -855 -72 -144 -109 -246
-124 -342 -14 -85 -14 -556 0 -657 14 -108 41 -192 94 -302 100 -206 218 -373
369 -525 111 -111 216 -194 404 -315 167 -109 151 -61 122 -379 -53 -583 -53
-724 0 -1304 30 -324 46 -275 -132 -393 -431 -283 -577 -439 -749 -800 -112
-235 -123 -301 -116 -731 5 -362 5 -365 87 -534 138 -283 360 -540 615 -711
113 -76 384 -211 488 -244 102 -32 263 -46 472 -39 271 8 354 28 592 140 195
92 302 135 371 149 105 22 146 8 282 -100 109 -87 384 -268 575 -381 294 -172
633 -334 700 -334 25 0 59 -33 74 -72 17 -45 30 -137 46 -318 26 -298 76 -486
185 -705 225 -449 637 -768 1132 -876 120 -26 369 -36 493 -20 358 48 671 207
945 481 244 244 392 510 465 835 25 112 42 325 44 567 l1 48 353 173 c485 238
741 382 965 544 143 103 269 173 309 173 49 0 111 -24 303 -115 311 -148 485
-190 780 -189 150 0 204 4 287 22 445 96 802 342 1056 727 357 542 354 1190
-8 1730 -158 236 -343 408 -639 595 -65 41 -121 81 -123 88 -3 7 4 142 16 300
49 666 49 576 4 1210 -14 205 -24 374 -22 376 2 2 76 50 164 108 171 111 265
187 384 308 259 265 426 560 461 820 16 111 16 564 1 654 -17 97 -43 172 -111
312 -239 494 -647 820 -1210 965 -299 77 -657 9 -1090 -206 -69 -34 -155 -74
-192 -90 l-67 -28 -57 33 c-32 18 -128 78 -213 133 -589 380 -607 390 -1194
671 -92 44 -100 50 -118 92 -12 26 -26 96 -35 167 -7 67 -21 183 -30 257 -47
399 -205 723 -489 1005 -251 248 -555 404 -900 460 -111 18 -351 18 -460 -1z
m843 -3849 c64 -15 144 -51 195 -89 46 -33 124 -151 158 -240 51 -132 50 -189
-11 -516 -195 -1053 -717 -3666 -835 -4183 -40 -172 -75 -246 -151 -322 -103
-102 -277 -177 -414 -178 -68 -1 -83 3 -162 40 -141 67 -227 142 -307 268 -38
60 -71 162 -71 220 0 175 750 3912 906 4515 62 239 69 255 143 329 36 36 94
81 128 99 125 66 288 88 421 57z m-2400 -1169 c98 -34 157 -70 227 -142 120
-122 180 -264 173 -407 -10 -192 -113 -339 -581 -827 l-225 -235 267 -270
c431 -436 515 -545 541 -702 24 -142 -55 -367 -170 -484 -100 -101 -217 -141
-420 -141 -194 0 -207 9 -676 477 -462 460 -558 585 -621 806 -26 93 -27 542
0 639 45 167 146 315 386 562 335 347 585 580 716 668 124 85 246 102 383 56z
m3892 -5 c102 -41 277 -188 575 -486 359 -359 513 -545 565 -682 53 -139 72
-242 77 -403 6 -177 -10 -277 -67 -434 -66 -178 -186 -323 -696 -835 l-372
-374 -158 6 c-179 8 -257 23 -345 67 -153 78 -247 221 -280 427 -30 185 47
322 366 653 295 305 405 429 405 455 0 20 -124 165 -296 346 -276 288 -392
426 -440 522 -33 63 -46 171 -33 266 31 221 178 402 389 478 85 31 225 28 310
-6z"/>
<path d="M33584 25320 c-683 -8 -763 -13 -912 -56 -618 -179 -1053 -717 -1102
-1364 -20 -267 -31 -1283 -20 -1892 14 -803 20 -867 98 -1098 58 -170 193
-462 227 -490 45 -38 235 136 1321 1211 691 684 884 868 1061 1009 251 201
398 250 713 237 315 -13 470 -83 783 -354 236 -204 347 -255 485 -219 98 25
149 57 282 178 210 192 762 733 1464 1436 l669 670 -43 78 c-122 221 -523 522
-790 593 -110 29 -238 41 -585 51 -433 13 -2867 19 -3651 10z m-281 -1215
c272 -57 445 -327 368 -574 -50 -162 -205 -296 -385 -333 -196 -42 -448 147
-495 370 -41 194 50 395 223 497 92 54 172 65 289 40z"/>
<path d="M38799 23789 c-158 -140 -464 -435 -1024 -988 -802 -793 -995 -971
-1135 -1045 -141 -75 -368 -121 -550 -113 -255 12 -446 108 -753 375 -217 190
-357 253 -488 222 -40 -10 -69 -28 -133 -82 -406 -349 -2082 -2011 -2182
-2163 -20 -30 -12 -43 41 -66 157 -69 495 -89 1572 -89 l771 0 12 -52 c23 -99
28 -223 19 -403 -6 -99 -12 -181 -15 -184 -2 -3 -199 -10 -437 -17 -542 -16
-814 -31 -902 -49 -91 -19 -128 -54 -157 -148 -42 -140 12 -285 124 -331 92
-39 184 -41 1673 -41 1660 0 1649 -1 1731 82 94 94 103 257 21 365 -44 58 -98
86 -191 99 -43 5 -324 14 -624 18 -426 6 -556 11 -587 22 -65 23 -70 42 -70
279 0 232 7 295 35 310 60 32 426 47 1437 60 l792 10 168 84 c214 107 330 184
456 305 284 272 452 617 486 997 40 445 42 2530 3 2601 -8 13 -24 2 -93 -58z"/>
<path d="M4493 16890 c-25 -10 -50 -45 -62 -88 -5 -16 -14 -261 -21 -543 -6
-283 -16 -531 -21 -551 -7 -29 -16 -39 -36 -44 -16 -5 -105 8 -223 30 -107 21
-242 46 -300 57 -58 11 -161 31 -230 44 -69 14 -141 27 -160 30 -19 3 -61 11
-92 17 -32 6 -81 8 -110 6 -42 -4 -56 -11 -75 -34 -27 -34 -30 -91 -8 -138 24
-50 266 -345 337 -411 77 -72 181 -122 292 -141 45 -8 137 -25 206 -39 69 -13
188 -36 265 -50 77 -15 199 -38 270 -52 225 -44 287 -51 334 -37 60 18 87 38
118 91 26 46 28 53 34 243 4 107 10 371 14 585 l7 390 -26 80 c-14 44 -43 105
-63 135 -48 71 -271 346 -309 382 -47 43 -95 56 -141 38z"/>
<path d="M34060 16080 c-74 -22 -191 -56 -260 -76 -69 -19 -267 -76 -440 -125
-432 -123 -444 -127 -535 -154 -44 -13 -132 -38 -195 -55 -63 -18 -200 -57
-305 -87 -104 -31 -219 -64 -255 -74 -449 -123 -482 -135 -512 -187 -34 -57
-18 -125 42 -175 16 -14 176 -119 356 -232 333 -212 354 -229 338 -278 -4 -11
-122 -203 -264 -427 -142 -223 -269 -429 -284 -457 -55 -109 -15 -195 89 -195
35 0 186 40 305 82 14 4 77 24 140 44 63 19 223 68 355 109 295 92 281 89 306
68 22 -18 21 -8 124 -741 25 -179 50 -341 55 -360 5 -20 23 -49 39 -64 27 -26
35 -28 83 -24 45 5 57 11 83 41 16 20 147 221 290 447 143 226 273 425 288
442 23 25 33 30 61 25 18 -3 52 -19 77 -35 197 -132 611 -386 651 -399 87 -28
157 11 173 97 6 37 5 45 -164 1070 -55 333 -136 828 -181 1100 -44 272 -87
511 -96 530 -20 47 -42 71 -86 98 -64 40 -124 38 -278 -8z"/>
<path d="M5310 15887 c-21 -8 -42 -25 -54 -46 -23 -40 -29 -153 -40 -746 -4
-187 -9 -357 -12 -378 -8 -53 -35 -64 -117 -49 -34 7 -80 15 -102 18 -22 3
-80 14 -130 24 -49 11 -106 22 -125 25 -19 3 -80 14 -135 25 -111 22 -144 28
-195 36 -19 3 -75 14 -125 25 -142 31 -236 36 -273 14 -62 -37 -69 -108 -19
-181 18 -27 165 -213 328 -414 163 -201 304 -380 313 -398 12 -24 15 -41 9
-59 -6 -16 -119 -114 -313 -271 -167 -136 -317 -264 -334 -285 -59 -73 -36
-166 49 -202 17 -7 89 -22 160 -34 72 -12 166 -28 210 -36 44 -8 125 -22 180
-30 55 -9 114 -18 130 -21 17 -2 41 -7 55 -9 14 -3 42 -7 64 -10 21 -2 46 -7
55 -9 9 -3 32 -7 51 -10 19 -2 148 -23 285 -46 138 -22 360 -59 495 -80 333
-54 364 -59 450 -75 251 -46 538 -86 573 -81 54 9 123 60 147 110 26 54 26 64
55 691 14 297 41 873 61 1280 19 407 33 758 29 780 -12 80 -88 129 -163 104
-49 -16 -48 -15 -388 -290 -223 -181 -302 -239 -323 -239 -36 0 -50 15 -376
420 -310 385 -346 426 -392 446 -38 16 -38 16 -83 1z"/>
<path d="M32535 13545 c-45 -15 -180 -57 -335 -105 -58 -17 -145 -45 -195 -60
-49 -16 -151 -47 -225 -70 -227 -70 -260 -82 -320 -119 -109 -67 -135 -97
-289 -340 -150 -234 -162 -267 -124 -332 36 -60 106 -63 268 -10 55 18 120 39
145 46 25 7 126 39 225 70 99 31 200 63 225 70 25 7 97 29 160 48 63 19 126
37 139 40 34 8 67 -29 74 -84 4 -24 25 -177 47 -339 70 -508 99 -689 115 -719
43 -85 144 -82 212 6 41 53 217 332 246 390 41 81 60 162 60 253 0 69 -55 490
-139 1065 -23 156 -148 238 -289 190z"/>
<path d="M7190 10917 c-3 -3 -163 -7 -355 -8 -193 -2 -406 -6 -475 -10 -524
-27 -1058 -413 -1320 -954 -70 -146 -106 -254 -120 -360 -20 -147 -29 -858
-29 -2175 0 -1342 9 -2047 30 -2205 20 -157 105 -381 209 -550 180 -293 426
-514 733 -660 240 -113 384 -140 897 -167 276 -14 3964 -18 4193 -4 109 7 129
11 137 27 30 54 34 414 35 2764 0 2449 -3 2683 -41 2959 -42 304 -200 590
-480 871 -156 156 -288 250 -466 333 -184 86 -301 108 -663 122 -282 10 -2277
26 -2285 17z"/>
<path d="M26800 10757 c-3 -3 -163 -7 -355 -8 -193 -2 -406 -6 -475 -10 -524
-27 -1058 -413 -1320 -954 -70 -146 -106 -254 -120 -360 -20 -147 -29 -858
-29 -2175 0 -1342 9 -2047 30 -2205 20 -157 105 -381 209 -550 180 -293 426
-514 733 -660 240 -113 384 -140 897 -167 276 -14 3964 -18 4193 -4 109 7 129
11 137 27 30 54 34 414 35 2764 0 2449 -3 2683 -41 2959 -42 304 -200 590
-480 871 -156 156 -288 250 -466 333 -184 86 -301 108 -663 122 -282 10 -2277
26 -2285 17z"/>
<path d="M12112 9251 c-23 -4 -50 -14 -58 -23 -37 -36 -39 -120 -36 -1292 1
-627 5 -1142 8 -1145 7 -7 2874 -25 2881 -17 8 8 -14 559 -27 666 -42 349
-220 747 -463 1037 -143 170 -380 378 -549 481 -251 154 -526 234 -934 272
-251 23 -731 35 -822 21z"/>
<path d="M31722 9091 c-23 -4 -50 -14 -58 -23 -37 -36 -39 -120 -36 -1292 1
-627 5 -1142 8 -1145 7 -7 2874 -25 2881 -17 8 8 -14 559 -27 666 -42 349
-220 747 -463 1037 -143 170 -380 378 -549 481 -251 154 -526 234 -934 272
-251 23 -731 35 -822 21z"/>
<path d="M20005 8158 c-57 -45 -59 -55 -63 -510 -3 -324 -7 -421 -17 -435 -13
-17 -48 -18 -567 -23 -550 -5 -553 -5 -589 -27 -58 -36 -72 -87 -43 -149 15
-31 122 -125 767 -672 70 -60 87 -80 87 -102 0 -37 -7 -44 -205 -211 -435
-367 -624 -530 -639 -555 -27 -41 -31 -88 -10 -123 36 -62 30 -61 601 -61 533
0 583 -3 603 -40 6 -12 10 -163 10 -404 0 -432 4 -472 55 -523 27 -27 41 -33
74 -33 23 0 55 7 72 15 16 9 134 109 262 223 128 113 354 315 502 447 341 305
668 596 1003 894 172 153 270 247 283 272 26 51 25 137 -1 188 -21 42 -54 73
-750 692 -157 139 -426 379 -599 534 -576 513 -683 606 -708 616 -43 16 -98
11 -128 -13z"/>
<path d="M17547 7181 c-103 -15 -148 -82 -108 -164 22 -45 21 -44 588 -525
144 -122 264 -231 268 -242 3 -10 2 -28 -4 -38 -6 -11 -185 -168 -398 -349
-213 -182 -401 -343 -417 -359 -89 -89 -59 -189 62 -215 37 -7 137 -10 296 -7
221 4 247 7 311 29 39 13 97 42 130 64 51 34 439 359 768 643 112 97 141 142
141 217 0 80 -29 120 -166 238 -535 456 -700 594 -745 623 -28 18 -87 46 -130
60 -74 26 -89 27 -308 30 -126 1 -256 -1 -288 -5z"/>
<path d="M12232 5881 c-149 -5 -195 -9 -201 -20 -16 -26 -23 -495 -18 -1201 5
-659 10 -787 33 -810 5 -5 43 -15 84 -22 116 -20 881 -16 1120 6 512 46 803
166 1100 453 297 286 452 548 519 878 25 125 43 385 39 575 l-3 145 -1240 1
c-682 0 -1327 -2 -1433 -5z"/>
<path d="M31842 5721 c-149 -5 -195 -9 -201 -20 -16 -26 -23 -495 -18 -1201 5
-659 10 -787 33 -810 5 -5 43 -15 84 -22 116 -20 881 -16 1120 6 512 46 803
166 1100 453 297 286 452 548 519 878 25 125 43 385 39 575 l-3 145 -1240 1
c-682 0 -1327 -2 -1433 -5z"/>
<path d="M6868 2949 c-236 -10 -256 -14 -283 -60 -48 -82 -6 -363 84 -555 52
-111 89 -162 195 -272 145 -151 268 -230 417 -272 168 -46 451 -50 587 -8 217
67 445 240 577 438 110 165 157 325 159 532 1 124 -1 139 -20 165 -17 23 -31
29 -75 35 -76 9 -1403 7 -1641 -3z"/>
<path d="M11400 2953 c-30 -1 -84 -5 -118 -9 -61 -5 -64 -7 -78 -40 -43 -102
6 -419 91 -589 65 -130 202 -288 338 -391 75 -57 218 -127 307 -151 96 -26
450 -26 534 0 227 70 479 267 594 462 165 283 223 636 113 695 -37 19 -425 30
-1071 28 -360 -1 -680 -3 -710 -5z"/>
<path d="M26478 2789 c-236 -10 -256 -14 -283 -60 -48 -82 -6 -363 84 -555 52
-111 89 -162 195 -272 145 -151 268 -230 417 -272 168 -46 451 -50 587 -8 217
67 445 240 577 438 110 165 157 325 159 532 1 124 -1 139 -20 165 -17 23 -31
29 -75 35 -76 9 -1403 7 -1641 -3z"/>
<path d="M31010 2793 c-30 -1 -84 -5 -118 -9 -61 -5 -64 -7 -78 -40 -43 -102
6 -419 91 -589 65 -130 202 -288 338 -391 75 -57 218 -127 307 -151 96 -26
450 -26 534 0 227 70 479 267 594 462 165 283 223 636 113 695 -37 19 -425 30
-1071 28 -360 -1 -680 -3 -710 -5z"/>
</g>
</svg>
