<?xml version="1.0" standalone="no"?>
<!DOCTYPE svg PUBLIC "-//W3C//DTD SVG 20010904//EN"
 "http://www.w3.org/TR/2001/REC-SVG-20010904/DTD/svg10.dtd">
<svg version="1.0" xmlns="http://www.w3.org/2000/svg"
 width="640.000000pt" height="592.000000pt" viewBox="0 0 640.000000 592.000000"
 preserveAspectRatio="xMidYMid meet">

<g transform="translate(0.000000,592.000000) scale(0.100000,-0.100000)"
fill="#ffffff" stroke="none">
<path d="M3605 5572 c6 -5 48 -24 94 -42 209 -83 454 -222 656 -374 130 -98
377 -337 468 -453 212 -270 374 -593 452 -902 46 -184 57 -270 62 -486 4 -161
1 -239 -11 -335 -34 -252 -109 -504 -223 -742 -64 -133 -67 -138 -102 -145
-62 -13 -558 -9 -671 5 -519 64 -913 195 -1360 451 -68 39 -125 71 -127 71 -7
0 84 -114 162 -202 93 -107 269 -259 390 -340 188 -124 451 -237 692 -298 143
-35 302 -58 496 -71 l189 -12 -159 -158 -158 -158 -120 25 c-600 127 -1169
502 -1487 979 -198 298 -288 584 -288 919 0 83 4 178 10 210 5 33 8 62 5 64
-10 10 -155 -227 -221 -363 -112 -229 -174 -440 -205 -689 -16 -136 -6 -401
21 -528 86 -406 320 -717 675 -897 55 -28 154 -69 220 -90 66 -22 111 -40 100
-41 -55 -1 -408 -30 -412 -33 -7 -8 162 -75 277 -111 427 -132 897 -106 1353
75 611 243 1150 774 1400 1379 157 382 199 767 128 1180 -67 384 -253 784
-527 1130 -93 117 -339 361 -454 450 -188 144 -395 270 -572 346 -201 87 -475
163 -648 179 -36 3 -76 8 -90 11 -16 3 -21 2 -15 -4z"/>
<path d="M2445 5419 c-337 -36 -702 -168 -985 -359 -169 -114 -391 -300 -466
-390 l-29 -34 70 39 c446 249 885 376 1290 374 l110 0 -135 -48 c-441 -156
-763 -349 -1007 -604 -114 -120 -168 -190 -249 -324 -146 -244 -238 -538 -284
-913 -15 -115 -25 -758 -13 -745 6 6 26 53 46 105 76 197 225 465 352 635 231
306 500 529 840 695 310 152 611 233 1085 292 158 20 560 17 680 -5 311 -57
499 -144 647 -300 38 -40 84 -99 102 -130 18 -31 34 -57 36 -57 7 0 66 188 86
275 30 131 37 346 15 456 -32 156 -91 270 -196 379 -141 146 -385 265 -655
320 -33 6 -80 25 -105 40 -25 16 -99 56 -165 88 -347 173 -723 247 -1070 211z"/>
<path d="M2585 3885 c-394 -110 -705 -287 -970 -552 -367 -369 -550 -848 -480
-1259 37 -215 115 -371 262 -525 122 -128 286 -228 488 -299 96 -33 368 -92
373 -81 1 4 -27 69 -64 145 -113 236 -187 467 -229 716 -22 132 -31 420 -16
561 57 550 326 1021 751 1311 34 23 22 22 -115 -17z"/>
<path d="M265 3106 c-13 -128 0 -454 24 -596 93 -552 361 -1052 776 -1448 372
-356 810 -597 1335 -736 483 -128 1107 -128 1590 0 699 185 1277 574 1673
1127 268 374 436 849 461 1302 l6 100 -39 -145 c-91 -335 -217 -616 -406 -900
-119 -178 -198 -274 -370 -446 -206 -207 -382 -343 -630 -487 -471 -273 -1094
-417 -1637 -379 -755 53 -1417 355 -1934 883 -393 403 -648 865 -772 1404 -28
120 -38 174 -60 340 l-8 60 -9 -79z"/>
</g>
</svg>
