<?xml version="1.0" standalone="no"?>
<!DOCTYPE svg PUBLIC "-//W3C//DTD SVG 20010904//EN"
 "http://www.w3.org/TR/2001/REC-SVG-20010904/DTD/svg10.dtd">
<svg version="1.0" xmlns="http://www.w3.org/2000/svg"
 width="2203.000000pt" height="2367.000000pt" viewBox="0 0 2203.000000 2367.000000"
 preserveAspectRatio="xMidYMid meet">

<g transform="translate(0.000000,2367.000000) scale(0.100000,-0.100000)"
fill="#103c5d" stroke="none">
<path d="M10728 21970 c-159 -27 -114 -3 -1563 -840 -1016 -587 -5724 -3303
-5975 -3448 -628 -361 -856 -505 -1023 -646 -115 -97 -226 -271 -247 -387 -24
-132 -31 -463 -41 -2149 -12 -1989 -5 -7028 11 -7550 15 -472 25 -538 111
-671 88 -137 144 -195 262 -273 280 -184 886 -545 1707 -1016 1655 -950 3695
-2127 5200 -3000 863 -501 1151 -665 1315 -746 174 -86 238 -97 555 -98 219
-1 239 1 300 21 218 76 618 301 3220 1808 736 426 1536 888 2245 1295 1384
795 2529 1461 2875 1673 184 112 264 200 409 452 l81 140 0 5025 0 5026 -89
152 c-99 168 -165 266 -216 317 -70 70 -659 416 -2615 1540 -770 442 -3200
1845 -4789 2764 l-1074 621 -306 -1 c-168 -1 -327 -5 -353 -9z m405 -881 c160
-81 532 -285 897 -494 892 -511 6689 -3858 6820 -3938 199 -121 353 -229 416
-292 71 -70 70 -67 85 -305 17 -280 28 -2061 28 -4705 0 -3714 -10 -4333 -79
-4567 -24 -80 -41 -96 -200 -183 -63 -34 -358 -203 -655 -375 -3784 -2188
-6565 -3791 -6877 -3966 -144 -81 -316 -173 -382 -205 -147 -73 -180 -75 -305
-24 -158 65 -328 161 -1936 1095 -1595 926 -2132 1236 -3635 2100 -1181 678
-1716 992 -2140 1253 -277 171 -366 232 -438 300 l-62 60 0 4716 0 4717 68 66
c77 76 211 165 617 410 667 402 1305 774 2705 1578 1278 734 2438 1402 3470
1998 443 256 879 508 970 560 242 139 466 252 501 252 16 0 75 -23 132 -51z"/>
<path d="M10858 20572 c-51 -27 -352 -199 -668 -382 -938 -543 -2640 -1524
-4240 -2442 -1099 -631 -1796 -1039 -2380 -1391 -390 -236 -423 -258 -461
-314 l-34 -48 -3 -4423 c-2 -4343 -2 -4423 17 -4460 41 -79 99 -119 636 -439
383 -229 945 -557 1600 -933 1435 -824 2505 -1442 4085 -2360 877 -510 1152
-668 1365 -786 143 -79 166 -89 220 -92 70 -5 76 -2 480 226 235 133 3375
1943 5145 2967 492 284 1185 684 1539 889 644 370 708 412 745 484 18 36 34
156 46 358 5 82 14 896 21 1809 10 1302 10 2176 0 4050 -7 1315 -16 2460 -21
2546 -12 230 -31 257 -268 402 -125 77 -3401 1970 -6072 3509 -911 525 -1336
765 -1486 842 -103 52 -147 50 -266 -12z m493 -1134 c294 -168 2965 -1709
5726 -3303 l1072 -619 4 -115 c3 -64 10 -1088 17 -2276 16 -2816 0 -5317 -35
-5500 -5 -28 -71 -67 -923 -559 -504 -291 -923 -531 -929 -534 -10 -3 -13 35
-13 167 l0 171 73 36 c39 19 86 42 102 51 37 20 227 208 246 245 80 153 119
250 119 300 0 15 5 30 10 33 12 8 14 252 1 259 -4 3 -11 25 -15 48 -22 140
-104 287 -230 413 -85 86 -127 116 -238 172 l-67 34 -4 1092 c-3 774 -7 1120
-16 1187 -18 142 -46 280 -96 465 -38 142 -132 359 -222 513 -24 41 -43 76
-43 79 0 3 -13 22 -30 43 -16 21 -30 41 -30 45 0 7 -111 156 -146 195 -12 14
-54 61 -93 105 -63 72 -140 143 -285 265 -47 40 -235 169 -266 183 -8 4 -31
17 -50 29 -50 30 -260 134 -290 143 -14 4 -29 11 -35 15 -5 4 -24 11 -41 14
-21 5 -34 15 -38 29 -3 12 -6 878 -6 1924 0 2091 3 1979 -61 2110 -57 119
-196 244 -308 279 -33 10 -61 22 -61 27 0 4 -187 7 -415 7 -270 0 -415 -3
-415 -10 0 -5 -9 -10 -21 -10 -11 0 -53 -16 -94 -36 -124 -60 -254 -208 -285
-324 -8 -31 -51 -44 -187 -59 -54 -6 -134 -15 -178 -20 -75 -9 -242 -25 -530
-51 -529 -48 -1456 -52 -2070 -9 -364 25 -415 30 -660 60 -49 6 -128 14 -175
19 -120 13 -190 30 -190 48 0 12 -15 46 -41 92 -5 8 -14 26 -19 39 -6 13 -43
56 -83 96 -53 53 -92 82 -148 109 -42 20 -84 36 -93 36 -9 0 -16 5 -16 10 0 7
-145 10 -415 10 -230 0 -415 -4 -415 -9 0 -5 -14 -11 -31 -15 -68 -13 -163
-71 -234 -141 -79 -78 -130 -169 -151 -270 -11 -48 -13 -445 -14 -1972 0
-1203 -4 -1921 -10 -1937 -6 -16 -20 -28 -37 -32 -15 -4 -37 -13 -48 -20 -11
-8 -26 -14 -35 -14 -13 0 -185 -84 -270 -132 -301 -169 -582 -415 -777 -679
-52 -70 -127 -181 -136 -199 -4 -8 -16 -28 -26 -45 -17 -26 -57 -97 -81 -144
-10 -20 -67 -145 -84 -186 -17 -39 -48 -132 -91 -265 -19 -60 -61 -274 -76
-385 -8 -63 -13 -423 -16 -1197 l-4 -1107 -42 -20 c-23 -11 -49 -22 -57 -25
-64 -26 -203 -139 -267 -219 -56 -70 -113 -161 -113 -180 0 -7 -4 -17 -9 -23
-14 -14 -51 -130 -51 -158 0 -14 -4 -28 -10 -31 -13 -8 -13 -272 0 -280 6 -3
10 -22 10 -40 0 -19 7 -51 16 -72 61 -143 79 -177 124 -238 84 -112 187 -200
300 -257 104 -52 100 -45 100 -175 0 -102 -2 -114 -16 -109 -37 14 -909 521
-1391 809 l-303 180 0 3938 0 3938 283 169 c650 389 1175 695 2407 1402 1561
896 3014 1734 3745 2158 380 220 697 399 706 398 8 -2 161 -87 340 -188z
m-2966 -4615 l0 -1818 -264 -3 c-146 -1 -268 1 -273 6 -8 8 -12 3617 -4 3630
2 4 125 6 273 5 l268 -2 0 -1818z m5620 0 l0 -1818 -270 0 -270 0 -3 1810 c-1
996 0 1815 2 1820 2 6 100 9 272 8 l269 -3 0 -1817z m-4885 1377 c58 -4 134
-13 170 -19 308 -48 1076 -91 1630 -91 621 0 1372 47 1890 120 48 7 66 6 72
-3 4 -7 7 -730 5 -1607 l-2 -1595 -395 -3 c-217 -1 -405 0 -417 3 -21 5 -21 6
-25 342 -4 359 -3 350 -56 463 -16 34 -55 89 -97 138 -22 26 -105 89 -145 110
-95 51 -119 55 -330 61 l-205 6 -3 276 -2 277 177 4 c157 3 183 7 218 25 132
69 194 215 148 349 -21 61 -112 156 -169 175 -55 19 -1167 26 -1269 8 -138
-23 -235 -137 -235 -274 0 -107 61 -203 162 -257 39 -20 58 -23 208 -25 91 -2
171 -3 178 -3 9 0 12 -60 12 -269 0 -203 -3 -271 -12 -279 -8 -6 -97 -12 -208
-15 -211 -5 -258 -15 -353 -74 -51 -31 -166 -149 -187 -189 -8 -16 -19 -35
-24 -42 -5 -7 -18 -37 -29 -65 -18 -47 -20 -85 -24 -389 -4 -258 -8 -339 -17
-348 -9 -7 -142 -9 -417 -8 l-404 3 -3 1595 c-1 877 0 1601 3 1609 3 8 13 11
28 7 12 -4 69 -11 127 -16z m2360 -2909 c4 -211 2 -267 -8 -278 -11 -10 -118
-13 -543 -13 -347 0 -537 4 -550 10 -18 10 -19 24 -19 261 0 154 4 258 10 270
11 19 25 19 558 17 l547 -3 5 -264z m2365 -861 c142 -11 256 -26 299 -39 31
-9 91 -25 156 -41 19 -4 60 -18 90 -30 30 -12 67 -25 81 -30 14 -4 34 -12 45
-18 10 -6 53 -27 94 -47 41 -20 89 -45 105 -56 17 -10 37 -22 45 -26 20 -10
104 -66 110 -74 3 -3 28 -21 55 -39 65 -44 310 -286 355 -351 19 -28 40 -56
45 -62 55 -65 225 -373 225 -407 0 -7 6 -24 14 -38 17 -35 36 -88 46 -132 4
-19 13 -48 18 -65 17 -49 34 -126 43 -197 5 -38 13 -101 19 -140 5 -42 9 -507
10 -1100 l0 -1028 -4775 0 -4775 0 0 1039 c0 879 2 1057 15 1158 26 196 76
382 146 540 11 23 19 46 19 52 0 5 3 11 8 13 4 2 19 28 35 58 97 195 193 324
369 496 103 102 274 244 292 244 3 0 26 14 51 31 50 33 277 149 293 149 6 0
23 6 39 14 35 17 87 35 133 46 65 16 125 32 156 41 43 13 172 30 284 39 149
11 5716 11 5855 0z m2241 -4511 c26 -12 68 -43 93 -69 106 -108 105 -262 -1
-372 -26 -26 -68 -57 -93 -68 -46 -20 -80 -20 -5163 -20 l-5117 0 -56 29 c-60
30 -83 49 -114 96 -54 82 -60 180 -16 267 38 74 57 94 128 129 l58 29 5116 0
5116 0 49 -21z m-417 -1105 l31 -6 0 -308 0 -308 -467 -270 c-3974 -2293
-4194 -2419 -4218 -2428 -15 -6 13 -22 -1595 911 -1032 599 -2439 1413 -3062
1770 l-208 120 0 257 0 257 23 4 c35 7 9461 8 9496 1z"/>
<path d="M8015 12041 c-6 -5 -39 -13 -75 -19 -112 -18 -213 -43 -256 -63 -22
-10 -47 -19 -56 -19 -12 0 -163 -73 -228 -110 -8 -5 -49 -24 -90 -44 -42 -20
-92 -53 -115 -75 -21 -23 -46 -41 -56 -41 -19 0 -229 -222 -229 -242 0 -8 -16
-30 -36 -49 -41 -39 -84 -102 -84 -123 0 -7 -7 -19 -15 -26 -8 -7 -15 -20 -15
-30 0 -10 -7 -23 -15 -30 -8 -7 -15 -20 -15 -30 0 -10 -7 -23 -15 -30 -8 -7
-15 -19 -15 -28 0 -8 -6 -23 -13 -31 -39 -47 -116 -304 -124 -416 -3 -33 -11
-68 -19 -79 -12 -17 -14 -155 -14 -848 l0 -828 4396 0 4396 0 -4 833 c-2 601
-6 838 -14 852 -7 11 -20 70 -29 130 -10 61 -24 119 -31 130 -8 11 -14 31 -14
45 0 14 -7 34 -15 44 -8 11 -15 30 -15 42 0 21 -18 67 -42 109 -25 45 -28 51
-34 65 -3 8 -10 22 -15 30 -5 8 -12 22 -15 30 -3 8 -10 22 -15 30 -5 8 -12 22
-15 30 -19 48 -44 85 -81 122 -24 23 -43 48 -43 56 0 20 -210 242 -229 242
-10 0 -35 18 -56 41 -23 22 -73 55 -115 75 -41 20 -82 40 -90 45 -8 5 -22 12
-30 15 -8 3 -22 9 -30 14 -51 30 -158 80 -171 80 -9 0 -31 8 -50 17 -38 19
-102 36 -244 66 -100 21 -104 21 -3000 24 -1685 2 -2905 -1 -2910 -6z m1109
-529 c122 -120 253 -243 292 -274 109 -87 276 -193 405 -259 l117 -60 63 -122
c137 -264 244 -402 545 -707 122 -124 224 -234 228 -245 3 -11 2 -26 -3 -33
-4 -8 -100 -106 -212 -219 -210 -211 -251 -242 -320 -243 -47 0 -298 57 -316
71 -7 6 -13 23 -13 38 0 21 36 62 170 196 94 93 170 174 170 180 0 6 -47 58
-105 115 -160 159 -318 368 -438 581 -32 58 -64 101 -82 112 -17 10 -79 48
-140 84 -272 160 -431 324 -544 563 -75 157 -124 386 -91 425 28 34 53 15 274
-203z m3836 198 c26 -49 -42 -318 -116 -455 -133 -250 -295 -402 -617 -582
-73 -41 -77 -45 -128 -135 -136 -239 -244 -381 -478 -628 -39 -41 -71 -77 -71
-80 0 -3 77 -82 170 -175 134 -134 170 -175 170 -196 0 -15 -6 -31 -13 -37
-17 -15 -205 -61 -278 -68 -100 -11 -112 -3 -351 234 -185 183 -218 221 -218
246 0 24 33 62 211 240 211 211 325 341 417 478 54 81 182 308 182 324 0 21
59 63 170 121 247 127 408 253 696 542 151 152 194 190 216 191 17 0 31 -7 38
-20z m-4088 -689 c177 -170 372 -320 543 -416 112 -63 147 -98 210 -210 28
-49 92 -146 143 -216 50 -70 92 -134 92 -141 0 -21 -21 -38 -48 -38 -66 0
-452 181 -606 284 -169 113 -323 296 -397 474 -61 147 -103 324 -82 345 22 22
58 2 145 -82z m4206 49 c4 -44 -57 -247 -103 -347 -70 -152 -218 -329 -355
-425 -137 -96 -566 -298 -634 -298 -14 0 -30 8 -35 18 -12 22 2 53 52 115 45
55 141 201 200 303 55 94 59 98 152 149 170 94 406 272 563 425 86 84 108 101
130 98 23 -3 27 -8 30 -38z m-2668 -296 c186 -42 273 -90 412 -222 l77 -74 91
84 c145 136 219 171 485 231 173 39 185 15 74 -151 -105 -157 -171 -233 -405
-469 -179 -180 -216 -213 -241 -213 -25 0 -64 35 -259 233 -228 230 -332 352
-420 494 -64 102 -53 141 36 121 19 -4 87 -20 150 -34z m682 -1231 c136 -136
168 -172 168 -195 0 -51 -16 -53 -360 -53 -340 0 -360 3 -360 50 0 32 331 365
363 365 13 0 80 -59 189 -167z"/>
<path d="M6651 6456 c2 -2 312 -181 689 -398 748 -431 1511 -873 2745 -1590
440 -256 828 -480 862 -499 l61 -34 44 25 c23 13 900 518 1948 1123 1048 604
2000 1154 2117 1221 148 84 212 126 213 139 0 16 -213 17 -4342 17 -2388 0
-4339 -2 -4337 -4z"/>
</g>
</svg>
