<?xml version="1.0" standalone="no"?>
<!DOCTYPE svg PUBLIC "-//W3C//DTD SVG 20010904//EN"
 "http://www.w3.org/TR/2001/REC-SVG-20010904/DTD/svg10.dtd">
<svg version="1.0" xmlns="http://www.w3.org/2000/svg"
 width="473.000000pt" height="437.000000pt" viewBox="0 0 473.000000 437.000000"
 preserveAspectRatio="xMidYMid meet">

<g transform="translate(0.000000,437.000000) scale(0.100000,-0.100000)"
fill="#103C5D" stroke="none">
<path d="M2185 4030 c-38 -11 -104 -37 -147 -59 -67 -34 -874 -491 -1016 -575
-158 -93 -279 -264 -316 -448 -14 -65 -16 -178 -16 -731 0 -618 1 -658 20
-731 35 -138 115 -264 225 -353 28 -22 192 -119 365 -216 173 -96 387 -216
475 -267 304 -173 386 -206 545 -217 112 -7 229 15 335 66 44 21 220 116 390
211 171 95 380 211 465 258 247 135 260 144 329 212 73 73 121 147 159 248
l26 67 8 655 c5 442 4 682 -3 738 -12 97 -42 188 -90 269 -45 77 -180 211
-249 247 -30 16 -261 145 -512 287 -538 304 -554 312 -650 339 -94 26 -244 26
-343 0z m335 -121 c68 -22 99 -38 680 -364 440 -247 468 -264 541 -336 82 -81
137 -176 157 -274 16 -76 27 -1304 12 -1385 -12 -68 -54 -170 -92 -223 -13
-17 -23 -35 -23 -38 0 -11 -69 -78 -76 -74 -4 3 -9 -1 -12 -9 -3 -7 -29 -27
-59 -43 -29 -17 -141 -80 -248 -140 -373 -211 -633 -353 -646 -353 -7 0 -59
-24 -116 -53 -57 -29 -130 -59 -162 -65 -131 -26 -272 -7 -380 52 -100 54
-644 360 -736 413 -47 27 -139 78 -205 113 -154 83 -234 159 -294 281 -63 129
-64 147 -58 866 l6 631 26 77 c55 164 140 260 320 360 28 15 223 125 435 243
595 334 587 330 715 341 97 8 143 4 215 -20z"/>
<path d="M2225 3815 c-33 -9 -89 -33 -125 -54 -105 -63 -680 -385 -885 -496
-103 -56 -157 -98 -203 -157 -47 -63 -76 -117 -92 -177 -18 -67 -14 -1328 4
-1398 34 -127 130 -236 281 -317 50 -27 168 -93 263 -147 95 -55 177 -99 182
-99 6 0 10 174 11 478 0 262 2 704 4 982 4 475 5 506 23 530 31 41 79 51 246
48 l151 -3 3 -147 3 -148 259 0 260 0 0 119 c0 65 3 133 6 150 l7 31 159 0
c169 0 205 -7 243 -50 20 -22 20 -40 25 -995 3 -535 8 -976 12 -980 3 -4 91
41 195 99 103 58 193 106 200 106 7 0 13 5 13 11 0 5 5 7 10 4 6 -3 10 -1 10
5 0 6 4 9 9 6 5 -4 11 -3 13 1 1 5 25 19 53 33 79 40 159 126 202 216 l38 79
0 691 0 691 -43 85 c-70 142 -101 165 -598 443 -235 131 -484 268 -553 303
l-126 64 -100 4 c-68 2 -119 -1 -160 -11z m210 -100 c47 -8 106 -39 565 -295
190 -106 387 -216 439 -244 113 -62 187 -130 227 -211 l29 -60 7 -635 c5 -402
4 -653 -2 -683 -25 -121 -95 -202 -251 -291 -57 -32 -106 -62 -109 -66 -9 -12
-157 -90 -171 -90 -12 0 -14 143 -11 910 3 1015 8 945 -66 1016 -54 53 -109
64 -304 64 l-168 0 0 40 c0 61 -24 108 -62 124 -42 18 -379 21 -411 5 -41 -21
-57 -51 -57 -111 l0 -56 -187 -4 c-210 -4 -239 -12 -300 -82 -58 -65 -56 -33
-51 -1003 3 -507 2 -893 -3 -893 -5 0 -93 48 -196 106 -207 117 -268 167 -311
254 l-27 55 0 660 0 660 24 58 c38 95 112 163 271 250 74 40 299 165 500 277
201 112 385 212 409 223 47 20 124 36 156 31 11 -1 38 -6 60 -9z m-12 -495
c40 0 54 -5 78 -29 28 -29 29 -32 29 -130 0 -97 -1 -102 -29 -133 l-29 -33
-110 0 c-167 0 -187 19 -187 170 0 79 3 96 20 115 32 36 74 51 130 45 28 -3
72 -5 98 -5z"/>
<path d="M2340 3162 c-46 -2 -90 -8 -97 -14 -15 -12 -18 -154 -5 -176 6 -9 37
-12 118 -10 l109 3 3 91 c3 86 2 91 -20 100 -13 5 -61 8 -108 6z"/>
<path d="M2025 2584 c-90 -46 -147 -93 -200 -166 -43 -57 -83 -143 -72 -154 3
-3 275 -7 606 -9 690 -5 627 -15 570 96 -41 83 -145 184 -234 229 l-70 35
-265 2 -265 3 -70 -36z"/>
<path d="M1755 1563 c3 -335 8 -621 10 -638 5 -27 21 -39 178 -125 281 -154
275 -152 374 -157 50 -3 112 0 145 6 63 14 201 81 234 116 12 12 73 50 136 84
l115 62 6 112 c4 62 7 345 7 630 l0 517 -606 0 -606 0 7 -607z"/>
</g>
</svg>
