<?xml version="1.0" standalone="no"?>
<!DOCTYPE svg PUBLIC "-//W3C//DTD SVG 20010904//EN"
 "http://www.w3.org/TR/2001/REC-SVG-20010904/DTD/svg10.dtd">
<svg version="1.0" xmlns="http://www.w3.org/2000/svg"
 width="967.000000pt" height="1099.000000pt" viewBox="0 0 967.000000 1099.000000"
 preserveAspectRatio="xMidYMid meet">

<g transform="translate(0.000000,1099.000000) scale(0.100000,-0.100000)"
fill="#FFFFFF" stroke="none">
<path d="M4717 10560 c-21 -4 -43 -12 -50 -19 -6 -6 -17 -11 -25 -11 -26 0
-149 -58 -174 -82 -10 -10 -23 -18 -30 -18 -14 0 -126 -65 -227 -131 -40 -27
-79 -49 -87 -49 -8 0 -14 -4 -14 -10 0 -5 -5 -10 -12 -10 -6 0 -25 -10 -42
-23 -17 -12 -44 -29 -61 -37 -16 -8 -38 -21 -48 -29 -18 -15 -25 -19 -99 -60
-24 -13 -60 -37 -80 -53 -21 -16 -42 -27 -48 -23 -5 3 -10 1 -10 -5 0 -6 -8
-14 -17 -17 -10 -4 -39 -22 -64 -40 -26 -18 -52 -33 -58 -33 -7 0 -29 -13 -49
-29 -20 -16 -57 -40 -82 -52 -25 -12 -56 -31 -69 -41 -13 -10 -34 -18 -47 -18
-15 0 -24 -6 -24 -15 0 -9 -8 -19 -17 -22 -10 -4 -40 -21 -68 -38 -27 -17 -67
-39 -87 -48 -20 -10 -40 -22 -44 -28 -3 -6 -16 -15 -27 -20 -12 -5 -35 -18
-52 -28 -16 -11 -38 -20 -47 -20 -9 -1 -23 -9 -30 -19 -7 -10 -43 -35 -80 -55
-37 -21 -70 -42 -73 -47 -3 -6 -25 -19 -48 -31 -46 -22 -62 -31 -124 -72 -24
-15 -45 -27 -48 -27 -3 0 -29 -16 -58 -35 -28 -19 -56 -35 -61 -35 -5 0 -19
-9 -30 -19 -22 -20 -68 -49 -126 -78 -19 -9 -54 -32 -78 -50 -24 -18 -48 -33
-54 -33 -5 0 -27 -13 -47 -28 -20 -16 -43 -32 -51 -35 -8 -4 -33 -18 -55 -32
-22 -14 -47 -28 -55 -32 -8 -4 -17 -10 -20 -13 -3 -4 -25 -17 -50 -29 -63 -31
-104 -55 -108 -63 -2 -3 -24 -18 -50 -31 -26 -14 -63 -34 -82 -46 -19 -11 -42
-24 -50 -28 -8 -3 -28 -17 -44 -31 -17 -13 -39 -28 -50 -33 -12 -5 -37 -19
-57 -32 -75 -47 -261 -157 -266 -157 -3 0 -18 -11 -35 -25 -16 -14 -37 -25
-46 -25 -10 0 -23 -9 -30 -20 -7 -11 -20 -20 -29 -20 -9 0 -32 -12 -52 -27
-38 -30 -99 -63 -115 -63 -5 0 -28 -16 -52 -35 -23 -19 -46 -35 -51 -35 -6 0
-41 -33 -79 -72 -53 -55 -81 -96 -115 -168 -62 -128 -69 -146 -69 -180 0 -16
-4 -31 -9 -34 -10 -6 -16 -42 -31 -181 -7 -57 -9 -824 -8 -2155 3 -1736 5
-2071 17 -2100 18 -44 26 -66 41 -110 23 -64 92 -194 124 -233 75 -91 198
-196 258 -219 10 -4 18 -12 18 -17 0 -5 11 -12 25 -15 13 -3 41 -17 61 -31 20
-14 42 -25 48 -25 6 0 17 -9 24 -20 7 -11 19 -20 28 -20 8 0 30 -11 48 -25 18
-14 38 -25 43 -25 6 0 16 -7 23 -15 7 -9 32 -25 54 -36 48 -23 68 -35 116 -69
19 -13 48 -32 65 -40 61 -33 110 -62 126 -76 8 -8 18 -14 22 -14 3 0 25 -12
49 -27 74 -48 82 -53 104 -62 12 -5 24 -17 27 -25 4 -9 13 -16 22 -16 9 0 41
-17 72 -37 62 -42 63 -42 113 -68 64 -34 75 -40 93 -54 18 -15 25 -19 107 -64
28 -15 99 -59 158 -97 58 -39 111 -70 118 -70 6 0 17 -7 24 -15 7 -9 29 -24
49 -33 32 -15 170 -102 243 -153 15 -11 30 -19 33 -19 4 0 30 -16 59 -35 29
-19 58 -35 63 -35 5 0 17 -8 26 -18 8 -9 41 -30 71 -46 31 -16 56 -33 56 -38
0 -4 7 -8 15 -8 8 0 20 -9 27 -20 7 -11 20 -20 28 -20 8 0 35 -14 59 -30 24
-17 50 -30 56 -30 7 0 15 -9 18 -19 3 -12 13 -19 23 -19 11 1 45 -15 76 -35
31 -20 61 -37 66 -37 5 0 16 -7 23 -16 7 -9 22 -20 34 -25 22 -10 46 -24 90
-55 17 -11 57 -36 90 -54 51 -29 105 -62 240 -148 11 -6 30 -16 41 -21 12 -5
24 -17 27 -25 4 -9 16 -16 27 -16 12 0 58 -24 103 -54 45 -29 98 -62 117 -72
19 -11 51 -31 70 -45 19 -15 54 -37 77 -50 22 -13 78 -46 123 -74 45 -27 98
-60 118 -72 57 -33 213 -49 319 -33 46 7 88 19 94 27 6 7 18 13 26 13 8 0 34
13 58 30 24 16 50 30 58 30 8 0 17 7 21 15 3 8 12 15 19 15 8 0 22 9 32 20 10
11 22 20 28 20 5 0 48 26 95 57 48 32 103 66 122 76 19 10 53 29 75 43 22 13
49 28 60 33 12 5 27 16 34 25 7 9 18 16 23 16 5 0 46 24 91 53 97 62 115 73
144 86 11 5 24 15 28 20 3 6 30 22 58 36 29 14 65 36 81 50 17 13 33 22 37 19
5 -2 13 5 19 16 6 11 17 20 25 20 8 0 34 14 58 30 25 17 48 30 51 30 3 0 28
15 54 32 69 47 85 57 107 67 11 5 31 18 44 30 13 12 33 21 43 21 10 0 21 7 25
16 3 8 15 20 27 25 11 5 53 30 91 54 39 25 82 50 98 56 15 6 27 15 27 20 0 5
10 14 23 20 12 5 31 15 42 22 11 7 38 23 60 35 22 12 54 31 70 42 35 23 83 51
145 86 24 13 54 33 65 43 11 10 27 21 35 25 8 3 33 18 55 31 22 14 48 28 58
32 9 3 17 9 17 14 0 5 7 9 16 9 8 0 31 12 49 26 19 14 40 27 47 28 8 1 23 10
35 21 40 37 52 45 66 45 8 0 21 7 28 16 7 9 22 20 34 25 11 5 34 18 50 28 17
11 37 20 45 20 8 1 21 10 28 21 7 11 17 20 22 20 6 0 28 11 50 25 22 14 47 25
56 25 9 0 18 9 21 19 3 11 12 22 21 25 10 3 31 14 47 25 17 11 37 20 46 20 9
1 24 10 34 21 10 11 22 20 26 20 4 0 36 19 71 42 35 24 79 52 98 62 19 10 44
27 55 36 11 9 27 20 35 24 8 3 29 15 45 25 17 11 37 20 46 20 9 1 19 8 22 16
4 8 21 21 39 30 30 14 86 50 115 75 7 5 16 10 21 10 5 0 15 7 22 15 7 8 20 15
30 15 10 0 23 6 29 14 11 13 40 30 123 73 14 7 29 20 32 28 3 8 11 15 18 15
17 0 147 134 186 191 71 106 127 265 142 401 11 108 12 3547 1 3983 -4 154 -4
285 1 291 5 7 2 17 -7 24 -9 8 -15 29 -15 56 0 25 -4 52 -9 62 -5 9 -15 36
-22 60 -7 23 -16 42 -21 42 -4 0 -8 7 -8 15 0 33 -49 104 -129 187 -47 48 -89
88 -94 88 -4 0 -23 11 -41 25 -18 14 -38 25 -44 25 -7 0 -12 4 -12 8 0 5 -12
15 -27 23 -16 7 -48 27 -73 44 -25 17 -58 37 -75 45 -16 8 -43 25 -58 37 -16
13 -34 23 -42 23 -7 0 -18 7 -25 16 -8 8 -27 22 -44 30 -37 18 -56 29 -204
117 -63 37 -118 67 -123 67 -5 0 -9 4 -9 9 0 5 -25 21 -56 36 -30 15 -58 33
-61 41 -3 8 -10 14 -15 14 -6 0 -52 26 -101 58 -50 31 -98 60 -106 65 -9 4
-34 18 -56 32 -22 14 -59 34 -82 45 -24 11 -43 24 -43 29 0 5 -30 25 -67 44
-38 20 -104 59 -148 86 -44 28 -95 58 -112 67 -18 9 -33 20 -33 25 0 5 -8 9
-19 9 -10 0 -24 7 -31 15 -7 8 -19 15 -26 15 -8 0 -14 4 -14 9 0 5 -21 20 -47
32 -27 13 -69 38 -94 56 -26 18 -50 33 -54 33 -5 0 -22 10 -39 23 -17 12 -43
29 -58 36 -16 8 -28 18 -28 23 0 4 -7 8 -15 8 -17 0 -39 12 -105 55 -25 17
-62 39 -83 49 -22 10 -48 25 -58 34 -24 21 -105 69 -141 85 -16 6 -28 15 -28
19 0 4 -7 8 -15 8 -8 0 -35 16 -61 35 -25 19 -51 35 -58 35 -7 0 -21 9 -31 20
-10 11 -24 20 -32 20 -7 0 -34 15 -60 33 -27 18 -61 39 -78 47 -16 8 -44 25
-61 37 -17 13 -36 23 -42 23 -7 0 -12 5 -12 10 0 6 -7 10 -16 10 -8 0 -36 16
-60 35 -25 19 -59 40 -75 47 -16 7 -29 16 -29 20 0 4 -15 14 -32 23 -18 8 -42
20 -53 27 -11 7 -51 33 -90 57 -38 25 -71 48 -73 53 -2 4 -10 8 -18 8 -8 0
-35 15 -61 33 -27 19 -55 37 -63 41 -32 15 -62 34 -90 60 -16 14 -36 26 -43
26 -7 0 -17 4 -23 9 -18 16 -105 61 -119 61 -8 0 -15 5 -15 10 0 6 -17 10 -39
10 -22 0 -44 6 -51 15 -10 12 -37 15 -134 14 -66 -1 -138 -5 -159 -9z m168
-295 c61 -10 119 -35 187 -82 26 -18 52 -33 57 -33 5 0 14 -7 21 -15 7 -8 21
-15 30 -15 10 0 20 -3 22 -8 5 -12 99 -76 139 -95 20 -9 42 -23 49 -32 7 -8
19 -15 26 -15 8 0 35 -15 61 -33 27 -18 62 -39 78 -47 17 -8 44 -25 61 -37 17
-13 34 -23 39 -23 4 0 28 -15 54 -33 25 -17 58 -38 74 -46 15 -8 27 -18 27
-23 0 -4 9 -8 19 -8 11 0 23 -5 26 -10 4 -6 27 -22 53 -35 26 -14 61 -34 77
-45 17 -11 39 -24 50 -29 11 -5 45 -27 75 -48 30 -21 71 -46 91 -56 20 -9 42
-23 49 -32 7 -8 19 -15 26 -15 8 0 35 -15 61 -32 60 -41 80 -53 121 -74 17 -9
32 -20 32 -25 0 -5 5 -9 12 -9 6 0 25 -10 42 -23 17 -13 47 -31 67 -40 20 -9
42 -23 49 -32 7 -8 21 -15 31 -15 10 0 22 -6 26 -12 9 -14 32 -28 102 -64 24
-12 54 -32 67 -43 13 -12 31 -21 39 -21 8 0 15 -4 15 -8 0 -5 12 -15 28 -23
15 -7 48 -28 74 -46 26 -18 54 -33 62 -33 8 0 19 -6 23 -12 4 -7 24 -21 43
-30 19 -10 53 -29 75 -42 22 -14 55 -33 73 -42 17 -9 32 -20 32 -25 0 -5 7 -9
16 -9 8 0 46 -20 84 -45 38 -25 71 -45 74 -45 3 0 33 -19 68 -42 77 -52 94
-63 136 -84 17 -9 32 -20 32 -25 0 -5 6 -9 14 -9 16 0 44 -15 106 -55 25 -16
53 -34 62 -40 9 -5 43 -26 75 -45 31 -19 73 -45 93 -57 19 -12 50 -30 68 -39
17 -9 32 -20 32 -25 0 -5 7 -9 15 -9 8 0 36 -15 62 -33 27 -19 64 -41 83 -51
19 -9 53 -28 75 -41 22 -14 58 -34 80 -45 22 -11 60 -36 85 -55 25 -19 54 -39
65 -44 29 -13 145 -129 145 -145 0 -7 11 -23 25 -36 14 -13 25 -33 25 -45 0
-11 4 -25 9 -31 5 -5 13 -54 16 -109 4 -55 9 -1029 11 -2165 4 -1581 2 -2078
-7 -2120 -18 -81 -74 -189 -121 -233 -22 -20 -46 -37 -53 -37 -6 0 -22 -11
-35 -25 -13 -14 -28 -25 -33 -25 -6 0 -25 -11 -43 -25 -18 -14 -39 -25 -48
-25 -8 0 -19 -6 -23 -14 -4 -7 -24 -21 -43 -31 -18 -10 -40 -24 -48 -31 -7 -8
-24 -14 -38 -14 -14 0 -24 -6 -24 -15 0 -8 -19 -24 -42 -36 -94 -45 -118 -59
-118 -67 0 -4 -15 -13 -32 -20 -38 -15 -35 -13 -119 -69 -35 -24 -72 -43 -81
-43 -10 0 -18 -4 -18 -9 0 -5 -31 -28 -69 -51 -39 -23 -75 -48 -82 -56 -6 -8
-20 -14 -30 -14 -11 0 -19 -3 -19 -7 0 -9 -57 -43 -70 -43 -5 0 -24 -13 -42
-30 -18 -16 -40 -30 -49 -30 -9 0 -22 -6 -28 -14 -15 -18 -126 -86 -140 -86
-6 0 -11 -4 -11 -9 0 -9 -118 -84 -201 -127 -22 -12 -50 -31 -63 -43 -12 -11
-26 -21 -32 -22 -5 0 -34 -18 -64 -39 -30 -21 -73 -48 -95 -60 -22 -11 -53
-30 -70 -40 -16 -11 -50 -30 -75 -43 -25 -12 -72 -40 -105 -62 -33 -22 -69
-45 -80 -52 -11 -7 -51 -31 -90 -54 -38 -23 -82 -52 -97 -65 -16 -12 -37 -26
-49 -29 -11 -4 -48 -25 -82 -48 -82 -55 -95 -63 -143 -87 -23 -11 -47 -27 -54
-35 -7 -8 -19 -15 -26 -15 -8 0 -31 -16 -53 -35 -21 -19 -46 -35 -55 -35 -9 0
-16 -4 -16 -10 0 -5 -5 -10 -12 -10 -6 0 -25 -10 -42 -23 -17 -13 -47 -31 -66
-41 -19 -9 -50 -28 -69 -41 -18 -14 -38 -22 -43 -19 -5 3 -12 -3 -15 -15 -3
-12 -12 -21 -19 -21 -8 0 -37 -16 -64 -35 -27 -19 -53 -35 -56 -35 -4 0 -22
-11 -40 -25 -18 -14 -40 -25 -49 -25 -8 0 -18 -7 -21 -15 -4 -8 -23 -23 -43
-32 -20 -9 -56 -31 -81 -48 -66 -43 -88 -55 -105 -55 -8 0 -19 -8 -24 -17 -5
-10 -40 -34 -78 -53 -37 -19 -72 -41 -78 -47 -25 -32 -209 -113 -255 -113 -35
0 -108 27 -138 50 -14 11 -33 20 -43 20 -11 0 -19 4 -19 8 0 5 -17 18 -39 30
-21 12 -44 29 -51 37 -7 8 -21 15 -31 15 -10 0 -22 6 -26 13 -4 8 -21 20 -38
29 -89 44 -115 61 -115 74 0 8 -9 14 -21 14 -11 0 -35 11 -53 25 -18 14 -36
25 -40 25 -3 0 -28 15 -54 33 -26 18 -55 36 -64 40 -10 3 -18 13 -18 22 0 9
-9 15 -24 15 -14 0 -37 10 -53 23 -15 12 -41 29 -58 37 -16 8 -51 29 -77 47
-26 18 -53 33 -59 33 -6 0 -32 15 -58 33 -25 18 -54 36 -63 40 -10 3 -18 11
-18 17 0 6 -5 8 -10 5 -6 -4 -30 8 -53 27 -23 18 -55 40 -72 48 -16 8 -50 28
-75 45 -26 16 -55 35 -65 42 -11 6 -45 27 -75 46 -120 74 -302 183 -325 195
-14 7 -25 19 -25 27 0 8 -6 12 -14 9 -8 -3 -37 9 -64 28 -27 18 -73 47 -102
63 -29 17 -69 39 -88 50 -20 11 -37 26 -40 33 -2 7 -10 12 -17 12 -19 0 -85
40 -85 52 0 5 -5 6 -10 3 -6 -4 -30 9 -53 27 -23 19 -59 42 -79 51 -20 10 -40
22 -44 28 -3 6 -16 14 -27 20 -28 12 -53 27 -98 61 -20 16 -40 28 -45 28 -4 0
-18 10 -31 22 -13 12 -33 23 -45 25 -13 2 -34 15 -48 28 -14 14 -34 25 -43 25
-10 0 -17 8 -17 18 0 14 -8 19 -29 19 -17 0 -45 11 -63 25 -18 13 -41 27 -50
31 -10 3 -18 14 -18 22 0 11 -6 15 -18 11 -12 -4 -34 5 -60 24 -23 16 -48 30
-56 30 -7 0 -16 9 -19 20 -3 12 -14 20 -25 20 -11 0 -34 11 -50 25 -17 14 -35
25 -41 25 -12 0 -61 29 -71 41 -3 3 -16 12 -30 19 -14 7 -52 31 -84 52 -33 22
-84 53 -115 70 -31 17 -64 38 -74 47 -10 8 -33 22 -50 31 -27 13 -75 42 -168
104 -63 42 -128 99 -151 132 -45 66 -75 176 -82 299 -3 61 -7 1030 -8 2155 -2
1609 1 2055 10 2090 13 44 19 61 51 130 21 46 122 147 155 156 14 3 26 12 26
19 0 14 53 45 75 45 7 0 15 7 18 15 4 8 30 26 59 41 29 15 64 35 77 45 13 11
31 19 41 19 9 0 25 9 35 20 10 11 23 20 28 20 6 0 25 11 43 25 18 14 42 25 54
25 13 0 24 8 27 20 3 11 12 20 19 20 8 0 37 16 64 35 28 20 55 33 60 30 6 -4
10 -2 10 3 0 5 25 25 56 43 31 19 90 56 132 84 43 27 93 58 112 68 19 11 42
25 51 33 8 8 20 14 25 14 5 0 27 12 48 26 21 15 71 45 110 67 39 22 88 53 108
69 21 16 42 27 48 23 6 -3 13 1 16 9 3 9 11 16 17 16 5 0 24 10 41 23 17 12
45 29 61 37 17 8 50 28 75 45 62 40 88 55 99 55 6 0 21 10 34 23 14 12 51 35
83 51 33 16 61 32 64 35 8 10 62 45 95 61 17 8 50 28 75 45 60 39 90 55 105
55 6 0 20 9 30 20 10 11 30 26 44 34 14 8 43 23 64 34 21 11 53 32 72 46 18
14 36 26 39 26 4 0 28 15 54 33 26 18 64 41 84 50 20 10 40 22 43 27 6 9 37
28 117 71 16 8 33 19 36 25 4 5 25 18 47 29 22 10 69 37 105 60 36 22 74 45
85 52 11 6 57 34 102 62 45 28 86 51 91 51 5 0 17 9 27 20 10 11 25 20 34 20
9 0 33 14 54 30 22 16 45 26 53 23 8 -3 14 1 14 10 0 8 21 26 48 40 62 32 101
54 132 75 14 9 41 26 59 37 18 11 60 37 92 58 33 20 65 37 72 37 7 0 21 7 31
15 11 8 34 15 50 15 17 0 38 5 46 10 8 6 24 8 35 6 11 -3 38 -8 60 -11z"/>
<path d="M4691 9830 c-18 -4 -44 -13 -57 -19 -13 -6 -34 -15 -46 -20 -65 -26
-96 -42 -108 -56 -7 -8 -18 -15 -25 -15 -15 0 -175 -91 -220 -125 -17 -14 -35
-25 -39 -25 -3 0 -25 -12 -49 -27 -23 -15 -58 -37 -78 -48 -53 -30 -94 -56
-162 -101 -34 -22 -66 -42 -72 -44 -9 -3 -40 -22 -155 -96 -25 -15 -63 -38
-85 -49 -22 -12 -52 -29 -67 -39 -15 -10 -32 -15 -38 -11 -5 3 -10 -1 -10 -10
0 -8 -8 -19 -17 -22 -10 -4 -34 -18 -53 -31 -19 -13 -51 -31 -70 -40 -19 -9
-57 -31 -85 -50 -27 -18 -60 -35 -72 -38 -13 -4 -23 -10 -23 -15 0 -5 -10 -13
-23 -18 -12 -5 -53 -30 -90 -55 -37 -25 -74 -46 -82 -46 -8 0 -15 -4 -15 -10
0 -5 -6 -10 -14 -10 -7 0 -19 -7 -26 -15 -7 -9 -29 -23 -49 -32 -20 -10 -55
-30 -77 -45 -23 -15 -45 -28 -50 -28 -4 0 -17 -9 -28 -19 -12 -11 -46 -32 -76
-48 -30 -15 -71 -40 -91 -56 -20 -15 -40 -27 -45 -27 -5 0 -25 -13 -44 -28
-19 -16 -51 -36 -70 -46 -19 -9 -48 -25 -65 -36 -16 -10 -46 -27 -65 -38 -102
-56 -232 -135 -287 -173 -23 -16 -46 -29 -52 -29 -6 0 -11 -4 -11 -10 0 -5 -5
-10 -11 -10 -6 0 -30 -13 -54 -30 -24 -16 -47 -30 -50 -30 -4 0 -26 -13 -49
-28 -22 -15 -57 -35 -77 -45 -20 -9 -42 -23 -49 -32 -7 -8 -21 -15 -32 -15
-10 0 -21 -7 -24 -15 -4 -8 -12 -15 -18 -15 -7 0 -28 -12 -47 -26 -19 -14 -54
-34 -77 -45 -88 -41 -252 -181 -252 -216 0 -6 -4 -13 -8 -15 -18 -7 -67 -128
-92 -228 -6 -25 -16 -59 -21 -76 -12 -39 -12 -3698 0 -3722 5 -9 16 -42 26
-72 22 -71 80 -186 114 -227 14 -17 34 -43 43 -56 19 -27 73 -68 150 -114 27
-15 48 -34 48 -40 0 -7 8 -13 19 -13 10 0 29 -8 42 -19 13 -10 34 -21 46 -25
11 -4 24 -13 27 -21 3 -8 13 -15 23 -15 10 0 29 -9 43 -20 14 -11 31 -20 37
-20 7 0 18 -9 25 -20 7 -11 19 -20 26 -20 8 0 26 -8 40 -17 38 -25 179 -112
240 -148 9 -6 36 -23 59 -38 24 -15 46 -27 51 -27 4 0 23 -13 42 -28 19 -16
52 -36 72 -45 20 -10 50 -28 65 -40 15 -13 53 -36 83 -51 30 -15 75 -40 100
-56 25 -16 54 -34 65 -40 22 -11 26 -14 131 -83 40 -26 77 -47 82 -47 5 0 15
-7 22 -15 7 -9 29 -23 49 -32 20 -9 68 -38 106 -64 39 -25 97 -61 130 -79 33
-18 64 -39 68 -46 4 -8 17 -14 27 -14 11 0 20 -4 20 -8 0 -5 12 -15 28 -23 15
-7 46 -26 69 -41 23 -15 46 -28 52 -28 6 0 11 -7 11 -15 0 -8 7 -15 15 -15 8
0 31 -11 51 -25 20 -14 43 -25 50 -25 8 0 14 -4 14 -10 0 -5 15 -17 33 -25 17
-8 57 -31 87 -50 30 -19 64 -38 75 -44 11 -5 43 -24 70 -42 82 -55 88 -59 122
-74 17 -8 35 -20 38 -25 4 -6 17 -16 28 -21 12 -5 36 -18 52 -29 17 -11 38
-23 48 -26 9 -4 17 -10 17 -15 0 -5 7 -9 15 -9 9 0 18 -7 21 -15 4 -8 13 -15
21 -15 8 0 57 -27 110 -60 52 -33 97 -60 100 -60 3 0 22 -14 43 -30 21 -17 41
-30 44 -30 4 0 34 -18 67 -40 33 -22 62 -40 65 -40 2 0 34 -19 71 -42 l68 -42
140 -1 c135 0 142 1 198 29 31 16 62 35 68 43 7 7 20 13 30 13 11 0 19 5 19
10 0 6 6 10 14 10 7 0 19 7 26 15 7 9 29 23 49 32 20 10 58 33 85 52 53 38 92
62 141 87 17 8 42 22 57 32 69 45 185 116 205 126 13 6 23 14 23 19 0 4 6 7
13 7 7 0 22 8 33 18 10 9 33 24 49 32 17 8 43 25 58 37 16 13 35 23 42 23 8 0
18 6 22 13 4 6 24 21 43 31 57 31 83 46 112 64 14 9 51 31 81 49 31 18 58 37
62 43 3 5 15 10 26 10 10 0 19 5 19 10 0 6 8 13 18 17 9 3 24 12 33 20 22 19
130 83 139 83 4 0 14 7 21 16 7 9 22 20 34 25 11 5 38 20 60 34 22 14 49 29
60 35 11 6 40 24 65 40 25 16 55 34 67 39 12 6 44 26 71 45 27 20 53 36 56 36
4 0 27 14 51 30 24 17 47 30 52 30 4 0 19 9 33 20 14 11 33 20 43 20 9 0 17 7
17 15 0 8 6 15 14 15 7 0 19 7 26 15 7 8 16 13 20 10 4 -2 15 4 25 15 10 11
23 20 29 20 6 0 22 9 36 20 14 11 32 20 40 20 8 0 21 9 28 20 7 11 18 20 25
20 6 0 23 9 37 20 14 11 33 20 42 20 10 0 22 9 28 20 6 11 17 20 25 20 8 0 15
4 15 8 0 5 16 14 35 22 20 8 43 22 52 32 9 10 20 18 24 18 9 0 168 94 189 112
8 7 40 27 71 43 31 17 90 52 130 80 41 27 90 59 110 70 110 61 144 82 160 97
11 10 22 18 27 18 13 1 128 124 158 170 56 86 87 160 109 268 13 64 15 301 15
1912 0 1175 -4 1841 -10 1845 -6 3 -10 26 -10 50 0 24 -4 47 -10 50 -5 3 -10
15 -10 25 0 38 -72 162 -132 225 -47 51 -195 165 -213 165 -2 0 -31 18 -64 40
-33 22 -62 40 -65 40 -9 0 -101 64 -104 72 -2 4 -10 8 -19 8 -8 0 -27 8 -41
19 -15 10 -31 20 -37 22 -5 2 -59 33 -118 69 -59 36 -125 74 -146 85 -21 11
-46 28 -55 38 -10 9 -21 17 -26 17 -5 0 -43 23 -84 50 -42 28 -80 50 -86 50
-5 0 -10 5 -10 10 0 6 -5 10 -11 10 -6 0 -29 12 -52 28 -65 42 -78 50 -137 82
-30 16 -98 57 -150 90 -52 32 -114 68 -137 80 -23 11 -43 23 -45 27 -1 5 -21
17 -43 27 -22 11 -49 28 -60 37 -11 9 -36 25 -55 36 -19 10 -53 30 -75 44 -22
14 -55 32 -72 40 -18 8 -33 17 -33 20 0 4 -13 12 -30 19 -16 7 -30 15 -30 19
0 3 -14 12 -31 20 -25 11 -125 70 -239 141 -8 6 -35 21 -60 35 -45 25 -51 29
-125 75 -22 14 -53 32 -70 40 -16 8 -39 22 -50 31 -11 9 -35 22 -52 30 -18 8
-33 17 -33 21 0 5 -4 8 -9 8 -9 0 -99 57 -111 69 -3 4 -21 15 -40 25 -19 10
-54 32 -78 48 -24 15 -47 28 -51 28 -4 0 -16 9 -26 20 -10 11 -22 20 -26 20
-11 0 -171 99 -195 121 -11 10 -28 19 -37 19 -9 0 -19 4 -22 10 -10 15 -128
70 -152 70 -12 0 -25 5 -28 10 -7 12 -204 12 -254 0z m144 -250 c3 -5 16 -10
28 -10 22 0 127 -49 157 -74 8 -6 29 -18 45 -26 17 -8 50 -30 75 -49 25 -19
64 -42 86 -52 23 -11 47 -26 54 -34 7 -8 16 -15 20 -15 12 0 325 -192 328
-201 2 -5 12 -9 23 -9 10 0 19 -4 19 -10 0 -5 5 -10 11 -10 6 0 31 -13 56 -30
24 -16 46 -30 49 -30 3 0 37 -21 77 -47 40 -26 88 -56 107 -66 37 -19 50 -26
117 -70 24 -15 47 -27 53 -27 5 0 10 -4 10 -10 0 -5 4 -10 10 -10 10 0 148
-86 192 -120 14 -11 33 -20 42 -20 9 0 16 -4 16 -10 0 -5 4 -10 9 -10 6 0 29
-12 53 -27 73 -47 82 -53 103 -62 12 -5 27 -16 34 -25 7 -9 17 -16 22 -16 5 0
28 -12 52 -27 23 -15 67 -40 97 -56 30 -16 62 -35 71 -43 8 -8 19 -14 23 -14
5 0 28 -13 53 -30 24 -16 47 -30 50 -30 3 0 20 -10 37 -23 17 -13 40 -27 50
-31 11 -3 49 -27 86 -51 37 -25 72 -45 78 -45 6 0 12 -3 14 -7 4 -10 57 -42
81 -50 9 -3 17 -9 17 -14 0 -5 5 -9 11 -9 6 0 31 -13 56 -30 24 -16 48 -30 52
-30 4 0 16 -9 26 -20 10 -11 22 -20 26 -20 5 0 37 -17 71 -38 35 -21 70 -42
78 -46 17 -8 39 -21 97 -59 24 -15 47 -27 53 -27 5 0 10 -4 10 -10 0 -5 9 -10
20 -10 11 0 20 -4 20 -10 0 -5 4 -10 9 -10 6 0 30 -13 54 -30 25 -16 49 -30
53 -31 5 0 29 -16 54 -35 25 -18 54 -38 65 -43 40 -17 155 -158 155 -189 0
-12 5 -24 10 -27 6 -3 10 -42 10 -85 0 -43 5 -82 10 -85 7 -4 10 -557 10
-1626 l0 -1619 -75 0 -75 0 0 1035 0 1035 32 0 c19 0 41 9 55 22 21 20 23 30
23 124 0 119 -8 134 -71 134 l-39 0 0 188 c0 262 -26 354 -132 460 -62 63
-115 96 -204 129 -61 22 -75 23 -313 20 l-249 -2 -4 270 c-4 250 -5 274 -26
326 -32 79 -81 132 -160 171 l-67 33 -930 3 c-702 2 -941 0 -974 -9 -61 -17
-145 -100 -161 -160 -8 -30 -10 -107 -6 -259 3 -118 3 -251 -1 -295 -8 -77 -9
-80 -33 -80 l-25 0 0 280 c0 296 -4 331 -48 396 -33 49 -99 95 -161 113 -49
15 -161 16 -1008 14 l-953 -3 -56 -26 c-76 -36 -129 -86 -165 -156 l-29 -58
-5 -280 -5 -280 -270 -1 c-250 0 -274 -2 -322 -21 -122 -49 -237 -160 -285
-275 -20 -48 -23 -74 -26 -270 l-4 -218 -38 0 c-62 0 -70 -15 -70 -141 0 -126
12 -149 75 -149 l35 0 0 -1035 0 -1036 -112 3 -113 3 -2 1660 c-2 1647 0 1741
30 1771 4 4 7 14 7 21 0 16 54 97 86 129 11 12 35 29 53 38 17 9 31 21 31 26
0 5 17 17 38 27 20 9 55 30 76 45 21 15 44 28 51 28 7 0 20 9 30 20 10 11 26
20 37 20 10 0 26 7 36 16 30 27 92 64 107 64 8 0 15 4 15 10 0 5 15 16 34 25
18 9 43 25 54 35 12 11 27 20 34 20 8 0 29 12 48 28 19 15 48 34 65 42 16 8
61 36 100 61 38 25 77 48 85 52 8 4 24 13 35 19 23 15 94 59 183 114 35 21 81
49 103 60 22 12 47 28 57 36 9 8 33 22 52 31 19 10 67 37 105 62 39 25 96 59
128 75 32 17 80 46 106 65 27 19 53 35 58 35 5 0 25 12 44 26 19 14 52 34 75
44 22 11 47 26 54 35 7 8 18 15 24 15 6 0 22 9 36 20 14 11 30 20 37 20 7 0
24 11 39 25 15 14 30 25 35 25 4 0 34 17 66 38 32 20 67 42 78 49 11 7 51 31
88 55 108 68 141 88 162 98 11 6 27 14 35 20 90 57 219 134 237 141 13 5 23
13 23 19 0 5 7 10 16 10 8 0 32 11 52 25 20 14 42 25 49 25 7 0 13 4 13 9 0 5
19 19 43 32 70 37 80 43 137 80 53 34 130 81 177 107 13 6 33 12 45 12 13 0
30 5 38 10 20 13 87 13 95 0z m-167 -1773 c79 -51 82 -68 82 -382 l0 -275
-268 0 c-290 0 -336 -6 -442 -57 -67 -32 -165 -129 -203 -200 -43 -81 -57
-166 -57 -360 l0 -173 -39 0 -40 0 -3 223 -3 222 -32 68 c-61 129 -197 238
-331 266 -33 7 -192 11 -427 11 l-375 0 0 248 c0 137 5 263 10 284 14 50 86
126 135 143 34 12 194 14 996 12 l955 -2 42 -28z m2315 22 c49 -13 105 -63
128 -114 16 -35 19 -70 19 -302 l0 -263 -359 0 c-199 0 -382 -4 -411 -10 -153
-29 -309 -154 -353 -282 -7 -18 -16 -35 -21 -36 -5 -2 -19 21 -31 51 -45 113
-101 175 -202 225 -92 47 -140 52 -448 52 l-285 0 0 298 c0 272 2 300 19 328
41 67 -11 64 996 64 605 0 923 -4 948 -11z m-3602 -817 c79 -38 149 -109 187
-190 26 -56 27 -61 27 -257 l0 -200 -820 0 -820 0 -3 169 c-1 106 1 173 8 180
17 17 11 65 -10 86 -25 25 -41 25 -71 1 -22 -18 -23 -22 -23 -227 l-1 -209
-118 -3 -119 -3 4 203 c5 240 13 270 93 357 63 67 137 108 220 120 33 5 357 8
720 7 l660 -2 66 -32z m2271 18 c56 -16 128 -69 170 -125 64 -85 71 -115 76
-342 l4 -203 -831 0 c-456 0 -832 3 -835 8 -7 11 -7 332 0 374 5 29 2 40 -15
57 -25 25 -40 26 -67 7 -17 -13 -19 -31 -24 -228 l-5 -213 -118 -3 -118 -3 3
203 c3 196 4 205 30 260 51 109 150 188 268 215 72 16 1405 10 1462 -7z m2072
9 c152 -21 271 -137 305 -297 6 -29 11 -127 11 -217 l0 -165 -815 0 -815 0 0
169 c0 94 5 182 11 199 19 54 -24 102 -72 79 -25 -13 -27 -35 -38 -405 l-1
-43 -117 3 -118 3 -3 129 c-6 226 22 345 103 435 46 51 147 101 222 111 80 10
1254 10 1327 -1z m-4018 -814 c15 -59 94 -55 -1101 -55 l-1095 0 0 40 0 40
1095 0 1095 0 6 -25z m2202 -7 c5 -18 7 -36 5 -40 -5 -10 -1966 -11 -2040 -2
-52 7 -53 7 -53 40 l0 34 1040 0 1039 0 9 -32z m2232 -2 c0 -34 -1 -35 -52
-41 -29 -3 -501 -5 -1048 -3 l-995 3 -3 23 c-8 55 -78 52 1053 52 l1045 0 0
-34z m-4362 -648 l2 -508 -34 0 c-31 0 -34 3 -40 38 -8 49 -8 946 0 967 5 11
16 15 38 13 l31 -3 3 -507z m-1920 -535 l-3 -1028 -115 0 -115 0 -3 1028 -2
1027 120 0 120 0 -2 -1027z m1735 905 c9 -163 7 -1831 -1 -1886 l-7 -43 -810
-2 -810 -2 -2 1019 c-2 560 0 1022 3 1027 3 5 358 9 813 9 l808 0 6 -122z
m537 -378 l0 -500 -120 0 -120 0 0 500 0 500 120 0 120 0 0 -500z m1760 0 l0
-500 -825 0 -825 0 0 500 0 500 825 0 825 0 0 -500z m428 -527 l-3 -1028 -120
0 -120 0 -3 1028 -2 1027 125 0 125 0 -2 -1027z m1717 925 c3 -57 5 -519 3
-1028 l-3 -925 -790 3 c-434 1 -798 2 -807 2 -17 0 -18 55 -18 1025 l0 1025
804 0 804 0 7 -102z m-3598 -1480 l6 -466 -54 -7 c-30 -4 -74 -5 -99 -3 l-45
3 -3 460 c-1 253 0 466 3 473 3 9 29 12 96 10 l91 -3 5 -467z m1133 -3 l0
-475 -515 0 -515 0 0 475 0 475 515 0 515 0 0 -475z m305 466 c7 0 10 -164 10
-466 l0 -465 -102 0 -103 0 0 468 0 467 93 -1 c50 -1 97 -2 102 -3z m-2095
-472 l0 -470 -37 3 -38 3 -2 468 -2 467 39 0 40 0 0 -471z m350 7 l0 -463
-112 -6 c-61 -3 -115 -4 -120 -1 -4 3 -8 214 -8 470 l0 464 120 0 120 0 0
-464z m4148 -586 c8 0 12 -21 12 -70 l0 -70 -3495 0 c-3321 0 -3495 1 -3496
18 -2 25 3 116 6 122 2 3 1568 4 3482 2 1913 -1 3484 -2 3491 -2z m-4 -267
c-17 -70 -97 -193 -125 -193 -5 0 -23 -13 -41 -29 -18 -15 -53 -39 -78 -52
-25 -13 -70 -41 -101 -62 -31 -20 -63 -37 -73 -37 -9 0 -16 -6 -16 -12 0 -7
-29 -26 -65 -43 -35 -16 -65 -33 -65 -37 0 -4 -17 -15 -37 -25 -21 -9 -62 -34
-92 -55 -30 -21 -58 -38 -63 -38 -5 0 -24 -11 -42 -25 -18 -14 -36 -25 -39
-25 -4 0 -44 -25 -91 -55 -46 -30 -88 -55 -93 -55 -4 0 -20 -11 -35 -25 -15
-14 -32 -25 -39 -25 -6 0 -28 -13 -48 -28 -20 -15 -49 -34 -66 -42 -16 -8 -40
-23 -53 -35 -24 -21 -92 -62 -152 -92 -19 -10 -57 -35 -85 -55 -27 -21 -55
-38 -61 -38 -6 0 -17 -7 -24 -15 -7 -9 -30 -24 -49 -33 -20 -9 -57 -30 -81
-45 -117 -74 -321 -197 -328 -197 -4 -1 -23 -14 -42 -30 -19 -17 -38 -30 -43
-30 -4 0 -34 -17 -65 -37 -77 -50 -93 -60 -122 -75 -14 -7 -53 -32 -87 -55
-34 -24 -64 -43 -67 -43 -2 0 -32 -18 -65 -40 -33 -22 -63 -40 -67 -40 -3 0
-19 -11 -36 -25 -16 -14 -38 -25 -49 -25 -10 0 -19 -6 -19 -13 0 -7 -16 -19
-35 -27 -20 -8 -43 -22 -52 -32 -9 -10 -21 -18 -27 -18 -6 0 -22 -9 -36 -20
-14 -11 -33 -20 -42 -20 -10 0 -18 -4 -18 -9 0 -11 -150 -104 -193 -120 -15
-6 -27 -14 -27 -19 0 -5 -29 -24 -65 -42 -36 -18 -65 -36 -65 -40 0 -10 -113
-68 -165 -85 -22 -7 -49 -12 -60 -11 -43 6 -103 27 -115 41 -7 8 -18 15 -26
15 -7 0 -34 15 -60 33 -75 52 -141 92 -201 121 -13 6 -23 17 -23 24 0 6 -9 12
-19 12 -11 0 -22 4 -25 8 -3 5 -41 30 -86 56 -44 25 -80 53 -80 61 0 9 -9 15
-24 15 -13 0 -35 9 -49 20 -14 11 -28 20 -32 20 -3 0 -32 17 -63 38 -31 21
-70 44 -87 52 -16 8 -49 27 -71 43 -23 15 -46 27 -51 27 -5 0 -20 11 -33 25
-13 14 -27 25 -32 25 -4 0 -37 18 -73 40 -36 22 -68 40 -71 40 -2 0 -28 17
-57 38 -29 20 -65 44 -82 52 -16 8 -38 20 -47 28 -9 8 -38 26 -65 41 -90 50
-113 66 -113 80 0 8 -6 11 -16 7 -9 -3 -33 6 -57 23 -36 24 -87 55 -158 97
-10 6 -27 17 -36 26 -10 8 -43 27 -74 42 -32 14 -63 33 -70 42 -7 9 -35 28
-62 42 -27 15 -60 33 -73 40 -13 7 -24 17 -24 23 0 5 -5 9 -12 9 -6 0 -26 11
-44 25 -18 14 -37 25 -42 25 -5 0 -17 9 -27 20 -10 11 -26 20 -37 20 -10 0
-27 9 -38 20 -11 11 -27 20 -35 20 -8 0 -15 9 -15 19 0 13 -5 18 -18 14 -10
-2 -33 6 -52 19 -19 13 -43 27 -52 31 -10 3 -18 13 -18 21 0 10 -6 13 -15 10
-9 -4 -33 5 -55 20 -22 14 -44 26 -50 26 -5 0 -10 7 -10 15 0 8 -8 15 -19 15
-10 0 -29 8 -42 18 -13 9 -40 26 -59 36 -19 11 -41 26 -48 33 -7 7 -19 13 -25
14 -7 0 -32 16 -57 34 -25 19 -68 46 -96 60 -28 14 -60 34 -70 43 -11 9 -32
24 -49 32 -94 48 -243 157 -271 200 -22 33 -64 133 -64 152 0 5 1568 8 3485 8
l3485 0 -6 -27z"/>
<path d="M2210 3442 c-164 -2 -176 -3 -192 -23 -23 -27 -22 -35 2 -59 19 -19
33 -20 215 -20 182 0 196 1 215 20 25 25 25 42 3 62 -25 22 -46 23 -243 20z"/>
<path d="M2645 3425 c-31 -31 -31 -39 1 -64 l27 -21 2509 2 c2471 3 2510 3
2524 22 18 26 18 28 -7 60 l-20 26 -2505 0 -2505 0 -24 -25z"/>
</g>
</svg>
