<?xml version="1.0" standalone="no"?>
<!DOCTYPE svg PUBLIC "-//W3C//DTD SVG 20010904//EN"
 "http://www.w3.org/TR/2001/REC-SVG-20010904/DTD/svg10.dtd">
<svg version="1.0" xmlns="http://www.w3.org/2000/svg"
 width="9663.000000pt" height="10541.000000pt" viewBox="0 0 9663.000000 10541.000000"
 preserveAspectRatio="xMidYMid meet">

<g transform="translate(0.000000,10541.000000) scale(0.100000,-0.100000)"
fill="#2E6187" stroke="none">
<path d="M47855 102859 c-44 -10 -213 -34 -375 -54 -753 -92 -1169 -166 -1795
-320 -490 -121 -769 -209 -1178 -371 -655 -261 -907 -382 -1452 -695 -110 -64
-276 -156 -370 -206 -93 -50 -244 -130 -334 -178 -192 -102 -375 -209 -821
-480 -477 -290 -1095 -648 -2105 -1220 -192 -109 -527 -303 -743 -432 -791
-470 -1374 -805 -1857 -1068 -375 -204 -482 -265 -1000 -575 -724 -433 -1189
-703 -1781 -1033 -192 -107 -548 -310 -790 -450 -241 -139 -630 -364 -864
-499 -515 -297 -1150 -667 -1635 -953 -198 -116 -538 -312 -755 -435 -471
-266 -770 -439 -1555 -900 -706 -415 -791 -464 -1140 -655 -559 -305 -1532
-863 -1813 -1038 -166 -104 -332 -200 -597 -345 -280 -153 -428 -241 -639
-380 -89 -59 -216 -136 -284 -172 -179 -95 -445 -246 -887 -505 -563 -329
-1021 -589 -1170 -663 -200 -100 -542 -299 -1241 -723 -654 -396 -1280 -758
-2219 -1284 -646 -362 -921 -518 -1255 -717 -331 -196 -879 -513 -1190 -688
-260 -147 -599 -345 -1070 -625 -146 -86 -429 -252 -630 -368 -201 -115 -570
-329 -820 -475 -250 -146 -617 -359 -815 -472 -198 -114 -565 -326 -815 -470
-499 -288 -1433 -822 -2049 -1170 -605 -342 -808 -463 -1136 -678 -990 -648
-1955 -1536 -2681 -2468 -555 -712 -984 -1446 -1364 -2334 -483 -1128 -724
-2197 -780 -3460 -55 -1242 -79 -8757 -61 -19235 22 -13527 45 -19453 81
-20945 25 -1057 57 -1417 156 -1800 197 -754 255 -962 354 -1260 250 -755 566
-1402 1088 -2230 593 -941 1148 -1577 2053 -2356 556 -478 994 -788 1619
-1144 321 -184 672 -389 885 -520 394 -242 1051 -621 1295 -748 183 -95 381
-209 490 -282 135 -90 338 -208 682 -396 432 -236 637 -353 998 -569 577 -345
1051 -621 1895 -1107 566 -326 1567 -908 1880 -1093 440 -260 715 -416 1023
-579 213 -113 421 -232 762 -436 224 -134 493 -288 758 -433 56 -31 171 -101
255 -155 194 -127 287 -180 582 -337 680 -363 1648 -915 1985 -1132 69 -44
233 -143 365 -218 436 -250 1411 -813 1975 -1140 305 -177 656 -379 780 -450
244 -138 580 -338 755 -449 217 -137 395 -241 715 -419 404 -224 974 -547
1310 -742 1007 -585 1710 -990 2170 -1253 664 -378 817 -467 950 -552 128 -82
256 -154 600 -340 311 -168 452 -250 575 -335 164 -113 500 -305 1110 -635
595 -322 850 -467 1160 -660 241 -150 385 -234 665 -390 241 -135 693 -397
1213 -703 229 -136 618 -362 865 -503 454 -261 554 -320 1132 -663 459 -273
823 -480 1269 -721 487 -262 710 -389 1246 -710 753 -450 1257 -743 1480 -860
66 -35 191 -105 277 -157 225 -135 633 -320 1207 -548 861 -341 1228 -452
1871 -564 1220 -213 2382 -243 3480 -90 1040 145 2032 455 3140 979 580 275
1295 673 1795 1002 240 157 460 284 1275 733 407 225 696 394 975 570 224 142
396 240 565 325 160 80 287 154 460 270 205 136 431 267 780 450 229 120 523
283 605 335 28 18 201 120 385 227 184 108 409 240 500 295 204 124 398 231
694 385 250 131 473 259 606 348 211 141 655 401 1795 1052 912 520 1448 829
1965 1131 515 301 606 354 935 539 299 169 431 245 930 540 127 75 381 221
566 326 378 214 629 362 737 434 106 71 424 252 799 454 497 267 805 445 2198
1264 849 500 1099 643 1409 807 157 84 255 142 471 280 278 178 1295 762 1893
1087 278 151 420 234 487 286 73 56 242 156 560 332 154 86 428 237 608 337
180 100 435 245 565 323 547 325 678 402 1126 658 259 147 791 450 1181 673
391 222 829 475 975 562 302 180 1534 900 1805 1055 99 57 335 194 525 305
565 332 1385 803 2345 1348 425 241 541 308 1015 588 107 64 285 164 395 224
461 249 1307 783 1662 1049 577 433 1664 1498 2158 2114 348 434 886 1366
1202 2082 533 1209 777 2170 843 3320 22 390 43 2297 81 7340 5 751 13 4002
16 7225 10 10399 -36 24512 -87 26405 -7 273 -15 386 -35 540 -110 834 -246
1407 -505 2135 -317 889 -640 1536 -1200 2400 -313 485 -544 775 -987 1240
-768 808 -1283 1229 -2213 1810 -331 207 -1301 785 -1585 945 -303 171 -408
232 -915 535 -442 263 -570 338 -785 455 -258 141 -623 350 -1240 710 -809
473 -1186 691 -1750 1012 -275 157 -763 438 -1085 623 -322 186 -747 430 -945
543 -198 112 -574 329 -835 482 -699 408 -1170 680 -1771 1022 -488 279 -776
448 -1179 693 -191 116 -571 334 -1125 645 -486 273 -997 569 -1300 752 -463
280 -2284 1319 -2901 1656 -241 132 -323 180 -829 484 -187 113 -637 379
-1000 590 -363 212 -766 448 -895 525 -309 183 -542 314 -720 403 -208 103
-369 195 -945 533 -1557 916 -2924 1708 -3860 2237 -527 298 -1154 661 -1392
806 -551 336 -1747 1021 -2022 1158 -62 32 -251 139 -420 240 -168 100 -414
245 -546 321 -384 221 -577 334 -955 560 -195 117 -533 314 -750 438 -449 255
-964 554 -1280 742 -981 584 -2117 1175 -2770 1440 -292 119 -1082 340 -1582
444 -590 122 -1383 215 -2123 251 -274 13 -343 11 -440 -11z m785 -2099 c1004
-57 1520 -140 2140 -342 363 -119 700 -260 1156 -483 493 -241 776 -396 1869
-1025 418 -241 1158 -666 1645 -945 1035 -594 1467 -842 2285 -1315 330 -190
836 -481 1125 -645 696 -396 797 -454 1050 -610 352 -216 1843 -1082 2325
-1350 324 -180 719 -407 1640 -945 957 -559 1370 -797 2530 -1460 484 -277
1004 -576 1155 -665 340 -200 549 -320 890 -510 146 -81 407 -233 580 -338
849 -512 1292 -767 2285 -1312 338 -186 597 -336 1030 -597 757 -457 2343
-1370 2930 -1688 105 -56 241 -134 303 -171 61 -38 163 -100 225 -138 121 -74
537 -313 1037 -596 412 -233 954 -548 1420 -825 206 -123 485 -288 620 -368
234 -139 1463 -842 2055 -1177 387 -219 1046 -600 1855 -1072 377 -220 924
-536 1215 -703 1878 -1073 2786 -1604 3025 -1768 436 -299 761 -572 1180 -991
364 -364 571 -601 849 -971 837 -1113 1328 -2256 1565 -3640 45 -263 53 -344
66 -690 27 -733 32 -2527 37 -14950 5 -12653 -7 -23381 -27 -25175 -10 -891
-10 -889 -70 -1248 -242 -1437 -891 -2829 -1859 -3987 -245 -292 -696 -754
-968 -993 -532 -465 -1072 -813 -2833 -1827 -634 -365 -1145 -663 -1365 -795
-121 -73 -312 -183 -425 -245 -666 -366 -699 -384 -1330 -759 -437 -260 -983
-573 -1450 -831 -779 -430 -978 -544 -1370 -785 -379 -233 -790 -469 -1480
-852 -329 -182 -578 -328 -815 -478 -214 -135 -501 -302 -928 -539 -459 -256
-833 -472 -1152 -668 -465 -284 -996 -589 -1625 -930 -237 -129 -634 -360
-930 -541 -315 -193 -577 -346 -920 -537 -151 -84 -419 -240 -595 -345 -339
-203 -716 -421 -1135 -655 -373 -209 -575 -325 -850 -490 -462 -277 -1904
-1106 -2975 -1710 -1134 -639 -2287 -1307 -2910 -1685 -466 -283 -595 -358
-995 -585 -953 -538 -1266 -720 -1763 -1021 -51 -31 -245 -138 -432 -239 -474
-255 -692 -378 -1135 -643 -359 -215 -1079 -630 -3325 -1914 -1233 -706 -1367
-784 -1707 -994 -969 -601 -2002 -1081 -2778 -1293 -665 -181 -1532 -296
-2228 -296 -738 0 -1542 98 -2299 280 -407 98 -883 288 -1543 616 -477 236
-744 384 -1493 822 -270 159 -620 362 -777 452 -376 215 -1072 618 -1546 895
-209 123 -529 308 -710 411 -666 378 -1101 629 -1342 771 -136 80 -465 272
-732 426 -631 363 -776 448 -885 517 -49 31 -182 108 -295 170 -508 279 -620
343 -860 485 -340 202 -648 382 -1160 677 -390 225 -542 310 -1095 616 -104
57 -226 128 -270 157 -98 64 -230 140 -715 415 -546 309 -1047 600 -2441 1418
-1468 860 -1462 856 -1969 1142 -568 320 -884 503 -1999 1158 -662 388 -897
522 -1371 782 -414 227 -887 497 -1240 707 -354 211 -716 423 -1145 670 -181
105 -483 281 -671 390 -187 110 -491 286 -675 391 -184 104 -827 471 -1429
815 -602 343 -1189 677 -1305 742 -115 65 -383 219 -595 343 -782 457 -1119
653 -1705 990 -825 474 -1298 750 -1570 915 -126 77 -291 177 -365 222 -197
119 -451 264 -799 455 -350 191 -761 426 -1061 605 -614 367 -1619 951 -1950
1135 -1072 595 -1884 1284 -2665 2265 -783 982 -1250 1927 -1555 3145 -67 266
-98 408 -175 805 l-66 340 4 19525 c4 19340 7 20642 37 21410 12 307 20 389
61 635 201 1209 688 2406 1369 3365 378 532 882 1075 1550 1670 209 186 477
386 870 649 428 287 682 442 1285 781 874 492 1321 749 2425 1395 669 391 875
510 1435 827 132 75 346 200 475 279 502 303 640 384 785 459 291 151 917 511
2245 1295 341 201 996 577 1350 775 657 367 994 561 1285 740 105 64 260 154
345 200 250 134 410 224 670 380 135 81 316 186 403 234 86 47 228 125 315
173 86 47 216 123 287 168 72 45 209 132 305 192 198 125 490 294 714 415 411
221 960 533 1711 973 242 142 562 327 710 413 149 85 495 287 770 447 448 261
711 413 1450 833 121 69 301 173 400 232 169 100 382 222 795 455 222 125 623
359 990 578 575 343 1095 643 1425 822 251 136 455 252 780 443 154 91 541
314 860 497 319 183 748 432 953 554 510 303 712 420 1338 776 754 430 962
550 1339 775 311 186 484 286 1330 765 193 109 523 300 735 423 212 123 703
406 1093 629 668 381 781 447 1037 605 58 36 289 167 513 292 492 274 760 430
1007 586 439 278 1287 734 1610 866 253 103 729 261 1150 383 496 142 653 170
1428 251 213 23 410 45 437 50 56 10 417 5 685 -10z"/>
<path d="M40913 83737 l-103 -105 0 -2338 c0 -2268 -11 -3708 -29 -3962 -10
-139 -14 -148 -80 -163 -141 -32 -115 -31 -5881 -49 -4422 -14 -8268 -40
-8975 -60 -360 -11 -509 -23 -563 -45 -93 -40 -129 -323 -67 -532 32 -106 90
-153 215 -173 39 -6 517 -14 1195 -19 622 -5 1213 -12 1315 -15 102 -4 381
-11 620 -16 852 -20 978 -39 1048 -159 l27 -46 7 -310 c4 -170 11 -333 17
-362 12 -63 36 -121 59 -146 26 -29 99 -62 177 -82 39 -9 84 -23 101 -30 51
-21 111 -82 177 -179 34 -50 93 -123 131 -163 55 -58 67 -77 63 -96 -4 -12
-38 -57 -77 -99 -84 -92 -105 -136 -119 -248 -29 -228 -35 -1093 -10 -1226 18
-94 184 -307 357 -456 153 -133 205 -157 398 -183 196 -26 473 -13 619 30 67
19 154 77 253 168 149 138 268 278 320 380 l27 52 -1 570 c-1 559 -6 679 -36
777 -8 27 -42 74 -105 143 -51 57 -93 106 -93 109 0 4 43 69 96 146 131 190
187 238 318 277 71 21 162 71 190 104 43 51 51 132 51 509 0 343 0 345 23 377
43 60 162 99 372 122 312 34 528 36 3975 36 3769 0 3681 1 3800 -57 l65 -32 0
-56 c0 -30 7 -379 15 -775 24 -1159 34 -1267 126 -1312 105 -52 372 -54 5864
-60 5879 -6 7961 5 8161 43 25 4 38 14 45 31 30 79 44 325 64 1108 20 783 35
1014 70 1049 43 43 392 47 4130 53 3482 5 3906 2 4214 -28 242 -24 374 -68
413 -140 21 -40 22 -87 6 -261 -9 -97 -9 -163 0 -280 12 -163 29 -237 68 -305
31 -53 68 -73 156 -84 37 -5 83 -16 100 -25 50 -26 161 -142 295 -310 l121
-150 -83 -85 c-115 -117 -122 -144 -146 -599 -19 -354 -17 -737 5 -835 26
-120 82 -225 174 -330 196 -224 319 -308 517 -353 90 -20 476 -23 577 -4 212
40 364 134 532 329 87 100 127 176 153 288 16 73 18 128 17 605 -1 551 -9 688
-44 767 -11 24 -58 85 -105 136 -47 50 -85 95 -85 99 0 15 147 233 198 295 71
84 121 112 234 129 107 16 170 51 217 122 41 60 49 127 56 437 9 397 25 499
86 530 15 8 60 19 98 25 203 29 1210 41 4816 60 l2080 11 73 77 c92 97 140
169 164 244 22 72 23 109 3 175 -20 69 -81 135 -160 174 -58 28 -75 32 -207
39 -732 44 -5129 82 -11483 100 -5834 16 -6567 19 -6809 30 -254 11 -347 23
-370 49 -54 59 -67 701 -86 4101 -7 1086 -15 2078 -18 2204 l-7 228 -56 30
c-48 24 -75 30 -175 38 -328 27 -1425 32 -7494 36 l-6295 5 -102 -104z m7097
-892 c7 -8 20 -15 30 -15 10 0 23 -7 30 -15 7 -8 21 -15 31 -15 11 0 19 -4 19
-9 0 -5 10 -13 23 -17 12 -4 36 -17 53 -30 17 -13 36 -24 41 -24 6 0 16 -7 23
-15 7 -8 20 -15 29 -15 10 0 28 -11 41 -25 13 -14 32 -25 42 -25 10 0 21 -6
24 -14 3 -8 16 -17 29 -20 12 -3 33 -17 46 -31 13 -13 31 -25 40 -25 9 0 22
-7 29 -15 7 -8 17 -15 23 -15 5 0 25 -11 43 -25 18 -14 39 -25 47 -25 7 0 24
-11 36 -24 13 -13 34 -27 47 -30 13 -4 24 -11 24 -16 0 -6 8 -10 18 -10 10 0
31 -13 47 -30 16 -16 35 -30 42 -30 17 0 48 -17 94 -52 20 -16 44 -28 52 -28
8 0 17 -7 21 -15 3 -8 14 -15 24 -15 10 0 29 -11 42 -25 13 -14 31 -25 41 -25
9 0 22 -7 29 -15 7 -8 17 -15 22 -15 6 0 27 -13 48 -30 21 -16 45 -30 53 -30
8 0 17 -4 19 -8 5 -12 98 -72 112 -72 7 0 23 -11 36 -25 13 -14 32 -25 42 -25
10 0 21 -7 24 -15 4 -8 14 -15 23 -15 9 0 31 -14 50 -30 18 -17 38 -30 44 -30
5 0 36 -18 69 -40 33 -22 66 -40 73 -40 7 0 18 -6 24 -14 7 -8 27 -22 46 -31
19 -9 35 -20 35 -25 0 -6 8 -10 18 -10 9 0 29 -11 43 -24 15 -13 48 -34 74
-46 26 -12 59 -33 74 -46 14 -13 33 -24 42 -24 9 0 19 -7 23 -15 3 -8 14 -15
24 -15 10 0 29 -11 42 -25 13 -14 31 -25 41 -25 9 0 22 -7 29 -15 7 -8 17 -15
22 -15 6 0 27 -13 48 -30 21 -16 45 -30 54 -30 9 0 16 -3 16 -8 0 -4 17 -16
38 -27 20 -11 41 -25 45 -32 4 -7 15 -13 23 -13 9 0 30 -10 47 -23 42 -29 68
-45 92 -56 11 -5 33 -21 49 -35 16 -14 37 -26 47 -26 9 0 19 -3 21 -7 5 -13
98 -73 112 -73 7 0 19 -6 25 -14 7 -8 27 -22 46 -31 19 -9 35 -20 35 -25 0 -6
11 -10 25 -10 14 0 25 -4 25 -10 0 -5 16 -16 35 -25 19 -9 39 -23 46 -31 6 -8
18 -14 26 -14 9 0 31 -13 50 -30 18 -16 40 -30 48 -30 8 0 15 -4 15 -9 0 -5
13 -14 30 -19 16 -6 37 -20 47 -31 9 -12 25 -21 34 -21 9 0 22 -7 29 -15 7 -8
17 -15 23 -15 5 0 25 -11 43 -25 18 -14 39 -25 48 -25 8 0 19 -6 23 -13 4 -8
24 -22 43 -33 19 -10 39 -25 43 -31 4 -7 15 -13 23 -13 9 0 30 -11 48 -25 18
-14 38 -25 43 -25 6 0 16 -7 23 -15 7 -8 19 -15 27 -15 7 0 26 -11 41 -25 15
-14 35 -25 45 -25 10 0 20 -6 23 -14 3 -8 16 -17 29 -20 12 -3 33 -17 46 -31
13 -13 31 -25 40 -25 9 0 22 -7 29 -15 7 -8 19 -15 26 -15 8 0 14 -4 14 -10 0
-5 6 -10 14 -10 7 0 19 -7 26 -15 7 -8 18 -15 26 -15 7 0 25 -11 40 -25 15
-14 32 -25 39 -25 7 0 18 -7 25 -15 7 -8 20 -15 29 -15 9 -1 32 -14 51 -30 19
-17 39 -30 46 -30 6 0 17 -7 24 -15 7 -8 19 -15 27 -15 7 0 26 -11 41 -25 15
-14 35 -25 44 -25 10 0 18 -4 18 -10 0 -5 16 -16 35 -25 19 -9 39 -23 46 -31
6 -8 18 -14 26 -14 8 0 32 -13 53 -30 21 -16 42 -30 48 -30 5 0 12 -7 16 -15
3 -8 15 -15 26 -15 12 0 33 -11 48 -25 15 -14 32 -25 38 -25 6 0 17 -7 24 -15
7 -8 20 -15 29 -15 10 0 28 -11 41 -25 13 -14 32 -25 42 -25 10 0 21 -6 24
-14 3 -8 16 -17 29 -20 12 -3 33 -17 46 -31 13 -13 30 -25 37 -25 7 0 28 -11
46 -25 18 -14 38 -25 43 -25 6 0 16 -7 23 -15 7 -8 18 -15 26 -15 7 0 25 -11
40 -25 15 -14 35 -25 46 -25 10 0 21 -7 24 -15 4 -8 14 -15 23 -15 10 0 30
-13 46 -30 16 -16 36 -30 46 -30 9 0 22 -7 29 -15 7 -8 18 -15 25 -15 7 0 24
-11 39 -25 15 -14 36 -25 47 -25 10 0 19 -4 19 -10 0 -5 16 -16 35 -25 19 -9
39 -23 46 -31 6 -8 17 -14 25 -14 7 0 42 -20 78 -45 37 -25 70 -44 74 -42 4 1
21 -10 37 -25 16 -16 35 -28 41 -28 6 0 17 -7 24 -15 7 -8 20 -15 29 -15 9 0
28 -11 43 -25 15 -14 34 -25 43 -25 9 0 18 -7 21 -15 4 -8 14 -15 24 -15 11 0
34 -13 52 -30 18 -16 37 -30 42 -30 5 0 24 -11 42 -25 18 -14 37 -25 42 -25
28 0 62 -82 51 -124 -7 -26 -63 -86 -80 -86 -4 0 -37 -20 -73 -45 -37 -25 -71
-45 -77 -45 -5 0 -22 -11 -37 -25 -15 -14 -35 -25 -45 -25 -10 0 -20 -7 -23
-15 -4 -8 -14 -15 -23 -15 -10 0 -28 -11 -41 -25 -13 -14 -31 -25 -39 -25 -9
-1 -32 -14 -51 -30 -19 -17 -39 -30 -46 -30 -6 0 -17 -7 -24 -15 -7 -8 -19
-15 -27 -15 -7 0 -24 -9 -36 -21 -12 -11 -31 -25 -42 -30 -24 -11 -49 -26 -92
-56 -17 -13 -36 -23 -42 -23 -11 0 -102 -59 -111 -71 -3 -4 -17 -13 -30 -18
-28 -12 -51 -26 -97 -58 -17 -13 -38 -23 -45 -23 -7 0 -25 -11 -39 -24 -14
-13 -35 -27 -47 -30 -12 -4 -22 -12 -22 -17 0 -5 -8 -9 -18 -9 -10 0 -32 -13
-48 -30 -16 -16 -36 -30 -45 -30 -9 0 -22 -7 -29 -15 -7 -8 -17 -15 -23 -15
-5 0 -25 -11 -43 -25 -18 -14 -40 -25 -49 -25 -8 0 -18 -7 -21 -15 -4 -8 -14
-15 -23 -15 -10 0 -28 -11 -41 -25 -13 -14 -31 -25 -41 -25 -9 0 -22 -7 -29
-15 -7 -8 -17 -15 -22 -15 -5 0 -24 -11 -41 -24 -18 -13 -42 -27 -54 -31 -13
-3 -23 -10 -23 -13 0 -4 -17 -16 -37 -27 -21 -11 -42 -25 -46 -32 -4 -7 -16
-13 -25 -13 -10 0 -29 -11 -44 -25 -15 -14 -34 -25 -41 -25 -8 0 -20 -7 -27
-15 -7 -8 -18 -15 -24 -15 -6 0 -26 -13 -44 -30 -18 -16 -42 -30 -53 -30 -10
0 -19 -4 -19 -10 0 -5 -7 -10 -15 -10 -8 0 -30 -13 -48 -30 -19 -16 -41 -30
-50 -30 -8 0 -20 -6 -26 -14 -7 -8 -27 -22 -46 -31 -19 -9 -35 -20 -35 -25 0
-6 -10 -10 -22 -10 -13 -1 -34 -14 -48 -30 -13 -17 -30 -30 -38 -30 -8 0 -41
-18 -74 -40 -33 -22 -64 -40 -69 -40 -10 0 -103 -62 -107 -72 -2 -5 -10 -8
-17 -8 -8 0 -42 -19 -77 -42 -35 -24 -70 -44 -77 -46 -7 -1 -24 -14 -39 -27
-15 -14 -34 -25 -43 -25 -9 0 -19 -7 -23 -15 -3 -8 -13 -15 -23 -15 -10 0 -30
-11 -45 -25 -15 -14 -34 -25 -41 -25 -8 0 -20 -7 -27 -15 -7 -8 -19 -15 -27
-15 -8 0 -28 -12 -43 -27 -16 -15 -37 -28 -47 -29 -10 -2 -19 -8 -21 -13 -2
-6 -10 -11 -17 -11 -8 0 -30 -13 -48 -30 -19 -16 -41 -30 -50 -30 -8 0 -20 -7
-27 -15 -7 -8 -18 -15 -25 -15 -7 0 -24 -11 -39 -25 -15 -14 -35 -25 -44 -25
-9 0 -28 -12 -41 -25 -13 -14 -29 -25 -36 -25 -7 0 -18 -7 -25 -15 -7 -8 -20
-15 -29 -15 -10 0 -30 -13 -46 -30 -16 -16 -34 -30 -41 -30 -14 0 -78 -39
-106 -64 -10 -9 -27 -16 -38 -16 -11 0 -20 -4 -20 -10 0 -5 -16 -16 -35 -25
-19 -9 -39 -23 -46 -31 -6 -8 -19 -14 -28 -14 -10 0 -30 -13 -46 -30 -16 -16
-37 -30 -47 -30 -10 0 -21 -7 -24 -15 -4 -8 -15 -15 -26 -15 -10 0 -29 -11
-42 -25 -13 -14 -30 -25 -38 -25 -9 0 -21 -7 -28 -15 -7 -8 -20 -15 -29 -15
-9 0 -27 -12 -40 -25 -13 -14 -32 -25 -42 -25 -11 0 -22 -7 -25 -15 -4 -8 -14
-15 -23 -15 -10 0 -31 -13 -47 -30 -16 -16 -35 -30 -42 -30 -7 0 -28 -11 -46
-25 -18 -14 -38 -25 -43 -25 -6 0 -16 -7 -23 -15 -7 -8 -21 -15 -31 -15 -10 0
-22 -6 -26 -13 -4 -7 -25 -21 -45 -32 -21 -11 -38 -23 -38 -27 0 -5 -7 -8 -16
-8 -9 0 -33 -13 -54 -30 -21 -16 -42 -30 -48 -30 -5 0 -15 -7 -22 -15 -7 -8
-19 -15 -27 -15 -7 0 -26 -11 -41 -25 -15 -14 -35 -25 -44 -25 -10 0 -18 -4
-18 -10 0 -5 -16 -16 -35 -25 -19 -9 -39 -23 -46 -31 -6 -8 -18 -14 -26 -14
-8 0 -32 -13 -53 -30 -21 -16 -42 -30 -48 -30 -5 0 -15 -7 -22 -15 -7 -8 -18
-15 -26 -15 -7 0 -25 -11 -40 -25 -15 -14 -32 -25 -39 -25 -7 0 -18 -7 -25
-15 -7 -8 -20 -15 -29 -15 -10 0 -28 -11 -41 -25 -13 -14 -32 -25 -42 -25 -10
0 -21 -7 -24 -15 -4 -8 -14 -15 -23 -15 -10 0 -31 -13 -47 -30 -16 -16 -35
-30 -43 -30 -7 0 -40 -18 -73 -40 -33 -22 -66 -40 -72 -40 -7 0 -23 -11 -36
-25 -13 -14 -29 -25 -36 -25 -7 0 -19 -6 -26 -12 -7 -7 -30 -21 -50 -32 -20
-10 -39 -25 -42 -32 -3 -8 -13 -14 -22 -14 -9 0 -43 -18 -76 -40 -33 -22 -67
-40 -74 -40 -8 0 -14 -4 -14 -10 0 -5 -16 -16 -35 -25 -19 -9 -39 -23 -46 -31
-6 -8 -18 -14 -26 -14 -8 0 -32 -13 -52 -28 -20 -16 -55 -37 -78 -47 -24 -11
-43 -22 -43 -27 0 -4 -39 -8 -86 -8 -63 0 -89 4 -100 15 -9 8 -23 15 -33 15
-10 0 -28 11 -41 25 -13 14 -32 25 -42 25 -10 0 -21 7 -24 15 -4 8 -14 15 -24
15 -9 0 -29 11 -44 25 -15 14 -33 25 -40 25 -8 0 -19 7 -26 15 -7 8 -17 15
-22 15 -6 0 -27 14 -48 30 -21 17 -44 30 -52 30 -8 0 -25 11 -38 25 -13 14
-32 25 -42 25 -10 0 -21 7 -24 15 -4 8 -14 15 -23 15 -10 0 -28 11 -41 25 -13
14 -31 25 -41 25 -9 0 -22 7 -29 15 -7 8 -17 15 -22 15 -6 0 -27 14 -48 30
-21 17 -45 30 -54 30 -9 0 -16 3 -16 8 0 4 -17 16 -37 27 -21 11 -42 25 -46
32 -4 7 -16 13 -26 13 -10 0 -28 11 -41 25 -13 14 -31 25 -41 25 -9 0 -22 7
-29 15 -7 8 -17 15 -22 15 -6 0 -27 14 -48 30 -21 17 -45 30 -54 30 -9 0 -16
5 -16 10 0 6 -7 10 -15 10 -8 0 -30 14 -48 30 -19 17 -41 30 -50 30 -8 0 -20
7 -27 15 -7 8 -18 15 -25 15 -7 0 -24 11 -39 25 -15 14 -33 25 -41 25 -8 0
-26 12 -42 26 -15 14 -50 36 -78 49 -27 12 -59 32 -69 44 -11 11 -27 21 -36
21 -10 0 -23 7 -30 15 -7 8 -18 15 -24 15 -6 0 -23 11 -38 25 -15 14 -34 25
-41 25 -8 0 -20 7 -27 15 -7 8 -17 15 -22 15 -6 0 -27 14 -48 30 -21 17 -45
30 -54 30 -9 0 -16 3 -16 8 0 4 -17 16 -37 27 -21 11 -42 25 -46 32 -4 7 -15
13 -23 13 -9 0 -30 11 -48 25 -18 14 -38 25 -43 25 -6 0 -16 7 -23 15 -7 8
-20 15 -29 15 -9 0 -29 14 -45 30 -16 17 -38 30 -48 30 -10 0 -18 4 -18 9 0 5
-11 12 -24 15 -13 3 -34 17 -47 31 -13 13 -31 25 -40 25 -9 0 -22 6 -28 14 -7
8 -27 22 -46 31 -19 9 -35 20 -35 25 0 6 -11 10 -24 10 -13 0 -26 7 -30 15 -3
8 -12 15 -21 15 -8 0 -15 3 -15 8 0 8 -57 42 -72 42 -6 0 -27 12 -47 28 -43
32 -69 49 -96 61 -11 5 -30 19 -42 30 -12 12 -31 21 -42 21 -10 0 -21 7 -25
15 -3 8 -10 15 -16 15 -5 0 -29 14 -52 30 -22 17 -45 30 -50 30 -12 0 -92 53
-101 67 -4 7 -17 13 -27 13 -10 0 -31 11 -46 25 -15 14 -32 25 -39 25 -7 0
-18 7 -25 15 -7 8 -19 15 -27 15 -9 0 -31 14 -50 30 -18 17 -40 30 -48 30 -8
0 -15 5 -15 10 0 6 -8 10 -18 10 -10 0 -32 14 -50 30 -18 17 -39 30 -46 30 -8
0 -19 7 -26 15 -7 8 -17 15 -23 15 -5 0 -25 11 -43 25 -18 14 -39 25 -48 25
-8 0 -19 6 -23 13 -4 7 -25 21 -45 32 -21 11 -38 23 -38 27 0 5 -7 8 -16 8 -9
0 -33 14 -54 30 -21 17 -42 30 -48 30 -5 0 -15 7 -22 15 -7 8 -19 15 -27 15
-7 0 -26 11 -41 25 -15 14 -35 25 -44 25 -10 0 -18 4 -18 10 0 5 -16 16 -35
25 -19 9 -39 23 -46 31 -6 8 -17 14 -25 14 -7 0 -42 20 -78 45 -37 25 -71 45
-77 45 -5 0 -22 11 -37 25 -15 14 -32 25 -38 25 -6 0 -17 7 -24 15 -7 8 -20
15 -29 15 -10 0 -28 11 -41 25 -13 14 -32 25 -42 25 -10 0 -21 7 -24 15 -4 8
-14 15 -23 15 -10 0 -31 13 -47 30 -16 16 -35 30 -43 30 -8 0 -29 11 -47 25
-18 14 -37 25 -42 25 -5 0 -15 7 -22 15 -7 8 -20 15 -29 15 -10 0 -28 11 -40
24 -13 13 -34 27 -47 30 -13 4 -24 11 -24 16 0 6 -9 10 -19 10 -11 0 -35 14
-53 30 -18 17 -38 30 -44 30 -6 0 -17 7 -24 15 -7 8 -20 15 -29 15 -10 0 -28
11 -41 25 -13 14 -31 25 -41 25 -9 0 -19 7 -23 15 -3 8 -14 15 -24 15 -10 0
-29 11 -42 25 -13 14 -29 25 -37 25 -7 0 -42 20 -79 45 -36 25 -70 45 -75 45
-5 0 -22 11 -37 25 -15 14 -34 25 -43 25 -9 0 -19 7 -23 15 -3 8 -14 15 -24
15 -10 0 -29 11 -42 25 -13 14 -31 25 -41 25 -9 0 -22 7 -29 15 -7 8 -17 15
-22 15 -6 0 -27 13 -47 28 -20 16 -56 38 -81 49 -25 11 -54 30 -64 42 -11 12
-27 21 -36 21 -10 0 -23 6 -29 14 -7 8 -27 22 -46 31 -19 9 -35 20 -35 25 0 6
-9 10 -19 10 -11 0 -31 10 -45 23 -13 12 -46 33 -73 47 -26 13 -59 34 -73 47
-14 13 -32 23 -40 23 -8 0 -26 12 -39 25 -13 14 -29 25 -36 25 -22 0 -55 56
-55 93 0 28 10 43 57 90 32 32 65 57 74 57 9 0 22 7 29 15 7 8 18 15 25 15 6
0 25 13 41 30 16 16 34 30 41 30 17 0 73 32 102 58 14 12 34 22 44 22 10 0 20
7 23 15 4 8 14 15 24 15 9 0 29 11 44 25 15 14 31 25 36 25 5 0 37 19 72 43
35 23 70 43 78 45 8 2 26 14 41 28 14 13 33 24 42 24 10 0 20 7 23 15 4 8 13
15 21 15 8 0 29 11 47 25 18 14 38 25 43 25 6 0 16 7 23 15 7 8 20 15 29 15 9
0 29 14 45 30 16 17 38 30 48 30 10 0 18 5 18 10 0 6 5 10 11 10 6 0 28 14 49
30 21 17 43 30 50 30 6 0 26 11 44 25 18 14 38 25 43 25 6 0 16 7 23 15 7 8
20 15 29 15 9 0 29 14 45 30 16 17 38 30 48 30 10 0 18 5 18 10 0 6 7 10 15
10 8 0 30 14 48 30 19 17 41 30 50 30 8 0 20 7 27 15 7 8 18 15 25 15 7 0 24
11 39 25 15 14 33 25 41 25 8 0 26 11 41 25 15 14 32 25 39 25 7 0 18 7 25 15
7 8 20 15 29 15 10 0 30 14 46 30 16 17 37 30 47 30 10 0 21 7 24 15 4 8 14
15 23 15 9 0 28 11 43 25 15 14 34 25 41 25 8 0 20 7 27 15 7 8 20 15 29 15
10 0 28 11 41 25 13 14 29 25 36 25 7 0 19 6 26 13 7 6 30 20 50 31 20 10 39
25 42 32 3 8 13 14 21 14 9 0 31 11 49 25 18 14 38 25 43 25 6 0 16 7 23 15 7
8 20 15 29 15 9 0 29 14 45 30 16 17 38 30 48 30 10 0 18 5 18 10 0 6 8 10 18
10 10 0 32 13 48 30 16 16 36 30 45 30 9 0 22 7 29 15 7 8 18 15 25 15 7 0 24
11 39 25 15 14 36 25 46 25 10 0 23 6 27 13 4 7 25 21 46 32 20 11 37 23 37
27 0 5 7 8 16 8 9 0 33 12 53 28 43 32 69 49 96 61 11 5 30 19 42 30 12 12 27
21 32 21 5 0 37 18 70 40 33 22 66 40 73 40 7 1 29 14 48 30 19 17 40 30 47
30 7 0 13 4 13 10 0 5 12 13 26 16 14 4 37 17 51 30 14 13 31 24 38 24 7 0 18
7 25 15 7 8 20 15 29 15 10 0 28 11 41 25 13 14 29 25 36 25 7 0 19 6 26 13 7
6 30 20 50 31 20 10 39 25 42 32 3 8 14 14 24 14 11 0 25 7 32 15 7 8 17 15
23 15 5 0 25 11 43 25 18 14 39 25 46 25 8 0 22 9 31 21 10 11 31 25 47 31 17
5 30 14 30 19 0 5 7 9 16 9 9 0 33 14 54 30 21 17 42 30 48 30 5 0 15 7 22 15
7 8 19 15 27 15 7 0 26 11 41 25 15 14 34 25 43 25 9 0 19 7 23 15 3 8 14 15
24 15 10 0 29 11 42 25 13 14 29 25 37 25 7 0 42 20 79 45 36 25 69 45 74 45
5 0 21 11 36 25 15 14 32 25 39 25 7 0 18 7 25 15 7 8 20 15 29 15 10 0 28 11
41 25 13 14 31 25 41 25 9 0 22 7 29 15 7 8 17 15 22 15 6 0 27 12 47 28 42
32 64 46 108 68 18 9 37 22 44 30 6 8 18 14 25 14 14 0 107 60 112 73 2 4 12
7 22 7 11 0 33 14 50 30 17 17 37 30 44 30 8 0 19 7 26 15 7 8 16 13 20 10 4
-3 23 9 41 25 19 16 41 30 50 30 9 0 19 7 23 15 3 8 14 15 24 15 10 0 29 11
42 25 13 14 29 25 36 25 7 0 39 17 71 39 32 21 68 41 81 45 12 4 22 11 22 14
0 4 17 16 38 27 20 11 41 25 45 32 4 7 16 13 26 13 10 0 24 6 30 14 7 8 26 21
44 30 42 22 65 36 107 67 19 14 53 34 74 44 22 10 51 28 65 41 14 13 33 24 42
24 9 0 22 7 29 15 7 8 18 15 25 15 7 0 24 11 39 25 15 14 35 25 45 25 11 0 21
7 25 15 3 8 14 15 24 15 11 0 25 7 32 15 8 10 30 15 65 15 35 0 57 -5 65 -15z
m-16429 -8474 c211 -10 252 -23 292 -92 47 -84 52 -128 52 -504 0 -369 -3
-399 -47 -466 -29 -43 -112 -85 -198 -99 -94 -16 -735 -24 -941 -12 -188 11
-231 22 -282 70 -67 63 -97 174 -97 362 0 177 34 475 66 572 27 84 76 124 181
149 101 24 647 35 974 20z m34235 0 c214 -9 245 -18 295 -81 57 -71 64 -127
64 -520 0 -389 -3 -414 -57 -476 -73 -83 -137 -93 -638 -100 -389 -6 -630 3
-711 26 -60 17 -102 52 -129 105 l-25 50 0 400 0 400 28 58 c31 63 75 95 157
117 95 26 643 37 1016 21z"/>
<path d="M47085 81552 c-16 -10 -34 -23 -38 -29 -4 -7 -15 -13 -23 -13 -18 0
-48 -16 -95 -52 -20 -16 -44 -28 -52 -28 -8 0 -20 -7 -27 -15 -7 -8 -18 -15
-24 -15 -6 0 -23 -11 -38 -25 -15 -14 -36 -25 -48 -25 -11 0 -20 -4 -20 -9 0
-11 -95 -71 -113 -71 -7 0 -26 -13 -42 -30 -16 -16 -36 -30 -46 -30 -9 0 -19
-7 -23 -15 -3 -8 -14 -15 -24 -15 -10 0 -29 -11 -42 -25 -13 -14 -31 -25 -41
-25 -9 0 -22 -7 -29 -15 -7 -8 -17 -15 -23 -15 -5 0 -24 -11 -41 -24 -17 -13
-41 -26 -53 -30 -13 -4 -23 -11 -23 -16 0 -4 -8 -10 -17 -14 -25 -8 -57 -29
-66 -43 -4 -7 -16 -13 -26 -13 -24 0 -158 -142 -168 -177 -5 -16 -8 -884 -8
-1931 0 -1801 1 -1904 18 -1916 9 -7 17 -18 17 -25 0 -13 76 -91 89 -91 6 0
22 -11 37 -25 15 -14 32 -25 39 -25 7 0 18 -7 25 -15 7 -8 20 -15 29 -15 10 0
30 -13 46 -30 16 -16 36 -30 46 -30 9 0 22 -7 29 -15 7 -8 18 -15 24 -15 7 0
23 -11 36 -25 13 -14 31 -25 41 -25 9 0 22 -7 29 -15 7 -8 17 -15 23 -15 5 0
25 -11 43 -25 18 -14 39 -25 48 -25 8 0 19 -6 23 -12 9 -15 40 -36 65 -44 9
-3 19 -12 22 -20 3 -8 13 -14 21 -14 9 0 31 -11 49 -25 18 -14 38 -25 43 -25
6 0 16 -7 23 -15 7 -8 20 -15 29 -15 9 0 25 -9 34 -21 10 -11 31 -25 47 -31
17 -5 30 -14 30 -19 0 -5 8 -9 18 -9 10 0 31 -13 47 -30 16 -16 36 -30 46 -30
9 0 22 -6 28 -14 6 -8 24 -16 39 -20 91 -19 85 -20 125 20 21 21 36 43 33 50
-3 7 2 20 9 31 12 15 14 159 15 895 l0 876 51 46 51 46 548 0 c474 0 549 -2
560 -15 7 -8 20 -15 30 -15 20 0 50 -40 50 -68 0 -11 7 -36 15 -55 13 -31 15
-154 15 -892 0 -778 2 -858 16 -881 22 -33 79 -57 104 -44 10 6 27 10 38 10
11 0 25 7 32 15 7 8 20 15 30 15 10 0 23 7 30 15 7 8 20 15 29 15 9 0 29 14
45 30 16 17 38 30 48 30 10 0 18 5 18 10 0 6 5 10 11 10 6 0 28 14 49 30 21
17 43 30 50 30 6 0 26 11 44 25 18 14 38 25 43 25 6 0 16 7 23 15 7 8 20 15
29 15 9 0 27 12 40 25 13 14 29 25 36 25 7 0 18 7 25 15 7 8 20 15 29 15 10 0
30 14 46 30 16 17 36 30 46 30 9 0 22 7 29 15 7 8 18 15 25 15 7 0 24 11 39
25 15 14 36 25 47 25 10 0 19 4 19 10 0 5 15 16 33 23 17 8 38 21 46 30 7 10
20 17 28 17 9 0 31 14 50 30 18 17 38 30 44 30 6 0 32 23 60 52 34 36 49 59
49 78 0 15 7 33 15 40 13 11 15 232 15 1879 0 1626 -2 1870 -15 1887 -8 10
-15 29 -15 40 0 12 -7 24 -15 28 -8 3 -15 14 -15 24 0 18 -38 62 -55 62 -4 0
-23 11 -41 25 -18 14 -37 25 -42 25 -5 0 -22 13 -38 30 -16 16 -35 30 -42 30
-7 0 -28 11 -46 25 -18 14 -38 25 -43 25 -6 0 -16 7 -23 15 -7 8 -20 15 -29
15 -10 0 -28 11 -40 24 -13 13 -34 27 -47 30 -13 4 -24 11 -24 16 0 6 -9 10
-19 10 -11 0 -33 12 -48 26 -15 14 -37 30 -48 35 -24 11 -49 26 -92 56 -17 13
-39 23 -48 23 -8 0 -18 6 -21 14 -3 7 -23 21 -45 31 -21 10 -39 22 -39 27 0 4
-7 8 -16 8 -9 0 -33 14 -54 30 -21 17 -42 30 -48 30 -5 0 -15 7 -22 15 -7 8
-19 15 -27 15 -7 0 -26 11 -41 25 -15 14 -34 25 -43 25 -9 0 -22 7 -29 15 -9
11 -32 15 -80 15 -67 0 -68 0 -89 -36 -21 -35 -21 -40 -21 -898 0 -743 -2
-865 -15 -882 -8 -10 -15 -33 -15 -49 0 -22 -10 -40 -34 -63 l-34 -32 -566 0
c-388 0 -567 3 -571 11 -4 5 -18 14 -31 19 -14 6 -24 18 -24 29 0 10 -7 21
-15 25 -13 5 -15 112 -15 880 0 498 -4 877 -9 880 -5 3 -12 22 -15 41 -11 57
-36 75 -103 74 -34 0 -71 -8 -88 -17z"/>
<path d="M43815 79570 c-3 -5 -15 -10 -25 -10 -10 0 -32 -12 -49 -26 -29 -24
-31 -30 -31 -96 0 -60 3 -72 23 -89 12 -10 27 -18 33 -19 6 0 17 -7 24 -15 18
-22 1545 -23 1553 -1 3 8 16 16 29 18 13 2 24 11 27 23 2 11 9 24 17 28 9 5
14 25 14 55 0 42 -5 52 -38 85 -21 20 -45 37 -54 37 -9 0 -20 5 -23 10 -4 7
-265 10 -750 10 -485 0 -746 -3 -750 -10z"/>
<path d="M50585 79570 c-3 -5 -16 -10 -28 -10 -24 0 -67 -40 -67 -61 0 -7 -7
-20 -16 -30 -23 -26 -12 -58 42 -118 l46 -51 767 0 c707 0 768 1 791 17 38 26
51 41 71 81 23 44 24 56 4 72 -8 7 -15 20 -15 29 0 22 -41 61 -63 61 -9 0 -19
5 -22 10 -4 7 -267 10 -755 10 -488 0 -751 -3 -755 -10z"/>
<path d="M43018 78977 c-40 -31 -43 -37 -49 -92 -6 -58 -5 -61 30 -97 22 -24
44 -38 61 -38 14 0 34 -7 44 -15 17 -13 165 -15 1097 -15 945 0 1078 2 1089
15 7 8 25 15 40 15 43 0 100 68 100 119 0 22 -6 44 -15 51 -8 7 -15 20 -15 29
0 10 -19 25 -47 39 l-48 22 -1122 0 -1121 0 -44 -33z"/>
<path d="M50530 78973 c-56 -61 -76 -112 -50 -128 6 -3 10 -17 10 -30 0 -28
46 -65 82 -65 12 0 32 -7 42 -15 17 -13 165 -15 1091 -15 926 0 1074 2 1091
15 10 8 29 15 42 15 12 0 38 16 57 35 32 31 35 40 35 90 0 52 -3 58 -42 95
l-41 40 -1142 0 -1141 0 -34 -37z"/>
<path d="M43775 78432 c-50 -26 -64 -51 -65 -115 0 -65 26 -117 59 -117 10 0
24 -7 31 -15 11 -13 108 -15 760 -15 652 0 749 2 760 15 7 8 18 15 26 15 7 0
29 15 48 34 31 29 36 40 36 78 0 39 -5 49 -37 79 -69 63 -20 59 -837 58 -658
-1 -755 -3 -781 -17z"/>
<path d="M50575 78440 c-3 -5 -13 -10 -22 -10 -20 0 -63 -41 -63 -61 0 -9 -7
-22 -15 -29 -8 -7 -15 -20 -15 -30 0 -10 7 -23 15 -30 8 -7 15 -18 15 -24 0
-18 43 -56 63 -56 10 0 20 -7 23 -15 5 -13 99 -15 760 -15 662 0 755 2 760 15
4 8 15 15 25 15 24 0 59 30 59 51 0 9 7 22 15 29 8 7 15 23 15 35 0 13 -7 25
-15 29 -8 3 -15 14 -15 24 0 22 -40 62 -63 62 -9 0 -19 5 -22 10 -4 7 -268 10
-760 10 -492 0 -756 -3 -760 -10z"/>
<path d="M23778 77071 c-75 -25 -116 -51 -172 -111 -94 -100 -132 -228 -101
-336 33 -118 105 -197 245 -272 107 -58 130 -60 226 -23 245 95 346 312 245
523 -88 185 -272 276 -443 219z"/>
<path d="M31934 72079 c-43 -12 -66 -41 -71 -92 -4 -36 -1 -48 19 -72 20 -23
35 -29 79 -33 48 -4 59 -1 86 22 57 48 50 146 -12 172 -38 16 -56 16 -101 3z"/>
<path d="M64604 72060 c-31 -12 -74 -68 -74 -97 0 -32 41 -88 80 -108 68 -35
116 -9 146 78 18 54 14 63 -42 97 -45 28 -85 39 -110 30z"/>
<path d="M66193 72048 c-33 -16 -47 -59 -33 -102 23 -71 98 -90 144 -35 35 41
34 83 -3 120 -31 31 -68 37 -108 17z"/>
<path d="M30329 72019 c-18 -18 -20 -30 -16 -67 3 -28 12 -51 23 -59 22 -16
106 -17 122 -1 29 29 5 111 -39 134 -39 20 -65 18 -90 -7z"/>
<path d="M31098 71900 c-48 -37 -50 -139 -3 -186 52 -52 155 -16 169 60 18 96
-95 182 -166 126z"/>
<path d="M65358 71900 c-14 -10 -31 -39 -38 -64 -32 -115 76 -205 180 -151 37
19 50 43 50 92 0 47 -27 90 -77 120 -47 28 -82 29 -115 3z"/>
<path d="M32547 71615 c-167 -62 -236 -241 -166 -432 29 -77 106 -156 169
-173 81 -22 173 19 258 116 94 106 109 194 54 306 -17 35 -53 86 -79 113 -79
79 -151 101 -236 70z"/>
<path d="M66748 71610 c-156 -83 -188 -359 -56 -487 58 -55 102 -76 168 -77
93 -2 183 61 236 165 59 118 36 229 -70 334 -67 67 -110 85 -192 85 -28 -1
-64 -9 -86 -20z"/>
<path d="M29621 71519 c-19 -12 -63 -49 -96 -83 -46 -45 -66 -75 -80 -115 -45
-136 26 -292 153 -335 73 -25 168 -21 231 10 161 80 184 315 44 444 -49 46
-154 100 -193 100 -14 0 -41 -10 -59 -21z"/>
<path d="M63823 71504 c-111 -55 -175 -150 -175 -259 0 -151 119 -271 283
-283 168 -12 283 95 283 263 0 213 -215 367 -391 279z"/>
<path d="M31045 71199 c-91 -34 -150 -176 -125 -302 31 -158 136 -257 280
-265 83 -4 122 16 172 89 63 91 83 214 53 317 -33 109 -118 163 -265 169 -47
1 -98 -2 -115 -8z"/>
<path d="M65333 71189 c-75 -37 -159 -146 -184 -240 -11 -42 -10 -50 13 -101
31 -67 120 -158 188 -193 92 -47 171 -25 269 73 76 75 105 131 105 202 1 69
-23 119 -86 183 -92 92 -212 122 -305 76z"/>
<path d="M33542 70756 c-150 -61 -249 -142 -299 -244 -25 -51 -28 -68 -28
-157 0 -94 2 -104 36 -175 43 -90 107 -158 187 -197 51 -25 68 -28 158 -28 96
0 103 2 176 38 96 47 171 126 227 237 50 100 58 148 37 230 -23 89 -61 155
-131 226 -107 109 -215 130 -363 70z"/>
<path d="M67743 70766 c-97 -31 -191 -130 -234 -251 -18 -49 -23 -83 -23 -180
-1 -110 1 -125 26 -177 89 -190 317 -250 536 -139 133 67 242 246 244 399 1
190 -208 363 -436 361 -39 0 -90 -6 -113 -13z"/>
<path d="M62930 70727 c-41 -13 -95 -34 -119 -46 -61 -32 -134 -109 -168 -178
-25 -53 -28 -68 -28 -163 0 -98 2 -110 32 -173 37 -77 133 -184 201 -224 57
-34 154 -63 207 -63 155 0 299 115 341 272 44 168 -9 366 -126 470 -46 41
-189 115 -237 123 -16 3 -62 -6 -103 -18z"/>
<path d="M28646 70716 c-95 -36 -229 -157 -268 -243 -16 -36 -21 -68 -21 -128
0 -95 22 -158 88 -250 169 -238 425 -282 617 -106 78 71 93 114 92 256 0 120
-17 196 -62 278 -37 69 -129 151 -199 177 -74 29 -193 36 -247 16z"/>
<path d="M31175 70247 c-111 -29 -223 -113 -280 -211 -56 -97 -60 -312 -8
-424 9 -20 64 -85 122 -143 124 -124 159 -140 259 -120 96 19 159 58 262 161
102 102 145 172 156 254 19 137 -142 394 -288 461 -66 30 -156 39 -223 22z"/>
<path d="M65400 70246 c-138 -29 -231 -131 -275 -301 -19 -76 -19 -224 0 -300
82 -313 412 -403 654 -179 185 171 201 457 34 635 -109 116 -276 175 -413 145z"/>
<path d="M26971 68099 c-410 -9 -597 -20 -996 -60 -2716 -269 -4475 -762
-6740 -1887 -641 -319 -1039 -548 -1615 -933 -997 -666 -1903 -1420 -2870
-2388 -1938 -1941 -3229 -3979 -3614 -5708 -74 -331 -91 -476 -107 -938 -36
-1046 -10 -10589 31 -11245 37 -585 202 -1087 656 -1985 572 -1134 1475 -2443
2421 -3510 991 -1117 2431 -2342 3593 -3057 779 -479 1682 -954 2455 -1290
630 -274 1137 -464 2085 -778 591 -196 843 -287 918 -332 93 -57 113 -170 142
-803 51 -1112 126 -1462 380 -1777 173 -215 578 -644 1032 -1094 362 -359 531
-514 593 -544 22 -10 76 -24 120 -30 143 -19 633 -30 1410 -30 1207 -1 2318
-21 2735 -51 316 -22 375 -56 400 -226 13 -90 13 -1228 0 -1498 -16 -340 -43
-542 -80 -615 -18 -35 -22 -37 -82 -43 -354 -36 -2560 -50 -12239 -76 l-2976
-8 -172 -91 c-205 -109 -293 -165 -377 -244 -126 -118 -179 -234 -172 -378 3
-70 9 -94 32 -137 94 -173 426 -458 906 -779 248 -166 440 -284 761 -467 142
-80 317 -183 390 -228 197 -121 531 -312 899 -514 509 -278 845 -470 1245
-710 413 -248 702 -416 1065 -620 679 -382 1239 -704 1730 -995 449 -266 704
-413 1215 -700 818 -459 1298 -739 1568 -913 65 -42 243 -147 395 -233 1005
-571 1846 -1055 2452 -1411 346 -204 565 -329 820 -468 400 -218 696 -389
1350 -780 489 -292 973 -571 1650 -950 491 -275 559 -315 810 -480 240 -158
370 -234 615 -362 238 -125 378 -205 1180 -668 336 -194 1087 -626 1670 -960
1980 -1136 2130 -1222 2515 -1450 212 -125 530 -310 708 -411 346 -198 448
-259 612 -364 182 -117 493 -295 1215 -695 971 -538 1132 -631 1555 -899 142
-90 380 -228 650 -376 294 -162 607 -340 895 -510 356 -210 857 -499 1160
-667 143 -80 424 -239 625 -353 727 -413 1085 -589 1500 -740 335 -122 925
-281 1502 -405 577 -123 751 -130 1213 -53 751 125 1756 431 2340 712 293 142
828 440 1430 798 417 247 1029 596 1535 873 249 137 536 304 800 465 420 257
848 513 1045 624 116 66 458 261 760 434 303 174 811 464 1130 645 1083 615
1143 650 1845 1074 118 72 289 170 380 218 203 108 400 220 658 372 473 280
875 510 1440 827 183 103 602 343 930 533 328 190 973 560 1432 823 1161 664
1418 813 1950 1130 573 341 817 482 1030 595 227 120 354 193 650 375 292 180
616 368 751 435 153 77 369 199 654 370 149 89 347 203 440 254 345 189 577
324 1330 776 761 457 891 532 1545 900 443 249 1298 742 2065 1189 341 199
692 402 780 451 275 152 388 216 460 265 166 111 649 388 1550 890 646 359
838 470 1280 735 204 122 541 320 750 440 804 462 1502 865 1795 1038 168 99
337 194 375 212 83 37 221 122 452 276 228 152 379 267 432 329 206 243 199
488 -20 709 -73 74 -159 144 -216 178 l-47 27 -311 8 c-915 20 -5026 43
-11530 63 l-4760 15 -66 67 c-56 58 -68 76 -78 121 -15 71 -14 207 4 572 43
886 88 1457 118 1519 60 122 366 144 2432 171 917 12 1683 28 1860 39 111 7
138 12 182 35 123 62 379 295 1002 911 492 487 834 843 922 960 l69 92 0 284
c0 488 19 1567 31 1733 6 94 17 180 27 210 15 46 22 54 77 83 74 39 346 132
639 219 805 239 1287 400 1791 599 924 365 1706 780 2714 1442 1559 1025 2807
2117 3916 3428 1217 1438 2008 2700 2758 4395 658 1489 1023 2803 1196 4300
160 1381 171 3157 31 4600 -148 1517 -396 2539 -952 3925 -360 898 -854 1904
-1345 2745 -357 610 -751 1199 -1059 1584 -489 610 -1443 1569 -2454 2466
-822 729 -1750 1475 -2235 1795 -863 570 -2324 1215 -3998 1764 -1217 399
-1614 481 -2627 541 -1290 75 -5520 148 -11175 191 -1964 15 -6714 16 -7460 1
-584 -11 -1439 -42 -1453 -52 -23 -16 -135 -156 -152 -190 -33 -64 -53 -167
-47 -240 8 -91 39 -168 103 -250 l55 -70 142 0 c450 0 7205 -30 7927 -35 5638
-38 8995 -81 10460 -135 576 -22 2021 -117 2340 -156 123 -14 565 -91 930
-160 806 -154 1484 -413 3100 -1183 1464 -699 2275 -1260 3725 -2580 993 -903
1456 -1370 1961 -1976 656 -788 1196 -1621 1745 -2690 839 -1636 1318 -3195
1613 -5255 110 -761 111 -792 111 -2290 0 -1483 -1 -1507 -106 -2250 -153
-1087 -329 -1817 -702 -2925 -771 -2286 -2031 -4353 -3686 -6050 -806 -826
-1637 -1525 -2486 -2092 -887 -592 -2118 -1263 -3045 -1660 -1472 -631 -2729
-959 -4375 -1142 -984 -110 -2542 -203 -2670 -159 -53 17 -62 46 -75 236 -16
233 -28 1609 -36 3994 l-7 2207 -58 46 c-76 60 -116 73 -267 85 -261 22 -1584
29 -5317 30 l-3840 0 -107 -107 -107 -108 -4 -3020 c-3 -2228 -7 -3046 -16
-3120 -13 -115 -41 -181 -86 -207 -16 -9 -73 -22 -125 -28 -224 -25 -1453 -31
-4925 -20 -10485 31 -13803 54 -14455 101 -129 9 -153 13 -212 41 l-68 31 0
396 c0 218 -9 1629 -19 3136 l-19 2740 -49 42 c-94 83 -120 89 -483 104 -338
14 -7510 5 -8279 -10 -687 -14 -798 -26 -821 -85 -37 -98 -55 -1017 -80 -4076
-14 -1639 -27 -2124 -61 -2255 -13 -48 -51 -91 -99 -114 -49 -22 -459 -26
-1110 -12 -2028 46 -2573 104 -3784 407 -1573 393 -2828 883 -4104 1601 -1414
796 -2735 1841 -4011 3173 -1171 1223 -1920 2275 -2781 3905 -321 607 -418
812 -446 944 -23 108 -33 442 -44 1466 -27 2489 -50 9989 -33 10615 l8 305 58
134 c181 418 708 1479 1010 2031 281 515 663 1092 1060 1603 383 491 775 933
1322 1486 1396 1411 2592 2287 4570 3344 668 356 984 499 1645 742 908 335
1375 476 1924 584 323 64 734 121 1016 140 1025 72 4864 120 12815 161 5627
29 7434 47 7913 80 91 6 162 17 196 29 102 36 194 116 243 211 25 49 28 65 28
155 0 122 -20 171 -104 255 -63 62 -90 73 -221 89 -308 38 -2607 70 -7170 101
-4130 28 -10277 39 -11159 19z m9578 -27908 c517 -11 478 -3 522 -104 20 -47
24 -77 32 -287 11 -298 1 -4069 -13 -4480 -21 -656 -53 -798 -189 -830 -25 -6
-125 -11 -221 -13 -201 -2 -230 6 -281 76 -91 125 -114 388 -124 1417 -8 821
-23 1647 -40 2250 -23 776 -36 906 -97 976 -42 48 -70 60 -163 74 -140 20
-1013 29 -2735 29 -2217 0 -2895 -11 -2999 -50 -72 -28 -103 -92 -120 -254
-33 -305 -66 -1578 -76 -2995 -4 -426 -10 -858 -15 -960 -19 -379 -63 -470
-240 -499 -89 -15 -366 -41 -433 -41 -120 0 -160 85 -189 400 -19 207 -19
4668 0 4935 15 219 20 239 68 316 l39 61 3410 -6 c1876 -3 3614 -10 3864 -15z
m29191 9 c658 -9 876 -20 936 -45 67 -28 71 -86 85 -1075 13 -968 6 -3879 -10
-4080 -26 -331 -69 -459 -164 -489 -41 -13 -569 -13 -620 0 -82 21 -130 95
-156 239 -29 165 -33 331 -41 2100 -8 1743 -16 2206 -41 2327 -12 58 -59 135
-102 167 -27 20 -45 21 -330 26 -380 6 -2555 -6 -3522 -20 -1292 -18 -1745
-34 -1850 -61 -116 -31 -160 -166 -184 -564 -17 -276 -49 -1462 -76 -2765 -8
-421 -19 -874 -24 -1007 -8 -234 -9 -244 -35 -297 -49 -100 -151 -166 -288
-187 -180 -28 -382 41 -429 146 -17 39 -19 97 -30 811 -17 1138 -18 4452 -1
4573 15 111 31 145 73 160 62 21 313 33 859 40 832 11 5200 12 5950 1z
m-31175 -1680 c695 -12 784 -21 819 -89 39 -75 41 -193 40 -2686 -1 -3372 -28
-7199 -54 -7955 -14 -386 -20 -436 -65 -516 l-36 -64 -1347 1 c-1523 0 -2671
12 -2811 29 -107 13 -148 30 -161 65 -21 56 -31 313 -41 1090 -10 795 -7 4360
7 8301 l6 1741 62 31 c72 36 106 42 291 52 207 10 2665 11 3290 0z m27100 -20
c242 -5 762 -14 1155 -20 1632 -24 1968 -38 2052 -88 47 -28 70 -102 87 -292
41 -443 58 -1542 82 -5510 17 -2667 17 -4942 2 -5097 -21 -198 -45 -233 -179
-253 -115 -18 -1087 -29 -2690 -29 l-1522 -1 -36 53 c-45 66 -54 110 -66 327
-22 380 -32 2889 -26 6250 5 3205 13 4240 36 4479 11 113 22 136 84 168 68 35
31 35 1021 13z m-36920 -4725 c190 -31 368 -49 715 -74 668 -49 1090 -59 2727
-71 788 -5 1429 -14 1505 -20 193 -16 229 -39 247 -160 21 -130 31 -482 42
-1488 15 -1267 10 -1386 -63 -1447 -37 -31 -82 -43 -205 -55 -331 -33 -3393
-39 -3717 -7 l-159 15 -389 389 c-734 732 -965 995 -1072 1223 -47 99 -63 165
-77 318 -14 147 -18 1146 -6 1234 17 117 85 168 222 168 44 0 148 -11 230 -25z
m46570 -18 c109 -30 166 -72 208 -151 21 -39 22 -52 21 -266 -1 -351 -31 -732
-75 -949 -68 -338 -214 -585 -591 -996 -56 -60 -291 -306 -524 -546 l-423
-436 -78 4 c-43 1 -285 8 -538 13 -2284 52 -3062 82 -3253 126 -78 17 -106 36
-137 88 -52 88 -57 148 -106 1255 -47 1057 -54 1415 -26 1503 41 132 109 167
377 187 256 20 1020 46 2385 81 1533 39 2057 63 2350 104 65 9 361 -3 410 -17z
m-12905 -168 c814 -9 1073 -19 1138 -40 41 -14 48 -31 61 -156 46 -427 53
-2060 11 -2624 -13 -169 -26 -239 -48 -261 -9 -10 -40 -22 -68 -27 -212 -40
-1518 -56 -9169 -106 -2696 -18 -4330 -33 -4715 -45 -260 -8 -294 -11 -385
-35 -178 -47 -240 -104 -240 -221 0 -53 4 -68 30 -106 66 -93 159 -116 580
-142 892 -57 2802 -87 6680 -106 3339 -16 5367 -30 6115 -40 672 -10 1164 -24
1194 -36 21 -8 25 -35 35 -221 26 -456 20 -1573 -9 -1913 -12 -138 -29 -187
-79 -237 -31 -31 -33 -32 -144 -36 -61 -2 -3084 -10 -6717 -17 -6759 -13
-15097 -2 -15820 20 -357 11 -486 23 -513 48 -66 60 -68 91 -74 1221 l-5 993
102 103 102 102 1536 6 c1657 6 2534 21 3417 57 554 23 766 41 838 72 63 28
132 105 152 171 19 63 19 81 0 145 -30 101 -99 149 -256 176 -323 56 -871 67
-4942 102 l-788 7 -51 64 c-104 131 -102 114 -102 1528 0 1331 5 1435 69 1495
63 59 274 62 5750 69 6343 8 15269 3 16315 -10z m2440 -11744 c2457 -4 3271
-13 3525 -35 137 -13 178 -30 240 -102 59 -68 76 -111 88 -222 16 -137 14
-2189 -2 -2522 -23 -484 -56 -582 -216 -641 -66 -25 -85 -27 -315 -34 -626
-19 -8015 -30 -16490 -24 -12588 9 -13876 18 -14372 100 -122 21 -167 40 -184
81 -8 18 -14 42 -14 52 0 11 -9 41 -21 67 -38 85 -49 194 -59 555 -12 441 -12
1410 0 1785 13 418 37 556 115 659 36 46 197 161 270 192 110 46 284 58 1020
75 857 20 18447 29 26415 14z"/>
<path d="M43593 30354 c-50 -25 -108 -95 -133 -160 -18 -49 -21 -74 -18 -145
5 -110 32 -160 118 -217 101 -68 187 -74 335 -25 222 73 275 289 108 445 -57
52 -104 79 -182 102 -71 21 -186 21 -228 0z"/>
<path d="M48155 68029 c-225 -10 -496 -27 -640 -40 -240 -23 -336 -59 -450
-169 -84 -82 -118 -139 -141 -236 -45 -196 48 -371 233 -435 164 -56 344 -64
1276 -54 l718 7 89 101 c103 117 138 179 152 274 29 187 -99 447 -254 518 -39
18 -84 27 -173 34 -134 12 -537 12 -810 0z"/>
<path d="M72720 62453 c-271 -6 -459 -22 -501 -43 -57 -30 -162 -136 -195
-200 -26 -50 -29 -64 -29 -155 0 -141 23 -186 163 -322 l105 -103 1407 0 1407
0 82 86 c126 131 168 240 149 389 -16 122 -102 241 -212 295 -61 29 -162 38
-572 50 -304 9 -1443 11 -1804 3z"/>
<path d="M71025 59899 c-82 -4 -176 -12 -207 -18 -127 -23 -235 -107 -295
-229 -36 -71 -38 -82 -38 -166 0 -84 3 -97 37 -166 21 -44 66 -109 108 -157
l71 -83 2190 0 2190 0 52 56 c143 156 181 233 175 359 -4 107 -40 180 -150
306 l-83 95 -635 7 c-813 9 -3218 6 -3415 -4z"/>
<path d="M72153 56852 c-147 -162 -190 -270 -158 -394 28 -111 130 -226 232
-262 129 -46 480 -58 1663 -60 869 -1 962 1 1029 16 208 49 355 184 391 362
39 189 -101 378 -306 415 -133 24 -458 31 -1581 31 l-1171 0 -99 -108z"/>
<path d="M71460 53909 c-354 -8 -686 -26 -743 -39 -120 -27 -237 -212 -237
-375 0 -121 44 -219 152 -338 l53 -58 2130 -2 c2044 -2 2132 -1 2190 16 86 27
132 53 190 108 129 122 150 281 63 466 -33 71 -111 157 -162 178 -97 41 -685
55 -2146 53 -646 -1 -1317 -5 -1490 -9z"/>
<path d="M72165 50908 c-158 -168 -211 -305 -170 -443 30 -106 105 -189 221
-246 126 -62 113 -61 1279 -66 1295 -5 1448 1 1583 64 67 32 174 131 201 187
80 163 37 307 -147 498 l-105 108 -1382 0 -1383 0 -97 -102z"/>
<path d="M65179 50866 c-59 -23 -115 -62 -174 -123 -158 -160 -149 -223 179
-1313 163 -544 246 -868 246 -962 0 -96 -74 -370 -239 -889 -265 -833 -330
-1091 -317 -1253 7 -96 41 -159 126 -240 56 -52 81 -69 127 -82 205 -59 563
78 2267 871 1490 693 1839 875 2022 1059 52 52 75 84 87 120 76 224 -84 391
-818 858 -379 241 -2111 1312 -2385 1475 -395 234 -724 405 -885 459 -96 32
-186 39 -236 20z m1154 -1557 c126 -42 343 -165 837 -477 421 -266 677 -439
740 -500 54 -52 60 -62 60 -98 0 -93 -125 -171 -775 -487 -698 -338 -894 -424
-989 -434 -48 -5 -55 -3 -70 18 -33 48 -15 179 79 589 118 509 120 613 20
1005 -62 245 -73 312 -55 356 22 52 60 59 153 28z"/>
<path d="M71920 48423 c-345 -3 -943 -22 -1085 -34 -82 -7 -133 -16 -162 -30
-57 -27 -118 -97 -156 -177 -30 -62 -32 -75 -32 -172 0 -95 3 -111 28 -162 57
-115 141 -161 366 -198 312 -52 782 -64 2116 -56 1492 8 1894 21 2041 67 108
33 201 116 252 226 22 48 27 72 27 143 0 73 -4 93 -28 142 -16 32 -49 78 -74
103 -67 67 -126 93 -235 105 -352 36 -1730 55 -3058 43z"/>
<path d="M30184 45791 c-174 -14 -252 -40 -504 -166 -625 -313 -1334 -777
-1864 -1219 -100 -83 -237 -194 -306 -245 -120 -91 -831 -566 -1130 -756 -340
-215 -436 -252 -1120 -427 l-285 -72 -2075 -1 c-2138 0 -2300 2 -2640 41 -359
41 -544 98 -1145 354 -981 418 -1412 678 -2325 1404 -549 437 -925 705 -1118
798 -123 59 -382 146 -544 182 -456 102 -942 111 -1307 26 -462 -109 -781
-338 -781 -562 0 -76 23 -128 304 -683 453 -895 795 -1485 1250 -2160 465
-690 923 -1259 1452 -1806 781 -808 1435 -1343 2700 -2207 373 -254 612 -396
1154 -684 879 -467 1696 -851 1902 -894 80 -17 280 -81 758 -243 1134 -384
2214 -607 3850 -792 121 -14 260 -23 365 -23 164 -1 172 0 220 25 62 31 102
92 115 175 22 138 32 978 37 3315 l6 2477 302 302 302 302 5004 -5 c5687 -5
5693 -5 5822 -74 67 -36 311 -278 401 -398 37 -49 83 -122 102 -161 l36 -72 9
-548 c4 -302 9 -1291 9 -2199 1 -1721 12 -2747 30 -2900 15 -126 32 -157 94
-172 191 -47 1159 -52 9771 -53 l7650 0 32 48 c17 26 36 56 41 67 42 83 51
513 52 2275 1 1717 14 3227 30 3410 6 69 15 142 21 162 18 70 161 230 420 472
l157 146 5373 0 5374 0 179 -168 c175 -163 324 -326 372 -407 59 -101 64 -316
74 -3055 6 -1451 13 -2403 19 -2480 21 -248 46 -353 97 -401 25 -24 29 -24
202 -23 226 2 575 38 1132 119 1756 254 3060 640 4565 1351 676 320 1295 654
1825 987 375 235 943 628 1300 898 690 522 1545 1346 2155 2074 582 697 1655
2359 1800 2788 30 89 33 182 9 233 -25 53 -100 113 -220 178 -209 114 -567
345 -1059 686 -795 552 -961 629 -1442 675 -184 18 -610 20 -786 4 -168 -15
-385 -52 -487 -84 -109 -34 -166 -66 -434 -245 -215 -143 -312 -212 -956 -676
-1468 -1060 -2243 -1534 -2710 -1659 -420 -111 -1045 -149 -2450 -148 -1719 1
-2722 37 -3160 114 -240 42 -313 66 -745 244 -584 242 -1140 499 -1340 622
-178 108 -501 358 -824 637 -548 472 -1047 824 -1411 993 -349 163 -689 265
-955 288 -300 26 -1115 -132 -1455 -282 -146 -65 -545 -325 -850 -554 -240
-180 -323 -248 -560 -459 -402 -357 -712 -584 -1115 -815 -557 -320 -1407
-692 -1715 -750 -197 -37 -389 -40 -2260 -40 -1239 0 -1912 4 -2122 13 -822
32 -1063 74 -1558 269 -208 82 -415 183 -595 291 -173 104 -264 167 -575 397
-330 244 -435 320 -855 615 -198 140 -504 357 -680 484 -444 319 -717 497
-900 586 -202 99 -547 150 -1009 150 -440 0 -671 -33 -924 -132 -125 -49 -651
-309 -797 -393 -212 -122 -314 -202 -583 -452 -236 -221 -540 -467 -757 -615
-413 -282 -1443 -804 -2007 -1018 -319 -122 -625 -164 -1363 -191 -165 -5
-1096 -13 -2070 -16 l-1770 -5 -370 127 c-529 182 -888 329 -1408 576 -668
316 -967 512 -1467 958 -173 155 -402 336 -525 416 -286 187 -987 594 -1230
716 -155 78 -205 91 -405 109 -160 14 -694 21 -826 11z"/>
<path d="M73200 45503 c-246 -3 -684 -21 -815 -34 -84 -8 -124 -17 -170 -38
-86 -40 -158 -109 -197 -188 -28 -57 -33 -77 -33 -142 0 -104 25 -174 108
-301 38 -58 71 -106 72 -108 1 -2 335 -12 741 -22 975 -26 1979 -36 2059 -21
199 37 345 207 345 401 0 67 -26 166 -62 231 -41 78 -137 175 -180 183 -188
34 -985 51 -1868 39z"/>
</g>
</svg>
