<?xml version="1.0" standalone="no"?>
<!DOCTYPE svg PUBLIC "-//W3C//DTD SVG 20010904//EN"
 "http://www.w3.org/TR/2001/REC-SVG-20010904/DTD/svg10.dtd">
<svg version="1.0" xmlns="http://www.w3.org/2000/svg"
 width="1400.000000pt" height="1600.000000pt" viewBox="0 0 1400.000000 1600.000000"
 preserveAspectRatio="xMidYMid meet">

<g transform="translate(0.000000,1600.000000) scale(0.100000,-0.100000)"
fill="#ffffff" stroke="none">
<path d="M6875 15380 c-22 -5 -53 -12 -70 -15 -37 -8 -155 -59 -200 -87 -11
-7 -37 -23 -59 -36 -21 -13 -57 -34 -80 -46 -22 -13 -73 -42 -113 -64 -39 -23
-87 -50 -105 -61 -18 -10 -62 -36 -98 -56 -36 -21 -83 -48 -105 -60 -22 -12
-107 -62 -190 -110 -82 -48 -170 -99 -195 -113 -25 -14 -57 -33 -72 -43 -14
-11 -30 -19 -36 -19 -5 0 -20 -8 -33 -18 -13 -11 -49 -32 -79 -49 -87 -48
-134 -75 -145 -83 -10 -8 -78 -46 -155 -88 -25 -13 -47 -27 -50 -31 -3 -3 -30
-19 -60 -34 -30 -15 -75 -41 -100 -57 -25 -16 -52 -33 -60 -36 -12 -6 -153
-87 -222 -129 -18 -11 -51 -30 -118 -67 -25 -14 -74 -42 -110 -63 -36 -21 -83
-48 -105 -60 -22 -12 -67 -38 -100 -57 -33 -19 -130 -75 -215 -125 -85 -49
-200 -116 -255 -148 -55 -32 -120 -69 -145 -83 -25 -14 -61 -35 -80 -46 -19
-12 -46 -27 -60 -34 -14 -7 -43 -23 -65 -37 -22 -14 -65 -39 -95 -56 -71 -39
-132 -75 -145 -86 -5 -4 -35 -21 -65 -36 -30 -16 -75 -42 -100 -58 -25 -16
-54 -33 -65 -38 -11 -5 -58 -32 -105 -60 -47 -28 -95 -55 -107 -60 -12 -6 -41
-22 -65 -38 -45 -28 -88 -53 -178 -103 -30 -16 -64 -36 -75 -42 -88 -54 -145
-88 -150 -88 -2 0 -28 -15 -57 -34 -29 -18 -80 -48 -113 -65 -33 -18 -85 -47
-115 -66 -30 -19 -61 -37 -69 -41 -7 -4 -52 -30 -100 -57 -47 -28 -131 -76
-186 -107 -55 -31 -123 -70 -151 -87 -27 -17 -70 -41 -95 -55 -47 -27 -261
-151 -294 -171 -11 -7 -48 -34 -82 -60 -120 -93 -203 -218 -259 -392 -19 -59
-19 -132 -19 -3395 0 -3263 0 -3336 19 -3395 79 -244 191 -373 451 -515 44
-24 82 -46 85 -49 3 -4 30 -19 60 -35 30 -16 57 -32 60 -35 5 -6 17 -13 128
-75 40 -23 81 -46 90 -51 20 -12 153 -89 197 -113 16 -9 53 -32 83 -49 29 -18
54 -33 57 -33 3 0 28 -15 57 -34 29 -18 64 -37 78 -41 14 -4 33 -16 43 -26 10
-11 22 -19 27 -19 5 0 33 -15 62 -33 29 -18 64 -39 78 -45 14 -7 41 -23 62
-35 98 -59 149 -87 158 -87 5 0 10 -4 10 -8 0 -4 19 -18 42 -30 24 -13 52 -28
63 -35 11 -7 38 -23 60 -35 22 -12 63 -36 90 -52 28 -16 70 -39 95 -52 25 -13
47 -26 50 -30 5 -6 51 -33 143 -83 26 -14 71 -41 100 -59 29 -18 77 -46 107
-61 30 -15 57 -31 58 -36 2 -5 7 -9 11 -9 6 0 218 -120 454 -257 143 -83 180
-103 188 -103 5 0 9 -4 9 -8 0 -4 12 -13 27 -20 33 -15 69 -36 142 -80 30 -19
63 -38 75 -43 12 -6 38 -20 58 -32 61 -37 239 -140 292 -171 28 -15 62 -35 76
-44 14 -9 39 -23 55 -32 65 -35 131 -74 157 -91 14 -11 30 -19 35 -19 4 0 24
-11 43 -23 19 -13 58 -37 85 -52 81 -46 88 -50 125 -73 19 -12 53 -32 75 -43
22 -12 56 -31 77 -43 20 -11 87 -50 149 -86 61 -36 130 -76 153 -89 23 -13 73
-42 111 -64 39 -22 95 -54 125 -72 30 -18 116 -67 190 -109 74 -42 142 -81
150 -86 8 -5 38 -22 65 -38 28 -16 91 -52 140 -82 322 -190 370 -211 523 -230
102 -13 241 -2 322 26 71 25 169 75 278 142 29 17 56 32 61 32 4 0 19 8 32 19
21 15 60 38 164 95 11 6 27 16 35 22 14 11 96 57 168 95 18 9 38 22 45 27 7 5
32 20 57 33 25 13 47 27 50 30 3 3 30 19 60 35 30 17 71 40 90 51 19 11 67 39
107 62 120 68 136 77 198 113 89 52 207 120 230 133 11 6 46 26 78 45 32 19
70 42 85 50 84 47 190 108 266 154 53 33 97 57 136 78 14 7 48 26 75 43 53 32
70 42 162 93 105 58 124 70 142 86 10 9 22 16 27 16 10 0 172 93 191 109 7 6
14 11 17 11 3 0 46 24 96 53 49 28 102 59 118 67 15 8 62 35 105 60 43 25 95
55 115 66 39 22 57 33 310 180 85 49 177 102 205 117 29 16 63 36 77 45 27 18
36 23 125 72 33 18 65 37 72 42 7 5 27 18 45 27 18 10 62 35 98 56 36 21 80
46 98 56 18 9 38 22 45 27 7 5 37 23 67 39 30 17 91 52 134 78 44 26 89 51
100 56 12 5 41 23 66 39 25 16 52 33 60 37 40 18 245 138 248 145 2 4 8 8 14
8 5 0 37 16 71 37 79 46 171 99 222 128 22 12 67 38 100 57 33 19 133 77 223
129 89 51 190 115 223 142 119 96 206 227 255 382 18 58 19 152 19 3405 0
3245 -1 3347 -19 3405 -24 79 -77 186 -122 246 -42 58 -155 164 -204 190 -19
11 -62 36 -95 55 -33 20 -78 46 -100 59 -22 12 -71 41 -110 64 -38 22 -110 64
-160 92 -49 28 -117 66 -150 86 -76 45 -106 62 -180 103 -57 32 -144 82 -267
156 -31 19 -59 34 -63 34 -4 0 -19 8 -33 19 -15 10 -49 31 -77 46 -81 46 -117
66 -231 134 -60 35 -131 75 -159 90 -27 14 -52 29 -55 32 -3 4 -25 17 -48 30
-24 13 -56 31 -70 40 -15 8 -45 25 -67 37 -22 13 -58 34 -80 47 -22 13 -51 30
-65 37 -14 6 -49 27 -78 45 -29 18 -54 33 -57 33 -3 0 -28 15 -57 33 -30 17
-65 39 -80 47 -24 13 -415 239 -567 328 -31 18 -81 46 -111 63 -30 16 -82 46
-115 65 -85 50 -145 85 -183 105 -18 9 -38 22 -45 27 -7 5 -38 23 -69 40 -32
17 -82 47 -113 66 -30 20 -58 36 -60 36 -3 0 -24 12 -47 26 -23 14 -60 36 -82
48 -59 33 -116 65 -156 89 -40 25 -84 50 -120 69 -14 7 -27 15 -30 18 -8 8
-62 38 -100 56 -19 9 -42 22 -50 29 -8 7 -37 25 -65 40 -27 15 -68 37 -90 50
-22 14 -58 34 -80 47 -22 12 -49 28 -60 35 -11 7 -36 20 -55 30 -19 9 -42 23
-50 29 -8 6 -37 24 -65 39 -27 14 -72 40 -100 57 -27 17 -95 57 -150 88 -55
31 -129 74 -165 95 -36 21 -83 48 -105 60 -50 28 -134 77 -250 145 -174 102
-230 133 -265 148 -19 8 -46 19 -60 25 -88 37 -294 57 -385 37z m206 -541 c24
-12 145 -80 269 -152 124 -72 270 -156 325 -187 55 -31 129 -74 165 -95 36
-21 83 -49 105 -61 22 -13 56 -32 75 -41 19 -10 57 -33 85 -50 27 -18 55 -33
61 -33 7 0 14 -4 16 -8 2 -4 26 -21 53 -36 28 -16 70 -40 95 -54 25 -13 56
-33 70 -42 14 -9 30 -19 35 -21 6 -2 45 -24 88 -49 42 -25 90 -52 105 -60 15
-8 50 -28 77 -45 66 -39 105 -61 135 -77 14 -7 48 -27 77 -45 29 -18 56 -33
62 -33 5 0 16 -6 23 -13 11 -11 84 -55 180 -107 40 -22 211 -119 228 -130 55
-34 207 -123 265 -155 22 -12 69 -39 105 -60 36 -21 110 -63 165 -95 55 -31
119 -68 142 -83 24 -15 45 -27 48 -27 3 0 24 -12 48 -27 23 -14 67 -40 97 -56
30 -16 62 -36 71 -43 8 -8 19 -14 23 -14 4 0 31 -16 61 -35 30 -19 66 -37 80
-41 14 -3 25 -10 25 -15 0 -5 12 -15 28 -21 15 -7 50 -26 77 -43 58 -35 100
-58 135 -76 14 -7 49 -28 78 -46 29 -18 56 -33 60 -33 4 0 14 -6 20 -12 7 -7
42 -29 77 -48 56 -31 272 -155 403 -232 26 -15 72 -41 102 -58 30 -17 100 -58
155 -90 55 -33 111 -65 125 -72 14 -7 53 -29 88 -50 34 -21 65 -38 69 -38 3 0
14 -6 22 -14 9 -7 48 -30 86 -51 39 -21 82 -46 97 -56 14 -11 29 -19 32 -19 4
0 25 -11 47 -26 41 -26 60 -36 164 -94 33 -18 71 -41 84 -51 13 -11 28 -19 33
-19 4 0 37 -18 72 -40 35 -22 67 -40 71 -40 16 0 67 -63 86 -106 19 -45 19
-100 19 -3285 0 -1782 -4 -3247 -8 -3257 -44 -92 -49 -97 -158 -164 -60 -37
-127 -76 -149 -88 -22 -11 -47 -25 -55 -30 -32 -20 -289 -169 -335 -195 -11
-6 -46 -26 -79 -45 -32 -19 -86 -51 -121 -70 -106 -59 -270 -154 -275 -160 -3
-3 -21 -13 -40 -24 -96 -52 -146 -80 -157 -88 -7 -5 -27 -18 -45 -27 -38 -20
-149 -85 -193 -112 -16 -10 -39 -23 -50 -29 -11 -5 -42 -23 -70 -39 -27 -17
-75 -44 -105 -61 -30 -17 -76 -43 -102 -58 -172 -101 -257 -150 -297 -173 -25
-14 -91 -52 -146 -84 -55 -32 -129 -74 -165 -95 -36 -20 -81 -46 -100 -57
-164 -95 -365 -211 -410 -236 -30 -17 -57 -33 -60 -36 -3 -4 -21 -14 -40 -25
-109 -58 -147 -80 -161 -92 -8 -8 -19 -14 -24 -14 -4 0 -31 -14 -59 -32 -28
-17 -64 -39 -81 -48 -16 -10 -59 -35 -95 -55 -36 -21 -80 -46 -98 -56 -18 -9
-38 -22 -45 -27 -7 -5 -39 -24 -72 -42 -33 -18 -76 -43 -96 -54 -20 -12 -68
-39 -105 -60 -38 -22 -70 -43 -72 -48 -2 -4 -8 -8 -13 -8 -8 0 -113 -58 -227
-127 -20 -12 -46 -26 -57 -32 -11 -5 -58 -32 -105 -59 -47 -28 -128 -75 -180
-105 -52 -29 -183 -104 -290 -167 -107 -62 -206 -119 -220 -127 -14 -8 -43
-25 -65 -38 -22 -13 -67 -38 -100 -55 -33 -18 -67 -37 -75 -43 -8 -7 -26 -18
-40 -26 -14 -8 -52 -30 -85 -49 -33 -19 -80 -46 -105 -59 -25 -14 -49 -29 -54
-34 -6 -5 -42 -9 -81 -9 -70 0 -75 2 -164 56 -51 30 -100 58 -109 62 -9 3 -21
10 -27 14 -5 5 -104 63 -220 130 -237 136 -249 143 -348 200 -40 23 -117 67
-172 98 -55 31 -123 70 -151 87 -55 33 -128 74 -189 107 -22 12 -66 38 -97 59
-32 20 -80 49 -109 64 -68 38 -97 54 -139 80 -19 11 -51 30 -70 41 -19 11 -64
37 -100 57 -36 21 -85 49 -110 62 -25 14 -49 28 -55 33 -5 4 -32 20 -60 35
-76 43 -193 111 -355 205 -62 36 -219 127 -235 136 -11 6 -54 30 -95 54 -41
24 -115 66 -165 94 -49 28 -92 54 -93 58 -2 5 -8 8 -13 8 -4 0 -41 19 -81 43
-40 24 -80 46 -88 50 -8 4 -36 20 -61 35 -67 40 -264 155 -296 172 -16 8 -46
26 -68 39 -65 38 -107 63 -151 87 -22 12 -58 33 -80 46 -21 14 -43 27 -49 29
-8 3 -137 77 -225 129 -62 37 -294 170 -335 193 -27 16 -67 39 -87 53 -21 13
-40 24 -43 24 -2 0 -28 15 -57 32 -57 35 -73 45 -165 95 -32 18 -80 46 -108
63 -27 17 -61 36 -75 43 -22 10 -76 42 -145 84 -24 15 -83 49 -225 130 -58 33
-134 77 -170 97 -91 53 -127 81 -158 129 l-27 41 0 3250 c0 1788 2 3260 6
3271 17 62 63 118 120 148 39 20 113 62 149 85 14 9 39 24 55 32 17 9 59 34
95 55 36 21 83 48 105 60 46 26 88 50 355 205 107 62 220 126 250 143 30 16
62 36 71 43 8 8 20 14 25 14 5 0 25 11 44 23 19 13 55 35 80 49 68 38 109 62
170 97 30 18 62 37 70 41 8 5 49 28 90 52 41 23 87 49 102 58 80 46 375 218
406 237 20 12 51 29 67 37 17 9 64 36 105 61 41 24 86 50 100 57 14 7 43 24
65 38 22 15 54 34 70 42 17 8 59 32 95 53 36 21 110 63 165 95 55 31 119 68
142 83 24 15 45 27 48 27 3 0 31 16 61 35 30 19 57 35 59 35 3 0 22 11 43 23
20 13 57 35 82 49 63 35 108 61 155 89 43 25 59 35 152 87 32 18 79 45 105 60
25 15 90 53 145 85 54 32 105 62 113 67 8 5 56 32 105 60 50 28 99 56 110 63
11 6 47 28 80 47 33 20 71 41 85 49 39 19 80 43 138 79 29 17 55 32 58 32 3 0
18 8 32 19 26 18 83 50 168 97 22 12 59 34 82 48 23 14 46 26 52 26 5 0 10 5
10 10 0 6 4 10 9 10 10 0 291 160 536 305 289 172 329 185 416 144z"/>
<path d="M6920 14297 c-153 -90 -346 -201 -385 -222 -22 -13 -69 -39 -105 -60
-36 -21 -83 -48 -106 -60 -22 -13 -59 -35 -82 -49 -23 -14 -44 -26 -47 -26 -3
0 -36 -20 -75 -45 -39 -25 -72 -45 -74 -45 -3 0 -44 -23 -93 -51 -48 -28 -104
-60 -123 -71 -19 -11 -51 -30 -70 -41 -41 -26 -70 -42 -142 -80 -29 -16 -60
-35 -68 -42 -8 -7 -31 -20 -50 -29 -19 -9 -71 -38 -115 -65 -44 -28 -84 -50
-89 -51 -5 0 -17 -6 -25 -14 -9 -7 -41 -27 -71 -43 -30 -17 -122 -70 -205
-118 -82 -48 -170 -99 -195 -113 -25 -13 -72 -41 -105 -60 -33 -19 -105 -61
-160 -92 -55 -31 -127 -73 -160 -92 -101 -59 -447 -259 -495 -285 -25 -14 -57
-34 -72 -44 -14 -11 -29 -19 -34 -19 -4 0 -28 -13 -53 -28 -25 -16 -102 -61
-171 -101 -69 -40 -132 -76 -140 -82 -8 -5 -26 -15 -40 -21 -14 -7 -40 -23
-58 -35 -18 -12 -52 -31 -75 -43 -23 -12 -62 -35 -87 -51 -25 -16 -54 -33 -65
-38 -11 -5 -56 -30 -100 -57 -44 -26 -104 -60 -133 -75 -30 -16 -60 -33 -67
-39 -8 -7 -29 -19 -47 -29 -18 -10 -50 -27 -71 -39 -21 -12 -71 -41 -110 -64
-40 -22 -97 -55 -127 -73 -186 -108 -233 -135 -238 -135 -3 0 -13 -6 -21 -14
-9 -7 -47 -30 -86 -51 -106 -58 -110 -60 -115 -66 -3 -3 -25 -16 -50 -30 -74
-41 -93 -52 -144 -83 -27 -17 -63 -37 -80 -45 l-31 -16 0 -3034 0 -3034 30
-16 c17 -9 59 -34 95 -55 85 -50 121 -72 200 -116 36 -20 81 -46 100 -57 68
-40 276 -160 320 -185 46 -26 123 -72 150 -88 8 -5 57 -33 108 -62 51 -29 101
-58 110 -63 9 -6 35 -21 57 -33 22 -13 58 -34 80 -47 22 -13 51 -30 65 -37 14
-6 49 -27 78 -45 29 -18 56 -33 61 -33 4 0 19 -8 32 -18 21 -17 77 -49 174
-102 17 -9 49 -28 72 -43 24 -15 46 -27 50 -27 5 0 39 -20 76 -45 38 -25 72
-45 75 -46 4 0 48 -25 97 -55 50 -30 104 -61 120 -69 17 -8 64 -35 105 -59 41
-24 118 -69 170 -98 88 -50 375 -217 410 -238 8 -5 41 -24 73 -42 33 -18 74
-42 93 -53 18 -11 62 -35 96 -54 35 -19 86 -48 113 -66 28 -17 57 -34 65 -38
8 -4 33 -18 55 -32 22 -14 51 -31 65 -37 14 -7 43 -24 65 -38 22 -15 54 -34
70 -42 61 -32 101 -55 143 -81 24 -15 53 -32 65 -38 12 -5 42 -22 67 -38 25
-16 70 -42 100 -58 30 -15 57 -31 60 -34 3 -3 23 -16 45 -28 22 -12 54 -30 70
-40 17 -11 62 -36 100 -56 39 -21 77 -44 86 -51 8 -8 18 -14 22 -14 3 0 30
-14 59 -31 74 -44 93 -55 533 -309 165 -95 325 -186 355 -203 30 -16 62 -36
71 -43 18 -16 41 -18 54 -5 6 5 37 24 70 42 33 18 100 57 150 86 49 29 95 53
102 53 7 0 13 4 13 9 0 5 19 19 43 30 23 12 76 42 117 66 41 25 86 50 100 57
14 7 27 15 30 18 3 3 21 14 40 25 19 10 132 75 250 143 118 69 240 138 270
155 30 16 67 38 82 48 14 11 29 19 32 19 3 0 30 16 61 35 30 19 65 40 77 46
13 5 39 20 60 32 20 12 87 51 150 87 62 35 163 94 225 131 61 36 132 76 157
89 25 12 48 26 52 31 3 5 20 16 37 25 35 17 68 35 142 79 28 16 64 37 80 45
17 9 57 33 90 52 86 51 628 365 703 407 35 20 84 48 110 64 26 15 58 33 72 40
14 6 47 27 75 45 27 17 53 32 57 32 4 0 31 15 60 32 67 41 102 61 156 90 23
12 42 26 42 30 0 4 5 8 11 8 6 0 49 23 97 52 48 28 112 64 142 81 30 16 62 35
70 41 8 7 26 18 40 25 32 16 72 39 135 76 57 34 80 47 162 93 32 18 74 43 95
55 60 36 142 83 158 91 8 4 33 18 55 31 22 13 58 34 80 47 22 12 48 27 57 33
15 9 67 39 168 97 25 14 72 42 105 62 33 19 82 47 110 62 27 15 67 37 87 50
l38 24 0 3035 0 3035 -22 9 c-20 8 -122 65 -333 189 -33 19 -80 46 -105 59
-25 14 -49 28 -55 33 -5 4 -32 20 -60 35 -133 75 -263 150 -400 230 -82 48
-175 101 -205 118 -30 16 -60 34 -67 39 -7 5 -27 18 -45 27 -72 38 -154 84
-166 94 -7 5 -25 17 -41 26 -99 55 -189 107 -256 146 -27 17 -62 37 -77 45
-15 8 -58 33 -95 54 -38 22 -81 47 -98 56 -86 49 -211 123 -220 130 -5 4 -30
19 -55 33 -25 13 -74 41 -110 62 -36 21 -83 47 -105 60 -49 27 -338 193 -460
265 -49 29 -115 66 -145 83 -30 16 -60 34 -67 39 -7 5 -27 18 -45 27 -51 27
-132 73 -143 81 -10 8 -37 23 -155 90 -105 59 -136 77 -180 105 -22 14 -51 30
-63 36 -12 5 -42 23 -67 39 -25 16 -52 33 -60 37 -13 5 -152 84 -200 113 -8 5
-37 22 -64 37 -26 15 -69 40 -95 55 -25 15 -71 41 -101 58 -56 31 -86 48 -200
115 -36 21 -78 45 -95 53 -16 9 -32 18 -35 21 -3 3 -25 17 -50 30 -25 13 -89
51 -143 83 -54 32 -128 75 -165 95 -37 20 -72 40 -79 45 -7 5 -27 18 -45 27
-18 10 -62 34 -96 54 -35 21 -67 37 -71 37 -4 0 -40 -20 -81 -43z m149 -836
c14 -11 47 -30 71 -44 25 -13 72 -40 105 -59 53 -31 135 -78 237 -137 18 -10
101 -58 183 -106 83 -48 175 -101 205 -118 30 -16 60 -34 67 -39 13 -10 37
-23 137 -77 33 -17 66 -36 75 -43 19 -15 45 -31 121 -71 30 -16 67 -38 82 -48
14 -11 29 -19 32 -19 3 0 29 -15 58 -33 29 -18 64 -38 78 -45 14 -7 45 -25 70
-40 25 -16 70 -42 100 -59 30 -17 95 -54 143 -82 48 -28 92 -51 97 -51 4 0 10
-4 12 -8 2 -4 26 -21 53 -36 173 -98 449 -257 670 -386 50 -29 105 -61 123
-72 18 -10 66 -37 105 -59 40 -23 88 -50 107 -61 19 -11 51 -30 70 -41 19 -12
47 -29 62 -37 14 -8 54 -31 88 -50 34 -19 74 -42 88 -50 39 -22 154 -90 172
-101 8 -5 26 -14 40 -21 14 -7 32 -17 40 -24 8 -6 40 -25 70 -41 30 -17 123
-70 205 -118 83 -48 195 -113 250 -145 55 -31 129 -74 165 -95 68 -39 104 -60
180 -103 25 -14 65 -37 90 -53 25 -15 70 -41 100 -57 l55 -31 3 -2568 2 -2569
-42 -24 c-24 -14 -55 -31 -69 -40 -14 -8 -70 -41 -125 -73 -54 -32 -106 -62
-114 -67 -8 -5 -57 -33 -108 -62 -52 -29 -110 -62 -130 -74 -20 -11 -59 -33
-87 -49 -27 -15 -54 -31 -60 -35 -5 -5 -37 -23 -70 -40 -33 -18 -67 -39 -76
-46 -8 -8 -20 -14 -25 -14 -5 0 -26 -11 -46 -25 l-37 -25 -390 0 -390 0 22 37
c25 42 25 42 34 143 5 65 10 79 35 102 24 22 41 28 106 33 83 8 90 9 112 18 8
3 44 10 80 17 69 12 227 67 236 82 3 4 9 6 13 3 5 -2 28 6 52 20 24 14 55 30
69 37 165 82 431 345 510 503 11 22 24 47 30 55 23 36 72 152 83 199 6 28 15
51 18 51 4 0 10 24 14 53 4 28 11 57 16 63 6 7 12 57 16 113 3 56 10 101 15
101 4 0 8 295 8 655 0 430 -3 655 -10 655 -6 0 -10 28 -10 63 -1 34 -5 82 -11
107 -5 25 -14 68 -20 95 -5 28 -14 59 -19 70 -5 11 -14 39 -20 62 -6 23 -17
54 -25 70 -8 15 -15 33 -15 40 0 6 -3 13 -7 15 -5 2 -21 28 -36 58 -41 80 -64
116 -129 202 -61 80 -175 199 -218 226 -14 9 -43 31 -66 49 -23 18 -46 33 -53
33 -6 0 -11 4 -11 9 0 9 -239 131 -258 131 -7 0 -20 4 -30 10 -27 15 -166 50
-245 62 -47 7 -463 13 -1185 17 l-1114 6 -19 24 c-10 13 -19 34 -19 47 0 12
-4 25 -9 28 -4 3 -11 28 -13 54 -9 94 -117 208 -218 229 -19 5 -298 8 -620 8
l-585 0 -55 -26 c-61 -29 -150 -117 -150 -148 0 -11 -4 -22 -9 -25 -5 -3 -12
-32 -15 -63 -8 -69 -32 -120 -60 -127 -12 -3 -509 -6 -1105 -6 -638 0 -1097
-4 -1115 -9 -17 -5 -71 -15 -121 -21 -49 -6 -94 -15 -100 -19 -5 -5 -29 -12
-52 -16 -24 -4 -45 -11 -49 -16 -3 -5 -12 -9 -21 -9 -19 0 -197 -85 -238 -114
-16 -11 -42 -28 -57 -36 -66 -36 -224 -180 -293 -266 -41 -51 -75 -98 -75
-103 0 -5 -4 -11 -8 -13 -29 -11 -154 -275 -167 -353 -4 -22 -11 -45 -16 -50
-16 -21 -47 -216 -48 -307 -1 -37 -5 -70 -11 -73 -12 -8 -14 -1135 -2 -1135 5
0 12 -55 16 -122 4 -67 11 -127 15 -132 5 -6 11 -36 15 -66 4 -30 11 -59 15
-65 5 -5 12 -28 16 -50 7 -40 16 -65 61 -162 13 -28 24 -56 24 -62 0 -5 3 -11
8 -13 4 -1 18 -23 31 -48 47 -89 138 -206 235 -302 54 -54 105 -98 112 -98 8
0 17 -7 20 -15 4 -8 12 -15 19 -15 7 0 18 -7 26 -16 12 -15 55 -41 111 -66 16
-7 28 -16 28 -20 0 -4 5 -8 11 -8 7 0 33 -9 58 -21 25 -12 60 -27 76 -35 17
-7 44 -16 60 -20 17 -4 35 -10 40 -14 6 -5 46 -14 90 -21 44 -7 84 -16 90 -21
5 -4 25 -8 46 -8 80 0 130 -13 159 -40 26 -25 30 -35 30 -83 0 -31 5 -59 10
-62 6 -4 9 -19 8 -34 -1 -15 8 -44 20 -64 l21 -37 -405 0 -405 0 -37 25 c-20
14 -40 25 -44 25 -4 0 -27 13 -51 30 -24 16 -55 34 -68 40 -13 5 -53 28 -88
50 -34 22 -65 40 -67 40 -3 0 -23 12 -46 26 -23 14 -60 36 -82 49 -23 12 -70
39 -106 60 -36 20 -80 46 -98 56 -49 28 -158 91 -234 135 l-68 39 0 2568 0
2567 28 13 c15 6 29 14 32 17 3 3 25 16 50 29 25 13 50 28 57 33 7 5 27 18 45
27 65 35 154 85 216 123 34 21 65 38 68 38 3 0 29 16 58 35 29 19 56 35 60 35
3 0 25 12 48 26 23 14 62 38 87 51 66 36 91 51 136 79 22 13 51 29 65 35 13 5
31 16 38 22 8 7 39 26 68 42 29 17 119 68 199 115 80 47 158 92 173 100 77 43
200 114 256 148 21 13 57 34 80 46 22 13 70 40 106 61 36 20 85 49 110 63 25
14 92 53 150 87 58 35 128 74 155 89 28 15 88 50 135 77 47 28 110 65 140 81
30 17 66 38 80 48 14 9 39 24 55 32 17 8 57 31 90 50 33 19 155 90 270 157
116 67 217 126 225 131 8 5 57 33 108 62 52 29 110 63 130 75 20 12 44 25 52
29 8 4 39 22 68 41 29 18 55 33 59 33 3 0 33 17 67 38 34 21 72 43 86 51 44
22 89 48 102 58 7 6 38 24 68 40 30 17 95 53 143 82 49 28 90 51 93 51 2 0 28
15 57 34 53 34 67 42 179 105 32 17 84 47 115 67 64 38 93 39 142 5z m-3050
-4458 c20 -12 33 -28 36 -48 3 -16 4 -740 3 -1607 -3 -1500 -4 -1578 -21
-1595 -15 -15 -33 -18 -110 -16 -50 1 -101 6 -112 12 -11 5 -38 14 -60 19 -89
23 -246 93 -286 128 -8 8 -20 14 -26 14 -15 0 -201 179 -241 232 -52 68 -97
141 -111 178 -7 19 -19 49 -26 65 -7 17 -18 41 -23 55 -6 14 -20 63 -32 110
-20 83 -20 107 -17 835 2 695 4 756 22 835 10 47 22 87 25 90 4 3 11 16 14 30
13 44 69 153 114 220 115 173 350 354 517 400 28 7 55 16 60 21 6 4 36 10 68
14 31 4 60 11 63 16 10 16 111 10 143 -8z m5658 0 c16 -9 34 -28 41 -42 9 -19
12 -391 12 -1586 0 -1402 -2 -1565 -16 -1594 -8 -17 -24 -36 -34 -41 -13 -7
-918 -9 -2673 -8 -2606 3 -2654 3 -2673 22 -19 19 -19 54 -22 1614 l-2 1594
31 29 31 29 2638 0 c2435 0 2641 -1 2667 -17z m488 1 c60 -9 115 -19 120 -24
6 -4 24 -10 40 -14 37 -9 166 -70 220 -105 22 -14 45 -28 52 -31 6 -3 41 -31
78 -63 55 -50 94 -92 197 -217 16 -19 54 -99 112 -231 8 -19 18 -55 22 -80 4
-24 12 -50 18 -58 16 -21 16 -1589 -1 -1622 -6 -13 -17 -49 -24 -79 -7 -30
-16 -62 -20 -70 -4 -8 -25 -51 -45 -95 -37 -79 -95 -167 -127 -194 -10 -7 -17
-18 -17 -24 0 -15 -106 -114 -182 -168 -75 -55 -185 -115 -242 -131 -23 -6
-45 -15 -51 -19 -5 -4 -32 -10 -60 -14 -27 -4 -53 -12 -56 -17 -3 -5 -47 -10
-96 -11 -145 -3 -128 -219 -131 1625 -1 1063 1 1595 8 1608 8 16 50 45 70 49
3 1 54 -6 115 -15z m-1185 -3614 c0 -5 7 -10 16 -10 9 0 18 -9 21 -20 3 -11 9
-20 14 -20 5 0 9 -28 9 -62 1 -77 16 -147 37 -170 15 -17 -77 -18 -2060 -18
l-2077 0 20 33 c11 17 20 46 20 64 0 17 5 35 10 38 6 3 10 27 10 53 0 66 7 85
38 104 25 15 193 16 1985 17 1298 1 1957 -2 1957 -9z m-1712 -717 c142 -86
284 -174 317 -195 33 -21 67 -41 75 -46 9 -4 66 -38 129 -77 145 -90 138 -85
196 -120 28 -16 76 -46 107 -67 31 -21 59 -38 62 -38 3 0 49 -27 103 -61 54
-34 111 -69 127 -78 15 -9 45 -27 65 -40 20 -13 54 -34 76 -46 21 -13 41 -27
42 -31 2 -5 -18 -20 -44 -34 -27 -13 -74 -41 -106 -62 -32 -21 -60 -38 -63
-38 -2 0 -45 -24 -94 -52 -50 -29 -103 -60 -118 -68 -15 -8 -61 -34 -102 -58
-41 -24 -88 -51 -105 -60 -16 -9 -53 -32 -83 -49 -29 -18 -54 -33 -57 -33 -3
0 -29 -16 -59 -35 -30 -19 -58 -35 -61 -35 -5 0 -87 -47 -236 -136 -31 -18
-87 -50 -125 -70 -38 -21 -71 -40 -74 -43 -3 -3 -25 -17 -50 -30 -25 -13 -52
-29 -60 -36 -8 -7 -28 -19 -45 -27 -16 -8 -41 -22 -55 -31 -24 -16 -28 -14
-130 45 -58 33 -112 63 -120 66 -8 3 -17 8 -20 12 -3 3 -25 18 -50 31 -83 47
-209 119 -440 254 -102 59 -194 111 -205 116 -11 5 -40 23 -65 39 -25 16 -72
43 -105 60 -33 18 -66 37 -73 42 -13 11 -41 27 -135 80 -33 18 -72 40 -88 49
-16 9 -34 21 -41 26 -7 6 -40 25 -73 43 -33 17 -61 33 -63 35 -4 3 243 160
433 274 39 23 108 66 155 96 47 29 135 83 195 119 61 37 160 98 220 136 61 38
156 97 213 132 57 35 135 84 175 109 40 25 79 48 87 52 8 4 26 14 40 22 14 8
36 15 48 15 13 0 139 -71 280 -157z"/>
<path d="M5947 11762 c-15 -17 -17 -65 -17 -480 0 -358 -3 -463 -12 -469 -7
-4 -514 -10 -1126 -13 -1212 -5 -1132 -1 -1132 -60 0 -56 -5 -55 318 -60 233
-4 303 -8 315 -19 12 -9 17 -29 17 -68 0 -51 2 -55 34 -74 48 -28 71 -65 55
-86 -8 -9 -15 -53 -17 -108 -4 -83 -2 -98 17 -128 27 -44 58 -64 102 -67 73
-6 91 0 130 39 l39 39 0 103 c0 81 -3 106 -16 120 -15 17 -15 20 0 44 9 13 30
32 46 40 29 15 30 19 30 79 0 51 4 66 18 72 19 10 1123 18 1160 9 21 -5 22 -9
22 -140 0 -73 4 -145 10 -159 l10 -26 1020 0 1020 0 5 23 c2 12 6 81 7 154 2
72 7 135 11 140 5 4 287 8 626 8 490 0 621 -3 633 -13 11 -9 15 -24 11 -50 -5
-43 10 -92 30 -92 7 0 28 -16 47 -35 32 -33 33 -36 17 -53 -14 -15 -17 -39
-17 -120 0 -101 0 -103 33 -138 78 -85 222 -55 248 52 11 49 0 183 -17 208
-11 16 -10 23 7 48 11 15 29 28 38 28 29 0 38 20 43 87 2 35 8 66 12 70 4 5
235 10 513 13 l505 5 19 24 c24 30 24 43 -1 66 -19 18 -82 19 -1379 24 -748 3
-1363 10 -1368 14 -4 5 -10 221 -13 480 l-5 472 -70 6 c-38 4 -496 7 -1016 8
-905 1 -947 0 -962 -17z m-1309 -1437 c4 -89 -4 -95 -115 -95 -77 0 -84 2 -99
25 -12 19 -15 36 -9 72 10 72 14 74 124 71 l96 -3 3 -70z m4970 58 c10 -25 9
-129 -1 -140 -15 -14 -186 -17 -202 -3 -15 13 -22 140 -8 153 3 4 51 7 105 7
85 0 100 -3 106 -17z"/>
<path d="M3442 10784 c-33 -23 -30 -69 7 -88 27 -14 31 -14 55 5 31 25 33 48
6 77 -25 26 -38 27 -68 6z"/>
<path d="M4632 10058 c6 -18 28 -21 28 -4 0 9 -7 16 -16 16 -9 0 -14 -5 -12
-12z"/>
<path d="M9382 10056 c1 -10 8 -17 13 -17 15 1 12 24 -3 29 -9 3 -13 -2 -10
-12z"/>
<path d="M9616 10061 c-4 -5 -2 -12 3 -15 5 -4 12 -2 15 3 4 5 2 12 -3 15 -5
4 -12 2 -15 -3z"/>
<path d="M4410 10050 c0 -5 5 -10 10 -10 6 0 10 5 10 10 0 6 -4 10 -10 10 -5
0 -10 -4 -10 -10z"/>
<path d="M4520 10031 c0 -12 5 -21 10 -21 6 0 10 6 10 14 0 8 -4 18 -10 21 -5
3 -10 -3 -10 -14z"/>
<path d="M9495 10040 c-7 -12 2 -30 16 -30 12 0 12 27 0 35 -5 3 -12 1 -16 -5z"/>
<path d="M4710 9979 c-9 -16 -8 -26 5 -45 8 -13 19 -24 24 -24 13 0 41 35 41
51 0 39 -52 52 -70 18z"/>
<path d="M9687 9994 c-13 -13 -7 -51 9 -65 23 -19 49 1 49 37 0 24 -5 30 -25
32 -14 2 -29 0 -33 -4z"/>
<path d="M4292 9978 c-25 -25 -6 -68 30 -68 33 0 43 53 14 72 -16 11 -30 10
-44 -4z"/>
<path d="M9262 9978 c-27 -27 -6 -68 35 -68 16 0 24 7 29 25 11 43 -34 73 -64
43z"/>
<path d="M4495 9919 c-10 -30 28 -68 53 -53 10 7 17 24 17 40 0 25 -4 29 -32
32 -25 3 -33 -1 -38 -19z"/>
<path d="M9477 9933 c-12 -12 -7 -50 8 -63 8 -6 23 -9 34 -5 25 8 36 41 21 60
-13 15 -51 20 -63 8z"/>
<path d="M4852 9864 c-49 -34 -10 -118 45 -98 15 5 34 21 42 35 13 24 13 29
-2 53 -20 30 -52 34 -85 10z"/>
<path d="M9129 9867 c-33 -17 -38 -68 -10 -96 39 -39 91 -17 91 37 0 50 -40
79 -81 59z"/>
<path d="M9822 9867 c-23 -27 -24 -65 -3 -86 26 -26 41 -26 75 0 30 24 34 59
8 82 -22 20 -65 22 -80 4z"/>
<path d="M4133 9844 c-15 -24 -15 -29 -2 -53 21 -37 63 -50 89 -26 11 10 20
28 20 39 0 63 -74 90 -107 40z"/>
<path d="M4500 9784 c-21 -25 -16 -75 9 -96 31 -24 37 -23 72 11 35 35 35 40
8 75 -23 30 -69 35 -89 10z"/>
<path d="M9470 9781 c-16 -31 -12 -69 10 -91 26 -26 46 -25 75 5 29 28 31 51
9 83 -20 29 -79 31 -94 3z"/>
<path d="M3590 7980 c-128 -7 -253 -18 -387 -36 l-43 -5 0 -616 c0 -616 4
-710 36 -780 8 -17 14 -35 14 -40 0 -4 10 -33 23 -63 20 -49 42 -90 113 -209
76 -127 348 -292 537 -325 l37 -7 0 1041 0 1040 -42 0 c-24 0 -65 2 -93 4 -27
2 -115 0 -195 -4z"/>
<path d="M6765 7983 c-1307 -143 -1416 -151 -1712 -135 -188 10 -466 39 -555
58 l-28 6 0 -1016 0 -1016 2555 0 2555 0 0 1018 0 1019 -87 -13 c-366 -55
-710 -74 -963 -55 -85 7 -402 39 -705 73 -485 53 -578 60 -785 63 -129 2 -253
1 -275 -2z"/>
<path d="M10158 7983 l-28 -4 0 -1039 0 -1038 33 8 c176 45 260 84 387 178
117 87 192 190 274 374 9 20 16 43 16 51 0 9 4 18 9 21 5 4 14 36 20 74 6 37
14 85 17 107 4 22 8 305 8 630 l1 590 -155 17 c-253 28 -509 42 -582 31z"/>
<path d="M6722 4427 c-17 -12 -66 -46 -109 -76 -43 -30 -102 -72 -130 -93
l-53 -39 0 -377 1 -377 105 -75 c58 -41 111 -80 117 -86 21 -19 96 -64 107
-64 6 0 10 67 10 188 0 133 4 192 12 200 18 18 401 17 416 -1 7 -8 12 -86 13
-200 2 -147 5 -187 15 -187 7 0 62 35 121 78 59 43 121 86 136 95 73 47 67 10
67 428 l0 376 -26 19 c-14 10 -31 24 -38 29 -6 6 -21 17 -32 25 -12 8 -49 34
-82 57 -33 23 -66 48 -73 56 -22 21 -69 50 -74 45 -3 -2 -6 -106 -7 -230 -2
-170 -6 -229 -16 -241 -12 -14 -42 -16 -213 -16 -185 0 -199 1 -209 19 -6 11
-10 110 -10 239 0 121 -4 222 -9 225 -5 3 -22 -4 -39 -17z"/>
<path d="M5778 3873 c-23 -6 -24 -49 -1 -57 9 -4 136 -6 283 -6 l268 1 5 25
c2 13 -1 28 -7 33 -12 10 -515 13 -548 4z"/>
<path d="M7667 3873 c-13 -3 -17 -12 -15 -31 l3 -27 268 -3 c166 -1 275 2 286
8 24 12 21 41 -5 51 -20 8 -507 10 -537 2z"/>
<path d="M5937 3693 c-15 -14 -6 -41 16 -47 12 -3 99 -6 194 -6 154 0 173 2
181 18 21 39 9 42 -192 42 -106 0 -196 -3 -199 -7z"/>
<path d="M7654 3685 c-16 -40 -3 -43 185 -45 186 -1 221 5 217 37 -3 16 -21
18 -200 21 -168 2 -197 0 -202 -13z"/>
</g>
</svg>
