<?xml version="1.0" standalone="no"?>
<!DOCTYPE svg PUBLIC "-//W3C//DTD SVG 20010904//EN"
 "http://www.w3.org/TR/2001/REC-SVG-20010904/DTD/svg10.dtd">
<svg version="1.0" xmlns="http://www.w3.org/2000/svg"
 width="368.000000pt" height="701.000000pt" viewBox="0 0 368.000000 701.000000"
 preserveAspectRatio="xMidYMid meet">

<g transform="translate(0.000000,701.000000) scale(0.100000,-0.100000)"
fill="#014e87" stroke="none">
<path d="M1676 2585 c-96 -20 -159 -42 -246 -85 -434 -217 -618 -750 -410
-1188 75 -158 160 -256 335 -387 172 -129 267 -240 390 -455 82 -144 107 -145
186 -7 124 218 234 345 409 474 204 150 320 315 377 532 34 130 36 306 5 434
-80 327 -332 582 -657 668 -104 27 -293 34 -389 14z m300 -546 c267 -100 317
-466 88 -642 -57 -43 -155 -77 -224 -77 -69 0 -167 34 -224 77 -178 137 -197
401 -39 558 106 107 255 138 399 84z"/>
</g>
</svg>
