<?xml version="1.0" standalone="no"?>
<!DOCTYPE svg PUBLIC "-//W3C//DTD SVG 20010904//EN"
 "http://www.w3.org/TR/2001/REC-SVG-20010904/DTD/svg10.dtd">
<svg version="1.0" xmlns="http://www.w3.org/2000/svg"
 width="520.000000pt" height="472.000000pt" viewBox="0 0 520.000000 472.000000"
 preserveAspectRatio="xMidYMid meet">

<g transform="translate(0.000000,472.000000) scale(0.100000,-0.100000)"
fill="#6c757d" stroke="none">
<path d="M885 4564 c-206 -32 -394 -173 -490 -367 -27 -54 -42 -104 -56 -186
-18 -110 -18 -113 1 -225 24 -142 81 -290 177 -459 112 -199 324 -505 421
-609 76 -81 98 -72 225 95 240 314 382 555 475 802 42 114 45 126 50 251 6
158 -4 206 -64 332 -94 195 -280 333 -494 367 -111 17 -125 17 -245 -1z m205
-284 c114 -22 230 -110 291 -222 33 -61 34 -66 34 -178 0 -104 -3 -121 -27
-172 -31 -67 -105 -149 -164 -184 -51 -30 -165 -64 -214 -64 -48 0 -180 42
-221 70 -98 67 -151 143 -180 259 -18 71 -19 88 -9 138 22 103 49 161 105 222
104 112 240 158 385 131z"/>
<path d="M3800 3854 c-309 -56 -439 -105 -598 -227 -180 -139 -309 -326 -383
-557 -34 -105 -34 -105 -34 -300 1 -210 4 -228 82 -475 111 -348 394 -891 726
-1390 189 -285 223 -325 275 -325 46 0 70 27 214 236 319 467 589 958 742
1354 41 106 82 247 111 378 24 109 27 137 23 255 -6 165 -37 286 -113 442
-148 303 -420 512 -756 580 -119 25 -244 37 -289 29z m280 -505 c102 -35 199
-99 275 -181 68 -74 107 -139 142 -243 38 -110 40 -265 4 -370 -39 -116 -90
-203 -161 -274 -80 -82 -162 -132 -277 -173 -119 -41 -251 -44 -363 -10 -215
67 -371 208 -451 407 -24 61 -31 97 -36 179 -7 132 8 218 57 320 149 311 490
455 810 345z"/>
<path d="M980 2488 c-31 -16 -38 -59 -14 -79 27 -22 156 -19 183 5 25 22 27
49 6 66 -22 19 -144 24 -175 8z"/>
<path d="M1518 2489 c-69 -27 -34 -90 54 -96 74 -6 132 14 136 48 2 14 -4 31
-13 39 -20 16 -142 23 -177 9z"/>
<path d="M2017 2403 c-4 -3 -7 -20 -7 -36 0 -22 11 -40 48 -73 81 -75 133 -82
140 -19 6 47 -93 135 -151 135 -13 0 -27 -3 -30 -7z"/>
<path d="M2254 1913 c-9 -20 -18 -61 -21 -90 -6 -60 6 -83 43 -83 30 0 54 44
61 114 7 64 -8 96 -43 96 -19 0 -28 -8 -40 -37z"/>
<path d="M1955 1497 c-86 -38 -95 -45 -95 -77 0 -55 57 -62 145 -18 55 28 75
47 75 73 0 49 -44 57 -125 22z"/>
<path d="M1413 1430 c-54 -13 -83 -37 -83 -70 0 -36 27 -46 96 -36 68 9 124
41 124 71 0 41 -54 55 -137 35z"/>
<path d="M1068 1120 c-21 -13 -58 -110 -58 -153 0 -18 5 -38 12 -45 17 -17 53
-15 70 6 18 19 48 118 48 154 0 42 -34 60 -72 38z"/>
<path d="M1117 613 c-4 -3 -7 -22 -7 -41 0 -29 9 -44 54 -89 47 -47 59 -54 88
-51 29 3 33 7 36 36 3 30 -4 41 -56 93 -55 56 -94 73 -115 52z"/>
<path d="M1597 392 c-23 -25 -21 -59 2 -72 11 -5 52 -10 91 -10 83 0 110 11
110 45 0 38 -35 55 -116 55 -56 0 -74 -4 -87 -18z"/>
<path d="M2130 390 c-24 -24 -24 -29 -4 -58 14 -20 24 -22 103 -22 72 0 91 3
104 18 22 24 21 38 -3 62 -17 17 -33 20 -100 20 -67 0 -83 -3 -100 -20z"/>
<path d="M2672 394 c-26 -18 -28 -46 -6 -68 12 -12 36 -16 100 -16 70 0 87 3
104 20 21 21 18 46 -8 68 -24 18 -162 16 -190 -4z"/>
<path d="M3228 399 c-33 -19 -41 -46 -18 -69 17 -17 33 -20 99 -20 59 0 84 4
95 16 22 22 20 50 -6 68 -26 18 -142 22 -170 5z"/>
<path d="M3762 394 c-26 -18 -28 -46 -6 -68 24 -24 165 -22 187 2 43 47 3 82
-93 82 -43 0 -73 -5 -88 -16z"/>
</g>
</svg>
