<?xml version="1.0" standalone="no"?>
<!DOCTYPE svg PUBLIC "-//W3C//DTD SVG 20010904//EN"
 "http://www.w3.org/TR/2001/REC-SVG-20010904/DTD/svg10.dtd">
<svg version="1.0" xmlns="http://www.w3.org/2000/svg"
 width="576.000000pt" height="722.000000pt" viewBox="0 0 576.000000 722.000000"
 preserveAspectRatio="xMidYMid meet">

<g transform="translate(0.000000,722.000000) scale(0.100000,-0.100000)"
fill="#d4d4d4" stroke="none">
<path d="M406 7118 c-20 -142 -37 -321 -30 -327 5 -4 41 -31 80 -59 77 -56
166 -146 256 -258 58 -72 168 -229 168 -240 0 -3 8 -18 19 -32 36 -51 130
-249 156 -328 62 -190 74 -313 40 -423 -34 -114 -104 -159 -203 -132 -25 6
-62 24 -84 39 -41 28 -69 73 -438 700 -78 133 -145 241 -147 239 -4 -4 -25
-144 -41 -277 -10 -79 -4 -100 28 -100 26 0 131 -80 172 -131 47 -59 142 -213
273 -444 133 -233 194 -326 229 -344 34 -18 160 -19 341 -3 85 8 182 10 248 6
l108 -7 39 -68 c22 -37 40 -70 40 -74 0 -3 -14 -24 -32 -46 -49 -61 -23 -87
68 -65 30 7 33 5 63 -48 17 -31 31 -60 31 -65 0 -8 -113 -77 -245 -151 -22
-12 -80 -46 -130 -75 -246 -144 -334 -195 -380 -221 -133 -75 -228 -174 -285
-296 -63 -136 -61 -80 -58 -1254 l3 -1069 34 -80 c41 -98 104 -189 170 -247
28 -24 135 -92 238 -152 103 -60 247 -143 318 -184 72 -42 182 -106 245 -143
63 -37 138 -79 165 -94 28 -15 86 -49 130 -75 44 -25 145 -84 225 -130 80 -46
205 -119 278 -162 241 -141 317 -168 474 -168 158 0 214 20 488 180 63 36 180
104 260 150 80 46 192 111 250 145 58 34 125 73 150 87 25 14 117 67 205 118
88 50 266 153 395 227 282 163 304 177 364 244 92 102 145 220 165 364 15 106
14 1938 0 2045 -20 142 -74 259 -169 363 -54 60 -102 92 -320 217 -285 164
-407 234 -520 300 -63 37 -137 80 -165 95 -75 42 -302 173 -368 212 -66 40
-65 39 -138 255 l-49 147 14 88 c24 148 64 254 112 293 41 34 136 304 150 425
l7 57 -34 -7 c-46 -10 -143 -49 -194 -79 -54 -32 -155 -114 -155 -127 0 -5 22
-9 48 -9 112 0 102 -97 -21 -197 -48 -40 -62 -40 -106 -3 l-35 30 24 57 c13
31 45 95 71 142 54 98 51 104 -38 76 -54 -17 -143 -62 -143 -72 0 -3 10 -13
21 -22 18 -14 20 -21 11 -37 -14 -26 -83 -74 -106 -74 -29 0 -14 60 34 143 22
38 40 77 40 85 0 47 -99 248 -187 380 -42 64 -58 80 -68 72 -49 -40 -215 -345
-233 -428 -8 -36 -7 -46 10 -67 23 -29 78 -148 78 -169 0 -25 -28 -25 -67 1
-65 44 -83 86 -42 102 21 7 21 8 -5 29 -47 36 -215 91 -205 66 2 -5 32 -64 67
-132 34 -68 62 -130 62 -139 0 -18 -53 -73 -71 -73 -38 0 -146 111 -155 159
-10 51 4 65 71 71 l59 5 -65 64 c-86 87 -286 231 -319 231 -14 0 -13 -15 10
-121 22 -104 33 -147 79 -291 34 -109 43 -129 66 -148 50 -41 107 -233 108
-360 1 -84 -10 -134 -64 -306 l-19 -60 -113 -66 c-61 -36 -134 -78 -162 -93
-27 -16 -59 -34 -70 -41 -34 -24 -49 -16 -83 41 l-33 55 30 37 c54 65 36 94
-46 76 l-44 -10 -44 75 -45 76 61 115 c34 64 91 160 128 214 137 202 159 249
147 308 -5 27 -74 149 -266 469 -109 182 -182 326 -200 393 -7 28 -11 76 -8
116 l5 69 -173 69 c-96 39 -174 68 -174 66 0 -2 61 -108 136 -236 303 -515
378 -643 391 -667 18 -34 17 -163 -2 -199 -8 -16 -28 -40 -45 -55 -61 -51
-199 -29 -319 50 -119 79 -276 259 -391 449 -143 237 -259 556 -260 713 0 52
-1 53 -37 68 -21 8 -47 19 -58 24 -11 5 -65 28 -120 51 -55 22 -105 43 -112
46 -7 3 -14 -8 -17 -29z m2633 -873 c74 -153 77 -167 51 -255 -28 -95 -37
-205 -20 -267 13 -48 53 -103 75 -103 7 0 20 -10 31 -21 l19 -21 -40 5 c-22 4
-85 9 -141 13 -85 5 -103 3 -117 -10 -11 -11 -18 -13 -23 -5 -4 8 -26 9 -65 5
-70 -8 -73 7 -6 39 38 18 44 27 64 85 13 36 23 79 23 96 0 33 -32 182 -49 230
-10 26 -9 39 7 80 20 49 72 159 106 223 21 40 19 43 85 -94z m695 -222 c-27
-122 -95 -271 -148 -325 -57 -58 -79 -48 -40 17 60 101 65 115 62 168 -2 42
-7 54 -26 63 l-24 12 36 27 c45 35 105 65 128 65 15 0 17 -5 12 -27z m-2185
-491 c51 -41 75 -87 75 -142 0 -84 -51 -154 -130 -180 -107 -36 -234 59 -234
173 0 42 22 101 48 131 56 62 175 71 241 18z m1241 -76 c33 -11 48 -12 58 -4
10 9 26 -1 72 -47 48 -48 60 -55 66 -42 3 9 29 35 56 57 38 30 54 37 64 29 8
-7 19 -7 31 -1 27 15 113 26 113 15 0 -6 19 -15 43 -22 81 -24 152 -90 172
-161 7 -24 5 -23 -29 9 -26 25 -36 30 -36 19 0 -9 5 -20 10 -23 6 -4 20 -25
31 -47 18 -36 19 -40 4 -34 -14 5 -16 2 -10 -11 28 -67 29 -72 16 -96 -10 -18
-10 -37 -1 -85 14 -78 1 -110 -69 -167 -49 -41 -94 -95 -86 -104 3 -2 14 4 25
14 19 18 20 17 20 -5 0 -40 -34 -140 -47 -140 -7 0 -13 7 -13 15 0 8 -27 36
-59 62 -62 50 -71 63 -46 63 11 0 4 15 -21 50 -37 52 -48 61 -37 34 8 -22 -16
-35 -52 -28 -24 4 -35 0 -54 -20 -31 -33 -42 -32 -74 0 -22 22 -32 25 -62 20
-27 -5 -37 -3 -41 8 -6 17 25 76 40 76 5 0 7 3 3 6 -5 5 36 88 54 108 4 5 24
10 44 11 33 2 38 -2 53 -31 15 -33 37 -44 44 -24 2 6 22 -5 45 -25 26 -22 52
-35 69 -35 l28 0 -22 16 c-34 24 -26 34 26 34 41 0 57 6 103 40 30 23 55 45
57 49 4 11 -65 71 -80 71 -8 0 -9 3 -2 10 7 7 23 5 50 -6 l39 -16 -30 32 c-36
38 -76 60 -107 60 -13 -1 -59 -18 -103 -40 -76 -36 -81 -37 -95 -20 -14 16
-16 15 -31 -24 -25 -64 -80 -61 -94 5 -8 33 -13 36 -30 12 -11 -15 -15 -15
-46 4 -40 24 -146 66 -165 66 -7 0 -11 5 -7 10 3 5 -8 6 -28 2 -33 -7 -33 -7
-18 11 9 11 21 47 27 82 12 67 70 201 81 184 3 -6 26 -17 51 -26z m796 -541
c48 -127 116 -232 234 -360 161 -174 226 -278 243 -387 5 -32 3 -38 -12 -38
-24 0 -39 19 -47 61 -14 74 -87 197 -180 304 -84 97 -193 244 -229 310 -45 79
-64 135 -76 213 -12 80 1 104 19 37 7 -27 29 -91 48 -140z m-771 129 c55 -32
49 -45 -24 -52 -38 -3 -60 1 -95 18 -25 12 -46 26 -46 31 0 5 -1 12 -2 16 -4
11 52 22 89 18 18 -2 53 -16 78 -31z m479 16 c22 -22 -59 -70 -117 -70 -45 0
-90 17 -82 30 4 6 27 21 53 35 38 20 56 24 92 19 25 -3 49 -10 54 -14z m-1550
-84 c26 -45 32 -66 18 -66 -8 0 -62 86 -62 100 0 23 20 7 44 -34z m130 -61
c-9 -23 -195 -135 -224 -135 -19 0 -10 23 20 50 37 33 165 100 191 100 12 0
16 -5 13 -15z m79 -292 c58 -98 115 -196 127 -218 12 -22 64 -110 115 -195 50
-85 118 -200 150 -255 32 -55 107 -181 165 -280 102 -172 150 -258 150 -270 0
-3 -4 -5 -9 -5 -8 0 -56 78 -389 645 -74 127 -192 327 -262 445 -120 203 -170
292 -170 305 0 26 33 -21 123 -172z m1551 107 c18 -33 49 -81 123 -190 43 -65
79 -180 56 -180 -5 0 -17 21 -27 48 -11 26 -44 84 -73 129 -51 78 -101 176
-118 233 -7 21 -6 22 6 9 8 -8 23 -30 33 -49z m-989 -139 c-13 -37 -27 -99
-30 -137 -4 -38 -8 -80 -11 -93 -5 -21 -3 -23 10 -12 9 8 16 18 16 25 0 14 63
106 73 106 4 0 -3 -21 -16 -47 -43 -85 -60 -183 -54 -297 5 -89 4 -97 -8 -70
-7 17 -16 55 -19 85 -4 30 -14 93 -23 140 -15 79 -15 93 -1 166 15 77 35 132
66 181 23 36 22 26 -3 -47z m508 24 c29 -25 57 -45 63 -45 13 0 77 -68 95
-101 10 -20 8 -25 -16 -46 -22 -19 -30 -21 -42 -12 -20 17 -45 68 -39 78 11
17 -128 28 -193 15 -21 -5 -31 -12 -31 -25 0 -10 -12 -32 -27 -49 -27 -29 -29
-30 -50 -15 -13 9 -23 24 -23 33 0 29 53 93 105 126 27 18 61 45 75 59 14 15
27 27 28 27 2 0 27 -20 55 -45z m450 -73 c35 -97 25 -311 -21 -454 l-17 -53
-5 130 c-5 112 -10 139 -34 195 -43 100 -44 110 -7 70 18 -19 41 -52 52 -72
11 -21 22 -38 25 -38 12 0 -8 171 -27 232 -10 35 -19 70 -19 78 0 24 30 -26
53 -88z m-1363 68 c0 -16 -61 -80 -71 -74 -19 11 -8 35 29 58 44 29 42 29 42
16z m1884 -89 c253 -148 409 -238 635 -367 256 -146 331 -203 386 -289 71
-111 69 -96 73 -655 3 -562 7 -536 -63 -405 -20 39 -50 90 -65 115 -15 25 -61
104 -102 175 l-75 130 -12 110 c-24 214 -68 396 -118 487 -52 96 -178 180
-333 222 -36 10 -85 25 -109 32 -25 8 -52 14 -62 14 -22 0 -29 20 -29 79 0 97
-62 217 -179 344 -35 37 -59 67 -55 67 4 0 53 -27 108 -59z m-2085 -85 l25
-44 -33 -72 c-20 -47 -34 -97 -39 -143 l-7 -72 -105 -27 c-58 -16 -128 -35
-157 -43 -71 -19 -177 -73 -225 -114 -81 -70 -126 -176 -175 -416 -14 -73 -18
-140 -19 -350 0 -234 -3 -268 -22 -341 -42 -158 -93 -446 -94 -534 0 -39 6
-79 15 -101 12 -27 14 -49 7 -95 -4 -32 -4 -99 1 -148 8 -76 7 -93 -7 -114
-26 -39 -22 -91 11 -143 l28 -47 72 -6 c44 -4 92 -16 122 -31 28 -13 77 -31
109 -40 72 -20 270 -30 386 -21 l87 8 52 68 c29 38 57 67 62 63 24 -15 -11
-106 -154 -397 -84 -171 -154 -313 -155 -315 -2 -2 -22 8 -46 21 -551 317
-611 353 -661 405 -55 56 -111 160 -126 236 -8 36 -11 363 -9 1077 l3 1025 26
61 c34 79 97 162 153 202 25 18 114 72 198 121 370 213 488 281 558 324 41 25
80 46 85 46 6 1 21 -19 34 -43z m1399 -211 c6 -38 13 -87 16 -107 6 -46 -18
-218 -39 -278 -25 -69 -82 -179 -126 -240 -21 -30 -39 -50 -39 -44 0 6 20 54
44 105 93 197 120 326 114 537 -3 115 -2 139 8 120 6 -13 16 -54 22 -93z
m-615 34 c-14 -35 -17 -76 -17 -204 0 -140 3 -168 22 -222 25 -71 26 -77 11
-68 -11 8 -50 89 -70 150 -17 52 -17 208 0 260 24 71 59 139 69 131 1 -2 -6
-23 -15 -47z m1135 -85 c31 -20 80 -56 107 -80 32 -27 67 -46 95 -53 25 -6 86
-19 135 -30 155 -35 268 -81 335 -138 54 -45 105 -175 176 -452 33 -129 64
-317 64 -393 0 -21 4 -38 9 -38 5 0 12 17 16 38 l7 37 28 -34 c37 -44 144
-253 162 -316 12 -39 12 -62 4 -105 l-11 -54 -125 -17 c-125 -17 -263 -52
-353 -90 -27 -11 -53 -19 -58 -17 -16 5 68 134 97 147 39 17 142 40 189 42
l40 1 -49 12 -48 12 -24 82 c-28 96 -73 194 -125 272 -35 53 -149 170 -166
170 -4 0 -16 7 -26 14 -15 11 -18 34 -22 144 -3 71 -9 140 -14 153 -8 22 -11
19 -39 -41 -92 -192 -172 -306 -272 -389 -139 -116 -274 -152 -429 -116 -73
17 -120 28 -324 77 l-138 33 -34 63 c-19 34 -35 71 -35 81 0 10 -18 46 -40 79
-29 44 -40 70 -40 98 0 46 -30 100 -64 115 -28 13 -89 120 -84 146 2 13 18 5
68 -38 75 -64 126 -142 136 -208 8 -55 55 -160 84 -186 20 -18 20 -18 20 32 0
88 44 188 131 300 73 93 116 165 148 243 15 39 31 74 36 78 11 11 -3 -90 -20
-139 -9 -23 -13 -45 -9 -48 9 -9 41 39 89 133 l45 89 -5 -74 c-6 -78 -4 -78
35 16 17 42 27 53 63 67 73 30 192 48 309 48 106 0 149 -7 267 -45 12 -3 21
-2 21 3 0 13 -124 68 -194 86 -33 8 -64 22 -68 30 -15 27 -89 110 -137 153
-57 52 -39 55 37 7z m-1735 -47 c6 -17 -89 -137 -109 -137 -46 0 -256 -91
-242 -105 2 -3 33 8 68 22 56 23 83 27 197 31 206 7 184 20 299 -176 53 -92
131 -223 171 -292 57 -97 73 -131 68 -150 -3 -14 -10 -65 -16 -115 -5 -49 -17
-126 -27 -169 -17 -78 -17 -79 -57 -93 -151 -54 -330 -7 -476 125 -127 115
-227 283 -249 420 -7 39 -15 72 -19 72 -24 0 -249 -225 -354 -353 l-72 -88 -7
43 c-9 58 7 276 27 363 22 98 62 220 90 274 24 47 59 84 108 115 61 38 237 93
404 126 50 10 71 21 110 56 49 44 77 54 86 31z m377 -296 c0 -11 -4 -9 -15 5
-8 10 -15 25 -15 33 0 11 4 9 15 -5 8 -10 15 -25 15 -33z m109 -51 c6 0 8 8 5
18 -4 9 3 2 15 -16 12 -18 21 -35 21 -38 0 -13 74 -118 125 -179 31 -36 55
-68 53 -69 -19 -15 -98 -66 -101 -66 -7 0 -137 219 -137 230 0 5 7 7 15 4 13
-5 13 -2 1 27 -8 19 -17 57 -20 84 -5 37 -4 44 4 28 5 -13 14 -23 19 -23z
m258 -402 c14 -18 23 -72 15 -84 -4 -6 -28 -25 -54 -43 -27 -17 -48 -34 -48
-35 0 -4 43 6 103 24 20 6 41 9 46 6 4 -3 14 -27 21 -52 13 -47 13 -47 -16
-71 -16 -12 -32 -23 -36 -23 -5 0 -8 -4 -8 -10 0 -5 18 -3 40 5 52 18 66 12
85 -40 22 -57 17 -76 -28 -100 l-38 -20 -19 25 c-30 40 -51 62 -56 58 -7 -8
42 -116 69 -151 19 -26 27 -48 27 -77 0 -37 -6 -47 -57 -99 -38 -37 -84 -69
-133 -93 -114 -55 -113 -55 -124 25 -9 70 -14 77 -94 123 -2 1 4 30 12 65 8
35 29 141 46 234 46 249 43 242 125 297 71 48 105 58 122 36z m-1204 -146 c36
-222 26 -451 -25 -594 -23 -65 -10 -58 -178 -94 -149 -31 -184 -54 -238 -157
-11 -21 -23 -34 -26 -29 -16 27 36 309 96 520 19 66 38 54 39 -25 1 -76 2 -75
43 75 45 162 103 255 195 314 64 40 87 38 94 -10z m1614 -348 c26 -14 65 -44
87 -66 l39 -40 -6 -74 c-8 -88 -25 -134 -61 -160 -25 -18 -26 -22 -17 -67 4
-26 6 -49 2 -51 -4 -3 -20 19 -35 47 -16 29 -57 100 -92 158 -35 59 -64 114
-64 122 0 8 7 28 15 43 8 16 15 43 15 60 0 60 40 70 117 28z m631 -79 c17 -21
22 -38 22 -85 0 -65 -21 -158 -52 -229 -51 -116 -91 -362 -87 -524 3 -100 -7
-123 -42 -91 -23 21 -23 9 -3 261 4 45 3 121 -2 170 l-8 88 -8 -95 c-10 -114
-33 -226 -55 -260 -23 -36 -65 -80 -77 -80 -6 0 -30 35 -53 76 -41 72 -42 77
-28 104 8 16 20 32 26 36 22 13 69 99 69 125 0 25 -5 21 -71 -47 -40 -40 -75
-71 -79 -69 -4 3 -26 36 -49 74 l-41 69 0 106 c0 96 2 105 20 111 27 9 35 26
56 123 15 69 22 87 46 103 15 11 33 17 39 13 19 -11 3 -81 -36 -162 -33 -66
-38 -87 -41 -161 -1 -47 0 -75 3 -61 7 35 57 144 91 199 16 25 37 69 47 96 32
86 65 112 180 139 46 11 110 -4 133 -29z m215 -113 c13 -64 52 -147 113 -238
62 -92 64 -98 47 -116 -15 -17 -15 -24 -4 -69 14 -53 14 -53 -28 -319 l-17
-105 -44 -17 c-105 -40 -157 -58 -183 -64 l-27 -6 6 71 c7 71 -11 195 -26 186
-4 -3 -11 -24 -14 -47 -9 -54 -42 -119 -50 -98 -13 33 -29 119 -33 180 -8 108
30 298 84 420 25 57 151 250 164 250 3 0 9 -12 12 -28z m-1541 -58 c4 -3 8
-27 8 -53 0 -60 -8 -71 -159 -208 -269 -247 -511 -414 -830 -574 l-153 -77 48
-15 c56 -18 163 -42 248 -57 33 -5 62 -12 64 -15 13 -13 -173 -3 -291 15 -199
31 -177 14 -177 141 0 189 42 380 113 513 34 64 43 70 192 120 215 73 476 122
675 128 97 2 109 6 81 28 l-22 16 45 42 45 42 53 -21 c28 -11 56 -23 60 -25z
m630 -104 c14 -25 89 -152 167 -284 77 -131 141 -240 141 -242 0 -8 95 -159
102 -162 4 -2 8 -8 8 -14 0 -5 18 -40 40 -77 42 -70 46 -81 31 -81 -5 0 -22
21 -37 48 -15 26 -30 49 -34 52 -4 3 -14 19 -23 35 -25 46 -271 470 -376 647
-51 86 -90 162 -86 168 7 12 17 -2 67 -90z m-49 -174 c53 -92 75 -139 70 -151
-4 -12 -3 -16 4 -12 6 4 19 -3 29 -14 15 -16 18 -34 17 -76 -3 -65 -26 -107
-86 -158 -58 -50 -97 -46 -165 18 l-33 32 -22 -27 c-25 -30 -76 -58 -107 -58
-13 0 -45 24 -79 58 -54 53 -59 63 -70 123 -6 36 -11 80 -11 98 l0 32 31 -16
c40 -21 52 -9 16 17 -31 23 -61 74 -52 88 3 6 21 10 40 10 53 0 138 37 188 81
46 39 46 40 58 18 11 -21 12 -22 22 -3 11 22 58 74 66 74 3 0 41 -61 84 -134z
m1951 -1 c-1 -156 -27 -301 -66 -360 -52 -78 -519 -535 -547 -535 -4 0 -11 23
-14 51 -4 28 -18 71 -32 96 -13 25 -22 50 -18 57 7 11 125 192 338 516 170
260 170 260 150 260 -35 0 -270 -63 -341 -91 -41 -17 -78 -28 -81 -25 -4 3 1
6 9 6 9 0 18 4 20 8 4 12 102 56 178 80 125 40 245 60 345 58 l60 -1 -1 -120z
m-3743 -7 c-55 -104 -76 -170 -114 -358 l-13 -65 -12 40 c-7 22 -12 57 -12 79
l0 38 -20 -23 c-27 -33 -25 -21 15 106 47 148 84 211 138 236 23 10 45 19 49
19 5 0 -9 -33 -31 -72z m1116 -200 c5 -7 25 -49 43 -93 19 -44 42 -90 51 -103
l18 -23 3 33 c4 48 28 46 91 -9 55 -49 130 -83 180 -83 15 0 50 11 78 25 l51
24 49 -24 c26 -14 64 -25 83 -25 48 0 135 40 183 84 48 43 60 45 75 9 7 -16
22 -41 34 -58 12 -16 32 -50 46 -75 13 -25 36 -64 51 -87 15 -24 27 -48 27
-55 0 -14 -128 -148 -141 -148 -4 0 -9 17 -11 37 l-3 37 -47 -62 c-67 -92
-173 -166 -285 -202 -100 -31 -290 64 -389 195 l-49 66 -5 -42 -5 -43 -61 57
c-33 32 -83 87 -110 122 -26 36 -54 65 -60 65 -16 0 -23 55 -9 74 21 28 63 17
114 -28 22 -19 24 -20 17 -2 -11 33 -93 149 -125 180 -17 17 -31 34 -31 40 0
11 110 126 121 126 4 0 11 -6 16 -12z m2631 -380 c-5 -145 -7 -157 -38 -233
-49 -118 -131 -195 -320 -302 -80 -45 -216 -122 -302 -172 -87 -50 -164 -91
-171 -91 -8 0 -19 12 -26 26 -10 23 -8 30 16 61 66 83 121 168 152 231 27 55
44 75 94 112 34 25 105 81 157 124 94 78 143 124 330 304 52 50 99 92 104 92
5 0 7 -67 4 -152z m-826 -57 c59 -43 119 -122 138 -185 27 -84 -11 -181 -128
-327 -81 -101 -225 -245 -266 -266 -34 -18 -159 -29 -200 -19 -13 3 -34 20
-46 37 -21 29 -21 31 -4 50 21 23 13 35 -14 20 -16 -8 -25 -6 -46 10 -35 27
-33 43 9 75 l36 27 33 -32 c25 -24 36 -45 41 -78 3 -24 15 -53 27 -65 21 -21
38 -18 20 4 -5 7 -17 36 -25 63 -8 28 -25 67 -38 87 -13 19 -28 43 -34 52 -9
14 -15 12 -57 -14 -59 -37 -65 -37 -100 -3 -38 36 -35 56 12 93 53 42 51 54
-6 30 -71 -31 -89 -27 -114 25 -29 60 -18 89 70 185 l70 75 0 -48 c0 -44 22
-95 51 -117 16 -13 29 -53 29 -92 0 -24 5 -50 10 -58 7 -10 10 12 10 70 -1 70
-5 94 -25 135 -48 98 -25 171 60 193 22 6 67 18 100 27 33 10 74 21 90 25 17
5 71 19 120 33 50 14 97 25 106 26 9 1 40 -17 71 -38z m-1915 -158 c-2 -27 -3
-5 -3 47 0 52 1 74 3 48 2 -27 2 -69 0 -95z m94 -195 c191 -128 363 -321 448
-501 34 -73 81 -209 81 -235 0 -31 17 4 44 86 35 113 97 237 163 330 51 71
224 252 241 252 5 0 16 -18 26 -41 10 -22 24 -43 32 -46 18 -7 18 -27 -2 -64
-14 -28 -14 -35 2 -82 9 -29 23 -59 30 -68 21 -24 17 -37 -14 -44 -36 -7 -79
9 -114 42 -35 33 -44 26 -23 -19 33 -68 111 -96 175 -63 l29 15 35 -53 c20
-28 46 -63 59 -77 31 -35 103 -90 117 -90 23 0 -2 -20 -86 -70 -47 -27 -88
-50 -90 -50 -2 0 -21 -11 -42 -23 -65 -41 -366 -212 -397 -226 -121 -54 -253
-52 -382 5 l-54 24 7 60 c9 84 2 106 -41 114 -43 8 -88 46 -105 86 -9 21 -27
38 -56 52 -47 22 -84 70 -84 109 1 24 1 24 22 -5 23 -30 73 -56 109 -56 30 0
88 29 99 51 6 11 7 27 1 41 -5 13 -19 55 -31 93 -40 127 -124 287 -186 354
-56 61 -136 111 -178 111 -32 0 -64 -26 -81 -66 -8 -19 -18 -34 -24 -34 -11 0
-67 138 -59 146 3 3 16 -9 28 -25 l21 -31 25 29 c29 34 51 41 117 35 38 -4 66
-17 138 -66z m-311 -403 c57 -29 117 -12 164 47 31 39 34 21 6 -39 -48 -107
-176 -109 -230 -4 -30 59 -26 84 6 43 14 -18 39 -39 54 -47z m2003 -58 c-3 -6
-11 -3 -19 8 -7 10 -11 22 -7 28 3 6 11 3 19 -8 7 -10 11 -22 7 -28z"/>
<path d="M1371 5523 c-56 -29 -76 -65 -76 -136 0 -50 5 -68 24 -93 69 -93 208
-79 261 26 34 66 20 129 -39 184 -40 38 -118 47 -170 19z m146 -21 c30 -17 49
-58 33 -77 -32 -39 -150 9 -150 61 0 42 54 49 117 16z"/>
<path d="M2948 2214 c-8 -29 -20 -49 -30 -52 -23 -6 -23 -14 2 -29 11 -7 28
-30 38 -50 l20 -37 6 29 c4 17 20 40 39 53 29 20 30 23 12 28 -13 3 -25 21
-35 51 -20 63 -37 65 -52 7z"/>
<path d="M2967 1767 c-10 -27 -9 -115 3 -122 15 -9 21 35 12 90 -5 36 -10 45
-15 32z"/>
<path d="M2659 704 c-13 -14 -35 -30 -49 -36 l-25 -9 33 -30 c21 -19 43 -29
64 -29 l31 0 -6 50 c-9 76 -18 86 -48 54z"/>
<path d="M3302 559 c-18 -28 -72 -59 -105 -59 -34 0 -63 14 -99 48 -24 22 -28
23 -28 8 0 -57 87 -122 148 -110 39 8 89 57 97 96 8 37 3 43 -13 17z"/>
</g>
</svg>
