<?xml version="1.0" standalone="no"?>
<!DOCTYPE svg PUBLIC "-//W3C//DTD SVG 20010904//EN"
 "http://www.w3.org/TR/2001/REC-SVG-20010904/DTD/svg10.dtd">
<svg version="1.0" xmlns="http://www.w3.org/2000/svg"
 width="1400.000000pt" height="1600.000000pt" viewBox="0 0 1400.000000 1600.000000"
 preserveAspectRatio="xMidYMid meet">

<g transform="translate(0.000000,1600.000000) scale(0.100000,-0.100000)"
fill="#014e87" stroke="none">
<path d="M6800 15580 c-8 -4 -35 -14 -60 -20 -50 -14 -158 -64 -235 -108 -362
-210 -402 -233 -469 -271 -19 -11 -53 -31 -75 -45 -22 -15 -43 -26 -47 -26 -3
0 -18 -8 -32 -18 -15 -11 -56 -35 -92 -54 -36 -19 -101 -56 -145 -83 -44 -26
-95 -56 -112 -66 -18 -11 -48 -27 -65 -38 -99 -57 -168 -96 -208 -119 -25 -14
-58 -33 -75 -42 -16 -10 -53 -31 -81 -47 -27 -17 -70 -41 -95 -55 -41 -24
-133 -77 -204 -118 -16 -9 -54 -31 -83 -49 -29 -17 -55 -31 -58 -31 -2 0 -23
-11 -45 -26 -22 -14 -55 -33 -72 -43 -191 -111 -431 -249 -467 -269 -25 -13
-49 -28 -55 -32 -5 -4 -28 -18 -50 -31 -40 -22 -64 -36 -166 -95 -30 -17 -76
-43 -103 -59 -28 -15 -73 -41 -100 -58 -46 -27 -73 -42 -173 -98 -18 -10 -49
-29 -70 -41 -21 -13 -47 -29 -58 -35 -11 -6 -123 -71 -250 -144 -126 -72 -244
-140 -262 -150 -17 -10 -50 -29 -72 -43 -22 -15 -42 -26 -45 -26 -2 0 -43 -24
-92 -53 -49 -29 -102 -59 -119 -67 -16 -8 -32 -17 -35 -21 -5 -5 -107 -64
-214 -124 -28 -15 -73 -41 -100 -58 -28 -16 -64 -38 -81 -47 -16 -10 -58 -34
-92 -54 -34 -20 -66 -36 -72 -36 -6 0 -11 -4 -11 -9 0 -5 -8 -11 -17 -14 -10
-3 -39 -19 -65 -34 -26 -15 -97 -57 -159 -93 -62 -36 -133 -77 -158 -92 -25
-15 -53 -30 -61 -34 -8 -4 -26 -15 -40 -24 -14 -9 -54 -33 -90 -52 -36 -20
-115 -65 -177 -101 -62 -36 -132 -77 -155 -90 -24 -13 -94 -54 -157 -91 -62
-36 -116 -66 -120 -66 -3 -1 -40 -27 -81 -58 -175 -134 -283 -321 -309 -538
-16 -128 -16 -6880 0 -7008 28 -230 143 -422 335 -559 29 -21 54 -37 57 -37 3
0 41 -21 84 -46 140 -84 178 -105 196 -111 9 -3 17 -9 17 -14 0 -5 4 -9 9 -9
4 0 102 -55 217 -121 115 -67 229 -133 254 -147 88 -50 156 -89 315 -182 50
-28 108 -62 130 -75 36 -20 94 -53 205 -118 19 -11 55 -31 80 -45 25 -13 50
-28 55 -32 6 -4 27 -17 47 -29 21 -12 53 -29 70 -40 111 -64 168 -96 208 -119
25 -13 50 -29 57 -34 7 -5 27 -18 45 -27 40 -21 114 -63 182 -104 56 -33 98
-57 166 -95 60 -33 76 -43 279 -161 96 -56 176 -101 178 -101 3 0 17 -8 31
-19 15 -10 50 -31 77 -46 68 -38 91 -52 225 -130 63 -37 135 -79 160 -92 53
-30 174 -100 210 -122 14 -8 39 -22 55 -31 17 -9 46 -26 65 -37 43 -25 99 -57
350 -203 107 -61 209 -120 225 -130 17 -9 89 -51 160 -92 72 -41 202 -117 290
-168 88 -51 180 -104 205 -118 25 -14 59 -33 75 -42 17 -10 55 -32 85 -50 30
-18 125 -73 210 -122 141 -82 186 -108 275 -158 67 -39 232 -133 260 -150 159
-93 284 -156 330 -166 134 -28 216 -33 318 -19 58 8 132 24 164 35 58 21 67
25 127 60 47 27 328 189 441 255 55 32 114 66 130 75 17 9 65 38 108 64 43 25
81 46 84 46 3 0 17 8 31 18 15 11 56 35 92 54 36 19 101 56 145 83 92 55 134
79 190 110 69 37 120 67 130 75 6 4 33 20 60 36 28 15 66 36 85 47 19 12 49
28 65 37 17 9 41 23 55 31 30 19 201 119 250 147 19 10 58 33 86 49 27 17 70
41 95 55 49 28 84 48 174 100 33 20 105 61 160 93 55 32 116 67 135 78 19 11
55 31 80 45 25 13 50 28 55 32 6 4 33 20 60 36 28 15 62 34 77 43 15 9 77 45
139 81 62 36 131 76 153 89 40 23 110 63 151 85 11 6 22 13 25 16 6 6 38 24
95 55 48 27 56 31 320 185 116 67 228 132 250 144 46 26 81 46 185 107 41 24
89 51 105 59 17 8 32 17 35 20 5 6 142 85 220 128 25 14 50 28 55 32 6 4 27
17 48 29 57 32 96 55 164 95 34 20 66 36 72 36 6 0 11 4 11 9 0 5 8 11 18 14
17 6 32 15 232 132 162 95 150 88 415 240 132 76 256 147 275 158 19 11 55 32
80 46 250 142 384 303 446 536 18 68 19 189 19 3600 0 3392 -1 3533 -18 3605
-56 229 -191 393 -440 536 -38 21 -76 44 -85 49 -21 13 -182 104 -221 126 -15
8 -50 29 -77 46 -27 17 -74 44 -104 60 -30 17 -78 44 -106 60 -27 17 -70 41
-95 55 -41 24 -204 117 -259 149 -14 8 -27 16 -30 19 -3 3 -14 10 -25 16 -33
18 -104 58 -205 116 -182 105 -295 170 -330 190 -19 11 -39 24 -45 28 -5 4
-30 19 -55 32 -25 14 -74 42 -110 62 -36 20 -72 41 -80 46 -8 6 -34 20 -57 32
-24 12 -43 26 -43 30 0 4 -4 8 -9 8 -5 0 -54 25 -108 56 -119 68 -181 104
-208 118 -11 6 -22 13 -25 16 -3 3 -14 10 -25 16 -41 22 -111 62 -151 85 -22
13 -91 53 -153 89 -62 36 -133 78 -159 93 -26 15 -55 31 -64 34 -10 3 -18 9
-18 14 0 5 -4 9 -9 9 -8 0 -50 23 -168 91 -18 11 -48 28 -67 38 -19 11 -53 31
-75 45 -22 15 -42 26 -45 26 -2 0 -55 30 -117 66 -63 37 -134 78 -159 92 -25
13 -49 28 -55 32 -5 4 -27 17 -47 29 -21 12 -53 29 -70 40 -18 10 -60 34 -93
53 -33 19 -165 95 -293 169 -128 74 -245 141 -260 150 -15 9 -47 27 -72 41
-25 14 -123 71 -219 127 -96 55 -176 101 -178 101 -2 0 -22 12 -46 27 -23 15
-55 34 -72 43 -48 26 -109 61 -120 70 -5 4 -30 19 -55 32 -25 14 -61 34 -80
45 -211 123 -388 224 -465 268 -27 15 -62 36 -77 46 -14 11 -29 19 -32 19 -4
0 -36 18 -72 40 -36 22 -68 40 -70 40 -2 0 -25 10 -52 23 -26 12 -67 28 -92
36 -25 7 -55 17 -68 22 -29 11 -302 11 -322 -1z m264 -551 c12 -5 39 -20 61
-32 22 -13 58 -34 80 -46 22 -13 45 -27 50 -31 6 -4 30 -19 55 -33 25 -13 90
-51 145 -82 55 -32 120 -69 145 -83 25 -14 74 -42 109 -64 34 -21 65 -38 68
-38 3 0 17 -8 31 -19 15 -10 47 -29 72 -43 69 -38 100 -56 310 -178 200 -115
222 -128 300 -172 65 -37 144 -83 315 -183 151 -88 172 -100 255 -147 40 -23
109 -62 208 -119 17 -11 49 -28 70 -40 20 -12 42 -25 47 -29 6 -4 30 -18 55
-32 25 -14 71 -40 103 -59 58 -34 86 -49 181 -104 28 -15 73 -41 100 -58 73
-43 103 -60 176 -101 36 -20 72 -40 80 -46 22 -15 122 -73 215 -125 28 -15 88
-50 135 -78 47 -27 105 -61 130 -75 25 -14 63 -36 85 -49 22 -13 55 -31 73
-40 17 -9 32 -20 32 -25 0 -4 5 -8 11 -8 5 0 56 -26 112 -59 56 -32 125 -71
152 -86 28 -15 55 -32 62 -37 7 -5 27 -17 45 -27 32 -17 55 -30 144 -82 50
-30 442 -256 492 -285 21 -11 53 -30 72 -41 19 -11 78 -45 130 -75 127 -73
406 -235 450 -261 19 -11 53 -30 75 -42 82 -45 121 -68 147 -86 14 -11 28 -19
31 -19 7 0 349 -200 366 -213 8 -7 27 -32 43 -56 l28 -45 0 -3496 0 -3496 -29
-46 c-31 -49 -90 -92 -246 -178 -87 -48 -108 -60 -235 -135 -63 -37 -133 -77
-155 -89 -76 -42 -120 -68 -130 -76 -5 -4 -26 -17 -45 -27 -64 -36 -125 -70
-160 -90 -172 -100 -391 -227 -480 -278 -36 -21 -81 -47 -100 -58 -19 -11 -50
-28 -68 -38 -18 -10 -38 -22 -45 -27 -7 -5 -32 -21 -57 -34 -40 -23 -97 -55
-207 -119 -18 -11 -50 -28 -70 -40 -21 -12 -42 -25 -48 -29 -5 -4 -32 -20 -60
-35 -27 -16 -66 -38 -86 -49 -99 -57 -148 -85 -189 -108 -25 -14 -112 -65
-195 -113 -185 -108 -199 -116 -255 -147 -25 -14 -116 -66 -202 -117 -86 -50
-159 -91 -162 -91 -3 0 -25 -13 -49 -30 -25 -16 -48 -30 -52 -30 -4 0 -19 -8
-33 -19 -15 -10 -47 -29 -72 -43 -62 -35 -106 -60 -166 -96 -28 -16 -78 -45
-110 -63 -33 -18 -72 -40 -89 -50 -16 -10 -52 -31 -80 -47 -27 -16 -79 -46
-115 -67 -36 -20 -78 -45 -95 -55 -16 -9 -64 -37 -105 -61 -41 -24 -88 -51
-105 -59 -16 -8 -34 -19 -40 -23 -5 -4 -89 -53 -185 -109 -96 -55 -188 -108
-205 -118 -80 -47 -157 -90 -162 -90 -3 0 -17 -8 -31 -19 -15 -10 -47 -30 -72
-43 -45 -26 -191 -110 -305 -176 -103 -60 -124 -71 -162 -93 -21 -12 -42 -25
-48 -29 -5 -4 -32 -20 -60 -35 -27 -16 -66 -38 -86 -49 -88 -50 -147 -84 -189
-108 -25 -14 -85 -49 -135 -78 -78 -45 -99 -53 -156 -58 -59 -4 -74 -1 -125
24 -33 15 -60 32 -62 36 -2 4 -8 8 -14 8 -5 0 -37 16 -71 36 -87 52 -206 120
-292 169 -22 13 -123 71 -225 130 -102 60 -198 115 -215 123 -16 8 -41 23 -55
32 -14 10 -43 27 -64 39 -31 18 -371 213 -546 314 -19 11 -46 27 -60 34 -14 8
-38 22 -55 32 -16 10 -91 54 -165 97 -237 136 -300 172 -365 209 -27 15 -54
31 -60 35 -5 4 -27 17 -47 29 -21 12 -53 29 -70 40 -103 59 -168 96 -208 119
-25 14 -74 42 -109 64 -34 21 -65 38 -67 38 -3 0 -23 11 -45 26 -39 24 -64 39
-159 92 -25 14 -58 33 -75 43 -16 10 -46 27 -65 37 -19 11 -113 65 -209 121
-96 55 -178 101 -182 101 -5 0 -9 5 -9 10 0 6 -5 10 -11 10 -6 0 -38 16 -72
36 -34 20 -75 45 -92 54 -16 10 -82 48 -145 85 -123 72 -144 84 -230 132 -30
17 -95 54 -145 83 -49 29 -104 61 -122 71 -17 10 -50 29 -72 43 -22 15 -42 26
-45 26 -2 0 -55 30 -117 66 -63 37 -134 78 -159 92 -25 14 -74 42 -109 64 -34
21 -65 38 -68 38 -3 0 -17 8 -31 19 -15 10 -54 33 -87 50 -33 18 -80 46 -105
62 -25 16 -52 32 -60 36 -8 3 -86 47 -173 97 -87 50 -174 100 -195 112 -79 44
-117 66 -127 74 -5 4 -30 19 -55 32 -247 137 -271 155 -310 232 -20 39 -20 68
-20 3513 0 3114 2 3477 15 3511 18 41 76 106 115 126 79 42 181 100 227 129
21 14 112 67 202 118 90 52 180 103 200 115 20 11 56 32 81 46 67 38 363 208
380 218 8 5 67 39 130 76 63 37 129 74 145 84 17 9 53 31 81 48 28 16 78 45
110 63 33 18 73 40 89 50 17 10 53 31 80 47 28 16 79 46 115 67 36 20 85 49
110 63 25 14 61 35 80 47 34 21 89 53 175 100 22 12 135 77 250 144 273 160
273 160 320 186 22 12 56 31 75 42 70 41 426 247 460 266 19 10 40 23 45 27 6
4 30 19 55 32 56 32 612 352 660 381 19 11 49 28 65 37 17 9 49 28 72 43 24
15 44 27 46 27 4 0 266 151 387 223 19 11 50 28 68 38 18 10 38 22 45 27 7 5
37 22 67 38 30 15 66 36 80 45 14 9 48 29 75 44 74 42 181 103 295 170 96 55
126 73 168 96 20 12 42 25 47 29 6 4 30 19 55 32 25 14 96 55 159 92 62 36
115 66 117 66 2 0 27 14 55 32 29 17 68 35 88 39 41 9 135 2 165 -12z"/>
<path d="M6930 14610 c-14 -11 -30 -20 -36 -20 -6 0 -22 -8 -35 -18 -13 -11
-44 -30 -69 -44 -25 -14 -117 -67 -205 -118 -88 -51 -189 -108 -225 -128 -36
-19 -77 -43 -92 -54 -14 -10 -29 -18 -33 -18 -4 0 -19 -8 -33 -19 -15 -10 -45
-29 -67 -41 -22 -12 -130 -74 -240 -138 -245 -140 -256 -147 -302 -173 -21
-12 -42 -25 -48 -29 -5 -4 -30 -19 -55 -32 -25 -14 -85 -49 -135 -78 -49 -29
-108 -62 -130 -75 -49 -28 -159 -91 -200 -115 -16 -10 -59 -34 -95 -55 -36
-21 -81 -47 -100 -58 -19 -11 -53 -30 -75 -42 -33 -19 -367 -213 -495 -288
-19 -11 -53 -30 -75 -42 -64 -35 -284 -162 -455 -264 -52 -30 -108 -63 -125
-71 -16 -9 -47 -26 -67 -38 -87 -50 -110 -64 -262 -151 -88 -51 -172 -101
-187 -112 -15 -10 -30 -19 -34 -19 -4 0 -34 -16 -68 -36 -70 -42 -95 -56 -187
-109 -36 -21 -78 -45 -95 -55 -132 -76 -414 -238 -430 -247 -11 -7 -56 -33
-100 -59 -44 -26 -143 -83 -220 -127 -77 -44 -153 -88 -170 -97 -16 -10 -59
-34 -95 -55 -36 -21 -78 -45 -95 -55 -16 -10 -113 -66 -214 -124 -101 -58
-190 -111 -197 -117 -12 -10 -14 -536 -14 -3310 l0 -3298 44 -31 c25 -16 47
-30 49 -30 2 0 46 -25 96 -55 51 -30 93 -55 95 -55 2 0 55 -30 117 -66 108
-63 157 -91 239 -137 19 -10 40 -23 45 -27 6 -4 26 -17 45 -28 19 -10 107 -61
195 -112 88 -51 185 -106 215 -123 30 -16 89 -50 130 -75 41 -25 181 -106 310
-180 129 -74 249 -143 265 -152 17 -10 59 -34 95 -55 36 -21 79 -45 95 -55 17
-10 59 -34 95 -55 87 -50 100 -58 285 -165 88 -51 175 -101 193 -111 18 -11
43 -25 55 -33 12 -7 47 -27 77 -44 30 -16 150 -85 265 -152 116 -67 230 -134
255 -148 25 -14 60 -34 78 -44 17 -10 47 -27 65 -37 17 -11 104 -61 192 -111
88 -51 174 -101 190 -110 17 -10 59 -34 95 -55 36 -21 79 -45 95 -55 17 -10
59 -34 95 -55 36 -21 79 -45 95 -55 46 -27 155 -90 204 -118 25 -14 68 -38 95
-55 61 -36 105 -61 166 -95 25 -13 50 -28 55 -32 6 -4 26 -17 45 -27 19 -11
141 -81 271 -156 130 -75 254 -145 275 -157 21 -12 44 -26 49 -30 6 -4 33 -20
60 -36 75 -41 97 -54 258 -147 l148 -86 37 21 c47 26 117 66 162 91 19 10 40
23 45 27 6 4 26 17 45 28 45 25 344 198 390 225 19 11 53 30 75 42 22 12 56
31 75 42 205 120 533 310 565 328 22 12 56 31 75 43 61 35 353 203 400 230 25
14 74 42 109 64 34 21 65 38 67 38 2 0 44 25 95 55 50 30 93 55 94 55 1 0 81
46 176 101 96 56 203 118 239 137 36 19 84 48 107 64 23 15 44 28 48 28 3 0
22 10 43 23 20 13 62 37 92 54 30 17 127 72 215 123 88 51 174 101 190 110 17
9 65 38 108 64 43 25 80 46 82 46 2 0 32 17 66 38 35 22 84 50 109 64 40 23
85 49 210 121 19 11 55 31 80 45 25 13 50 28 55 32 6 4 27 17 48 29 20 12 54
31 75 43 20 12 57 32 82 46 25 13 50 28 55 32 10 9 171 101 265 153 30 16 62
35 70 41 17 13 44 28 120 69 30 16 65 36 77 43 12 8 37 22 55 33 18 10 112 65
208 121 96 56 200 116 230 133 30 16 71 39 90 51 19 11 47 28 61 36 15 8 88
50 163 94 l136 78 0 3307 0 3307 -52 31 c-29 17 -73 42 -98 56 -25 14 -139 80
-255 147 -115 67 -230 134 -255 148 -25 14 -58 33 -75 42 -16 10 -53 31 -81
47 -27 17 -70 41 -95 55 -24 14 -60 34 -79 46 -46 27 -345 199 -390 224 -19
11 -39 24 -45 28 -5 4 -30 19 -55 32 -45 25 -64 36 -175 100 -33 19 -121 70
-195 113 -125 72 -210 121 -285 165 -43 25 -153 89 -200 115 -23 13 -124 72
-225 130 -102 59 -203 117 -225 130 -22 12 -78 44 -125 72 -47 28 -105 62
-130 75 -45 26 -190 109 -305 176 -103 60 -124 71 -162 93 -21 12 -42 25 -48
29 -5 4 -30 19 -55 32 -25 14 -61 34 -80 45 -118 69 -170 98 -209 121 -25 14
-68 38 -95 55 -84 49 -119 70 -151 87 -16 8 -73 41 -125 71 -131 78 -362 212
-442 257 -95 54 -140 80 -333 192 -222 129 -244 142 -315 182 -112 62 -126 71
-135 78 -5 4 -30 19 -55 32 -25 14 -61 34 -80 45 -87 50 -162 93 -163 93 -1 0
-13 -9 -27 -20z m56 -699 c5 -5 27 -19 49 -31 154 -87 150 -84 400 -230 193
-112 238 -138 333 -192 80 -45 311 -179 442 -257 52 -30 109 -63 125 -71 32
-17 67 -38 151 -87 27 -17 70 -41 95 -55 39 -23 91 -52 209 -121 19 -11 55
-31 80 -45 25 -13 50 -28 55 -32 6 -4 27 -17 48 -29 38 -22 59 -33 162 -93
115 -67 260 -150 305 -176 25 -13 83 -47 130 -75 47 -28 103 -60 125 -72 22
-13 123 -71 225 -130 101 -58 202 -117 225 -130 47 -26 157 -90 200 -115 75
-44 160 -93 285 -165 74 -43 162 -94 195 -113 111 -64 130 -75 175 -100 25
-13 50 -28 55 -32 6 -4 26 -17 45 -28 45 -25 344 -197 390 -224 19 -12 55 -32
79 -46 25 -14 68 -38 95 -55 28 -16 65 -37 81 -47 17 -9 50 -28 75 -42 25 -14
120 -69 213 -123 l167 -97 -2 -2921 -3 -2920 -42 -24 -42 -23 -612 2 -613 3
45 29 c112 74 273 271 348 426 32 68 81 209 81 237 0 8 5 33 11 53 l12 38 66
4 c90 5 185 48 263 117 66 59 122 143 150 227 l23 69 0 765 c0 698 -2 774 -19
870 -10 58 -20 120 -23 138 -3 18 -9 35 -14 38 -5 3 -9 15 -9 28 0 26 -61 205
-95 280 -13 28 -40 92 -60 141 -21 50 -45 108 -55 130 -10 22 -34 81 -55 130
-20 50 -45 108 -55 130 -10 22 -28 65 -40 95 -23 56 -25 62 -80 190 -41 98
-59 139 -76 174 -8 16 -14 33 -14 38 0 4 -8 27 -19 51 -10 23 -37 87 -61 142
-68 160 -80 188 -103 233 -31 61 -126 153 -197 191 -117 63 -88 61 -1020 61
-902 0 -901 0 -996 -48 -82 -41 -104 -54 -109 -63 -13 -19 -32 -7 -55 34 -86
156 -292 382 -443 486 -112 76 -274 155 -402 195 -221 69 -312 76 -947 76
l-517 0 -10 38 c-16 58 -72 284 -78 312 -3 14 -13 54 -23 90 -11 36 -22 78
-25 95 -9 39 -76 103 -117 110 -18 3 -342 5 -720 3 l-686 -3 -39 -31 c-46 -37
-64 -74 -87 -179 -10 -44 -26 -108 -37 -141 -10 -34 -19 -71 -19 -82 0 -12 -4
-31 -9 -44 -14 -39 -29 -91 -36 -130 l-6 -38 -527 0 c-311 0 -570 -4 -632 -11
-354 -37 -664 -184 -916 -434 -142 -141 -279 -355 -335 -520 -7 -22 -16 -44
-20 -50 -4 -5 -18 -57 -32 -115 -42 -177 -49 -297 -44 -735 4 -369 13 -521 36
-600 95 -318 198 -502 396 -700 55 -55 111 -110 125 -121 56 -44 213 -146 243
-157 16 -6 17 -27 17 -252 l0 -245 -334 0 c-357 0 -375 -2 -429 -52 -54 -51
-57 -71 -57 -443 0 -315 2 -347 19 -387 19 -42 40 -66 80 -87 13 -7 164 -11
460 -11 495 0 444 9 457 -83 3 -26 10 -50 15 -53 5 -3 9 -16 9 -30 0 -24 16
-64 67 -174 67 -140 195 -299 326 -404 l58 -46 -850 0 -850 0 -46 27 -45 28 0
2915 0 2916 68 39 c37 22 76 45 87 51 11 6 49 28 85 49 101 58 116 67 265 152
77 44 176 101 220 127 44 26 89 52 100 59 16 9 298 171 430 247 17 10 59 34
95 55 92 53 117 67 187 109 34 20 64 36 68 36 4 0 19 9 34 19 15 11 99 61 187
112 152 87 175 101 262 151 20 12 51 29 67 38 17 8 73 41 125 71 171 102 391
229 455 264 22 12 56 31 75 42 128 75 462 269 495 288 22 12 56 31 75 42 19
11 64 37 100 58 36 21 79 45 95 55 41 24 151 87 200 115 22 13 81 46 130 75
50 29 110 64 135 78 25 13 50 28 55 32 6 4 27 17 48 29 46 26 57 33 302 173
110 64 218 126 240 138 22 12 52 31 67 41 14 11 29 19 33 19 4 0 19 8 33 18
15 11 56 35 92 54 36 20 124 70 195 112 134 78 144 82 161 67z m-985 -2878 c7
-8 79 -285 79 -304 0 -5 -254 -9 -605 -9 -499 0 -605 2 -605 13 0 14 69 298
75 307 5 8 1048 1 1056 -7z m-2503 -2120 l-3 -1478 -65 3 c-453 21 -876 344
-1019 777 -55 166 -56 175 -56 695 0 522 0 521 56 693 111 340 398 624 739
732 69 22 240 52 303 54 l47 1 -2 -1477z m987 1312 l0 -160 -327 -3 -328 -2 0
165 0 165 328 -2 327 -3 0 -160z m3133 149 c247 -39 466 -150 641 -324 157
-157 257 -338 313 -570 22 -92 23 -108 23 -570 0 -466 0 -477 -24 -575 -13
-55 -28 -104 -32 -109 -5 -6 -9 -17 -9 -25 0 -33 -100 -220 -157 -296 -181
-239 -418 -389 -713 -452 -66 -15 -235 -17 -1454 -20 -1113 -3 -1381 -1 -1388
9 -9 15 -11 2932 -1 2941 3 4 613 7 1355 7 1170 0 1361 -2 1446 -16z m-3133
-809 l0 -160 -325 0 -325 0 -3 163 -2 162 327 -2 328 -3 0 -160z m6260 131
c28 -13 58 -34 66 -47 31 -47 101 -219 95 -234 -4 -13 -98 -15 -708 -17 l-703
-3 -59 -30 c-71 -36 -129 -99 -156 -172 -20 -54 -20 -71 -18 -627 l3 -571 23
-45 c34 -65 99 -128 162 -159 l55 -26 1021 -3 1021 -3 6 -121 c9 -155 9 -1296
1 -1365 -9 -68 -57 -128 -116 -144 -53 -14 -61 -5 -78 86 -7 39 -16 75 -20 80
-4 6 -10 23 -14 40 -29 121 -149 310 -276 435 -343 340 -851 430 -1289 229
-326 -150 -570 -453 -640 -794 l-16 -80 -85 0 -85 0 -3 1734 -2 1734 24 42
c23 39 65 66 121 78 11 3 380 5 820 6 l800 1 50 -24z m-6260 -786 l0 -165
-325 0 -325 0 -3 168 -2 167 327 -2 328 -3 0 -165z m6573 157 c6 -7 36 -73 67
-147 31 -74 62 -148 70 -165 7 -16 30 -70 51 -120 20 -49 64 -153 96 -230 32
-77 68 -162 80 -190 11 -27 24 -58 29 -67 5 -10 9 -27 9 -38 0 -20 -5 -20
-934 -20 -842 0 -934 2 -940 16 -3 9 -6 229 -6 489 0 369 3 474 13 478 6 3
337 6 733 6 575 1 724 -2 732 -12z m-6573 -812 l0 -160 -327 -3 -328 -2 0 165
0 165 328 -2 327 -3 0 -160z m3 -640 c1 -77 0 -150 -3 -162 l-5 -23 -325 0
-325 0 0 165 0 165 328 -2 327 -3 3 -140z m4112 -405 l0 -430 -330 0 -330 0 0
205 0 205 58 26 c205 90 328 171 477 316 60 59 113 107 118 108 4 0 7 -193 7
-430z m-5278 -90 c51 -5 223 -10 381 -10 182 0 286 -4 282 -10 -3 -5 -22 -12
-43 -16 -73 -12 -198 -54 -280 -94 -94 -45 -147 -79 -244 -157 l-68 -54 -87 3
-88 3 -3 165 c-1 90 0 171 3 178 3 9 13 12 29 8 14 -3 66 -10 118 -16z m4286
-173 l2 -167 -1324 0 -1325 0 -53 47 c-112 99 -287 193 -435 233 -43 12 -96
27 -118 33 -31 9 317 13 1590 17 897 3 1637 5 1645 5 13 0 15 -27 18 -168z
m-3256 -191 c239 -62 441 -225 546 -441 117 -239 108 -527 -22 -759 -272 -483
-932 -564 -1314 -162 -388 408 -260 1068 254 1311 60 28 144 53 224 65 73 12
244 4 312 -14z m6104 -6 c182 -49 359 -173 462 -322 37 -54 93 -171 118 -248
22 -71 31 -301 14 -380 -85 -393 -418 -665 -810 -663 -727 5 -1092 869 -587
1392 126 131 308 222 487 245 72 9 241 -4 316 -24z m-7346 -314 c0 -7 -9 -33
-19 -57 -17 -38 -44 -134 -65 -231 l-6 -28 -335 0 -335 0 0 165 0 165 380 0
c315 0 380 -2 380 -14z m5485 -151 l0 -160 -1650 0 -1650 0 -7 35 c-20 98 -29
131 -57 205 -17 44 -31 81 -31 82 0 2 764 2 1698 1 l1697 -3 0 -160z m513
-510 c7 -14 12 -36 12 -48 0 -28 44 -168 70 -224 11 -24 20 -45 20 -47 0 -12
78 -136 113 -181 54 -69 130 -148 196 -203 31 -25 60 -50 66 -54 5 -4 -1069
-8 -2385 -7 -2230 0 -2393 1 -2370 17 54 35 239 231 281 297 60 94 119 208
119 232 0 10 4 23 8 29 5 5 14 29 21 54 7 25 17 59 22 76 5 17 9 39 9 51 0 11
3 23 7 26 3 4 860 7 1903 7 l1897 0 11 -25z m-2134 -1037 c7 -18 39 -91 70
-162 31 -71 56 -134 56 -140 0 -5 -24 -57 -52 -114 l-53 -104 -3 -949 c-1
-522 1 -949 5 -949 5 0 56 47 113 105 l105 105 5 535 5 534 128 131 c168 171
170 175 165 373 l-3 152 -53 90 c-29 49 -51 92 -50 95 21 44 185 320 191 320
4 0 7 -194 7 -432 l0 -432 353 -353 c193 -194 353 -357 354 -361 3 -8 -729
-742 -740 -742 -4 0 -7 96 -7 213 l0 214 29 39 c16 21 83 93 150 159 l121 120
-152 152 -153 153 -132 -132 -133 -133 0 -501 c0 -440 -2 -506 -17 -549 -13
-40 -44 -77 -166 -202 -83 -84 -156 -153 -162 -153 -6 0 -79 70 -162 155 -121
124 -154 164 -167 201 -14 41 -16 115 -16 548 l0 501 -133 133 -132 132 -155
-155 -155 -155 138 -136 c76 -74 144 -146 153 -159 13 -19 15 -60 14 -231 0
-114 -2 -209 -4 -211 -2 -2 -170 164 -374 369 l-372 373 355 355 355 355 0
433 c0 237 3 432 8 432 4 0 48 -73 99 -162 l92 -162 -37 -66 c-77 -138 -75
-130 -76 -279 0 -183 6 -194 174 -365 l129 -132 3 -532 3 -532 105 -105 c57
-58 108 -105 113 -105 4 0 6 427 5 949 l-3 949 -52 104 c-29 57 -53 108 -53
114 0 6 27 73 61 150 33 76 65 149 70 162 11 29 16 28 33 -10z"/>
<path d="M3230 10155 c-156 -53 -343 -166 -422 -254 -126 -140 -216 -323 -259
-530 -17 -82 -19 -135 -19 -461 0 -326 2 -379 19 -461 30 -140 66 -237 134
-354 92 -160 201 -263 373 -352 78 -41 217 -93 248 -93 14 0 16 125 18 1265 3
1119 1 1265 -12 1264 -8 -1 -44 -11 -80 -24z"/>
<path d="M4990 8910 l0 -1300 1225 0 c1050 0 1239 2 1320 15 292 47 544 194
687 400 46 66 128 230 128 255 0 9 4 20 9 26 5 5 14 34 21 64 6 30 18 84 26
120 11 49 14 152 14 421 0 323 -2 366 -21 460 -36 176 -113 347 -221 487 -116
150 -378 296 -603 335 -39 6 -508 11 -1322 14 l-1263 3 0 -1300z m1390 420 l0
-380 -205 0 -205 0 0 188 c-1 252 -12 292 -82 292 -19 0 -33 -8 -45 -27 -17
-25 -18 -66 -18 -538 0 -280 3 -523 8 -538 9 -32 45 -52 79 -44 45 12 52 40
56 220 l4 167 -31 0 -31 0 0 75 0 75 235 0 235 0 0 -410 0 -410 -294 0 c-161
0 -318 5 -347 10 -167 31 -298 160 -330 322 -12 65 -12 910 0 1021 19 171 130
297 301 343 31 9 144 13 358 13 l312 1 0 -380z m560 -300 l0 -680 275 0 275 0
0 -175 0 -175 -490 0 -490 0 0 855 0 855 215 0 215 0 0 -680z m851 657 c59
-23 124 -78 149 -127 32 -62 43 -158 38 -344 -3 -169 -4 -174 -33 -232 -52
-102 -154 -144 -347 -144 l-108 0 0 -185 0 -185 -212 2 -213 3 -3 605 c-1 333
0 611 3 618 4 11 71 13 342 10 293 -3 344 -6 384 -21z"/>
<path d="M7490 9280 l0 -160 30 0 c41 0 76 18 89 47 15 32 14 195 -1 227 -7
17 -24 30 -47 36 -75 21 -71 28 -71 -150z"/>
<path d="M9138 9533 c-10 -2 -22 -21 -28 -41 -11 -40 -13 -216 -2 -192 21 47
69 105 139 168 l78 72 -85 -1 c-47 -1 -93 -3 -102 -6z"/>
<path d="M9100 7274 c0 -329 4 -594 8 -589 5 6 24 30 42 55 51 67 196 215 275
279 159 130 351 217 556 250 96 16 437 14 539 -4 162 -27 300 -81 445 -175 90
-59 316 -275 372 -357 20 -29 38 -53 40 -53 1 0 3 205 3 455 l0 455 -983 0
-983 0 -54 26 c-58 28 -240 201 -240 228 0 8 -4 18 -10 21 -7 4 -10 -196 -10
-591z"/>
<path d="M4080 6444 c-162 -30 -305 -144 -377 -299 -25 -55 -27 -70 -28 -185
0 -123 1 -126 37 -202 87 -183 249 -288 446 -288 144 0 274 57 365 161 137
157 164 367 70 553 -74 147 -240 253 -408 261 -44 2 -91 2 -105 -1z m182 -361
c42 -40 58 -75 58 -130 0 -35 -7 -58 -25 -86 -38 -56 -81 -73 -172 -69 -59 3
-133 91 -133 157 0 39 36 111 67 132 38 28 59 32 122 28 42 -3 60 -10 83 -32z"/>
<path d="M10085 6418 c-345 -119 -446 -548 -191 -804 99 -99 207 -144 346
-144 147 0 258 48 359 155 74 78 120 179 128 281 18 245 -103 431 -335 513
-80 29 -223 28 -307 -1z m203 -304 c43 -9 98 -62 111 -109 16 -59 4 -109 -39
-157 -36 -41 -39 -42 -106 -46 -56 -2 -75 1 -102 17 -88 56 -98 185 -20 258
41 39 90 50 156 37z"/>
<path d="M2440 6285 l0 -75 250 0 250 0 6 28 c10 45 21 86 29 105 7 16 -10 17
-264 17 l-271 0 0 -75z"/>
<path d="M5348 6355 c-8 -8 19 -114 32 -131 11 -12 220 -14 1569 -12 l1556 3
3 73 3 72 -1579 0 c-868 0 -1581 -2 -1584 -5z"/>
</g>
</svg>
