<?xml version="1.0" standalone="no"?>
<!DOCTYPE svg PUBLIC "-//W3C//DTD SVG 20010904//EN"
 "http://www.w3.org/TR/2001/REC-SVG-20010904/DTD/svg10.dtd">
<svg version="1.0" xmlns="http://www.w3.org/2000/svg"
 width="355.000000pt" height="373.000000pt" viewBox="0 0 355.000000 373.000000"
 preserveAspectRatio="xMidYMid meet">

<g transform="translate(0.000000,373.000000) scale(0.100000,-0.100000)"
fill="#537d9c" stroke="none">
<path d="M1647 3509 c-150 -16 -210 -45 -678 -329 -239 -145 -460 -281 -491
-302 -157 -105 -276 -286 -308 -468 -8 -45 -10 -233 -8 -600 4 -599 1 -569 81
-725 30 -58 63 -102 122 -160 72 -72 116 -102 435 -295 195 -118 416 -252 490
-298 172 -105 251 -132 410 -139 184 -9 297 28 510 165 l93 60 -29 18 c-16 10
-43 31 -60 46 l-31 29 -66 -40 c-166 -102 -253 -131 -385 -131 -95 0 -182 19
-256 57 -41 21 -517 308 -896 541 -94 58 -158 124 -204 211 -66 126 -67 140
-64 729 4 587 2 568 75 690 61 100 133 165 293 261 80 49 286 175 459 280 172
106 332 201 355 210 74 32 149 46 246 45 159 -2 191 -17 720 -336 410 -248
473 -290 536 -352 74 -75 115 -144 139 -237 22 -82 22 -1089 0 -1174 -23 -86
-62 -152 -134 -225 l-65 -65 -8 76 -9 76 40 59 c69 101 71 116 71 655 0 274
-4 499 -10 530 -15 84 -73 191 -129 241 -27 24 -138 97 -247 162 -110 66 -313
189 -452 274 -299 182 -332 196 -477 189 -131 -5 -168 -21 -425 -178 -113 -70
-311 -190 -440 -268 -134 -81 -255 -162 -282 -188 -50 -49 -100 -133 -117
-198 -16 -61 -25 -985 -11 -1066 16 -86 61 -176 118 -232 56 -55 938 -589
1022 -620 71 -25 203 -27 280 -4 31 9 119 54 197 100 l141 84 36 -48 c72 -97
167 -143 296 -143 92 -1 161 22 231 74 62 46 124 127 141 182 9 31 24 49 57
72 139 97 217 184 278 311 62 131 64 155 61 769 l-3 551 -28 81 c-49 146 -163
289 -297 376 -30 19 -167 103 -305 185 -137 82 -322 194 -410 248 -88 54 -188
111 -223 127 -112 51 -246 71 -385 57z m234 -450 c91 -48 871 -524 904 -551
18 -16 46 -54 62 -86 l28 -57 0 -491 c0 -557 6 -517 -84 -550 -25 -10 -47 -18
-49 -19 -1 -1 5 -37 13 -81 9 -43 19 -142 22 -219 5 -114 3 -151 -11 -198 -19
-67 -69 -128 -130 -160 -57 -30 -155 -29 -212 0 -53 28 -99 82 -84 97 6 6 82
54 168 107 l157 96 3 81 c2 50 -1 82 -7 82 -9 0 -118 -63 -313 -180 l-38 -22
0 391 c0 289 3 391 12 391 6 0 26 11 44 25 l34 26 2 172 3 172 57 3 57 3 10
-38 c6 -21 18 -76 28 -122 20 -101 36 -121 97 -121 37 0 48 5 66 27 25 32 25
37 -25 214 -30 106 -40 129 -70 157 l-35 32 -140 0 -140 0 0 141 c0 156 -9
184 -67 208 -21 8 -166 11 -526 9 l-497 -3 -32 -33 -33 -32 4 -788 c1 -434 -1
-797 -6 -809 -8 -22 -17 -18 -234 111 -242 144 -293 187 -320 268 -11 34 -14
138 -15 503 -1 262 2 486 8 519 12 73 35 121 80 163 18 17 220 145 448 283
228 139 420 256 427 262 66 53 248 63 334 17z m238 -694 c16 -8 31 -22 35 -30
3 -9 6 -116 6 -237 l0 -220 -29 -29 -29 -29 -367 0 -367 0 -29 29 -29 29 0
224 c0 240 4 262 53 271 12 2 181 5 375 6 292 1 358 -2 381 -14z"/>
<path d="M2667 1723 c-32 -8 -36 -43 -16 -138 10 -49 18 -100 19 -112 0 -30
34 -63 63 -63 13 0 32 9 42 20 18 19 18 24 1 103 -25 118 -45 176 -66 187 -10
6 -20 9 -22 9 -2 -1 -11 -3 -21 -6z"/>
</g>
</svg>
