<?xml version="1.0" standalone="no"?>
<!DOCTYPE svg PUBLIC "-//W3C//DTD SVG 20010904//EN"
 "http://www.w3.org/TR/2001/REC-SVG-20010904/DTD/svg10.dtd">
<svg version="1.0" xmlns="http://www.w3.org/2000/svg"
 width="332.000000pt" height="336.000000pt" viewBox="0 0 332.000000 336.000000"
 preserveAspectRatio="xMidYMid meet">

<g transform="translate(0.000000,336.000000) scale(0.100000,-0.100000)"
fill="#ffffff" stroke="none">
<path d="M1470 3116 c-588 -85 -1076 -500 -1243 -1056 -55 -183 -62 -235 -62
-450 0 -219 12 -299 72 -479 179 -539 656 -940 1216 -1022 43 -6 80 -9 83 -7
13 13 16 280 5 339 -46 231 -243 371 -608 433 -75 12 -139 28 -141 34 -2 6 12
28 31 49 165 185 380 593 422 800 10 52 -1 55 -65 23 -33 -17 -64 -30 -70 -30
-6 0 13 28 41 63 85 101 161 224 211 342 l12 30 4 -45 c5 -71 -16 -264 -43
-398 -27 -128 -114 -427 -160 -547 -41 -107 -42 -128 -8 -152 37 -27 202 -110
254 -128 61 -22 126 -20 139 4 5 11 15 149 20 308 6 158 17 474 26 701 11 308
12 417 4 427 -10 12 -18 11 -52 -1 -22 -8 -44 -14 -48 -14 -4 0 5 26 20 58 47
98 103 288 136 461 7 34 11 25 29 -64 25 -126 93 -342 132 -418 8 -16 12 -31
9 -34 -3 -3 -24 2 -47 11 -34 14 -44 15 -51 4 -5 -7 -6 -76 -3 -153 3 -77 10
-279 15 -450 23 -716 29 -832 46 -846 9 -7 35 -10 69 -7 43 4 86 20 192 74 75
38 141 77 147 86 8 13 2 43 -28 125 -131 372 -206 702 -206 911 0 82 12 102
25 43 13 -62 147 -271 229 -358 37 -41 24 -41 -56 -3 -34 17 -63 30 -65 30
-11 0 2 -61 32 -158 62 -197 235 -507 380 -682 25 -30 44 -59 42 -64 -2 -5
-62 -19 -134 -31 -314 -53 -493 -155 -580 -332 l-37 -76 -4 -158 c-3 -87 -1
-170 2 -185 7 -25 8 -26 69 -19 149 18 370 89 513 165 185 100 419 307 531
471 250 365 330 792 232 1222 -97 427 -399 806 -802 1009 -103 51 -288 113
-402 133 -124 23 -357 28 -475 11z"/>
</g>
</svg>
