<?xml version="1.0" standalone="no"?>
<!DOCTYPE svg PUBLIC "-//W3C//DTD SVG 20010904//EN"
 "http://www.w3.org/TR/2001/REC-SVG-20010904/DTD/svg10.dtd">
<svg version="1.0" xmlns="http://www.w3.org/2000/svg"
 width="317.000000pt" height="318.000000pt" viewBox="0 0 317.000000 318.000000"
 preserveAspectRatio="xMidYMid meet">

<g transform="translate(0.000000,318.000000) scale(0.100000,-0.100000)"
fill="#d4d4d4" stroke="none">
<path d="M1686 2971 c-4 -5 22 -43 58 -83 56 -65 69 -75 117 -87 236 -60 431
-166 596 -324 148 -142 247 -294 315 -482 53 -148 56 -159 74 -295 58 -448
-138 -904 -508 -1181 -164 -122 -372 -212 -547 -235 l-54 -7 7 87 c8 107 35
209 80 301 63 127 168 211 309 247 70 18 101 20 205 15 74 -3 122 -2 122 4 0
5 -45 143 -100 307 -55 164 -100 309 -100 323 0 33 29 59 63 59 15 0 27 4 27
9 0 5 -86 144 -191 308 -105 164 -216 337 -247 386 -49 76 -72 102 -72 81 0
-4 36 -137 80 -298 103 -380 175 -645 210 -781 16 -60 33 -125 39 -143 l10
-32 -59 0 c-121 0 -266 -48 -358 -118 -18 -14 -34 -23 -37 -21 -4 5 -17 189
-40 574 -8 132 -18 284 -21 337 -9 124 3 148 71 148 29 0 45 4 45 13 0 6 -32
127 -71 267 -39 140 -84 302 -99 359 -29 103 -35 119 -45 109 -5 -4 -81 -274
-115 -403 -13 -49 -36 -134 -64 -232 -14 -51 -26 -96 -26 -102 0 -5 19 -9 41
-8 33 1 45 -4 61 -23 19 -23 20 -35 15 -140 -10 -188 -36 -615 -47 -760 -5
-74 -10 -139 -10 -143 0 -5 -23 8 -52 29 -98 70 -233 113 -359 114 l-47 0 8
33 c4 17 17 66 28 107 12 41 57 210 101 375 45 165 87 323 95 350 76 276 105
389 101 393 -2 2 -37 -47 -78 -109 -155 -237 -419 -654 -420 -663 -1 -5 12
-12 29 -16 80 -17 79 -23 -41 -375 -58 -170 -105 -311 -105 -316 0 -4 54 -5
119 -2 141 7 218 -5 311 -49 163 -78 271 -268 287 -507 l6 -94 -61 7 c-78 9
-249 64 -339 109 -314 159 -550 431 -657 761 -44 134 -60 239 -60 396 0 220
37 375 136 574 66 133 124 212 243 332 158 160 340 268 555 330 93 26 96 28
162 98 37 39 68 74 68 79 0 12 -76 8 -158 -9 -361 -74 -672 -277 -887 -575
-66 -93 -160 -272 -189 -359 -215 -656 40 -1350 623 -1701 352 -211 797 -261
1181 -133 368 124 689 410 849 755 90 195 131 387 131 609 -1 359 -115 667
-348 937 -215 248 -528 425 -838 473 -38 6 -81 13 -96 16 -14 3 -29 1 -32 -5z"/>
</g>
</svg>
