<?xml version="1.0" standalone="no"?>
<!DOCTYPE svg PUBLIC "-//W3C//DTD SVG 20010904//EN"
 "http://www.w3.org/TR/2001/REC-SVG-20010904/DTD/svg10.dtd">
<svg version="1.0" xmlns="http://www.w3.org/2000/svg"
 width="554.000000pt" height="497.000000pt" viewBox="0 0 554.000000 497.000000"
 preserveAspectRatio="xMidYMid meet">

<g transform="translate(0.000000,497.000000) scale(0.100000,-0.100000)"
fill="#014e87" stroke="none">
<path d="M2665 4636 c-49 -16 -119 -51 -350 -176 -99 -54 -396 -213 -660 -355
-264 -142 -502 -272 -530 -290 -90 -57 -152 -143 -169 -233 l-6 -33 47 3 c45
3 47 4 61 47 31 93 61 113 697 452 287 152 541 289 755 405 163 88 166 89 235
89 65 0 77 -4 165 -51 52 -28 282 -151 510 -274 228 -122 494 -265 590 -318
96 -52 209 -113 250 -135 96 -51 117 -71 146 -132 23 -48 24 -58 24 -308 l0
-258 48 3 47 3 0 275 0 275 -34 63 c-19 35 -50 76 -68 91 -33 27 -187 112
-773 426 -151 82 -383 206 -515 278 -132 71 -256 135 -277 143 -59 20 -148 25
-193 10z"/>
<path d="M1959 3955 c-143 -23 -253 -67 -304 -125 -18 -20 -20 -39 -23 -206
l-3 -184 -277 0 c-152 0 -306 -5 -342 -10 -383 -61 -661 -348 -726 -749 -25
-156 3 -325 81 -487 83 -173 216 -306 388 -390 170 -83 108 -79 1272 -79
l1030 0 3 858 2 857 -175 0 -175 0 0 176 c0 201 -3 211 -79 262 -115 77 -433
114 -672 77z m414 -100 c362 -63 267 -198 -149 -212 -163 -6 -273 5 -379 38
-78 24 -110 48 -101 76 13 40 143 92 266 106 89 10 284 6 363 -8z m-553 -271
c184 -59 535 -56 714 4 l56 19 0 -84 0 -83 -425 0 -425 0 0 86 c0 78 2 85 18
79 9 -4 37 -13 62 -21z"/>
<path d="M3170 2580 l0 -860 80 0 80 0 -2 858 -3 857 -77 3 -78 3 0 -861z"/>
<path d="M3437 3113 c-6 -103 1 -1294 7 -1300 8 -9 124 139 170 218 106 178
141 312 133 523 -6 194 -47 328 -144 472 -46 69 -142 184 -154 184 -3 0 -9
-44 -12 -97z"/>
<path d="M3820 2495 l0 -435 530 0 530 0 0 -405 c0 -223 -2 -405 -4 -405 -2 0
-18 22 -36 50 -54 84 -181 195 -274 240 -124 59 -191 73 -321 67 -160 -8 -281
-53 -408 -153 -144 -113 -245 -324 -247 -516 l0 -48 65 0 65 0 0 53 c0 129 54
253 156 354 75 77 152 121 256 149 70 18 199 18 273 -1 186 -49 343 -213 377
-393 6 -31 12 -63 14 -69 2 -10 38 -13 134 -13 l130 0 0 621 0 621 -134 152
c-74 83 -217 243 -318 356 l-184 205 -302 3 -302 2 0 -435z m678 70 c85 -93
183 -203 219 -242 l65 -73 -386 0 -386 0 0 245 0 245 167 -2 167 -3 154 -170z"/>
<path d="M440 1505 l0 -105 286 0 286 0 -43 -47 c-86 -98 -159 -292 -159 -426
l0 -47 64 0 c72 0 76 4 76 78 1 148 108 330 245 417 95 61 158 78 280 79 166
1 275 -42 386 -153 111 -111 165 -247 157 -392 l-5 -77 286 -160 c364 -204
344 -194 423 -200 105 -7 106 -7 586 261 l162 91 0 48 c0 26 -3 48 -7 48 -4 0
-152 -79 -329 -176 -313 -170 -324 -175 -383 -176 -41 -1 -71 5 -98 19 -49 25
-452 250 -478 268 -17 10 -21 25 -23 86 -6 149 -59 295 -145 402 l-47 57 761
0 762 0 36 27 c28 21 195 157 220 179 2 2 -739 4 -1647 4 l-1652 0 0 -105z"/>
<path d="M4207 1340 c-78 -10 -190 -67 -250 -127 -187 -185 -160 -499 55 -643
78 -52 153 -74 245 -73 172 3 312 94 386 251 30 63 32 73 32 182 0 104 -3 120
-27 173 -37 79 -78 129 -141 170 -88 58 -189 80 -300 67z m148 -184 c71 -32
109 -68 139 -128 63 -126 7 -301 -116 -362 -107 -53 -269 -26 -331 56 -43 56
-57 101 -57 187 0 67 4 87 28 132 62 119 216 172 337 115z"/>
<path d="M4190 1049 c-108 -47 -130 -179 -45 -264 63 -62 156 -56 226 14 102
101 28 273 -116 271 -11 -1 -40 -10 -65 -21z"/>
<path d="M1355 1323 c-207 -74 -333 -276 -298 -479 40 -234 252 -386 483 -346
229 39 372 224 358 463 -8 144 -97 273 -234 340 -60 30 -78 34 -163 36 -73 3
-108 -1 -146 -14z m237 -176 c53 -21 112 -81 134 -133 17 -41 18 -133 2 -188
-8 -26 -33 -62 -68 -98 -86 -88 -182 -107 -295 -59 -195 85 -196 382 -1 475
80 38 144 39 228 3z"/>
<path d="M1427 1066 c-75 -27 -117 -88 -117 -166 0 -49 17 -84 59 -124 25 -24
42 -30 90 -34 98 -7 153 32 183 131 36 118 -96 236 -215 193z"/>
</g>
</svg>
