<?xml version="1.0" standalone="no"?>
<!DOCTYPE svg PUBLIC "-//W3C//DTD SVG 20010904//EN"
 "http://www.w3.org/TR/2001/REC-SVG-20010904/DTD/svg10.dtd">
<svg version="1.0" xmlns="http://www.w3.org/2000/svg"
 width="1400.000000pt" height="1600.000000pt" viewBox="0 0 1400.000000 1600.000000"
 preserveAspectRatio="xMidYMid meet">

<g transform="translate(0.000000,1600.000000) scale(0.100000,-0.100000)"
fill="#537d9c" stroke="none">
<path d="M6888 14930 c-65 -11 -142 -37 -208 -70 -84 -42 -5407 -3117 -5470
-3160 -176 -120 -286 -311 -310 -537 -7 -67 -10 -1101 -8 -3238 4 -3539 -5
-3182 83 -3361 52 -104 127 -193 219 -258 33 -24 313 -190 621 -368 308 -179
601 -349 650 -380 50 -30 146 -86 215 -123 136 -74 407 -231 590 -342 63 -38
156 -91 205 -118 128 -69 807 -460 885 -510 36 -23 171 -102 300 -175 129 -73
521 -298 870 -499 349 -201 752 -432 895 -515 143 -82 294 -162 336 -177 186
-68 386 -56 563 33 80 40 5396 3110 5466 3157 115 76 212 196 267 331 57 141
53 -75 50 3407 -2 3058 -3 3211 -20 3268 -45 148 -132 279 -245 370 -35 28
-397 243 -805 479 -408 235 -1354 782 -2102 1214 -748 432 -1637 945 -1975
1140 -338 196 -644 368 -680 383 -122 51 -268 70 -392 49z m274 -539 c236
-124 5328 -3074 5369 -3110 26 -22 55 -57 65 -78 18 -37 19 -125 19 -3208 l0
-3170 -22 -41 c-31 -58 -80 -97 -235 -186 -73 -42 -865 -498 -1760 -1015 -895
-516 -1745 -1005 -1890 -1088 -144 -82 -341 -197 -438 -253 -285 -169 -1070
-622 -1133 -655 -77 -41 -164 -48 -228 -20 -47 21 -918 522 -1049 603 -41 25
-181 106 -310 180 -402 228 -1034 592 -1060 610 -28 20 -665 388 -1050 608
-140 80 -367 210 -505 290 -137 80 -324 188 -415 240 -795 455 -1025 591
-1056 622 -21 19 -45 53 -55 75 -18 38 -19 162 -19 3200 l0 3160 24 51 c13 28
40 64 62 81 22 17 1142 667 2489 1445 3056 1765 2914 1683 2950 1696 17 6 58
11 92 11 57 1 72 -4 155 -48z"/>
<path d="M6960 13986 c-19 -6 -388 -216 -820 -466 -432 -249 -985 -569 -1230
-710 -245 -141 -899 -519 -1455 -840 -555 -321 -1149 -664 -1320 -762 -170
-99 -321 -189 -334 -201 -54 -50 -51 145 -51 -3012 0 -3213 -5 -2968 61 -3017
32 -24 331 -199 939 -548 140 -81 527 -304 860 -497 333 -193 857 -496 1165
-673 624 -360 1253 -723 1720 -993 433 -251 464 -267 511 -267 43 0 25 -10
584 313 162 94 538 310 835 482 297 171 761 439 1030 595 733 424 1779 1028
2225 1285 526 303 534 308 554 349 15 31 16 289 16 2970 0 2531 -2 2941 -14
2971 -10 23 -33 46 -68 68 -54 34 -409 240 -2838 1642 -751 433 -1565 904
-1810 1045 -390 225 -494 281 -519 280 -3 -1 -22 -7 -41 -14z m395 -871 c258
-148 1793 -1034 3435 -1983 261 -151 562 -324 669 -385 130 -76 202 -123 220
-146 l26 -34 3 -2545 c1 -1690 -1 -2557 -8 -2582 -6 -20 -22 -49 -36 -63 -15
-15 -247 -154 -518 -310 -2276 -1315 -2085 -1207 -2119 -1207 -55 0 -60 23
-68 328 -7 297 -10 314 -65 424 -41 82 -44 129 -10 156 15 11 76 29 163 46
406 80 742 262 1023 552 52 55 122 135 155 179 83 111 199 305 236 395 68 164
87 182 231 211 132 27 209 68 303 163 84 85 120 144 152 253 16 53 18 145 21
1033 2 694 0 998 -8 1054 -15 103 -42 175 -98 259 -69 105 -159 169 -307 217
-82 26 -121 59 -136 114 -6 23 -9 102 -7 185 4 196 3 194 237 435 196 201 238
255 272 352 30 84 36 220 14 304 -40 154 -141 278 -286 349 -185 90 -373 74
-545 -48 -87 -61 -639 -618 -683 -688 -77 -124 -91 -209 -91 -581 0 -367 -3
-375 -133 -422 -208 -75 -318 -180 -384 -367 l-28 -78 0 -1030 c0 -953 1
-1035 18 -1094 34 -125 88 -201 230 -328 40 -36 47 -48 47 -79 0 -47 -27 -84
-104 -139 -143 -102 -279 -144 -496 -152 -163 -6 -204 3 -237 53 -17 27 -18
121 -23 2289 l-5 2260 -27 80 c-49 144 -147 259 -273 321 -138 68 21 64 -2425
64 -1440 0 -2238 -4 -2280 -10 -85 -13 -214 -77 -282 -139 -61 -56 -119 -148
-151 -241 l-22 -65 -5 -2686 c-4 -2256 -7 -2689 -19 -2702 -30 -37 -69 -21
-321 124 -135 78 -257 152 -272 166 -17 16 -31 44 -37 75 -13 60 -15 5020 -2
5086 5 25 20 56 37 73 15 16 150 100 299 186 692 400 2974 1717 3530 2038 341
197 650 376 688 398 86 51 134 68 172 61 17 -3 165 -84 330 -179z m475 -2474
c150 -12 224 -55 274 -161 l21 -45 5 -2375 c4 -1752 8 -2382 16 -2400 18 -38
58 -71 101 -81 53 -12 460 -11 561 1 195 25 353 83 511 187 234 155 460 485
412 601 -18 43 -57 60 -166 71 -170 17 -257 83 -285 214 -7 36 -10 351 -8
1027 3 971 3 975 24 1020 26 55 86 114 138 135 22 9 96 22 166 29 141 14 173
28 199 86 14 30 17 101 21 490 l5 455 29 60 c24 50 75 106 310 341 221 221
293 287 335 307 142 69 304 4 352 -140 18 -55 6 -145 -27 -201 -15 -26 -121
-142 -235 -258 -114 -117 -218 -231 -231 -255 -23 -43 -23 -50 -26 -399 -2
-235 0 -367 8 -392 13 -44 59 -85 103 -92 18 -3 77 -9 133 -14 112 -11 160
-30 211 -84 71 -73 66 -12 76 -1038 9 -974 7 -1052 -34 -1132 -53 -106 -116
-138 -292 -149 -217 -13 -227 -21 -297 -237 -58 -180 -108 -290 -186 -409
-211 -326 -535 -565 -910 -673 -156 -46 -295 -61 -604 -67 -324 -6 -346 -10
-379 -64 -41 -67 -39 -259 3 -321 32 -48 63 -59 194 -68 128 -9 172 -23 227
-72 45 -39 70 -87 84 -163 14 -75 15 -637 1 -686 -15 -53 -45 -78 -198 -167
-231 -134 -244 -139 -278 -101 -17 19 -19 44 -24 303 -3 186 -9 288 -17 301
-26 45 -60 66 -124 75 -37 5 -803 10 -1778 10 l-1714 0 -51 23 c-48 22 -346
192 -651 372 -77 45 -223 129 -324 186 -101 57 -202 120 -225 140 l-41 37 -5
433 c-3 239 -3 1494 0 2789 l5 2355 27 51 c51 97 116 133 258 144 133 10 4171
11 4300 1z"/>
<path d="M3820 10112 c-22 -10 -43 -32 -55 -57 -20 -40 -20 -57 -17 -2685 2
-2476 4 -2647 20 -2679 9 -19 30 -44 45 -55 l28 -21 1837 0 1837 0 37 23 c75
46 69 -198 66 2752 -3 2531 -4 2647 -21 2673 -10 16 -32 37 -50 47 -31 20 -66
20 -1862 20 -1722 0 -1832 -1 -1865 -18z m2887 -587 c77 -23 145 -91 170 -171
16 -54 18 -107 18 -614 0 -507 -2 -559 -18 -606 -24 -69 -75 -126 -139 -155
l-53 -24 -984 -3 c-1106 -3 -1055 -6 -1136 69 -23 22 -53 63 -66 92 l-24 52 0
575 c0 540 1 578 19 624 23 60 76 120 130 149 40 21 54 22 441 27 220 3 667 4
993 3 511 -2 601 -4 649 -18z m-969 -2010 c11 -13 43 -80 72 -147 29 -68 81
-187 116 -266 85 -189 84 -209 -7 -223 -62 -10 -77 -23 -89 -75 -12 -50 6
-848 20 -910 21 -93 59 -144 139 -184 79 -40 186 -37 279 7 54 26 78 100 53
166 -24 62 -62 268 -71 376 -4 65 -15 129 -22 140 -7 12 -31 26 -53 32 -61 17
-70 23 -73 60 -2 27 16 68 84 194 47 88 97 172 112 188 32 33 66 35 95 3 27
-29 184 -315 193 -352 12 -48 -3 -73 -51 -85 -25 -6 -52 -21 -60 -32 -44 -63
10 -307 130 -585 97 -228 81 -261 -185 -375 -58 -24 -152 -61 -210 -82 -146
-52 -191 -77 -238 -130 -42 -48 -46 -60 -57 -159 -10 -85 -38 -112 -130 -121
-83 -9 -222 -1 -258 16 -34 15 -57 65 -57 123 0 84 -43 153 -125 201 -22 13
-101 46 -176 73 -213 77 -347 141 -396 188 -63 60 -61 99 17 284 97 230 152
447 136 535 -7 36 -11 39 -98 74 -49 19 -39 63 55 239 91 170 122 212 160 212
36 0 61 -35 160 -218 109 -201 112 -230 24 -246 -21 -4 -47 -16 -57 -26 -19
-19 -21 -28 -40 -213 -6 -60 -25 -163 -41 -230 -47 -184 -41 -215 48 -258 38
-19 65 -24 129 -24 70 0 88 4 139 30 78 40 119 99 135 195 8 46 12 221 13 500
2 486 7 458 -79 467 -27 3 -55 10 -61 16 -25 19 -12 72 56 226 38 86 88 201
111 256 59 141 75 165 110 165 18 0 35 -9 48 -25z"/>
<path d="M5054 9021 c-70 -32 -79 -64 -79 -276 0 -203 8 -230 75 -270 34 -20
50 -20 635 -20 l600 0 36 23 c58 35 64 62 64 279 0 178 -1 194 -21 220 -47 65
-28 63 -679 63 -553 0 -593 -2 -631 -19z"/>
<path d="M9901 8350 c-44 -11 -82 -39 -102 -77 -14 -27 -17 -110 -22 -619 -6
-559 -5 -590 13 -630 32 -74 46 -79 275 -82 226 -3 252 3 290 68 20 34 20 50
20 640 0 590 0 606 -20 640 -36 62 -68 70 -255 69 -91 -1 -180 -5 -199 -9z"/>
</g>
</svg>
