<?xml version="1.0" standalone="no"?>
<!DOCTYPE svg PUBLIC "-//W3C//DTD SVG 20010904//EN"
 "http://www.w3.org/TR/2001/REC-SVG-20010904/DTD/svg10.dtd">
<svg version="1.0" xmlns="http://www.w3.org/2000/svg"
 width="920.000000pt" height="600.000000pt" viewBox="0 0 920.000000 600.000000"
 preserveAspectRatio="xMidYMid meet">

<g transform="translate(0.000000,600.000000) scale(0.100000,-0.100000)"
fill="#014e87" stroke="none">
<path d="M4380 5794 c-1004 -91 -1853 -668 -2291 -1559 -134 -273 -214 -528
-261 -830 -29 -190 -32 -598 -5 -780 93 -622 356 -1156 785 -1589 445 -449
982 -719 1617 -813 169 -25 581 -25 750 0 532 79 996 282 1400 613 675 553
1049 1380 1022 2254 -9 297 -58 556 -157 845 -50 147 -185 424 -274 563 -441
692 -1144 1149 -1956 1273 -131 20 -511 34 -630 23z m459 -1125 c559 -143 885
-719 714 -1263 -137 -438 -562 -733 -1013 -702 -456 30 -821 349 -921 801 -20
91 -18 313 5 410 85 374 369 663 737 754 115 28 136 30 274 26 80 -3 148 -11
204 -26z m-57 -2279 c668 -65 1268 -490 1543 -1095 l34 -74 -86 -77 c-376
-335 -825 -544 -1328 -620 -147 -22 -513 -25 -650 -6 -535 77 -979 280 -1369
627 l-85 76 34 74 c81 178 208 364 354 518 396 417 977 633 1553 577z"/>
</g>
</svg>
